<svg xmlns="http://www.w3.org/2000/svg" xmlns:xlink="http://www.w3.org/1999/xlink" width="205" height="160.21" viewBox="0 0 205 160.21"><defs><style>.a{fill:none;}.b{clip-path:url(#a);}.c{fill:#fbd9c7;}.d{fill:#f9ceb8;}.e{fill:#bd6e6c;}.f{fill:#f6b798;}.g{fill:#fff;}.h{fill:#d57db0;}.i{fill:#f4a785;}.j{fill:#f8c6ad;}.k{fill:#ef857d;}.l{fill:#006ba6;}.m{fill:#e50057;}.n{fill:#555e6d;}.o{fill:#ef8d9e;}.p{fill:#e9508a;}.q{fill:#6c7fbe;}</style><clipPath id="a"><rect class="a" width="205" height="160.21"/></clipPath></defs><g transform="translate(-1668.458 -6635.294)"><g class="b" transform="translate(1668.458 6635.294)"><g transform="translate(6.918 6.443)"><path class="c" d="M1714.252,6659.151s-7.944-1.031-12.734-2.851-9.339.364-9.824,1.152a.922.922,0,0,0,.182,1.273s-1.334,0-1.213.97a1.068,1.068,0,0,0,.91,1.031s-1.273.061-1.273.728a1.42,1.42,0,0,0,1.213,1.273s-1.637.545-1.273,1.334,3.274.545,3.274.545,6.367-.909,6.428.243-.364.121-3.7.546c-1.711.217-2.368.77-2.6,1.257a.465.465,0,0,0,.525.649,5.983,5.983,0,0,1,3.048.216,13.317,13.317,0,0,0,8-.061c3.4-.91,10.127-2.426,10.127-2.426Z" transform="translate(-1690.023 -6655.422)"/><path class="c" d="M1700.587,6667.9a12.948,12.948,0,0,1-3.759-.588,5.824,5.824,0,0,0-2.965-.214.628.628,0,0,1-.71-.879c.342-.708,1.26-1.161,2.729-1.348a11.074,11.074,0,0,1,3.035-.016,1.332,1.332,0,0,0,.495.02c.017-.016.042-.085.027-.379a.17.17,0,0,0-.077-.127c-.717-.589-4.693-.173-6.165.038-.514.043-3.054.21-3.446-.639a.679.679,0,0,1-.008-.577,1.937,1.937,0,0,1,.949-.805,1.535,1.535,0,0,1-.9-1.294c0-.472.46-.694.858-.8a1.357,1.357,0,0,1-.493-.939.872.872,0,0,1,.2-.718,1.44,1.44,0,0,1,.83-.4,1.084,1.084,0,0,1,.021-1.229c.479-.778,5.01-3.122,10.02-1.219,4.718,1.792,12.618,2.83,12.7,2.84a.163.163,0,0,1,.139.132l1.092,5.882a.163.163,0,0,1-.124.188c-.067.016-6.767,1.526-10.121,2.424A16.657,16.657,0,0,1,1700.587,6667.9Zm-5.761-1.231a7.468,7.468,0,0,1,2.094.331,13.172,13.172,0,0,0,7.916-.062c3.077-.824,8.958-2.161,9.98-2.392l-1.041-5.612c-1.008-.137-8.218-1.159-12.654-2.843-4.825-1.833-9.228.436-9.627,1.085a.751.751,0,0,0,.139,1.057.164.164,0,0,1-.1.295,1.454,1.454,0,0,0-.928.325.555.555,0,0,0-.123.461.91.91,0,0,0,.761.889.163.163,0,0,1-.006.325c-.29.015-1.118.149-1.118.565a1.254,1.254,0,0,0,1.068,1.111.163.163,0,0,1,.033.317c-.272.09-1.014.412-1.182.8a.356.356,0,0,0,0,.31c.23.5,2.031.542,3.113.452.546-.079,5.451-.752,6.409.035a.494.494,0,0,1,.195.361c.017.318,0,.514-.13.636-.151.14-.367.113-.758.065a10.766,10.766,0,0,0-2.953.016c-1.685.214-2.277.752-2.477,1.166a.288.288,0,0,0,.038.313.3.3,0,0,0,.3.106A4.487,4.487,0,0,1,1694.826,6666.673Z" transform="translate(-1689.684 -6655.062)"/></g><g transform="translate(6.918 6.443)"><path class="d" d="M1711.191,6665.99a33.259,33.259,0,0,1-9.125-9.489c-.187-.066-.37-.132-.548-.2-4.791-1.819-9.339.364-9.824,1.152a.922.922,0,0,0,.182,1.273s-1.334,0-1.213.97a1.068,1.068,0,0,0,.91,1.031s-1.273.061-1.273.728a1.419,1.419,0,0,0,1.213,1.273s-1.637.545-1.273,1.334,3.274.545,3.274.545,6.367-.909,6.428.243-.364.121-3.7.546c-1.711.217-2.368.77-2.6,1.257a.465.465,0,0,0,.525.649,5.983,5.983,0,0,1,3.048.216,13.317,13.317,0,0,0,8-.061C1706.818,6667.03,1709.162,6666.466,1711.191,6665.99Z" transform="translate(-1690.023 -6655.422)"/><path class="d" d="M1700.587,6667.9a12.948,12.948,0,0,1-3.759-.588,5.824,5.824,0,0,0-2.965-.214.628.628,0,0,1-.71-.879c.342-.708,1.26-1.161,2.729-1.348a11.074,11.074,0,0,1,3.035-.016,1.332,1.332,0,0,0,.495.02c.017-.016.042-.085.027-.379a.17.17,0,0,0-.077-.127c-.717-.589-4.693-.173-6.165.038-.514.043-3.054.21-3.446-.639a.679.679,0,0,1-.008-.577,1.937,1.937,0,0,1,.949-.805,1.535,1.535,0,0,1-.9-1.294c0-.472.46-.694.858-.8a1.357,1.357,0,0,1-.493-.939.872.872,0,0,1,.2-.718,1.44,1.44,0,0,1,.83-.4,1.084,1.084,0,0,1,.021-1.229c.479-.778,5.01-3.122,10.02-1.219.177.067.359.133.544.2a.159.159,0,0,1,.083.066,33.046,33.046,0,0,0,9.079,9.442.163.163,0,0,1-.054.293c-1.8.422-4.292,1.019-5.97,1.468A16.657,16.657,0,0,1,1700.587,6667.9Zm-5.761-1.231a7.468,7.468,0,0,1,2.094.331,13.172,13.172,0,0,0,7.916-.062c1.571-.42,3.857-.97,5.619-1.385a33.5,33.5,0,0,1-8.834-9.28q-.255-.09-.5-.182c-4.825-1.833-9.228.436-9.627,1.085a.751.751,0,0,0,.139,1.057.164.164,0,0,1-.1.295,1.454,1.454,0,0,0-.928.325.555.555,0,0,0-.123.461.91.91,0,0,0,.761.889.163.163,0,0,1-.006.325c-.29.015-1.118.149-1.118.565a1.254,1.254,0,0,0,1.068,1.111.163.163,0,0,1,.033.317c-.272.09-1.014.412-1.182.8a.356.356,0,0,0,0,.31c.23.5,2.031.542,3.113.452.546-.079,5.451-.752,6.409.035a.494.494,0,0,1,.195.361c.017.318,0,.514-.13.636-.151.14-.367.113-.758.065a10.766,10.766,0,0,0-2.953.016c-1.685.214-2.277.752-2.477,1.166a.288.288,0,0,0,.038.313.3.3,0,0,0,.3.106A4.487,4.487,0,0,1,1694.826,6666.673Z" transform="translate(-1689.684 -6655.062)"/></g><g transform="translate(35.99 34.009)"><path class="d" d="M1785.278,6753.432c-1.613-1.471,2.875,6.254,1.826,7.926s-.825-.465-2.067-3.2a106.557,106.557,0,0,0-5.658-9.318l3.087-8.706s7.724,6.473,10.2,10.58,4.18,14.029,4.18,14.029l-5.107,1.062S1788.092,6756,1785.278,6753.432Z" transform="translate(-1779.216 -6739.975)"/><path class="d" d="M1791.406,6765.634a.164.164,0,0,1-.153-.106c-.036-.1-3.67-9.8-6.423-12.313h0c-.023-.021-.044-.039-.062-.054a19.062,19.062,0,0,0,.714,1.895c.918,2.242,2.062,5.033,1.422,6.052-.316.5-.532.7-.766.664-.328-.047-.462-.517-.707-1.368a17.582,17.582,0,0,0-.881-2.511,107.02,107.02,0,0,0-5.644-9.3.164.164,0,0,1-.019-.146l3.087-8.705a.165.165,0,0,1,.111-.1.159.159,0,0,1,.148.032c.077.065,7.774,6.538,10.24,10.62s4.184,13.987,4.2,14.086a.163.163,0,0,1-.128.187l-5.107,1.062A.152.152,0,0,1,1791.406,6765.634Zm-6.356-12.66c2.667,2.432,6,11.084,6.459,12.309l4.815-1c-.229-1.276-1.863-10.062-4.131-13.817-2.229-3.69-8.817-9.387-9.991-10.387l-2.981,8.406a104.227,104.227,0,0,1,5.625,9.274,17.821,17.821,0,0,1,.9,2.556c.136.472.321,1.118.439,1.135.005,0,.114.013.445-.514.551-.877-.652-3.813-1.448-5.755-.748-1.826-.887-2.232-.656-2.394.181-.126.4.079.525.189Z" transform="translate(-1778.879 -6739.637)"/></g><g transform="translate(11.374 24.991)"><path class="e" d="M1715.643,6712.471s6.387,20.307-11.789,18.677c0,0,7.3,17.108,22.827,5.88C1733.432,6732.145,1715.643,6712.471,1715.643,6712.471Z" transform="translate(-1703.691 -6712.307)"/><path class="e" d="M1716.327,6740.672a11.362,11.362,0,0,1-3.05-.413c-6.625-1.839-9.879-9.31-9.911-9.385a.163.163,0,0,1,.018-.16.165.165,0,0,1,.147-.066c4.827.435,8.333-.663,10.42-3.256,4.252-5.282,1.229-15.111,1.2-15.209a.163.163,0,0,1,.276-.159c.545.6,13.328,14.831,12.578,21.963a3.827,3.827,0,0,1-1.565,2.834C1722.9,6739.384,1719.507,6740.672,1716.327,6740.672ZM1703.781,6731c.625,1.306,3.793,7.343,9.585,8.949,3.93,1.09,8.264-.049,12.882-3.387a3.516,3.516,0,0,0,1.432-2.6c.654-6.229-9.679-18.484-12.027-21.18a29.229,29.229,0,0,1,.835,5c.219,2.916,0,6.987-2.282,9.824C1712.087,6730.229,1708.582,6731.372,1703.781,6731Z" transform="translate(-1703.353 -6711.97)"/></g><g transform="translate(97.369 11.014)"><path class="f" d="M1987.408,6713.94l-1.192-44.309-18.277,2.207-.2,36.936Z" transform="translate(-1967.56 -6669.454)"/><path class="f" d="M1987.04,6713.75a.182.182,0,0,1-.045-.006l-19.67-5.166a.177.177,0,0,1-.133-.173l.2-36.935a.178.178,0,0,1,.156-.176l18.277-2.208a.182.182,0,0,1,.138.042.179.179,0,0,1,.062.13l1.192,44.308a.178.178,0,0,1-.178.183Zm-19.492-5.481,19.307,5.07-1.181-43.876-17.927,2.166Z" transform="translate(-1967.192 -6669.085)"/></g><g transform="translate(85.137 140.599)"><path class="g" d="M1932.907,7066.816s-3.358,3.079-3.078,19.591c.111,6.564,2.119,13.173,2.8,18.753a105.931,105.931,0,0,1,.84,14.553h44.5l.28-50.378Z" transform="translate(-1929.764 -7066.766)"/><path class="g" d="M1977.867,7119.658h-44.5a.048.048,0,0,1-.035-.015.051.051,0,0,1-.014-.036,106.851,106.851,0,0,0-.839-14.544c-.254-2.083-.688-4.288-1.149-6.623a69.153,69.153,0,0,1-1.651-12.136c-.08-4.711.1-11.312,1.436-16,.8-2.815,1.624-3.595,1.658-3.626.01-.009.02-.018.036-.013l45.34,2.519a.049.049,0,0,1,.046.049l-.28,50.378A.049.049,0,0,1,1977.867,7119.658Zm-44.45-.1h44.4l.28-50.282-45.272-2.515c-.235.247-3.315,3.8-3.049,19.54a69.084,69.084,0,0,0,1.649,12.119c.461,2.337.9,4.544,1.15,6.629A108.076,108.076,0,0,1,1933.417,7119.561Z" transform="translate(-1929.664 -7066.663)"/></g><path class="h" d="M1973.828,6796.2c1.12,4.1.373,25.935.373,25.935l-6.717-.187v63.439s-32.513,3.96-53.784-2.571c0,0,9.377-16.8,6.951-35.12-1.866-14.087-5.556-34.383-7.188-46.969a8.99,8.99,0,0,1,8.388-10.131s22.31.378,32.572.378S1972.709,6792.09,1973.828,6796.2Z" transform="translate(-1833.557 -6739.975)"/><g transform="translate(101.669 47.109)"><path class="f" d="M1985.748,6780.3l-4.851,20.338s24.544.3,29.294.56c10.262.56,35.637-3.545,40.3-2.239s18.1,7.09,19.778,6.531,1.493-2.8,1.493-2.8,2.8.933,3.359-1.866c.186-.933,0-1.119,0-1.119s2.985.933,3.545-.747-.373-2.425-1.119-2.612a42.869,42.869,0,0,1-4.292-2.239l.28-.84s4.945,2.426,6.344,2.893,5.038-1.307,1.959-2.706-6.437-3.358-6.437-3.358a5.81,5.81,0,0,0,2.052-1.772c1.119-1.4-.56-.467-3.918-1.4s-7.277-3.172-11.661-2.426-12.33,3.373-22.2,2.706C2029.315,6786.5,1985.5,6780.125,1985.748,6780.3Z" transform="translate(-1980.73 -6780.142)"/><path class="f" d="M2069.62,6805.377c-1.469,0-5.6-1.51-11.532-3.74-3.2-1.2-6.217-2.339-7.985-2.833-2.374-.666-10.331.1-18.756.918-8.124.785-16.524,1.6-21.51,1.326-4.692-.256-29.041-.556-29.286-.56a.166.166,0,0,1-.161-.206l4.847-20.319a.153.153,0,0,1,.01-.043c.058-.147.058-.147,2.881.234,1.708.231,4.137.567,7.027.966,13.826,1.912,36.966,5.111,44.182,5.6a62.515,62.515,0,0,0,18.687-1.975c1.336-.3,2.49-.561,3.478-.729,3.292-.56,6.338.545,9.025,1.52.949.345,1.845.67,2.709.91a14.452,14.452,0,0,0,3.191.491c.7.043,1.052.064,1.166.321.1.22-.063.489-.354.853a6.934,6.934,0,0,1-1.834,1.676c.852.487,3.616,2.043,6.157,3.2,1.336.607,1.409,1.265,1.234,1.708-.38.97-2.359,1.628-3.315,1.309-1.263-.421-5.295-2.378-6.193-2.816l-.176.529a36.665,36.665,0,0,0,4.13,2.153,1.861,1.861,0,0,1,1.192.89,2.379,2.379,0,0,1,.046,1.937c-.5,1.5-2.664,1.128-3.461.933a3.221,3.221,0,0,1-.079.913,2.554,2.554,0,0,1-1.167,1.82,3.1,3.1,0,0,1-2.184.232c-.007.613-.164,2.255-1.612,2.738A1.147,1.147,0,0,1,2069.62,6805.377Zm-22.507-7.158a12.8,12.8,0,0,1,3.081.262c1.781.5,4.807,1.637,8.011,2.842,5.008,1.884,10.683,4.018,11.668,3.691,1.537-.512,1.381-2.6,1.379-2.626a.167.167,0,0,1,.219-.172,2.965,2.965,0,0,0,2.137-.144,2.239,2.239,0,0,0,1-1.6c.155-.779.034-.981.033-.983a.155.155,0,0,1-.019-.2.174.174,0,0,1,.2-.066c.029.008,2.836.864,3.337-.64a2.062,2.062,0,0,0-.022-1.67,1.555,1.555,0,0,0-.98-.727,41.472,41.472,0,0,1-4.335-2.256.166.166,0,0,1-.075-.2l.28-.84a.167.167,0,0,1,.232-.1c.049.024,4.95,2.426,6.323,2.883.807.269,2.587-.319,2.9-1.113.22-.561-.456-1.006-1.062-1.281-3.051-1.387-6.418-3.347-6.452-3.366a.168.168,0,0,1,.022-.3,5.744,5.744,0,0,0,1.984-1.722c.314-.393.312-.493.309-.509a2.643,2.643,0,0,0-.88-.122,14.775,14.775,0,0,1-3.261-.5c-.876-.243-1.779-.57-2.734-.917-2.648-.961-5.65-2.049-8.855-1.5-.979.167-2.128.426-3.46.726a62.8,62.8,0,0,1-18.783,1.982c-7.229-.489-30.376-3.689-44.206-5.6-4.889-.676-8.827-1.221-9.576-1.3l-4.771,20c2.4.03,24.625.313,29.092.557,4.958.27,13.347-.541,21.46-1.325C2037.491,6798.792,2043.417,6798.219,2047.112,6798.219Z" transform="translate(-1980.385 -6779.83)"/></g><path class="h" d="M1926.671,6759.832s-12.314-10.262-20.337-9.889-19.979,13.289-8.024,29.92c13.527,18.818,19.592,17.1,19.592,17.1Z" transform="translate(-1819.985 -6712.568)"/><g transform="translate(130.898 50.41)"><path class="i" d="M2070.574,6790.47l2.48,17.636c2.725-.013,6.07-.22,9.645-.512a21.722,21.722,0,0,1-2.171-8.5,17.364,17.364,0,0,1,.937-7.179C2077.917,6791.457,2074.2,6790.961,2070.574,6790.47Z" transform="translate(-2070.407 -6790.302)"/><path class="i" d="M2072.709,6807.926a.167.167,0,0,1-.166-.144l-2.48-17.635a.167.167,0,0,1,.188-.189c4.08.553,7.642,1.026,10.89,1.448a.167.167,0,0,1,.122.08.164.164,0,0,1,.013.145,17.282,17.282,0,0,0-.927,7.111,21.463,21.463,0,0,0,2.154,8.43.168.168,0,0,1-.135.242c-4.141.338-7.21.5-9.658.512Zm-2.284-17.607,2.428,17.272c2.366-.017,5.314-.173,9.241-.49a21.951,21.951,0,0,1-2.079-8.339,17.811,17.811,0,0,1,.875-7.05C2077.756,6791.3,2074.328,6790.847,2070.425,6790.319Z" transform="translate(-2070.062 -6789.956)"/></g><g transform="translate(118.65 21.435)"><path class="j" d="M2037.716,6728.162c-.969-4.867-4.884-9.482-4.711-13.123l.3-6.37c.093-1.95,2.639-2.221,2.639-2.221a3.745,3.745,0,0,1,3.128-1.285c1.717.343.974-.865,2.6-1.31s2.376.5,3.174.542.922-2.562,3.867-2.813,2.668,5.6,2.668,5.6-.47-1.325,2.113-2.375.628.812.632,3.548.29,7.962-.855,9.6-4.377,5.135-4.525,8.255,9.262,29.626,9.91,35.651-4.01,14.273-8.432,14.715-10.737-4.157-10.532-16.917S2037.716,6728.162,2037.716,6728.162Z" transform="translate(-2032.832 -6701.406)"/><path class="j" d="M2049.292,6776.425a8.018,8.018,0,0,1-5.323-2.269c-3.2-2.94-4.9-8.213-4.792-14.847.2-12.515-1.921-31.025-1.972-31.468a27.32,27.32,0,0,0-2.5-6.431c-1.185-2.425-2.3-4.715-2.209-6.727l.3-6.37c.089-1.886,2.31-2.308,2.723-2.37a3.8,3.8,0,0,1,3.244-1.292c.84.167.988-.043,1.235-.392a2.044,2.044,0,0,1,1.283-.916,3.261,3.261,0,0,1,2.443.283,2.3,2.3,0,0,0,.783.252c.174.02.365-.279.6-.645a3.929,3.929,0,0,1,3.249-2.168,1.9,1.9,0,0,1,1.547.54c.943.909,1.215,2.751,1.287,3.991a4.291,4.291,0,0,1,1.9-1.3c.835-.339,1.223-.393,1.435-.2.245.224.11.662-.093,1.324a8.618,8.618,0,0,0-.479,2.578c0,.413.008.882.015,1.388.043,2.9.1,6.873-.9,8.31-.219.313-.509.688-.844,1.122-1.407,1.819-3.533,4.568-3.651,7.045-.071,1.5,2.141,8.61,4.483,16.145,2.5,8.055,5.093,16.383,5.426,19.48.394,3.661-1.191,8.508-3.853,11.786-1.5,1.854-3.185,2.959-4.728,3.113C2049.694,6776.415,2049.493,6776.425,2049.292,6776.425Zm-11.043-71.488a3.873,3.873,0,0,0-2.523,1.274.172.172,0,0,1-.109.057c-.024,0-2.405.279-2.49,2.062l-.3,6.371c-.092,1.925,1.01,4.178,2.175,6.563a27.559,27.559,0,0,1,2.533,6.52s0,.009,0,.013c.021.188,2.177,18.894,1.974,31.518-.1,6.538,1.559,11.721,4.684,14.6a7.444,7.444,0,0,0,5.664,2.152c1.454-.145,3.053-1.208,4.5-2.991,2.61-3.215,4.165-7.959,3.78-11.539-.33-3.065-2.914-11.378-5.413-19.417-2.351-7.563-4.572-14.706-4.5-16.26.123-2.582,2.288-5.381,3.72-7.233.333-.43.621-.8.835-1.109.941-1.348.88-5.419.84-8.113-.008-.507-.014-.979-.015-1.393a8.879,8.879,0,0,1,.495-2.676c.123-.4.276-.9.187-.979-.033-.029-.2-.1-1.083.262-1.432.582-1.877,1.229-2,1.664,0,.32-.006.53-.007.564a.167.167,0,0,1-.325.048,1.2,1.2,0,0,1,0-.642c-.017-1.086-.177-3.41-1.205-4.4a1.57,1.57,0,0,0-1.286-.447,3.6,3.6,0,0,0-3,2.014c-.281.446-.5.8-.867.8h-.027a2.6,2.6,0,0,1-.9-.282,2.947,2.947,0,0,0-2.219-.266,1.733,1.733,0,0,0-1.1.787c-.269.378-.522.734-1.574.526A2.258,2.258,0,0,0,2038.249,6704.938Z" transform="translate(-2032.487 -6701.06)"/></g><g transform="translate(90.44 -0.399)"><path class="j" d="M1972.432,6665.163l-.019-30.543-25.932.116.022,35.948,20.529-.094A5.425,5.425,0,0,0,1972.432,6665.163Z" transform="translate(-1946.303 -6634.44)"/><path class="j" d="M1946.135,6670.491a.179.179,0,0,1-.178-.178l-.022-35.948a.178.178,0,0,1,.177-.178l25.932-.116a.153.153,0,0,1,.126.051.178.178,0,0,1,.052.126l.019,30.542h0a5.614,5.614,0,0,1-5.577,5.606l-20.529.094Zm.156-35.949.021,35.592,20.35-.092a5.258,5.258,0,0,0,5.223-5.25l-.019-30.364Z" transform="translate(-1945.935 -6634.069)"/></g><path class="k" d="M1952.549,6719.237l.008,1.653a7.22,7.22,0,0,0,5.663-.7.726.726,0,0,0,.275-.864h0a.733.733,0,0,0-.964-.424A10.792,10.792,0,0,1,1952.549,6719.237Z" transform="translate(-1859.953 -6691.616)"/><g transform="translate(86.975 15.561)"><path class="j" d="M1944.057,6694.411l2.47-10.828-6.965.031-3.649,7.637a.658.658,0,0,0,.41.916Z" transform="translate(-1935.671 -6683.405)"/><path class="j" d="M1943.689,6694.221a.192.192,0,0,1-.05-.007l-7.733-2.245a.836.836,0,0,1-.521-1.163l3.649-7.638a.179.179,0,0,1,.16-.1l6.965-.03h0a.178.178,0,0,1,.173.217l-2.47,10.828a.178.178,0,0,1-.083.114A.181.181,0,0,1,1943.689,6694.221Zm-4.382-10.8-3.6,7.537a.48.48,0,0,0,.3.668l7.552,2.192,2.378-10.427Z" transform="translate(-1935.304 -6683.037)"/></g><g transform="translate(92.679 15.143)"><path class="l" d="M1953.592,6683.319a.56.56,0,1,1,.78-.141A.559.559,0,0,1,1953.592,6683.319Z" transform="translate(-1953.173 -6682.121)"/><path class="l" d="M1953.541,6683.229a.733.733,0,0,1-.418-.13h0a.737.737,0,0,1-.186-1.027.738.738,0,0,1,1.214.84A.746.746,0,0,1,1953.541,6683.229Zm0-1.12a.4.4,0,0,0-.068.006.382.382,0,0,0-.151.69h0a.386.386,0,0,0,.533-.1.384.384,0,0,0-.314-.6Z" transform="translate(-1952.805 -6681.753)"/></g><g transform="translate(90.495 11.76)"><path class="m" d="M1970.655,6671.919l-24.005.11.008,1.556,23.561-.106Z" transform="translate(-1946.472 -6671.741)"/><path class="m" d="M1946.29,6673.4a.178.178,0,0,1-.178-.177l-.008-1.556a.178.178,0,0,1,.177-.179l24.005-.109h0a.177.177,0,0,1,.171.226l-.437,1.56a.178.178,0,0,1-.17.13l-23.561.106Zm.171-1.557.006,1.2,23.248-.1.337-1.2Z" transform="translate(-1946.104 -6671.374)"/></g><g transform="translate(90.5 11.835)"><path class="m" d="M1954.044,6672.151l-6.543.031a.841.841,0,0,0-.836.845l.027,6.173a.844.844,0,0,0,.845.836l6.543-.03a.843.843,0,0,0,.837-.843l-.029-6.173A.845.845,0,0,0,1954.044,6672.151Zm-.39,6.6-5.7.026-.023-5.333,5.7-.027Z" transform="translate(-1946.487 -6671.974)"/><path class="m" d="M1947.164,6679.846a1.02,1.02,0,0,1-1.019-1.013l-.027-6.173a1.019,1.019,0,0,1,1.013-1.023l6.543-.03h0a1.02,1.02,0,0,1,1.019,1.015l.029,6.173a1.019,1.019,0,0,1-1.014,1.021l-6.543.03Zm6.512-7.884-6.543.031a.664.664,0,0,0-.659.666l.027,6.174a.663.663,0,0,0,.663.658h0l6.543-.03a.664.664,0,0,0,.66-.664l-.029-6.173a.664.664,0,0,0-.663-.661h0Zm-6.1,6.623a.177.177,0,0,1-.178-.177l-.023-5.333a.178.178,0,0,1,.177-.178l5.7-.027h0a.178.178,0,0,1,.178.177l.025,5.334a.179.179,0,0,1-.052.127.177.177,0,0,1-.125.052l-5.7.026Zm.156-5.334.022,4.977,5.348-.024-.023-4.978Z" transform="translate(-1946.118 -6671.606)"/></g><g transform="translate(89.248 -1.583)"><path class="n" d="M1944.029,6634.428c1.536,1.889,11.17,6.409,23.276,2.643,0,0-3.465,13.733,2.753,18.691l-.106-23.593s-18.093-.152-22.176-.152a9.473,9.473,0,0,1-4.906-1.032A4.255,4.255,0,0,0,1944.029,6634.428Z" transform="translate(-1942.649 -6630.807)"/><path class="n" d="M1969.686,6655.571a.176.176,0,0,1-.111-.039c-2.587-2.063-3.893-5.987-3.775-11.347a38.675,38.675,0,0,1,.889-7.222c-11.626,3.5-21.4-.612-23.171-2.792a4.4,4.4,0,0,1-1.194-3.6.178.178,0,0,1,.271-.106,9.446,9.446,0,0,0,4.807,1c4.037,0,22,.15,22.178.152a.177.177,0,0,1,.176.177l.106,23.592a.177.177,0,0,1-.178.179Zm-2.753-19.046a.178.178,0,0,1,.172.222c-.034.134-3.256,13.238,2.4,18.263l-.1-23.031c-1.879-.016-18.179-.151-22-.151a10.547,10.547,0,0,1-4.761-.926,4.461,4.461,0,0,0,1.153,3.046h0c1.29,1.587,10.711,6.435,23.085,2.586A.163.163,0,0,1,1966.934,6636.525Z" transform="translate(-1942.278 -6630.439)"/></g><g transform="translate(109.187 16.346)"><path class="j" d="M2014.264,6693.7l-.025-5.412a2.313,2.313,0,0,0-2.322-2.3l-7.917.033.044,10.038,7.917-.034A2.313,2.313,0,0,0,2014.264,6693.7Z" transform="translate(-2003.822 -6685.812)"/><path class="j" d="M2003.676,6695.871a.178.178,0,0,1-.178-.178l-.045-10.038a.179.179,0,0,1,.177-.178l7.917-.033h.01a2.493,2.493,0,0,1,2.49,2.479l.025,5.412h0a2.491,2.491,0,0,1-2.48,2.5l-7.917.034Zm.134-10.039.043,9.682,7.739-.032a2.135,2.135,0,0,0,2.126-2.145l-.025-5.412a2.137,2.137,0,0,0-2.135-2.125h-.009Z" transform="translate(-2003.453 -6685.444)"/></g><g transform="translate(25.713 18.054)"><path class="g" d="M1747.357,6690.812a.475.475,0,0,0-.009-.127v.011Z" transform="translate(-1747.348 -6690.685)"/></g><g transform="translate(0.928 6.281)"><path class="c" d="M1718.6,6774.979c.819-11.188,4.994-38.7,7.519-48.147,4.245-15.888,10.551-65.127,9.581-68.523s-26.2.364-33.837.485l.485,6.428,22.8,1.577s-5.579,29.834-6.549,33.594-5.094,6.186-7.4,4.73-1.819-11.522-1.577-17.464l-12.37,3.638s-.182,10.369-.182,13.1-8.429-.607-8.793-4.791S1687,6670.86,1687,6670.86l4.608,4.063,4.822-8.122s-5.247-7.221-8.7-10.131-7.762-1.88-8.308,3.214-4.063,35.171-4.063,42.812,2.062,25.1,3.7,33.109,5.942,33.292,4.123,39.476-7.277,17.828-9.46,29.017-1.91,37.657-1.91,37.657H1697c.13-2.826.5-9.462,1.158-11.916.849-3.153,2.3-4.245,4-3.518s3.881,5.215,3.881,5.215l.668,10.218h22.86a160.643,160.643,0,0,0-3.093-36.475C1723.853,6793.188,1718.27,6779.443,1718.6,6774.979Z" transform="translate(-1671.641 -6654.901)"/><path class="c" d="M1729.238,6841.78h-22.86a.164.164,0,0,1-.163-.153l-.666-10.186c-.189-.38-2.23-4.441-3.785-5.107a1.97,1.97,0,0,0-1.694-.022c-.875.424-1.6,1.61-2.087,3.432-.658,2.445-1.024,9.124-1.152,11.881a.162.162,0,0,1-.163.155h-25.19a.163.163,0,0,1-.163-.162c0-.265-.248-26.614,1.913-37.689,1.453-7.444,4.343-15.064,6.666-21.187,1.175-3.1,2.189-5.772,2.8-7.844,1.77-6.017-2.405-30.983-4.127-39.4-1.616-7.9-3.7-25.4-3.7-33.142,0-6.531,2.56-29.377,3.653-39.132.187-1.668.331-2.951.411-3.7.251-2.344,1.3-4,2.955-4.665,1.7-.686,3.806-.184,5.62,1.344,3.432,2.891,8.677,10.088,8.73,10.16a.162.162,0,0,1,.008.179l-4.822,8.122a.164.164,0,0,1-.115.078.166.166,0,0,1-.133-.038l-4.323-3.812c.117,3.125.924,24.508,1.259,28.355.272,3.125,5.211,5.726,7.409,5.631.7-.03,1.058-.309,1.058-.825,0-2.7.18-13,.182-13.1a.162.162,0,0,1,.117-.153l12.371-3.638a.163.163,0,0,1,.209.163l-.022.527c-.238,5.771-.635,15.429,1.522,16.792a3.367,3.367,0,0,0,3.072.075,7.087,7.087,0,0,0,4.081-4.708c.918-3.559,6.046-30.909,6.513-33.4L1702,6665.046a.164.164,0,0,1-.152-.15l-.485-6.428a.164.164,0,0,1,.16-.176c2.214-.035,5.858-.372,10.077-.762,13.142-1.215,23.246-1.957,23.918.395.546,1.911-1.085,16.706-2.83,29.645-1.8,13.379-4.526,30.642-6.75,38.965-2.55,9.544-6.719,37.247-7.514,48.118-.178,2.427,1.455,7.769,3.345,13.955,1.571,5.14,3.352,10.967,4.534,16.5a162.153,162.153,0,0,1,3.1,36.517A.163.163,0,0,1,1729.238,6841.78Zm-22.707-.326h22.551a162.029,162.029,0,0,0-3.1-36.278c-1.18-5.52-2.959-11.339-4.527-16.473-1.9-6.217-3.541-11.586-3.359-14.074l.163.012-.163-.012c.8-10.884,4.971-38.621,7.524-48.178,2.22-8.31,4.939-25.557,6.742-38.926,2.095-15.527,3.289-27.937,2.84-29.511-.651-2.279-14.446-1-23.575-.16-4.119.381-7.69.71-9.93.76l.462,6.115,22.66,1.566a.165.165,0,0,1,.118.063.162.162,0,0,1,.031.129c-.056.3-5.591,29.882-6.551,33.6a7.423,7.423,0,0,1-4.277,4.928,3.678,3.678,0,0,1-3.366-.1c-2.317-1.464-1.93-10.862-1.674-17.081l.012-.3-12.038,3.541c-.02,1.164-.18,10.438-.18,12.976,0,.7-.486,1.112-1.37,1.151a8.884,8.884,0,0,1-4.664-1.684c-1.078-.729-2.911-2.249-3.084-4.244-.36-4.14-1.265-28.5-1.274-28.751a.163.163,0,0,1,.271-.128l4.461,3.933,4.667-7.86c-.607-.827-5.414-7.322-8.613-10.015-1.72-1.449-3.7-1.931-5.289-1.291-1.537.617-2.514,2.179-2.752,4.4-.08.746-.224,2.028-.411,3.7-1.093,9.75-3.651,32.583-3.651,39.1,0,7.729,2.082,25.186,3.7,33.076,1.282,6.269,6.046,33.009,4.12,39.555-.612,2.084-1.629,4.764-2.806,7.867-2.318,6.112-5.2,13.718-6.65,21.134-2.066,10.59-1.926,35.227-1.909,37.463h24.873c.134-2.856.5-9.364,1.156-11.8.523-1.943,1.283-3.167,2.259-3.64a2.282,2.282,0,0,1,1.965.016c1.733.743,3.873,5.107,3.963,5.293a.167.167,0,0,1,.016.062Z" transform="translate(-1671.306 -6654.563)"/></g><g transform="translate(26.248 38.874)"><path class="d" d="M1749.618,6758.7s-.075,4.248-.128,8.022a13.094,13.094,0,0,0,7.747,3.137,10.912,10.912,0,0,0,4.825-1.318c-.5-3.853-.233-9.562-.073-13.479Z" transform="translate(-1749.327 -6754.899)"/><path class="d" d="M1756.9,6769.685a13.177,13.177,0,0,1-7.847-3.17.164.164,0,0,1-.063-.131c.054-3.774.128-8.023.128-8.023a.162.162,0,0,1,.117-.153l12.371-3.638a.163.163,0,0,1,.209.163l-.021.528a87.519,87.519,0,0,0,.094,12.924.163.163,0,0,1-.087.166A10.97,10.97,0,0,1,1756.9,6769.685Zm-7.583-3.378a12.811,12.811,0,0,0,7.583,3.052,10.716,10.716,0,0,0,4.649-1.248,89.117,89.117,0,0,1-.082-12.865l.012-.3-12.038,3.541C1749.429,6759.195,1749.365,6762.927,1749.316,6766.307Z" transform="translate(-1748.989 -6754.562)"/></g><g transform="translate(20.014 14.478)"><path class="c" d="M1742.8,6680.214c11.52,0,12.89,8.938,12.89,17.105,0,9.626-7.179,17.149-12.714,17.149s-11.946-7.387-12.531-17C1729.89,6688.472,1731.871,6680.214,1742.8,6680.214Z" transform="translate(-1730.197 -6680.051)"/><path class="c" d="M1742.639,6714.293c-5.5,0-12.1-7.333-12.694-17.148-.408-6.653.689-11.265,3.354-14.1,2.081-2.212,5.164-3.333,9.164-3.333,11.5,0,13.053,8.729,13.053,17.269a19.628,19.628,0,0,1-4.318,12.286C1748.661,6712.415,1745.461,6714.293,1742.639,6714.293Zm-.176-34.254c-3.907,0-6.91,1.087-8.926,3.23-2.6,2.765-3.669,7.3-3.266,13.855.587,9.64,7.014,16.842,12.369,16.842,6.759,0,12.551-9.34,12.551-16.986C1755.19,6688.6,1753.678,6680.039,1742.463,6680.039Z" transform="translate(-1729.862 -6679.713)"/></g><g transform="translate(28.032 40.999)"><path class="g" d="M1764.184,6761.543a47.02,47.02,0,0,1-4.737.441c-1.613,0-4.519-.184-4.519-.184s2.584,2.226,4.519,2.226S1764.184,6761.543,1764.184,6761.543Z" transform="translate(-1754.776 -6761.393)"/><path class="g" d="M1759.134,6763.867c-1.968,0-4.51-2.171-4.618-2.263a.151.151,0,0,1-.041-.171.147.147,0,0,1,.149-.094c.029,0,2.92.183,4.51.183a47.188,47.188,0,0,0,4.716-.439.155.155,0,0,1,.158.086.15.15,0,0,1-.036.176C1763.855,6761.448,1761.109,6763.867,1759.134,6763.867Zm-4.056-2.2c.772.6,2.619,1.9,4.056,1.9s3.405-1.445,4.239-2.114a41.11,41.11,0,0,1-4.239.373C1757.924,6761.824,1755.971,6761.721,1755.078,6761.668Z" transform="translate(-1754.464 -6761.082)"/></g><g transform="translate(28.325 40.939)"><path class="o" d="M1764.543,6761.36a7.738,7.738,0,0,1-4.438,1.27,7.639,7.639,0,0,1-4.281-1s.144,2.348,4.262,2.348A4.465,4.465,0,0,0,1764.543,6761.36Z" transform="translate(-1755.673 -6761.209)"/><path class="o" d="M1759.775,6763.821c-4.212,0-4.406-2.388-4.412-2.49a.151.151,0,0,1,.239-.131,8.837,8.837,0,0,0,8.538-.271.151.151,0,0,1,.234.169A4.653,4.653,0,0,1,1759.775,6763.821Zm-4.04-2.19c.207.613,1,1.889,4.04,1.889a4.456,4.456,0,0,0,4.087-2.057,8.316,8.316,0,0,1-4.068,1.006A8.686,8.686,0,0,1,1755.735,6761.631Z" transform="translate(-1755.362 -6760.898)"/></g><g transform="translate(27.848 40.843)"><path class="p" d="M1764,6761.1s-3.3,0-4.97,0-4.635.128-4.635.128a42.624,42.624,0,0,0,4.689.364A36.583,36.583,0,0,0,1764,6761.1Z" transform="translate(-1754.235 -6760.94)"/><path class="p" d="M1758.75,6761.425a43.112,43.112,0,0,1-4.711-.365.163.163,0,0,1,.015-.324c.03,0,2.98-.128,4.641-.128s4.97,0,4.97,0h0a.163.163,0,0,1,.027.324A37.03,37.03,0,0,1,1758.75,6761.425Zm-2.42-.446c.781.066,1.653.121,2.42.121a23.96,23.96,0,0,0,2.525-.168l-2.58,0C1758.026,6760.933,1757.144,6760.954,1756.33,6760.979Z" transform="translate(-1753.898 -6760.603)"/></g><g transform="translate(27.848 40.843)"><path class="p" d="M1764,6761.1s-2.367,2.639-4.916,2.639-4.689-2.507-4.689-2.507,1.633,3.293,4.689,3.293S1764,6761.1,1764,6761.1Z" transform="translate(-1754.235 -6760.941)"/><path class="p" d="M1758.75,6764.355c-3.121,0-4.766-3.245-4.835-3.383a.163.163,0,0,1,.27-.179c.021.024,2.124,2.45,4.565,2.45s4.771-2.559,4.794-2.584a.163.163,0,0,1,.265.186C1763.731,6760.988,1761.869,6764.355,1758.75,6764.355Zm-3.714-2.31a4.959,4.959,0,0,0,3.714,1.984,5.326,5.326,0,0,0,3.859-2.071,6.616,6.616,0,0,1-3.859,1.61A6.2,6.2,0,0,1,1755.036,6762.045Z" transform="translate(-1753.897 -6760.604)"/></g><g transform="translate(25.594 30.705)"><path class="e" d="M1748.226,6730a.742.742,0,1,1-.744.741A.742.742,0,0,1,1748.226,6730Z" transform="translate(-1747.319 -6729.836)"/><path class="e" d="M1747.889,6731.311a.905.905,0,1,1,.9-.907A.909.909,0,0,1,1747.889,6731.311Zm0-1.484a.579.579,0,1,0,.579.577A.58.58,0,0,0,1747.889,6729.826Z" transform="translate(-1746.982 -6729.5)"/></g><g transform="translate(37.827 30.705)"><path class="e" d="M1785.759,6730a.742.742,0,1,1-.746.741A.741.741,0,0,1,1785.759,6730Z" transform="translate(-1784.85 -6729.836)"/><path class="e" d="M1785.422,6731.311a.905.905,0,1,1,.9-.907A.91.91,0,0,1,1785.422,6731.311Zm0-1.484a.579.579,0,1,0,.577.577A.581.581,0,0,0,1785.422,6729.826Z" transform="translate(-1784.513 -6729.5)"/></g><g transform="translate(17.518 11.783)"><path class="e" d="M1751.74,6680.352c-2.175-6.187-8.117-8.211-13.691-8.4-4.413-.15-9.607,2.7-9.712,5.087a4.411,4.411,0,0,0-4.2,2.2c-4.243,6.76,2.031,15.424,2.031,15.424s-.262-1.814-.531-5.813c-.35-5.24,1.017-7.486,4.388-7.486a6.044,6.044,0,0,1,3.458-2.777,12.714,12.714,0,0,1,14.3,5.389c2.5,3.966,2.4,11.833,2.4,11.833S1754.2,6687.342,1751.74,6680.352Z" transform="translate(-1722.516 -6671.782)"/><path class="e" d="M1749.881,6695.63a.156.156,0,0,1-.037,0,.163.163,0,0,1-.126-.161c0-.079.066-7.865-2.379-11.744a12.492,12.492,0,0,0-14.113-5.32,5.938,5.938,0,0,0-3.362,2.693.164.164,0,0,1-.146.092,3.872,3.872,0,0,0-3,1.088c-1.033,1.1-1.435,3.141-1.23,6.225.265,3.945.528,5.783.53,5.8a.163.163,0,0,1-.293.119c-.063-.087-6.289-8.832-2.037-15.606a4.619,4.619,0,0,1,4.189-2.29c.336-2.505,5.555-5.216,9.865-5.072,4.1.14,11.35,1.43,13.839,8.51h0c2.452,6.973-1.515,15.491-1.555,15.576A.163.163,0,0,1,1749.881,6695.63Zm-13.18-18.077a12.834,12.834,0,0,1,10.913,6c2.061,3.268,2.378,9.039,2.424,11.139.879-2.174,3.238-8.932,1.239-14.618h0c-2.425-6.9-9.525-8.156-13.542-8.292-.1,0-.193,0-.29,0-3.831,0-9.144,2.466-9.254,4.937a.163.163,0,0,1-.183.154,4.26,4.26,0,0,0-4.04,2.124c-3.515,5.6.365,12.632,1.645,14.667-.1-.864-.272-2.549-.446-5.132-.215-3.223.2-5.279,1.317-6.469a4.126,4.126,0,0,1,3.135-1.191,6.225,6.225,0,0,1,3.507-2.77A11.789,11.789,0,0,1,1736.7,6677.553Z" transform="translate(-1722.206 -6671.445)"/></g><g transform="translate(43.204 30.489)"><path class="c" d="M1802.564,6731.226c0,1.046-2.646,7.667.44,6.621,1.68-.567,3.948-4.45,3.616-6.621-.245-1.595-.905-1.89-2.027-1.89A1.964,1.964,0,0,0,1802.564,6731.226Z" transform="translate(-1801.346 -6729.173)"/><path class="c" d="M1802.082,6737.784a.942.942,0,0,1-.667-.243c-.847-.793-.175-3.32.316-5.166a9.461,9.461,0,0,0,.334-1.486,2.128,2.128,0,0,1,2.192-2.053c1.189,0,1.928.332,2.188,2.028.356,2.327-2,6.219-3.724,6.8A2,2,0,0,1,1802.082,6737.784Zm2.176-8.622a1.8,1.8,0,0,0-1.866,1.727,8.8,8.8,0,0,1-.345,1.57c-.417,1.564-1.113,4.184-.408,4.843.2.186.529.206.979.052,1.585-.534,3.837-4.282,3.506-6.441C1805.9,6729.424,1805.34,6729.162,1804.258,6729.162Z" transform="translate(-1801.011 -6728.836)"/></g><g transform="translate(17.401 31.281)"><path class="c" d="M1727.213,6733.707c0,1.045,2.646,7.666-.443,6.62-1.673-.567-5.15-5.342-4.295-7.16a2.5,2.5,0,0,1,2.708-1.351C1726.283,6732.032,1727.213,6732.663,1727.213,6733.707Z" transform="translate(-1722.181 -6731.607)"/><path class="c" d="M1727.024,6740.261a2.022,2.022,0,0,1-.64-.119c-1.2-.406-3.23-2.824-4.105-4.882a3.237,3.237,0,0,1-.285-2.5,2.645,2.645,0,0,1,2.887-1.441c1.353.266,2.161,1.032,2.161,2.051a9.489,9.489,0,0,0,.334,1.484c.491,1.845,1.164,4.372.315,5.166A.941.941,0,0,1,1727.024,6740.261Zm-2.63-8.666a2.354,2.354,0,0,0-2.1,1.3,2.956,2.956,0,0,0,.291,2.235c.83,1.954,2.8,4.326,3.909,4.7.451.153.781.135.98-.053.706-.66.009-3.279-.408-4.844a8.824,8.824,0,0,1-.345-1.568c0-.851-.709-1.5-1.9-1.731A2.226,2.226,0,0,0,1724.394,6731.595Z" transform="translate(-1721.847 -6731.267)"/></g><g transform="translate(30.881 28.704)"><path class="f" d="M1765.029,6723.871a38.6,38.6,0,0,0,1.855,9.043,4.33,4.33,0,0,1-2.969.493l-.2.827a5.283,5.283,0,0,0,3.964-.839l.245-.205-.132-.291c-1.4-3.1-2.193-8.984-2.193-8.984Z" transform="translate(-1763.55 -6723.705)"/><path class="f" d="M1764.356,6734.171a4.423,4.423,0,0,1-1.024-.12.168.168,0,0,1-.124-.2l.2-.827a.168.168,0,0,1,.2-.123,4.214,4.214,0,0,0,2.722-.4,38.594,38.594,0,0,1-1.813-8.988.173.173,0,0,1,.178-.149l.572.043a.167.167,0,0,1,.153.145c.008.059.807,5.9,2.18,8.937l.131.292a.167.167,0,0,1-.045.2l-.245.205A5.723,5.723,0,0,1,1764.356,6734.171Zm-.782-.409a5.245,5.245,0,0,0,3.653-.839l.148-.125-.079-.176c-1.275-2.821-2.058-8-2.187-8.9l-.247-.019a38.593,38.593,0,0,0,1.832,8.8.168.168,0,0,1-.065.2,4.585,4.585,0,0,1-2.934.549Z" transform="translate(-1763.204 -6723.36)"/></g><g transform="translate(6.456 52.919)"><path class="g" d="M1729.938,6869.435a343.375,343.375,0,0,1,6.344-39.6c.728-3.032,1.873-10.187,2.314-12.28-4.757-4.438-8.257-11.508-9.237-19.754a7.37,7.37,0,0,1-3.271,3.407c.021.372.036.747.036,1.127,0,7.987-4.887,14.462-10.915,14.462s-10.915-6.475-10.915-14.462c0-.475.021-.942.054-1.405a9.377,9.377,0,0,1-3.039-1.848c-1.49,9.751-6.518,17.7-12.9,21.313.59,4.51,1.245,8.7,1.843,11.623,1.493,7.3,5.2,28.959,4.467,37.415Z" transform="translate(-1688.365 -6797.753)"/><path class="g" d="M1729.837,6869.382h-35.214a.05.05,0,0,1-.049-.054c.711-8.171-2.77-29.105-4.466-37.4-.577-2.82-1.232-6.95-1.844-11.627a.049.049,0,0,1,.024-.049,23.671,23.671,0,0,0,8.265-8.339,35.076,35.076,0,0,0,4.608-12.938.051.051,0,0,1,.032-.039.048.048,0,0,1,.049.011,9.406,9.406,0,0,0,3.023,1.838.05.05,0,0,1,.032.05c-.037.5-.054.959-.054,1.4,0,7.948,4.875,14.414,10.866,14.414s10.866-6.466,10.866-14.414c0-.338-.011-.695-.036-1.124a.048.048,0,0,1,.027-.046,7.3,7.3,0,0,0,3.249-3.384.046.046,0,0,1,.052-.027.049.049,0,0,1,.041.042c.945,7.948,4.306,15.137,9.222,19.723a.05.05,0,0,1,.014.046c-.167.793-.435,2.309-.745,4.063-.5,2.823-1.118,6.334-1.571,8.219a342.964,342.964,0,0,0-6.343,39.59A.049.049,0,0,1,1729.837,6869.382Zm-35.161-.1h35.116a343.162,343.162,0,0,1,6.341-39.56c.451-1.881,1.071-5.392,1.569-8.213.306-1.735.571-3.237.739-4.039-4.887-4.57-8.239-11.7-9.212-19.6a7.4,7.4,0,0,1-3.192,3.265c.024.416.035.766.035,1.1,0,8-4.919,14.512-10.964,14.512s-10.964-6.51-10.964-14.512c0-.433.017-.882.052-1.372a9.531,9.531,0,0,1-2.953-1.784,35.142,35.142,0,0,1-4.608,12.885,23.794,23.794,0,0,1-8.271,8.357c.61,4.66,1.263,8.775,1.838,11.587C1691.9,6840.19,1695.369,6861.065,1694.677,6869.283Z" transform="translate(-1688.265 -6797.652)"/></g><g transform="translate(0.974 132.349)"><path class="q" d="M1726.578,7066.2c-1.847-8.642-5.153-18-6.841-24.346h-38.5c-2.4,6.379-5.8,14.894-7.415,23.165-1.336,6.846-1.752,19.413-1.874,28.136h26.16s1.092-4.912,3.548-5.185,3.82,4.912,3.82,4.912c8.855-2.164,19.128-1.207,24.17-.5A154.187,154.187,0,0,0,1726.578,7066.2Z" transform="translate(-1671.785 -7041.689)"/><path class="q" d="M1697.77,7092.979h-26.16a.163.163,0,0,1-.163-.166c.127-9.113.557-21.4,1.877-28.165,1.453-7.446,4.343-15.065,6.666-21.188q.391-1.031.757-2a.163.163,0,0,1,.152-.106h38.5a.163.163,0,0,1,.157.121c.608,2.285,1.434,4.991,2.31,7.856,1.57,5.139,3.35,10.964,4.533,16.5a155.251,155.251,0,0,1,3.071,26.2.165.165,0,0,1-.054.127.16.16,0,0,1-.132.04c-5.247-.73-15.357-1.637-24.109.5a.163.163,0,0,1-.2-.116c-.013-.051-1.371-5.042-3.644-4.792-2.312.258-3.4,5.01-3.406,5.059A.163.163,0,0,1,1697.77,7092.979Zm-25.995-.326h25.866c.2-.8,1.314-4.924,3.658-5.184s3.7,3.99,3.953,4.878c8.663-2.08,18.594-1.222,23.885-.5a154.735,154.735,0,0,0-3.057-25.955c-1.18-5.521-2.958-11.338-4.526-16.472-.861-2.817-1.675-5.481-2.28-7.746h-38.263q-.347.921-.718,1.9c-2.318,6.111-5.2,13.716-6.65,21.135C1672.336,7071.414,1671.906,7083.57,1671.775,7092.653Z" transform="translate(-1671.447 -7041.352)"/></g></g></g></svg>