<svg xmlns="http://www.w3.org/2000/svg" xmlns:xlink="http://www.w3.org/1999/xlink" width="209" height="168.478" viewBox="0 0 209 168.478"><defs><style>.a{fill:none;}.b{fill:#4359a6;}.c{clip-path:url(#a);}.d{fill:#e60012;}.e{fill:#f7ad00;}.f{fill:#fff100;}.g{fill:#3eb58d;}.h{fill:#00b2ed;}.i{fill:#b9a2cc;}.j{clip-path:url(#b);}.k{fill:#fff;}.l{fill:#fce6d9;}.m{fill:#6b84c2;}.n{fill:#c56442;}.o{fill:#f5b1a2;}.p{fill:#ec6500;}.q{fill:#f4ada6;}.r{fill:#d5ced9;}.s{fill:#d78a56;}.t{fill:#73be61;}</style><clipPath id="a"><path class="a" d="M1596.99,4898.42l24.631-.119,57.673-30.778,9.978-22.609-92.887-4.622Z" transform="translate(-1596.385 -4840.292)"/></clipPath><clipPath id="b"><rect class="a" width="103.326" height="163.118"/></clipPath></defs><g transform="translate(-1596.385 -4586.266)"><g transform="translate(1704.289 4682.004)"><rect class="b" width="24.167" height="25.407" rx="11.014" transform="translate(0 5.16) rotate(-12.328)"/><path class="b" d="M1913.453,4889.688a4.035,4.035,0,0,1-3.935-3.168l-3.775-17.273a4.033,4.033,0,0,1,3.076-4.8l16.062-3.51a4.034,4.034,0,0,1,4.8,3.075l3.775,17.273a4.033,4.033,0,0,1-3.075,4.8l-16.062,3.511A4.059,4.059,0,0,1,1913.453,4889.688Zm12.288-28.51a3.719,3.719,0,0,0-.79.085l-16.062,3.511a3.7,3.7,0,0,0-2.823,4.4l3.775,17.273a3.7,3.7,0,0,0,4.4,2.822l16.062-3.51a3.7,3.7,0,0,0,2.822-4.4l-3.775-17.273A3.7,3.7,0,0,0,1925.741,4861.178Zm4.6,24.745h0Z" transform="translate(-1905.079 -4860.277)"/></g><g transform="translate(1684.686 4694.427)"><rect class="b" width="29.125" height="3.718" transform="translate(1.805 0.165) rotate(26.167)"/><path class="b" d="M1874.441,4911.152a.165.165,0,0,1-.073-.017l-26.14-12.844a.167.167,0,0,1-.084-.1.164.164,0,0,1,.008-.126l1.64-3.337a.167.167,0,0,1,.221-.076l26.14,12.844a.165.165,0,0,1,.076.221l-1.639,3.337a.166.166,0,0,1-.1.083A.142.142,0,0,1,1874.441,4911.152Zm-25.918-13.084,25.843,12.7,1.493-3.04-25.842-12.7Z" transform="translate(-1848.135 -4894.641)"/></g><g transform="translate(1680.344 4691.178)"><path class="b" d="M1842.537,4889.267l-3.246-3.474-3.12,6.349,4.774.363Z" transform="translate(-1836.026 -4885.647)"/><path class="b" d="M1840.677,4892.381h-.011l-4.774-.362a.145.145,0,0,1-.119-.209l3.119-6.349a.145.145,0,0,1,.236-.036l3.246,3.474a.146.146,0,0,1,.025.164l-1.592,3.239A.146.146,0,0,1,1840.677,4892.381Zm-4.548-.637,4.461.339,1.5-3.061-3.034-3.247Z" transform="translate(-1835.757 -4885.378)"/></g><g transform="translate(1596.385 4675.364)"><g class="c" transform="translate(0 0)"><path class="d" d="M1667.721,4985.207a47.15,47.15,0,0,1-23.032-6.091c-13.751-7.671-24-21.825-28.132-38.834-7.93-32.685,8.569-66.757,36.779-75.952a46.509,46.509,0,0,1,37.444,3.786c13.751,7.67,24,21.825,28.131,38.833,7.93,32.686-8.569,66.757-36.779,75.952A46.446,46.446,0,0,1,1667.721,4985.207Zm.026-122.832a46.09,46.09,0,0,0-14.3,2.288c-28.04,9.14-44.435,43.025-36.546,75.536,4.1,16.914,14.3,30.987,27.961,38.61a46.163,46.163,0,0,0,37.164,3.758c28.04-9.139,44.435-43.024,36.547-75.536h0c-4.1-16.914-14.3-30.987-27.961-38.61A46.808,46.808,0,0,0,1667.747,4862.375Z" transform="translate(-1608.191 -4854.401)"/><path class="e" d="M1674.853,4986.613a45.471,45.471,0,0,1-22.213-5.875c-13.261-7.4-23.15-21.048-27.129-37.451-7.647-31.521,8.264-64.379,35.469-73.247a44.853,44.853,0,0,1,36.111,3.65c13.261,7.4,23.15,21.048,27.129,37.451,7.648,31.521-8.264,64.379-35.469,73.247A44.771,44.771,0,0,1,1674.853,4986.613Zm.025-118.445a44.421,44.421,0,0,0-13.79,2.207c-27.036,8.812-42.843,41.483-35.237,72.83,3.957,16.309,13.783,29.878,26.96,37.228a44.509,44.509,0,0,0,35.832,3.624c27.036-8.812,42.843-41.484,35.237-72.831-3.957-16.308-13.783-29.877-26.959-37.227A45.123,45.123,0,0,0,1674.878,4868.167Z" transform="translate(-1614.05 -4858.163)"/><path class="f" d="M1681.149,4986.991a43.843,43.843,0,0,1-21.423-5.666c-12.789-7.134-22.325-20.3-26.163-36.116-7.375-30.4,7.97-62.086,34.206-70.638a43.259,43.259,0,0,1,34.826,3.521c12.79,7.133,22.326,20.3,26.164,36.116h0c7.375,30.4-7.97,62.087-34.207,70.638A43.189,43.189,0,0,1,1681.149,4986.991Zm.025-114.214a42.824,42.824,0,0,0-13.3,2.128c-26.067,8.5-41.307,40-33.974,70.221,3.815,15.724,13.289,28.807,25.993,35.894a42.917,42.917,0,0,0,34.547,3.493c26.067-8.5,41.307-40,33.974-70.221-3.815-15.725-13.29-28.807-25.993-35.894A43.505,43.505,0,0,0,1681.173,4872.777Z" transform="translate(-1619.322 -4861.155)"/><path class="g" d="M1688.631,4988.523a42.3,42.3,0,0,1-20.66-5.464c-12.334-6.88-21.531-19.576-25.232-34.831-7.112-29.315,7.686-59.875,32.989-68.122a41.723,41.723,0,0,1,33.588,3.4c12.334,6.88,21.53,19.575,25.232,34.831,7.113,29.315-7.686,59.875-32.989,68.122A41.631,41.631,0,0,1,1688.631,4988.523Zm.023-110.134a41.291,41.291,0,0,0-12.818,2.05c-25.133,8.192-39.827,38.565-32.756,67.706,3.678,15.161,12.813,27.775,25.062,34.607a41.373,41.373,0,0,0,33.307,3.368c25.133-8.191,39.828-38.564,32.757-67.706-3.679-15.161-12.813-27.774-25.062-34.607A41.95,41.95,0,0,0,1688.655,4878.389Z" transform="translate(-1625.323 -4864.798)"/><path class="h" d="M1696.138,4989.779a40.783,40.783,0,0,1-19.926-5.27c-11.894-6.635-20.764-18.878-24.333-33.59-6.859-28.272,7.412-57.743,31.814-65.7a40.24,40.24,0,0,1,32.393,3.274c11.895,6.636,20.764,18.879,24.333,33.591,6.86,28.271-7.413,57.742-31.814,65.7A40.183,40.183,0,0,1,1696.138,4989.779Zm.023-106.2a39.8,39.8,0,0,0-12.358,1.978c-24.232,7.9-38.4,37.182-31.582,65.279,3.546,14.617,12.354,26.78,24.163,33.367a39.891,39.891,0,0,0,32.114,3.248c24.232-7.9,38.4-37.183,31.582-65.28-3.547-14.617-12.354-26.779-24.163-33.367A40.447,40.447,0,0,0,1696.161,4883.579Z" transform="translate(-1631.298 -4868.168)"/><path class="i" d="M1704.715,4995.722a37.381,37.381,0,0,1-17.292-4.3c-12.018-6.248-21.144-18.564-25.037-33.791-7.275-28.451,5.7-58.745,28.919-67.529a36.754,36.754,0,0,1,30.315,1.9c12.018,6.248,21.144,18.564,25.037,33.791,7.275,28.451-5.7,58.744-28.919,67.528A36.728,36.728,0,0,1,1704.715,4995.722Zm-.387-107.675a36.38,36.38,0,0,0-12.9,2.38c-23.059,8.723-35.935,38.83-28.7,67.114,3.869,15.13,12.93,27.364,24.859,33.566a36.405,36.405,0,0,0,30.028,1.884c23.058-8.723,35.935-38.83,28.7-67.113-3.869-15.13-12.929-27.365-24.859-33.566A37.036,37.036,0,0,0,1704.328,4888.047Z" transform="translate(-1637.924 -4871.068)"/></g></g><g transform="translate(1702.059 4586.266)"><g class="j" transform="translate(0 0)"><g transform="translate(46.493 14.476)"><path class="k" d="M2030.762,4633.011c-2.063.514,10.584,5.775,18.416,7.054,15.1,2.466,34.071-5.236,27.217-8.235s-22.817-4.392-27.53-3.854S2031.19,4632.9,2030.762,4633.011Z" transform="translate(-2030.428 -4627.749)"/><path class="k" d="M2055.217,4640.439a39.122,39.122,0,0,1-6.26-.478,67.32,67.32,0,0,1-12.039-3.469c-1.111-.424-6.655-2.585-6.692-3.494,0-.1.046-.24.307-.306.061-.016.416-.13.952-.3,3.25-1.059,13.143-4.277,17.165-4.733,4.9-.557,20.759.877,27.586,3.863,1.5.658,1.618,1.476,1.45,2.046-.517,1.751-4.57,3.88-10.086,5.3A50.627,50.627,0,0,1,2055.217,4640.439Zm-3.852-12.684a24.926,24.926,0,0,0-2.69.118c-4,.454-13.877,3.667-17.122,4.723-.58.189-.9.292-.967.31h0c-.069.018-.142.048-.141.083.039.953,11.007,5.525,18.548,6.755,12.656,2.066,27.518-2.976,28.483-6.242.208-.707-.238-1.307-1.327-1.784C2070.318,4629.17,2057.869,4627.755,2051.365,4627.755Zm-20.806,5.045h0Z" transform="translate(-2030.225 -4627.537)"/></g><g transform="translate(7.268 4.528)"><g transform="translate(71.715 147.661)"><path class="l" d="M2130.779,5020.619s6.22,3.455,10.425,18.939,8.622,20.229,10.729,21.327,2.749,5.508-4.627,8.641c-3.431,1.458-4.871,5.979-8.266,5.775s-5.417-3.308-3.69-3.679,6.433-3.809,7.245-9.356c.446-3.042-2.515-7.594-6.521-14.675-5.628-9.955-12.768-24.547-12.768-24.547" transform="translate(-2123.147 -5020.46)"/><path class="l" d="M2138.969,5075.173c-.076,0-.153,0-.232-.007-2.556-.153-4.381-1.937-4.465-3.048a.852.852,0,0,1,.751-.944c1.641-.352,6.316-3.719,7.122-9.224.376-2.568-1.726-6.233-4.907-11.78q-.762-1.327-1.594-2.793c-5.566-9.846-12.7-24.41-12.773-24.555a.159.159,0,1,1,.285-.14c.072.146,7.2,14.7,12.764,24.539q.829,1.466,1.593,2.791c3.215,5.605,5.338,9.309,4.946,11.985-.828,5.655-5.669,9.124-7.368,9.487a.542.542,0,0,0-.5.61c.077,1,1.778,2.613,4.168,2.756,1.847.106,3.128-1.275,4.483-2.742a11.31,11.31,0,0,1,3.71-3.021c5.238-2.224,5.9-4.853,5.938-5.88a2.6,2.6,0,0,0-1.322-2.474c-1.364-.711-6.175-4.357-10.809-21.426-4.133-15.221-10.286-18.808-10.348-18.843a.158.158,0,1,1,.154-.277c.256.142,6.326,3.665,10.5,19.037,4.6,16.944,9.314,20.531,10.649,21.228a2.917,2.917,0,0,1,1.492,2.768c-.043,1.087-.727,3.865-6.131,6.159a11.07,11.07,0,0,0-3.6,2.945C2142.121,5073.786,2140.842,5075.173,2138.969,5075.173Z" transform="translate(-2122.854 -5020.166)"/></g><path class="m" d="M2154.891,5139.859s.453,1.668,5.129,2.113l5.452-7.656s2.95,2.069,3.3,4.281c.233,1.474.356,2.046.356,2.046s-.181,1.017-7.185,4.918c-2.828,1.576-5.741,4.816-8.919,5.628s-11.862.494-6.71-3.324A52.932,52.932,0,0,0,2154.891,5139.859Z" transform="translate(-2065.333 -4946.617)"/><g transform="translate(27.3 130.876)"><path class="l" d="M2023.155,4974.667s3.923,6.746-.794,23.7-4.231,35.568-2.859,37.787-.5,6.735-9.208,5.547c-4.053-.551-7.945,2.906-11.033.812s-3.25-6.156-1.416-5.54,8.2.021,12.08-4.754c2.126-2.621,2.9-20.233,3.1-29.154.276-12.541,1.727-30.3,1.727-30.3" transform="translate(-1996.508 -4972.604)"/><path class="l" d="M2001.3,5043.059a4.149,4.149,0,0,1-2.408-.709c-2.317-1.574-3.035-4.269-2.493-5.361a.919.919,0,0,1,1.216-.461c1.748.591,8.055.04,11.906-4.7.416-.512,2.518-4.323,3.061-29.057.272-12.4,1.713-30.134,1.727-30.312a.157.157,0,0,1,.171-.145.159.159,0,0,1,.145.171c-.014.178-1.454,17.9-1.726,30.292-.1,4.357-.7,26.248-3.132,29.25-3.948,4.861-10.448,5.415-12.253,4.8a.607.607,0,0,0-.831.3c-.493.993.208,3.477,2.387,4.957,1.688,1.146,3.674.556,5.777-.071a12.372,12.372,0,0,1,5.188-.767c6.192.843,8.3-1.271,8.911-2.219a2.869,2.869,0,0,0,.141-3.088c-1.326-2.146-2.024-20.441,2.841-37.913,2.426-8.714,2.516-14.662,2.165-18.118a15.026,15.026,0,0,0-1.354-5.46.159.159,0,0,1,.274-.16,14.956,14.956,0,0,1,1.393,5.557c.358,3.486.272,9.484-2.172,18.267-4.753,17.068-4.145,35.609-2.877,37.661a3.182,3.182,0,0,1-.145,3.427c-.649,1-2.845,3.23-9.22,2.361a12.128,12.128,0,0,0-5.055.757A13.3,13.3,0,0,1,2001.3,5043.059Z" transform="translate(-1996.224 -4972.31)"/></g><path class="m" d="M1995.7,5149.85s-.507,1.824,3.651,4.867l9.431-4.159s1.621,3.6.71,5.884c-.609,1.52-.811,2.129-.811,2.129s-.745.858-9.533.609c-3.551-.1-8.115,1.317-11.562.3s-11.46-6.188-4.462-6.9A58.005,58.005,0,0,0,1995.7,5149.85Z" transform="translate(-1958.616 -4956.703)"/><g transform="translate(37.169 77.115)"><path class="k" d="M2041.508,4820.157a133.243,133.243,0,0,0,21.5-.812s3.684,3.948,4.869,12.575c.71,5.178-.078,10.574-1.421,21.906-2.9,24.417,21.832,73.456,21.832,73.456s-2.73,6.931-13.621,5.155c0,0-17.337-33.173-20.179-50.212-2.847-17.089-1.925-34.217-1.664-41.575a.52.52,0,0,0-1.025-.14c-2.468,10.4-8.572,36.8-8.265,50.642.407,18.252-5.069,41.681-5.069,41.681s-8.519,3.653-13.792-.406c0,0,5.476-27.889,5.476-43.3S2036.233,4838.005,2041.508,4820.157Z" transform="translate(-2024.564 -4819.236)"/><path class="k" d="M2030.814,4934.237a10.343,10.343,0,0,1-6.41-1.926.111.111,0,0,1-.041-.108c.055-.279,5.474-28.055,5.474-43.283,0-14.846,5.841-50.312,11.363-69a.1.1,0,0,1,.111-.078,134.149,134.149,0,0,0,21.479-.811.11.11,0,0,1,.1.034c.037.04,3.721,4.073,4.9,12.636.644,4.7.078,9.422-1.051,18.836q-.177,1.472-.37,3.1c-1.493,12.591,4.517,31.873,9.823,45.832,5.752,15.132,11.937,27.44,12,27.563a.111.111,0,0,1,0,.09c-.028.07-2.887,6.993-13.74,5.223a.108.108,0,0,1-.08-.058c-.043-.083-4.389-8.416-9.027-18.722-4.281-9.516-9.694-22.709-11.164-31.523-2.647-15.892-2.027-32.1-1.729-39.895q.035-.921.064-1.7a.41.41,0,0,0-.809-.111c-5.695,23.99-8.475,41.02-8.262,50.615.4,18.057-5.017,41.472-5.071,41.708a.111.111,0,0,1-.064.076A21.638,21.638,0,0,1,2030.814,4934.237Zm-6.223-2.059c4.955,3.749,12.866.662,13.578.372.294-1.278,5.446-23.994,5.053-41.6-.213-9.615,2.569-26.662,8.268-50.67a.629.629,0,0,1,1.241.169c-.018.52-.04,1.089-.063,1.7-.3,7.784-.918,23.98,1.726,39.85,1.466,8.79,6.87,21.964,11.147,31.468,4.45,9.891,8.632,17.963,9,18.663,10.17,1.633,13.168-4.47,13.428-5.053-.42-.838-6.405-12.861-11.984-27.536-5.314-13.982-11.335-33.3-9.836-45.937q.193-1.627.37-3.1c1.127-9.4,1.692-14.112,1.052-18.78-.924-6.723-3.521-11.068-4.8-12.474a133.835,133.835,0,0,1-21.378.808c-5.511,18.691-11.33,54.043-11.33,68.852C2030.056,4903.8,2024.889,4930.64,2024.591,4932.178Z" transform="translate(-2024.36 -4819.033)"/></g><g transform="translate(52.457 2.066)"><path class="n" d="M2093.9,4630.282c-2.2,7.229-12.628,9.174-14.038-.893-.9-6.412-8.17-5.526-10.16-11.937-1.976-6.373,2.053-11.872,8.511-12.31s8.727.525,10.139,15.267C2089.825,4635.758,2094.768,4627.417,2093.9,4630.282Z" transform="translate(-2068.76 -4605.064)"/><g transform="translate(0 2.96)"><g transform="translate(0.16 0.312)"><path class="l" d="M2075.317,4614.888c-5.563.408-6.791,3.6-6.394,8.918s3.075,13.087,8.39,12.691,9.115-8.534,8.719-13.849S2080.881,4614.48,2075.317,4614.888Z" transform="translate(-2068.697 -4614.69)"/><path class="l" d="M2076.635,4636.374c-2.271,0-4.267-1.479-5.794-4.3a22.361,22.361,0,0,1-2.368-8.552c-.254-3.4.187-5.555,1.428-7,1.063-1.232,2.735-1.917,5.112-2.091,6.033-.444,10.5,2.808,10.885,7.905a16.616,16.616,0,0,1-2.237,8.86c-1.789,3.143-4.143,4.975-6.628,5.158C2076.9,4636.369,2076.766,4636.374,2076.635,4636.374Zm-1.61-21.781.012.159c-2.289.167-3.889.816-4.9,1.982-1.182,1.371-1.6,3.458-1.353,6.765a22.046,22.046,0,0,0,2.331,8.425c1.082,2,2.975,4.33,5.889,4.12,3.206-.237,5.37-3.234,6.375-5a16.289,16.289,0,0,0,2.2-8.68c-.366-4.912-4.705-8.036-10.545-7.613Z" transform="translate(-2068.403 -4614.394)"/></g><path class="n" d="M2075.222,4616.811c-3.4.253-5.528,1.564-6.774,3.783.258-3.752,1.887-6.209,6.53-6.551,5.246-.383,9.955,1.929,10.844,7.709C2083.189,4618.772,2079.385,4616.5,2075.222,4616.811Z" transform="translate(-2068.272 -4613.827)"/><path class="n" d="M2085.5,4621.6a.172.172,0,0,1-.132-.06c-2.986-3.377-6.789-5.158-10.457-4.881h0c-3.2.239-5.372,1.446-6.634,3.694a.176.176,0,0,1-.328-.1c.293-4.267,2.419-6.4,6.693-6.713,5.993-.432,10.218,2.573,11.031,7.856a.176.176,0,0,1-.173.2Zm-9.845-5.319a13.416,13.416,0,0,1,9.564,4.577c-1.173-5.6-6.156-7.289-10.551-6.966-3.868.284-5.836,2.037-6.3,5.653,1.36-1.95,3.5-3.009,6.514-3.235C2075.14,4616.293,2075.4,4616.284,2075.654,4616.284Zm-.757.2h0Z" transform="translate(-2067.948 -4613.504)"/><path class="b" d="M2074.042,4641.549a.565.565,0,1,0-.605-.521A.563.563,0,0,0,2074.042,4641.549Z" transform="translate(-2071.511 -4630.979)"/><path class="b" d="M2096.791,4639.691a.567.567,0,1,0-.607-.526A.569.569,0,0,0,2096.791,4639.691Z" transform="translate(-2086.28 -4629.771)"/><path class="o" d="M2080.147,4641.8l.11-.393a27.088,27.088,0,0,0,.867-8.006l.571-.043a25.964,25.964,0,0,1-.53,7.11.329.329,0,0,0,.31.4l2.206.066a.3.3,0,0,1,.291.279h0a.3.3,0,0,1-.278.322Z" transform="translate(-2075.868 -4626.391)"/><path class="p" d="M2087.439,4661.474s-.551,1.527-1.9,1.626a1.947,1.947,0,0,1-1.861-1.213l1.2.205.519.478.434-.669Z" transform="translate(-2078.163 -4644.649)"/></g><g transform="translate(15.113 11.06)"><path class="l" d="M2113.1,4644.243c-1.261.085-1.518-3.493-1.6-4.754a2.288,2.288,0,0,1,4.566-.309C2116.146,4640.439,2114.359,4644.16,2113.1,4644.243Z" transform="translate(-2111.33 -4636.89)"/><path class="l" d="M2112.759,4644.11c-1.235,0-1.571-2.789-1.717-4.9a2.447,2.447,0,0,1,4.882-.331,8.588,8.588,0,0,1-1.945,4.474,1.876,1.876,0,0,1-1.165.758Zm.728-7.2c-.048,0-.1,0-.145,0a2.132,2.132,0,0,0-1.983,2.268c.265,3.869.926,4.632,1.436,4.606h0a1.625,1.625,0,0,0,.946-.65,8.321,8.321,0,0,0,1.867-4.243A2.131,2.131,0,0,0,2113.486,4636.914Z" transform="translate(-2111.037 -4636.597)"/></g></g><g transform="translate(0 21.167)"><path class="l" d="M2014.31,4706.272c-.813-2.434-6.492-19.473-9.465-25.965s-9.738-6.219-14.336-7.3-3.963-6.769-3.768-13.033l-7.658,3.973c0,3.854,1.216,7.708-2.232,9.129s-11.157.2-14.807,6.489c-3.354,5.776-4.492,21.254-7.327,26.721a3.081,3.081,0,0,1-1.812,1.519,165.614,165.614,0,0,0-21.625,8.477c-2.7,1.351-4.327,0-7.843,4.324s-4.6,4.058-4.6,4.058,1.462,2.166,3.625-.27,3.407-2.163,3.407-2.163-3.517,4.055,1.353,5.136c1.014.226,2.168,1.172,2.845.457,1.874-1.983,4.423-6.311,6.079-7.757,2.163-1.894,13.582-2.3,20.885-6.082s10.485-28.536,10.485-28.536a10.5,10.5,0,0,1,2.027,2.489,4.077,4.077,0,0,1,.41,3.4,9.328,9.328,0,0,0-.51,2.715,4.972,4.972,0,0,0,4.07,4.885,31.271,31.271,0,0,1-.046,17.613s7.414.716,20.825-.677a35.66,35.66,0,0,1-.541-10.952c.8-7.928,3.29-18.084,1.621-22.181,0,0,3.691,8.24,6.951,15.052,2,4.175,3.11,6.526,3.711,7.808a7.454,7.454,0,0,1,.7,2.958c.1,3.7.305,13.257-.129,19.835-.112,1.7-.193,6.151-1.566,9.4a32.441,32.441,0,0,1-2.349,3.589,63.507,63.507,0,0,1-3.7,5.628s.913,1.419,3.2-1.452c1.073-1.348,1.724-1.113,1.766-1.092.925.456.1,1.907-.494,3.066a7.371,7.371,0,0,1-1.894,2.248c-.683.574-.784.877-.406,1.374.522.685,1.778-.017,2.417-.429a1.415,1.415,0,0,0-.656,1.326c.041.227.571.636,1.4.326a9.656,9.656,0,0,0,1.458-.788c-.026.011.049.013.075.021-.261.378-.681,1.065-.2,1.256.509.2,1.324-.394,1.643-.783l.624-.783c.082,0,.031.04.1.02l-.322.482c-.319.389-.435.822-.13.943l.121.026a1.773,1.773,0,0,0,1.2-.437c-.076.245,2.633-2.7,2.7-4.3a47.561,47.561,0,0,0-.517-6c-.886-4.634,1.964-14.019,2.377-18.73C2013.9,4718.355,2015.121,4708.706,2014.31,4706.272Z" transform="translate(-1918.683 -4659.815)"/><path class="l" d="M2005.6,4752.769a.771.771,0,0,1-.284-.051.484.484,0,0,1-.3-.31.992.992,0,0,1,.14-.718c-.419.241-.967.5-1.064.54a1.464,1.464,0,0,1-1.266-.036.663.663,0,0,1-.349-.411,1.4,1.4,0,0,1,.12-.782c-1.081.513-1.6.281-1.852-.047-.483-.633-.234-1.033.43-1.591a7.268,7.268,0,0,0,1.855-2.2l.116-.227c.429-.832.915-1.774.74-2.305a.537.537,0,0,0-.292-.321s-.573-.206-1.572,1.049c-1.012,1.272-1.908,1.911-2.65,1.861a1.037,1.037,0,0,1-.8-.422.158.158,0,0,1,.013-.189,42.793,42.793,0,0,0,2.853-4.272q.4-.636.836-1.336c.188-.3.467-.686.763-1.1a15.383,15.383,0,0,0,1.574-2.47c1.2-2.843,1.405-6.617,1.514-8.645.014-.267.027-.5.04-.7.433-6.552.235-16.044.129-19.82a7.24,7.24,0,0,0-.687-2.895c-.571-1.219-1.678-3.561-3.71-7.807-2.363-4.937-4.977-10.681-6.219-13.428.448,3.184-.287,8.042-1.056,13.135-.374,2.476-.762,5.037-1,7.368a35.865,35.865,0,0,0,.537,10.9.158.158,0,0,1-.137.195c-13.272,1.379-20.782.686-20.857.679a.159.159,0,0,1-.138-.2,31.108,31.108,0,0,0,.073-17.436,5.126,5.126,0,0,1-4.1-5.022,9.53,9.53,0,0,1,.519-2.765,3.906,3.906,0,0,0-.394-3.267,11.685,11.685,0,0,0-1.776-2.253,122.089,122.089,0,0,1-2.468,12.569c-2.279,8.885-4.991,14.2-8.061,15.789-4.1,2.124-9.475,3.186-13.8,4.04-3.292.65-6.135,1.211-7.058,2.021a27.528,27.528,0,0,0-3.181,4,39.009,39.009,0,0,1-2.888,3.75c-.541.572-1.31.246-2.053-.071a5.776,5.776,0,0,0-.942-.34c-1.433-.319-2.308-.927-2.6-1.808-.419-1.27.5-2.717.943-3.312-.477.082-1.5.463-2.951,2.1a2.9,2.9,0,0,1-2.267,1.206,2.29,2.29,0,0,1-1.608-.953.158.158,0,0,1,.169-.243h0c.011,0,1.114.085,4.436-4,2.429-2.988,3.958-3.3,5.577-3.64a8.807,8.807,0,0,0,2.319-.728,166.768,166.768,0,0,1,21.647-8.485,2.913,2.913,0,0,0,1.719-1.442c1.325-2.555,2.27-7.28,3.27-12.282,1.117-5.588,2.273-11.367,4.061-14.445,2.644-4.554,7.337-5.222,11.108-5.758a16.953,16.953,0,0,0,3.776-.8c2.609-1.075,2.439-3.606,2.242-6.536-.053-.8-.109-1.622-.109-2.448a.158.158,0,0,1,.085-.141l7.658-3.972a.158.158,0,0,1,.232.145c-.017.523-.036,1.041-.055,1.553-.208,5.559-.387,10.359,3.7,11.321.859.2,1.788.355,2.772.518,4.321.715,9.219,1.525,11.672,6.87,2.644,5.775,7.475,20.005,9.429,25.855l.042.127h0c.663,1.989.01,8.509-.516,13.749-.124,1.235-.239,2.38-.323,3.346-.146,1.66-.594,3.907-1.069,6.287-.881,4.415-1.88,9.42-1.311,12.4a32.092,32.092,0,0,1,.446,4.606c.02.492.038.957.074,1.413-.063,1.561-2.5,4.349-2.783,4.469l-.008,0a1.959,1.959,0,0,1-1.3.431l-.125-.027a.424.424,0,0,1-.286-.3.559.559,0,0,1-.009-.225A2.281,2.281,0,0,1,2005.6,4752.769Zm-.031-1.616a.384.384,0,0,1,.047.01.159.159,0,0,1,.084.241c-.4.576-.41.817-.381.911a.163.163,0,0,0,.113.107c.39.152,1.139-.341,1.462-.736l.623-.781a.2.2,0,0,1,.242-.035.163.163,0,0,1,.106.066.156.156,0,0,1,.007.176l-.322.481a.887.887,0,0,0-.275.631.1.1,0,0,0,.072.076l.1.02a1.667,1.667,0,0,0,1.048-.383.162.162,0,0,1,.1-.056c.4-.332,2.507-2.8,2.563-4.146-.037-.443-.056-.912-.075-1.408a31.921,31.921,0,0,0-.44-4.561c-.581-3.038.424-8.075,1.311-12.518.473-2.371.92-4.61,1.064-6.252.085-.967.2-2.113.324-3.35.495-4.934,1.173-11.692.531-13.618l-.042-.126c-1.953-5.845-6.779-20.062-9.417-25.823-2.382-5.191-7.191-5.987-11.435-6.689-.989-.164-1.923-.318-2.793-.523-4.342-1.021-4.158-5.943-3.945-11.642q.023-.634.046-1.281l-7.332,3.8c0,.783.057,1.568.108,2.33.2,2.925.382,5.688-2.439,6.85a17.121,17.121,0,0,1-3.852.818c-3.7.526-8.312,1.182-10.879,5.6-1.761,3.034-2.911,8.786-4.023,14.348-1.005,5.026-1.954,9.772-3.3,12.367a3.232,3.232,0,0,1-1.9,1.6,166.464,166.464,0,0,0-21.6,8.466,9.035,9.035,0,0,1-2.4.754c-1.562.324-3.038.629-5.4,3.53-2.552,3.141-3.855,3.9-4.417,4.072a1.874,1.874,0,0,0,1.2.61,2.585,2.585,0,0,0,2.006-1.1c2.2-2.473,3.505-2.224,3.559-2.213a.158.158,0,0,1,.086.258c-.016.019-1.575,1.841-1.1,3.281.254.767,1.049,1.3,2.366,1.6a5.862,5.862,0,0,1,1,.358c.7.3,1.308.556,1.7.144a38.841,38.841,0,0,0,2.86-3.716,27.081,27.081,0,0,1,3.23-4.052c.987-.864,3.731-1.406,7.2-2.092,4.3-.851,9.654-1.908,13.712-4.011,7.145-3.7,10.369-28.168,10.4-28.415a.158.158,0,0,1,.256-.1,10.59,10.59,0,0,1,2.062,2.529,4.221,4.221,0,0,1,.426,3.531,9.206,9.206,0,0,0-.5,2.667,4.809,4.809,0,0,0,3.941,4.729.158.158,0,0,1,.124.113,31.34,31.34,0,0,1,0,17.514,120.907,120.907,0,0,0,20.43-.675,36.774,36.774,0,0,1-.5-10.829c.236-2.34.623-4.9,1-7.384.882-5.837,1.795-11.872.634-14.72a.159.159,0,0,1,.292-.125c.037.082,3.728,8.315,6.95,15.048,2.033,4.246,3.14,6.59,3.712,7.809a7.562,7.562,0,0,1,.718,3.02c.105,3.781.3,13.284-.13,19.851-.013.2-.026.431-.04.7-.109,2.047-.314,5.857-1.539,8.751a15.545,15.545,0,0,1-1.608,2.532c-.293.407-.57.791-.752,1.08q-.44.7-.836,1.335a46.792,46.792,0,0,1-2.792,4.207.751.751,0,0,0,.487.194c.43.03,1.206-.27,2.378-1.742,1.191-1.5,1.931-1.15,1.961-1.136a.847.847,0,0,1,.451.505c.216.657-.3,1.662-.759,2.549l-.116.226a7.47,7.47,0,0,1-1.94,2.3c-.694.583-.651.789-.375,1.15.425.559,1.565-.052,2.206-.465a.158.158,0,0,1,.173.265,1.252,1.252,0,0,0-.587,1.166.4.4,0,0,0,.194.192,1.164,1.164,0,0,0,1,.014,9.6,9.6,0,0,0,1.409-.759.167.167,0,0,1,.045-.027A.163.163,0,0,1,2005.568,4751.152Z" transform="translate(-1918.39 -4659.521)"/></g><g transform="translate(39.294)"><path class="k" d="M2042.861,4610.67s-15.788,4.027-11.341,4.452,6.01-4.007,22.083-4.007c16.851,0,22.32,3.815,22.927,2.6s-13.387-4.867-13.387-4.867-.609-9.939-10.547-9.33S2042.861,4610.67,2042.861,4610.67Z" transform="translate(-2030.622 -4599.378)"/><path class="k" d="M2031.911,4615.056q-.293,0-.6-.028c-.6-.058-.872-.18-.888-.4-.083-1.063,9.9-3.678,12.129-4.248.013-1.022.39-10.6,9.837-11.18,5.2-.322,7.814,2.268,9.1,4.491a12.706,12.706,0,0,1,1.554,4.862c1.156.3,12.767,3.379,13.381,4.73a.3.3,0,0,1,0,.272c-.259.52-1.117.3-3-.178a74.308,74.308,0,0,0-20.029-2.359c-10.123,0-14.518,1.776-17.425,2.951A10.622,10.622,0,0,1,2031.911,4615.056Zm21.331-15.661q-.409,0-.841.026c-9.719.6-9.634,10.938-9.632,11.043a.11.11,0,0,1-.082.108c-5.958,1.52-12.093,3.446-12.047,4.039,0,0,.018.133.69.2a9.232,9.232,0,0,0,4.565-1.04c2.924-1.181,7.342-2.967,17.507-2.967a74.485,74.485,0,0,1,20.083,2.366c1.656.421,2.566.652,2.747.292a.091.091,0,0,0-.006-.084c-.489-1.077-9.775-3.706-13.312-4.628a.111.111,0,0,1-.082-.1C2062.825,4608.553,2062.154,4599.395,2053.242,4599.395Z" transform="translate(-2030.42 -4599.174)"/></g></g></g></g><g transform="translate(1636.128 4695.399)"><g transform="translate(0 0)"><g transform="translate(0 6.622)"><path class="q" d="M1715.989,4919.415s-3.61-2.531-5.278-.707-.254-2.678,2.531-2.061,7.452,2.693,6.219,3.758-1.871.216-3.2-.867" transform="translate(-1709.89 -4916.484)"/><path class="q" d="M1718.211,4920.808c-.576,0-1.09-.435-1.743-.989-.147-.125-.3-.256-.468-.392a.106.106,0,0,1-.015-.148.108.108,0,0,1,.149-.016c.167.136.323.27.471.395,1.022.868,1.584,1.344,2.591.474a.391.391,0,0,0,.153-.42c-.25-.988-3.746-2.587-6.325-3.155a2.728,2.728,0,0,0-2.866,1.51c-.26.461-.275.742-.238.782h0s.135.014.517-.4c1.71-1.871,5.266.586,5.417.692a.106.106,0,0,1-.121.173c-.035-.024-3.554-2.457-5.14-.722-.365.4-.623.542-.787.438-.2-.13-.081-.519.01-.739a3.034,3.034,0,0,1,3.254-1.935c2.381.524,6.181,2.111,6.484,3.31a.6.6,0,0,1-.219.632A1.737,1.737,0,0,1,1718.211,4920.808Z" transform="translate(-1709.694 -4916.291)"/></g><g transform="translate(2.098 0.307)"><path class="k" d="M1721.352,4907.286a10.482,10.482,0,0,1-4.993-3.48c-1.47-2.809,1.539-6.165,2.98-4.945,5.457,4.609,8.085-.8,13.106,5.7,3.2,4.15,1.745,10.048,6.5,11.391,4.729,1.336,11.961.915,17.507,1.24,7.563.242,16.883.413,20.744,2.38s7.87,7.882,18.559,11c0,0-9.384,4.614-18.315-5.83,0,0-.649,6.68.038,9.82s-1.507,3.347-2.992,3.789-5.115.367-3.735-1.172,2.827-1.437,3.279-2.677-3.4.548-6.423-4.754c-2.172-3.81-2.8-2.184-10.664-.018-16.487,4.534-20.644,2.767-20.644,2.767-1.227,3.436-1.766,4.905-3.958,5.554-3.722,1.1-5.419-.581-4.142-1.5.591-.428,1.148-.136,1.9-1.185,2.014-2.791,1.929-3.7.593-4.548a13.419,13.419,0,0,1-4.845-4.245c-2.466-3.219-1.819-7.665-1.836-12.559-.005-1.4-4.842-5.286-6.707-7.365a8.68,8.68,0,0,0,4.334,1.168Z" transform="translate(-1715.863 -4898.492)"/><path class="k" d="M1772.4,4938.482c-.955,0-1.885-.165-2.161-.6-.174-.274-.09-.605.249-.983a6.449,6.449,0,0,1,1.914-1.417c.625-.339,1.119-.607,1.343-1.224.052-.144.021-.2.012-.213-.072-.126-.39-.186-.793-.261-1.269-.236-3.632-.676-5.633-4.188-1.61-2.823-2.283-2.6-6.024-1.358-1.175.39-2.638.875-4.516,1.393-15.118,4.157-19.849,3.048-20.607,2.8-1.189,3.33-1.755,4.856-3.993,5.519-2.489.738-4.208.274-4.62-.565a.878.878,0,0,1,.382-1.13,2.037,2.037,0,0,1,.662-.292,1.965,1.965,0,0,0,1.217-.868c1.195-1.655,1.648-2.651,1.517-3.333a1.673,1.673,0,0,0-.894-1.058c-.112-.071-.243-.145-.4-.23a13.245,13.245,0,0,1-4.478-4.042c-2.047-2.673-1.975-6.088-1.891-10.044.018-.838.036-1.705.033-2.582,0-.9-2.223-2.99-4.181-4.833-.972-.916-1.889-1.779-2.5-2.458a.109.109,0,0,1,.141-.165,8.485,8.485,0,0,0,4.087,1.148l-.179-.322a10.646,10.646,0,0,1-5-3.5,4.029,4.029,0,0,1,1.1-4.862,1.558,1.558,0,0,1,2.041-.233,8.226,8.226,0,0,0,6.135,2.109c2.173.018,4.227.034,6.986,3.606a14.96,14.96,0,0,1,2.352,5.567c.719,2.688,1.34,5.008,4.1,5.786,3.291.931,7.782,1,12.125,1.078,1.9.031,3.686.061,5.359.159l1.389.043c7.382.229,15.749.489,19.4,2.349a23.71,23.71,0,0,1,3.927,2.844,38.245,38.245,0,0,0,14.612,8.145.11.11,0,0,1,.018.2c-.094.046-9.443,4.475-18.277-5.661-.109,1.256-.541,6.789.059,9.53.642,2.917-1.154,3.4-2.6,3.786-.163.044-.321.087-.472.131A7.414,7.414,0,0,1,1772.4,4938.482Zm-7.675-11.337c1.118,0,1.822.634,2.794,2.339,1.951,3.424,4.249,3.852,5.483,4.082.494.092.82.153.943.367a.457.457,0,0,1,0,.4,2.6,2.6,0,0,1-1.445,1.341,6.282,6.282,0,0,0-1.855,1.372c-.265.3-.341.538-.226.72.387.614,2.684.619,3.849.274.153-.046.313-.088.477-.133,1.423-.382,3.035-.814,2.438-3.527-.683-3.121-.047-9.788-.04-9.855a.109.109,0,0,1,.076-.094.111.111,0,0,1,.116.033c7.925,9.268,16.3,6.561,17.908,5.92a38.533,38.533,0,0,1-14.4-8.1,23.53,23.53,0,0,0-3.887-2.819c-3.6-1.837-11.946-2.1-19.305-2.325l-1.392-.043c-1.671-.1-3.46-.128-5.353-.159-4.357-.073-8.863-.148-12.181-1.085-2.876-.812-3.542-3.3-4.248-5.941a14.789,14.789,0,0,0-2.314-5.488c-2.694-3.488-4.7-3.5-6.814-3.521a8.41,8.41,0,0,1-6.275-2.161c-.446-.377-1.1-.29-1.761.237a3.82,3.82,0,0,0-1.051,4.572,10.439,10.439,0,0,0,4.929,3.428.111.111,0,0,1,.063.051l.292.524a.112.112,0,0,1,0,.108.11.11,0,0,1-.093.055,9.171,9.171,0,0,1-3.762-.828c.559.572,1.26,1.232,1.992,1.921,2.088,1.966,4.247,4,4.251,4.993,0,.879-.015,1.747-.033,2.587-.083,3.914-.154,7.294,1.846,9.906a13.056,13.056,0,0,0,4.411,3.984c.156.087.291.162.406.235a1.892,1.892,0,0,1,.992,1.2c.146.755-.3,1.77-1.555,3.5a2.175,2.175,0,0,1-1.332.949,1.819,1.819,0,0,0-.6.26.666.666,0,0,0-.313.855c.289.588,1.729,1.231,4.36.451,2.154-.637,2.661-2.056,3.887-5.485a.109.109,0,0,1,.146-.064c.042.018,4.349,1.69,20.573-2.771,1.872-.516,3.332-1,4.5-1.389A12.857,12.857,0,0,1,1764.724,4927.145Z" transform="translate(-1715.675 -4898.286)"/></g><path class="r" d="M1721.463,4897.762c.094.085.18.166.27.25a.782.782,0,0,1-.2.518c-.3.326-1.508.206-2-.134C1720.075,4897.605,1720.629,4897,1721.463,4897.762Z" transform="translate(-1716.085 -4897.412)"/><path class="r" d="M1741.159,4914.823c-2.2-.154-4.18,13.257-4.333,15.458a3.995,3.995,0,1,0,7.97.559C1744.949,4928.638,1743.36,4914.977,1741.159,4914.823Z" transform="translate(-1727.303 -4908.715)"/></g><g transform="translate(11.093 4.669)"><path class="b" d="M1741.932,4911.947a.43.43,0,1,1,.611-.026A.43.43,0,0,1,1741.932,4911.947Z" transform="translate(-1741.626 -4911.033)"/><path class="b" d="M1741.917,4911.919a.594.594,0,0,1-.4-.156.586.586,0,0,1-.193-.41.6.6,0,0,1,.57-.628.6.6,0,0,1,.623.567.592.592,0,0,1-.156.434A.6.6,0,0,1,1741.917,4911.919Zm0-.863h-.011a.258.258,0,0,0-.183.086.264.264,0,0,0-.07.194.258.258,0,0,0,.084.18h0a.268.268,0,0,0,.377-.017.261.261,0,0,0,.068-.192.254.254,0,0,0-.086-.181A.264.264,0,0,0,1741.917,4911.056Z" transform="translate(-1741.32 -4910.725)"/></g></g><rect class="s" width="200.205" height="19.692" rx="2" transform="translate(1599.988 4735.052)"/><path class="t" d="M1650.321,4996.247c0-1.722-1.4-5.744-3.118-5.744s-3.118,4.021-3.118,5.744a3.118,3.118,0,0,0,6.236,0Z" transform="translate(-30.969 -262.453)"/><path class="t" d="M1710.208,4996.247c0-1.722-1.4-5.744-3.118-5.744s-3.118,4.021-3.118,5.744a3.118,3.118,0,0,0,6.236,0Z" transform="translate(-69.851 -262.453)"/><path class="t" d="M1770.095,4996.247c0-1.722-1.4-5.744-3.118-5.744s-3.118,4.021-3.118,5.744a3.118,3.118,0,0,0,6.236,0Z" transform="translate(-108.733 -262.453)"/><path class="t" d="M1829.982,4996.247c0-1.722-1.4-5.744-3.118-5.744s-3.118,4.021-3.118,5.744a3.118,3.118,0,0,0,6.236,0Z" transform="translate(-147.615 -262.453)"/><path class="t" d="M1889.869,4996.247c0-1.722-1.4-5.744-3.118-5.744s-3.118,4.021-3.118,5.744a3.118,3.118,0,0,0,6.236,0Z" transform="translate(-186.497 -262.453)"/><path class="t" d="M1949.756,4996.247c0-1.722-1.4-5.744-3.118-5.744s-3.118,4.021-3.118,5.744a3.118,3.118,0,0,0,6.236,0Z" transform="translate(-225.379 -262.453)"/><path class="t" d="M2009.643,4996.247c0-1.722-1.4-5.744-3.118-5.744s-3.118,4.021-3.118,5.744a3.118,3.118,0,0,0,6.236,0Z" transform="translate(-264.26 -262.453)"/><path class="t" d="M2069.53,4996.247c0-1.722-1.4-5.744-3.118-5.744s-3.118,4.021-3.118,5.744a3.118,3.118,0,0,0,6.236,0Z" transform="translate(-303.142 -262.453)"/><path class="t" d="M2129.417,4996.247c0-1.722-1.4-5.744-3.118-5.744s-3.118,4.021-3.118,5.744a3.118,3.118,0,0,0,6.236,0Z" transform="translate(-342.024 -262.453)"/><g transform="translate(1703.121 4674.689)"><path class="b" d="M1930.381,4867.035l-5.512-25.158a3.863,3.863,0,0,0-4.6-2.949l-16.062,3.511a3.862,3.862,0,0,0-2.949,4.6l5.511,25.158a3.864,3.864,0,0,0,4.6,2.95l16.062-3.511A3.863,3.863,0,0,0,1930.381,4867.035Zm-3.542,1.885-16.062,3.51a1.106,1.106,0,0,1-.235.026,1.09,1.09,0,0,1-1.056-.854l-5.512-25.159a1.085,1.085,0,0,1,.828-1.29l16.062-3.511a1.145,1.145,0,0,1,.235-.026,1.089,1.089,0,0,1,1.056.854l5.512,25.159A1.087,1.087,0,0,1,1926.839,4868.919Z" transform="translate(-1901.004 -4838.673)"/><path class="b" d="M1910.237,4875.093a4.035,4.035,0,0,1-3.935-3.168l-5.511-25.158a4.029,4.029,0,0,1,3.076-4.8l16.062-3.511a4.035,4.035,0,0,1,4.8,3.076l5.511,25.157h0a4.027,4.027,0,0,1-3.075,4.8L1911.1,4875A4.027,4.027,0,0,1,1910.237,4875.093Zm10.558-36.4a3.746,3.746,0,0,0-.8.086l-16.062,3.511a3.7,3.7,0,0,0-2.823,4.4l5.511,25.157a3.7,3.7,0,0,0,4.4,2.823l16.062-3.511a3.7,3.7,0,0,0,2.822-4.4l-5.511-25.158a3.7,3.7,0,0,0-3.605-2.909Zm-10.562,33.617a1.256,1.256,0,0,1-1.218-.984l-5.512-25.159a1.251,1.251,0,0,1,.955-1.487l16.063-3.511a1.246,1.246,0,0,1,1.489.955l5.512,25.159a1.251,1.251,0,0,1-.955,1.487h0l-16.062,3.511A1.289,1.289,0,0,1,1910.234,4872.315Zm10.558-30.839a.967.967,0,0,0-.2.021l-16.062,3.511a.92.92,0,0,0-.7,1.093l5.512,25.159a.925.925,0,0,0,1.1.7l16.061-3.511a.92.92,0,0,0,.7-1.093l-5.512-25.159A.923.923,0,0,0,1920.792,4841.477Zm5.74,27.137h0Z" transform="translate(-1900.696 -4838.368)"/></g><g transform="translate(1713.67 4674.107)"><path class="l" d="M1932.1,4843.035a.88.88,0,0,0,.878-.879l.382-4.232a.765.765,0,0,0-.766-.764h0a.764.764,0,0,0-.765.764l-.609,4.232a.879.879,0,0,0,.88.879Z" transform="translate(-1931.066 -4837.001)"/><path class="l" d="M1931.811,4842.9a1.04,1.04,0,0,1-1.039-1.038l.611-4.254a.923.923,0,0,1,1.846.022l-.382,4.247A1.034,1.034,0,0,1,1931.811,4842.9Zm.493-5.875a.606.606,0,0,0-.606.6l-.611,4.255a.721.721,0,0,0,1.442-.023l.382-4.247A.6.6,0,0,0,1932.3,4837.025Z" transform="translate(-1930.772 -4836.708)"/></g><g transform="translate(1715.563 4674.107)"><path class="l" d="M1937.5,4843.035a.88.88,0,0,0,.879-.879l.137-4.232a.766.766,0,0,0-.767-.764h0a.764.764,0,0,0-.765.764l-.363,4.232a.88.88,0,0,0,.879.879Z" transform="translate(-1936.461 -4837.001)"/><path class="l" d="M1937.205,4842.9a1.039,1.039,0,0,1-1.037-1.038l.364-4.246a.924.924,0,0,1,1.849.014l-.138,4.237A1.037,1.037,0,0,1,1937.205,4842.9Zm.249-5.875a.606.606,0,0,0-.606.6l-.364,4.246a.72.72,0,0,0,1.441-.014l.138-4.237A.607.607,0,0,0,1937.454,4837.025Z" transform="translate(-1936.168 -4836.708)"/></g><g transform="translate(1717.458 4674.107)"><path class="l" d="M1942.9,4843.035a.881.881,0,0,0,.88-.879l-.111-4.232a.763.763,0,0,0-.763-.764h0a.764.764,0,0,0-.766.764l-.118,4.232a.88.88,0,0,0,.878.879Z" transform="translate(-1941.864 -4837.001)"/><path class="l" d="M1942.607,4842.9a1.038,1.038,0,0,1-1.036-1.038l.117-4.236a.923.923,0,0,1,1.847,0l.111,4.228A1.04,1.04,0,0,1,1942.607,4842.9Zm.006-5.875a.606.606,0,0,0-.607.6l-.117,4.237a.72.72,0,0,0,1.44-.005l-.111-4.228A.606.606,0,0,0,1942.613,4837.025Z" transform="translate(-1941.571 -4836.708)"/></g><g transform="translate(1719.351 4674.084)"><path class="l" d="M1948.3,4842.993a.879.879,0,0,0,.879-.879l-.125-4.526a.58.58,0,0,0-.639-.493h0a.58.58,0,0,0-.64.493l-.353,4.526a.878.878,0,0,0,.878.879Z" transform="translate(-1947.263 -4836.936)"/><path class="l" d="M1948.006,4842.857a1.037,1.037,0,0,1-1.036-1.037l.353-4.538a.727.727,0,0,1,.8-.64.737.737,0,0,1,.8.652l.125,4.521A1.039,1.039,0,0,1,1948.006,4842.857Zm.115-5.9c-.261,0-.482.153-.482.335l-.353,4.538a.72.72,0,0,0,1.44-.012l-.125-4.521C1948.6,4837.112,1948.382,4836.959,1948.121,4836.959Z" transform="translate(-1946.97 -4836.642)"/></g><g transform="translate(1746.903 4620.289)"><path class="b" d="M2074.434,4695.756c-2.977-6.489-9.739-6.219-14.336-7.3-2.336-.549-3.32-2.289-3.7-4.687h-7.521c.032,2.121-.336,3.891-2.437,4.756-3.448,1.418-11.157.2-14.807,6.489-2.591,4.462-3.86,14.711-5.61,21.666l6.575,3.643c3.1-8.452,4.511-19.425,4.511-19.425a10.508,10.508,0,0,1,2.028,2.491,4.076,4.076,0,0,1,.41,3.4,9.329,9.329,0,0,0-.511,2.717,4.972,4.972,0,0,0,4.07,4.886,30.817,30.817,0,0,1,.3,16.236l20.305-.172c-.112-.614-.256-1.53-.368-2.679h0a37.8,37.8,0,0,1,.005-7.4c.8-7.927,3.29-18.083,1.622-22.18,0,0,3.691,8.24,6.951,15.052,1.4,2.923,2.362,4.95,3.021,6.345l7.208-3.061C2080.016,4710.284,2076.544,4700.364,2074.434,4695.756Z" transform="translate(-2025.847 -4683.593)"/><path class="b" d="M2043.077,4730.473a.176.176,0,0,1-.171-.215,30.6,30.6,0,0,0-.264-16.045,5.142,5.142,0,0,1-4.106-5.037,9.53,9.53,0,0,1,.52-2.771,3.888,3.888,0,0,0-.392-3.25,11.727,11.727,0,0,0-1.75-2.229,106.031,106.031,0,0,1-4.475,19.131.175.175,0,0,1-.25.093l-6.575-3.643a.177.177,0,0,1-.085-.2c.551-2.187,1.044-4.652,1.566-7.262,1.118-5.589,2.274-11.367,4.063-14.449,2.648-4.562,7.346-5.229,11.12-5.766a16.91,16.91,0,0,0,3.772-.8c1.978-.815,2.361-2.425,2.329-4.591a.174.174,0,0,1,.05-.126.177.177,0,0,1,.125-.052h7.521a.175.175,0,0,1,.173.148c.42,2.661,1.52,4.063,3.565,4.544.859.2,1.788.356,2.771.519,4.325.715,9.228,1.525,11.684,6.879h0c2.034,4.444,5.32,13.756,7.719,20.785a.176.176,0,0,1-.1.218l-7.208,3.061a.176.176,0,0,1-.227-.087c-.659-1.394-1.622-3.421-3.021-6.343-2.333-4.875-4.911-10.536-6.172-13.324.415,3.188-.311,7.993-1.072,13.026-.374,2.476-.761,5.036-1,7.368a37.447,37.447,0,0,0-.005,7.366c.115,1.171.262,2.1.366,2.666a.175.175,0,0,1-.037.144.178.178,0,0,1-.134.063l-20.3.172Zm-6.292-30.076a.178.178,0,0,1,.11.039,10.618,10.618,0,0,1,2.066,2.535,4.234,4.234,0,0,1,.428,3.542,9.158,9.158,0,0,0-.5,2.663,4.791,4.791,0,0,0,3.927,4.713.177.177,0,0,1,.137.125,30.874,30.874,0,0,1,.347,16.107l19.875-.168c-.1-.582-.231-1.438-.334-2.489a37.812,37.812,0,0,1,.006-7.436c.236-2.341.623-4.905,1-7.385.882-5.835,1.793-11.867.635-14.712a.175.175,0,0,1,.323-.138c.037.083,3.728,8.315,6.949,15.048,1.349,2.819,2.293,4.8,2.95,6.193l6.9-2.932c-2.391-7-5.639-16.2-7.653-20.6h0c-2.378-5.184-7.183-5.979-11.423-6.679-.99-.164-1.924-.318-2.794-.523-2.136-.5-3.348-1.992-3.808-4.682h-7.2c.009,1.937-.328,3.828-2.548,4.743a17.173,17.173,0,0,1-3.856.82c-3.7.525-8.3,1.18-10.866,5.594-1.76,3.032-2.91,8.781-4.022,14.342-.512,2.562-1,4.985-1.537,7.147l6.277,3.479a107.749,107.749,0,0,0,4.432-19.193.176.176,0,0,1,.109-.141A.168.168,0,0,1,2036.784,4700.4Z" transform="translate(-2025.523 -4683.268)"/></g></g></svg>