<svg xmlns="http://www.w3.org/2000/svg" width="46" height="46" viewBox="0 0 46 46"><defs><style>.a,.b{fill:#fff;}.a{stroke:rgba(0,0,0,0);stroke-miterlimit:10;}</style></defs><g transform="translate(0.5 0.5)"><g transform="translate(0 0)"><path class="a" d="M1796.5,204a22.43,22.43,0,1,1,8.758-1.768A22.358,22.358,0,0,1,1796.5,204Zm0-31.341c-.071,0-7.087.006-8.83.549a3.1,3.1,0,0,0-2,2.324,42.6,42.6,0,0,0,0,12.654,3.1,3.1,0,0,0,2,2.324c1.743.543,8.759.549,8.83.549s7.088-.006,8.83-.549a3.1,3.1,0,0,0,2-2.324,42.6,42.6,0,0,0,0-12.654,3.1,3.1,0,0,0-2-2.324C1803.588,172.666,1796.571,172.66,1796.5,172.66Z" transform="translate(-1774 -159)"/><path class="b" d="M0,8V0L6.4,4Z" transform="translate(20.042 19.24)"/></g></g></svg>