<svg xmlns="http://www.w3.org/2000/svg" width="45" height="45" viewBox="0 0 45 45"><defs><style>.a{fill:#fff;}</style></defs><g transform="translate(-4.079 -4.079)"><path class="a" d="M26.579,8.133c6.008,0,6.719.023,9.092.131a12.454,12.454,0,0,1,4.178.775,7.451,7.451,0,0,1,4.27,4.27,12.453,12.453,0,0,1,.775,4.178c.108,2.373.131,3.084.131,9.092S45,33.3,44.894,35.671a12.454,12.454,0,0,1-.775,4.178,7.451,7.451,0,0,1-4.27,4.27,12.454,12.454,0,0,1-4.178.775c-2.372.108-3.084.131-9.092.131s-6.72-.023-9.092-.131a12.453,12.453,0,0,1-4.178-.775,7.451,7.451,0,0,1-4.27-4.27,12.454,12.454,0,0,1-.775-4.178c-.108-2.373-.131-3.084-.131-9.092s.023-6.719.131-9.092a12.453,12.453,0,0,1,.775-4.178,7.451,7.451,0,0,1,4.27-4.27,12.453,12.453,0,0,1,4.178-.775c2.373-.108,3.084-.131,9.092-.131m0-4.054c-6.111,0-6.877.026-9.277.135A16.515,16.515,0,0,0,11.841,5.26a11.505,11.505,0,0,0-6.58,6.58A16.515,16.515,0,0,0,4.214,17.3c-.109,2.4-.135,3.166-.135,9.277s.026,6.877.135,9.277A16.515,16.515,0,0,0,5.26,41.317a11.505,11.505,0,0,0,6.58,6.58A16.515,16.515,0,0,0,17.3,48.944c2.4.109,3.166.135,9.277.135s6.877-.026,9.277-.135A16.515,16.515,0,0,0,41.317,47.9a11.505,11.505,0,0,0,6.58-6.58,16.515,16.515,0,0,0,1.046-5.462c.109-2.4.135-3.166.135-9.277s-.026-6.877-.135-9.277A16.515,16.515,0,0,0,47.9,11.841a11.505,11.505,0,0,0-6.58-6.58,16.515,16.515,0,0,0-5.462-1.046c-2.4-.109-3.166-.135-9.277-.135Z"/><path class="a" d="M138.189,126.635a11.554,11.554,0,1,0,11.554,11.554A11.554,11.554,0,0,0,138.189,126.635Zm0,19.054a7.5,7.5,0,1,1,7.5-7.5A7.5,7.5,0,0,1,138.189,145.689Z" transform="translate(-111.61 -111.61)"/><circle class="a" cx="2.7" cy="2.7" r="2.7" transform="translate(35.89 11.868)"/></g></svg>