<svg xmlns="http://www.w3.org/2000/svg" width="46" height="46" viewBox="0 0 46 46"><defs><style>.a{fill:#fff;stroke:rgba(0,0,0,0);stroke-miterlimit:10;}</style></defs><g transform="translate(0.5 0.5)"><g transform="translate(0 0)"><path class="a" d="M1861.5,204a22.43,22.43,0,1,1,8.758-1.768A22.359,22.359,0,0,1,1861.5,204Zm-11.184-25.277c-.026,0-.042,0-.048.014a6.068,6.068,0,0,0,.6,2.271,5.417,5.417,0,0,0,2.3,2.17l.824.39-.974.016c-.6,0-.82.008-.888.1-.042.056-.021.146.015.276a5.066,5.066,0,0,0,3.139,2.779l1.04.356-.906.542a9.518,9.518,0,0,1-4.5,1.255,5.09,5.09,0,0,0-1.377.135,12.669,12.669,0,0,0,3.24,1.491,13.574,13.574,0,0,0,4,.585,13.986,13.986,0,0,0,7.013-1.839,14.665,14.665,0,0,0,5.59-6.576,17.564,17.564,0,0,0,1.141-5.084c0-.785.056-.886.991-1.813a11.075,11.075,0,0,0,1.175-1.3c.061-.118.1-.193.078-.226-.008-.014-.026-.02-.054-.02a3.747,3.747,0,0,0-.729.212,4.715,4.715,0,0,1-1.177.327c-.075,0-.119-.017-.135-.053-.036-.083.083-.266.388-.6a4.936,4.936,0,0,0,1.142-1.813c0-.01-.01-.015-.028-.015a1.667,1.667,0,0,0-.509.2,9.388,9.388,0,0,1-1.478.576l-.906.288-.823-.559a6.747,6.747,0,0,0-1.427-.746,5.238,5.238,0,0,0-1.342-.158,5.09,5.09,0,0,0-1.6.227,4.841,4.841,0,0,0-3.274,4.881l.05.831-.84-.1a13.69,13.69,0,0,1-7.99-3.932l-1.108-1.1-.285.814a4.9,4.9,0,0,0,1.04,5.017c.3.322.428.51.393.591-.015.033-.055.05-.124.05a3.4,3.4,0,0,1-.908-.251A3.442,3.442,0,0,0,1850.316,178.723Z" transform="translate(-1839 -159)"/></g></g></svg>