<svg xmlns="http://www.w3.org/2000/svg" width="205" height="194.443" viewBox="0 0 205 194.443"><defs><style>.a{fill:#f9d0ba;}.b{fill:#f5aa5a;}.c{fill:#fff33b;}.d{fill:#f8c5ac;}.e{fill:#fff;}.f{fill:#f7bda1;}.g{fill:#eb613b;}.h{fill:#952348;}.i{fill:#e60012;}.j{fill:#feefe7;}.k{fill:#fbdece;}.l{fill:#d5ced9;}.m{fill:#f9ccb6;}.n{fill:#fbd8c7;}.o{fill:#00459c;}.p{fill:#f5af7e;}.q{fill:#eccf77;}.r{fill:#b9b8c0;}.s{fill:#d71718;}</style></defs><g transform="translate(-1673.076 -3643.123)"><g transform="translate(1673.076 3683.586)"><g transform="translate(22.876 86.015)"><path class="a" d="M1746.222,4001.209l-8.252,34.406h4.405l13.9-34.362" transform="translate(-1737.916 -4001.155)"/><path class="a" d="M1742.276,4035.57h-4.405a.055.055,0,0,1-.053-.067l8.252-34.406a.055.055,0,0,1,.066-.04.055.055,0,0,1,.04.066l-8.236,34.338h4.3l13.886-34.327a.055.055,0,0,1,.1.041l-13.9,34.361A.055.055,0,0,1,1742.276,4035.57Z" transform="translate(-1737.816 -4001.055)"/></g><g transform="translate(161.343 86.015)"><path class="a" d="M2139.886,4001.209l8.252,34.406h-4.405l-13.9-34.362" transform="translate(-2129.778 -4001.155)"/><path class="a" d="M2148.038,4035.57h-4.405a.055.055,0,0,1-.051-.034l-13.9-34.361a.055.055,0,0,1,.03-.071.056.056,0,0,1,.071.03l13.885,34.327h4.3l-8.235-34.338a.055.055,0,0,1,.04-.066.055.055,0,0,1,.066.04l8.251,34.406a.055.055,0,0,1-.053.067Z" transform="translate(-2129.679 -4001.055)"/></g><path class="b" d="M1868.155,3823.2c-5.735,0-10.269,4.031-10.269,11.471v10.407c0,14.252-3.959,26.92-29.3,26.92H1722.562c-25.337,0-29.3-12.668-29.3-26.92v-10.407c0-7.44-4.534-11.471-10.27-11.471s-9.921,4.65-9.921,11.471c0,10.1.442,12.812.442,24.6s8.612,33.54,34.9,33.54h134.316c26.288,0,34.9-21.755,34.9-33.54s.442-14.5.442-24.6C1878.076,3827.845,1873.891,3823.2,1868.155,3823.2Z" transform="translate(-1673.076 -3800.028)"/><path class="b" d="M1879.993,3757.632H1757.329a17.625,17.625,0,0,0-17.625,17.625v36.711a17.624,17.624,0,0,0,17.625,17.624h122.664a17.624,17.624,0,0,0,17.624-17.624v-36.711A17.625,17.625,0,0,0,1879.993,3757.632Z" transform="translate(-1716.161 -3757.632)"/></g><g transform="translate(1706.798 3644.593)"><g transform="translate(2.067)"><g transform="translate(19.588 2.124)"><path class="c" d="M1842.25,3654.6c6.115,0,8.6,5,8.325,8.9s-2.488,9.451,1.4,12.092c0,0-8.058,6.45-22.133.37,0,0,2.987-1.329,2.815-5.968-.112-3.04-.113-4.449-.113-9.458C1832.548,3649.27,1842.25,3654.6,1842.25,3654.6Z" transform="translate(-1829.828 -3653.323)"/><path class="c" d="M1841.419,3678.555q-1.093,0-2.212-.1a30.946,30.946,0,0,1-9.4-2.509.019.019,0,0,1-.011-.017.019.019,0,0,1,.011-.017,4.434,4.434,0,0,0,1.467-1.24,6.933,6.933,0,0,0,1.338-4.71c-.113-3.059-.113-4.542-.113-9.458,0-3.361.866-5.578,2.574-6.589a5.946,5.946,0,0,1,4.66-.318,12.281,12.281,0,0,1,2.49.958,8.118,8.118,0,0,1,6.126,2.474,8.683,8.683,0,0,1,2.214,6.441c-.064.886-.225,1.846-.4,2.861-.565,3.366-1.206,7.18,1.791,9.213a.02.02,0,0,1,.008.015.02.02,0,0,1-.007.015,15.485,15.485,0,0,1-5.8,2.468A21.5,21.5,0,0,1,1841.419,3678.555Zm-11.562-2.629a30.889,30.889,0,0,0,9.352,2.49,22.252,22.252,0,0,0,6.941-.411,15.63,15.63,0,0,0,5.763-2.446c-2.993-2.05-2.351-5.867-1.786-9.236.171-1.015.332-1.974.395-2.858a8.641,8.641,0,0,0-2.2-6.413,8.082,8.082,0,0,0-6.1-2.463.015.015,0,0,1-.009,0,12.213,12.213,0,0,0-2.487-.957,5.907,5.907,0,0,0-4.631.314c-1.7,1-2.556,3.21-2.556,6.557,0,4.916,0,6.4.113,9.458a6.968,6.968,0,0,1-1.347,4.735A4.605,4.605,0,0,1,1829.857,3675.926Z" transform="translate(-1829.794 -3653.294)"/></g><g transform="translate(0 17.278)"><path class="d" d="M1798.262,3781.968c-14.872-6.693-2.719-21.2-2.257-27.441s-4.776-25.655-4.776-25.655-4.965,21.685-7.814,29.093-9.687,6.268-8.832-.854,8.532-30.365,9.507-34.377,9.895-5.544,12.3-7.757c7.717-7.095,5.449-11.52,5.165-18.643h8.547c-.285,7.123-3.385,11.548,5.288,18.643,2.53,2.07,11.327,3.745,12.3,7.757s8.9,29.686,9.752,36.809-5.983,8.262-8.832.854-7.511-29.373-7.511-29.373-5.911,17.262-5.448,23.5,6.446,15.072,7.723,26.957c.8,7.394-9.736,3.626-15.937,1.2" transform="translate(-1774.457 -3696.28)"/><path class="d" d="M1819.09,3785.792c-3.16,0-7.589-1.522-11.768-3.158a.055.055,0,0,1,.04-.1c5.489,2.148,12.126,4.356,14.757,2.346a3.61,3.61,0,0,0,1.107-3.488c-.722-6.721-2.907-12.35-4.835-17.318-1.442-3.715-2.687-6.924-2.889-9.641-.458-6.18,5.392-23.352,5.451-23.524a.055.055,0,0,1,.052-.037h0a.054.054,0,0,1,.05.043c.047.22,4.694,22.045,7.509,29.364,1.552,4.036,4.248,5.381,6.1,4.921,1.959-.486,2.992-2.743,2.631-5.75-.612-5.1-4.8-19.542-7.57-29.1-1.064-3.669-1.9-6.568-2.181-7.7-.628-2.587-4.512-4.179-7.938-5.584a19.721,19.721,0,0,1-4.344-2.143c-6.9-5.643-6.378-9.578-5.718-14.561.17-1.286.346-2.616.407-4.069h-8.433c.052,1.257.165,2.422.274,3.55.5,5.163.892,9.24-5.458,15.079a17.689,17.689,0,0,1-4.606,2.337c-3.314,1.353-7.07,2.886-7.679,5.393-.3,1.22-1.209,4.206-2.364,7.987-2.607,8.533-6.547,21.428-7.142,26.383-.361,3.007.672,5.264,2.631,5.75,1.85.459,4.543-.886,6.1-4.922,2.815-7.319,7.762-28.868,7.812-29.085a.054.054,0,0,1,.052-.042.05.05,0,0,1,.054.04c.052.194,5.235,19.495,4.777,25.673a23.636,23.636,0,0,1-2.029,6.216c-1.471,3.543-3.139,7.559-3.084,11.362.062,4.407,2.463,7.615,7.339,9.81a.055.055,0,0,1-.045.1c-4.918-2.214-7.34-5.454-7.4-9.907-.054-3.826,1.618-7.853,3.093-11.406a23.578,23.578,0,0,0,2.021-6.181c.43-5.811-4.151-23.294-4.718-25.425-.525,2.277-5.1,21.953-7.766,28.885a9.184,9.184,0,0,1-2.911,4.163,3.983,3.983,0,0,1-3.313.825c-2.016-.5-3.081-2.8-2.713-5.869.6-4.965,4.537-17.865,7.146-26.4,1.155-3.779,2.067-6.764,2.362-7.981.622-2.561,4.406-4.105,7.744-5.468a17.648,17.648,0,0,0,4.573-2.316c6.311-5.8,5.919-9.855,5.423-14.987-.111-1.146-.225-2.332-.276-3.613a.053.053,0,0,1,.015-.04.054.054,0,0,1,.039-.017h8.547a.055.055,0,0,1,.054.057c-.059,1.479-.238,2.829-.411,4.135-.656,4.949-1.173,8.858,5.679,14.463a19.706,19.706,0,0,0,4.316,2.127c3.45,1.415,7.361,3.018,8,5.66.276,1.134,1.116,4.032,2.18,7.7,2.772,9.559,6.961,24,7.574,29.115.368,3.065-.7,5.368-2.713,5.869a3.986,3.986,0,0,1-3.313-.825,9.183,9.183,0,0,1-2.911-4.163c-2.675-6.957-7-26.991-7.472-29.187-.637,1.892-5.812,17.484-5.381,23.293.2,2.7,1.443,5.9,2.881,9.609,1.93,4.974,4.118,10.611,4.841,17.346a3.709,3.709,0,0,1-1.149,3.586A5.033,5.033,0,0,1,1819.09,3785.792Z" transform="translate(-1774.36 -3696.18)"/></g><g transform="translate(0.027 32.162)"><path class="e" d="M1774.583,3784.3c.855-7.123,8.532-30.365,9.507-34.376s9.895-5.544,12.3-7.757a20.444,20.444,0,0,0,3.268-3.756l5.858,11.36,6.226-11.389a19.938,19.938,0,0,0,3.648,3.785c2.53,2.069,11.327,3.745,12.3,7.757s8.9,29.686,9.752,36.809-5.983,8.262-8.832.854-7.511-29.372-7.511-29.372-5.911,17.262-5.448,23.5c.448,6.048,6.083,14.53,7.592,25.866-6.006.527-20.846,1.081-31.186-4.852-.24-.138-1.255-2.254-1.483-2.391-.592-7.823,5.092-14.073,5.429-18.623.462-6.241-4.776-25.656-4.776-25.656s-4.965,21.685-7.814,29.093S1773.728,3791.423,1774.583,3784.3Z" transform="translate(-1774.484 -3738.354)"/><path class="e" d="M1816.13,3807.865c-7.1,0-16.768-.934-24.134-5.16a6.175,6.175,0,0,1-.774-1.239,6.693,6.693,0,0,0-.709-1.153.029.029,0,0,1-.014-.022c-.359-4.751,1.562-8.857,3.257-12.48,1.095-2.34,2.04-4.36,2.172-6.147.439-5.924-4.327-23.965-4.746-25.538-.386,1.677-5.077,21.933-7.79,28.987a9.153,9.153,0,0,1-2.9,4.151,3.96,3.96,0,0,1-3.291.821c-2-.5-3.059-2.789-2.693-5.84l.028,0-.028,0c.6-4.962,4.537-17.862,7.145-26.4,1.155-3.78,2.067-6.765,2.362-7.982.619-2.548,4.4-4.089,7.729-5.449a17.658,17.658,0,0,0,4.581-2.321,20.314,20.314,0,0,0,3.263-3.751.03.03,0,0,1,.025-.012.028.028,0,0,1,.023.015l5.834,11.313,6.2-11.343a.028.028,0,0,1,.023-.014.032.032,0,0,1,.025.011,14.628,14.628,0,0,0,7.966,5.911c3.445,1.412,7.349,3.012,7.987,5.641.276,1.135,1.116,4.033,2.18,7.7,2.772,9.558,6.96,24,7.573,29.111.366,3.05-.691,5.343-2.693,5.84a3.957,3.957,0,0,1-3.291-.821,9.154,9.154,0,0,1-2.9-4.151c-2.72-7.071-7.146-27.663-7.492-29.278-.472,1.4-5.853,17.472-5.414,23.4.2,2.7,1.443,5.907,2.883,9.616,1.816,4.68,3.875,9.984,4.708,16.248a.027.027,0,0,1-.006.021.028.028,0,0,1-.019.01C1821.485,3807.71,1819.019,3807.865,1816.13,3807.865Zm-25.575-7.591a6.966,6.966,0,0,1,.716,1.165,6.874,6.874,0,0,0,.753,1.217c10.331,5.927,25.2,5.37,31.141,4.85-.836-6.244-2.889-11.536-4.7-16.206-1.441-3.714-2.685-6.921-2.887-9.633-.457-6.175,5.391-23.341,5.45-23.514a.03.03,0,0,1,.028-.019.028.028,0,0,1,.026.022c.047.219,4.694,22.048,7.51,29.368a9.1,9.1,0,0,0,2.883,4.126,3.9,3.9,0,0,0,3.244.812c1.973-.49,3.014-2.758,2.651-5.779-.612-5.1-4.8-19.546-7.571-29.1-1.064-3.669-1.9-6.568-2.181-7.7-.631-2.6-4.521-4.2-7.954-5.6a14.678,14.678,0,0,1-7.965-5.894l-6.2,11.35a.028.028,0,0,1-.024.015h0a.028.028,0,0,1-.024-.015l-5.836-11.318a20.449,20.449,0,0,1-3.245,3.722,17.687,17.687,0,0,1-4.6,2.332c-3.32,1.355-7.083,2.891-7.7,5.411-.3,1.219-1.208,4.2-2.364,7.986-2.607,8.534-6.548,21.43-7.143,26.388-.362,3.021.678,5.289,2.651,5.779a3.905,3.905,0,0,0,3.245-.812,9.1,9.1,0,0,0,2.883-4.126c2.815-7.321,7.763-28.872,7.812-29.089a.028.028,0,0,1,.026-.022h0a.029.029,0,0,1,.027.021c.052.194,5.234,19.49,4.777,25.664-.133,1.8-1.08,3.822-2.177,6.166C1792.117,3791.448,1790.2,3795.543,1790.555,3800.274Z" transform="translate(-1774.436 -3738.303)"/></g><g transform="translate(27.044 17.278)"><path class="f" d="M1851.049,3696.334h8.547c-.109,2.718-.626,5.292-.744,7.831a14.838,14.838,0,0,1-7.608,3.771C1852.019,3704.149,1851.212,3700.4,1851.049,3696.334Z" transform="translate(-1850.995 -3696.28)"/><path class="f" d="M1851.145,3707.891a.054.054,0,0,1-.054-.065,27.327,27.327,0,0,0,.062-8.022c-.1-1.156-.21-2.352-.258-3.566a.053.053,0,0,1,.015-.04.054.054,0,0,1,.039-.017h8.547a.055.055,0,0,1,.054.057c-.057,1.411-.224,2.793-.387,4.129-.155,1.275-.3,2.48-.358,3.7a.056.056,0,0,1-.017.038,14.8,14.8,0,0,1-7.637,3.785Zm-.139-11.6c.05,1.193.155,2.368.256,3.5a27.663,27.663,0,0,1-.048,7.977,14.715,14.715,0,0,0,7.485-3.731c.057-1.217.2-2.417.357-3.687.16-1.316.325-2.677.384-4.064Z" transform="translate(-1850.895 -3696.18)"/></g><g transform="translate(23.69 1.698)"><path class="a" d="M1849.511,3652.218c7.1,0,7.241,6.033,7.241,11.427,0,6.357-5.8,11.5-7.8,11.5s-7.418-5.143-7.418-11.5C1841.532,3657.813,1842.778,3652.218,1849.511,3652.218Z" transform="translate(-1841.486 -3652.172)"/><path class="a" d="M1848.867,3675.106c-1.093,0-2.984-1.423-4.5-3.384a13.746,13.746,0,0,1-2.968-8.162c0-3.554.467-6.071,1.47-7.922,1.3-2.389,3.439-3.55,6.555-3.55,7.287,0,7.287,6.361,7.287,11.473a13.332,13.332,0,0,1-3.161,8.163C1851.977,3673.652,1849.962,3675.106,1848.867,3675.106Zm.561-22.926c-3.079,0-5.2,1.146-6.474,3.5-1,1.837-1.459,4.34-1.459,7.878,0,6.251,5.353,11.454,7.372,11.454,1.071,0,3.055-1.439,4.616-3.349a13.244,13.244,0,0,0,3.14-8.1C1856.623,3658.49,1856.623,3652.18,1849.428,3652.18Z" transform="translate(-1841.403 -3652.088)"/></g><g transform="translate(28.184 18.698)"><path class="e" d="M1860.819,3700.359a13.974,13.974,0,0,1-3.343.8,14.439,14.439,0,0,1-3.192-.657s1.824,2.117,3.192,2.117S1860.819,3700.359,1860.819,3700.359Z" transform="translate(-1854.227 -3700.302)"/><path class="e" d="M1857.371,3702.578c-1.379,0-3.16-2.05-3.236-2.137a.059.059,0,0,1,0-.069.056.056,0,0,1,.065-.023,14.456,14.456,0,0,0,3.174.654,13.986,13.986,0,0,0,3.323-.8.059.059,0,0,1,.067.021.058.058,0,0,1,0,.07C1860.676,3700.386,1858.749,3702.578,1857.371,3702.578Zm-3.008-2.058c.45.485,1.9,1.943,3.008,1.943s2.656-1.554,3.145-2.076a12.536,12.536,0,0,1-3.145.731A13.107,13.107,0,0,1,1854.363,3700.52Z" transform="translate(-1854.122 -3700.198)"/></g><g transform="translate(28.184 18.696)"><path class="g" d="M1860.819,3700.359s-2.2.171-3.343.171-3.192-.024-3.192-.024a11.678,11.678,0,0,0,3.192.657A11.356,11.356,0,0,0,1860.819,3700.359Z" transform="translate(-1854.227 -3700.301)"/><path class="g" d="M1857.371,3701.114a11.842,11.842,0,0,1-3.211-.66.058.058,0,0,1,.02-.112h0c.021,0,2.065.024,3.191.024s3.316-.169,3.338-.171a.056.056,0,0,1,.06.044.058.058,0,0,1-.034.066A11.48,11.48,0,0,1,1857.371,3701.114Zm-2.823-.652a10.661,10.661,0,0,0,2.823.537,10.142,10.142,0,0,0,2.95-.66c-.689.049-2.113.142-2.95.142S1855.193,3700.469,1854.548,3700.462Z" transform="translate(-1854.121 -3700.194)"/></g><g transform="translate(28.184 18.697)"><path class="g" d="M1860.819,3700.359s-1.611,2.138-3.343,2.138-3.192-1.991-3.192-1.991,1.112,2.624,3.192,2.624S1860.819,3700.359,1860.819,3700.359Z" transform="translate(-1854.227 -3700.301)"/><path class="g" d="M1857.371,3703.083c-2.093,0-3.234-2.632-3.245-2.659a.058.058,0,0,1,.1-.057c.014.02,1.462,1.967,3.145,1.967s3.281-2.094,3.3-2.116a.058.058,0,0,1,.1.059C1860.753,3700.306,1859.461,3703.083,1857.371,3703.083Zm-2.9-2.239c.428.745,1.42,2.123,2.9,2.123s2.551-1.457,3.023-2.245a4.688,4.688,0,0,1-3.023,1.728A4.348,4.348,0,0,1,1854.472,3700.844Z" transform="translate(-1854.121 -3700.196)"/></g><g transform="translate(30.56 12.155)"><path class="f" d="M1861,3686.971c-.061-.173,1.819-.125,1.591-.7a7.921,7.921,0,0,1-.381-4.423l.288-.014h0c0,.027,1.138,5.387,1.138,5.387S1861.108,3687.52,1861,3686.971Z" transform="translate(-1860.947 -3681.782)"/><path class="f" d="M1862.2,3687.26c-.646,0-1.29-.077-1.352-.375a.079.079,0,0,1,.008-.062c.041-.068.19-.093.523-.144.376-.057.944-.143,1.058-.341a.155.155,0,0,0,0-.143,8.66,8.66,0,0,1-.4-4.364c.009-.042.016-.069.016-.082a.055.055,0,0,1,.052-.052l.288-.014a.055.055,0,0,1,.042.016.056.056,0,0,1,.016.042c.012.076.749,3.547,1.136,5.37a.054.054,0,0,1-.009.043.052.052,0,0,1-.038.023A12.662,12.662,0,0,1,1862.2,3687.26Zm-1.242-.385c.1.341,1.563.306,2.513.2-.886-4.166-1.076-5.077-1.116-5.281l-.2.01-.011.05a8.55,8.55,0,0,0,.4,4.3.259.259,0,0,1-.012.234c-.14.244-.693.328-1.137.4A2.4,2.4,0,0,0,1860.959,3686.876Z" transform="translate(-1860.847 -3681.683)"/></g><g transform="translate(21.952)"><path class="c" d="M1850.275,3648.317a4.724,4.724,0,0,1,1.911,2.469c1.467.008,3.156,1.81,2.869,7.2a22.831,22.831,0,0,1-2.452,8.555c.338-9.456.772-12.026-1.308-14.833-6.091-1.3-11.607,3.413-12.377,6.054-.089,1.959.181,4.1.787,9.494a14.942,14.942,0,0,1-3.166-9.034C1836.538,3644.292,1848.81,3647.318,1850.275,3648.317Z" transform="translate(-1836.519 -3647.317)"/><path class="c" d="M1839.67,3667.244a.019.019,0,0,1-.014-.007,13.253,13.253,0,0,1-1.585-2.507,14.832,14.832,0,0,1-1.584-6.539,14.314,14.314,0,0,1,1.337-6.576,7.6,7.6,0,0,1,3.229-3.312,10.248,10.248,0,0,1,5.646-.966,9.244,9.244,0,0,1,3.554.931,4.83,4.83,0,0,1,1.915,2.466,2.084,2.084,0,0,1,1.494.714c.745.79,1.589,2.561,1.379,6.509a23.026,23.026,0,0,1-2.454,8.563.021.021,0,0,1-.021.009.019.019,0,0,1-.014-.019c.044-1.232.09-2.363.131-3.361.276-6.745.369-9.021-1.432-11.455a11.331,11.331,0,0,0-8.164,1.55,9.333,9.333,0,0,0-4.184,4.493,57.443,57.443,0,0,0,.646,8.237q.067.595.141,1.25a.018.018,0,0,1-.011.019Zm5.869-19.924a9.587,9.587,0,0,0-4.47,1.016,7.569,7.569,0,0,0-3.214,3.3,14.278,14.278,0,0,0-1.333,6.559,14.789,14.789,0,0,0,1.581,6.522,13.652,13.652,0,0,0,1.541,2.452l-.134-1.188a57.408,57.408,0,0,1-.646-8.248c.42-1.445,2.109-3.26,4.2-4.518a11.362,11.362,0,0,1,8.2-1.553.017.017,0,0,1,.011.007c1.813,2.447,1.72,4.724,1.443,11.484-.04.976-.085,2.08-.128,3.28a22.938,22.938,0,0,0,2.412-8.476c.21-3.935-.628-5.7-1.369-6.481a2.048,2.048,0,0,0-1.481-.7.018.018,0,0,1-.018-.014,4.752,4.752,0,0,0-1.9-2.458h0a9.2,9.2,0,0,0-3.536-.925C1846.345,3647.342,1845.955,3647.32,1845.539,3647.32Z" transform="translate(-1836.486 -3647.283)"/></g><g transform="translate(27.359 13.103)"><circle class="h" cx="0.495" cy="0.495" r="0.495" transform="translate(0.048 0.047)"/><path class="h" d="M1852.331,3685.45a.543.543,0,1,1,.543-.543A.544.544,0,0,1,1852.331,3685.45Zm0-.991a.448.448,0,1,0,.448.448A.449.449,0,0,0,1852.331,3684.459Z" transform="translate(-1851.788 -3684.365)"/></g><g transform="translate(34.439 13.103)"><path class="h" d="M1871.957,3684.994a.5.5,0,1,1,.5.5A.5.5,0,0,1,1871.957,3684.994Z" transform="translate(-1871.91 -3684.452)"/><path class="h" d="M1872.366,3685.45a.543.543,0,1,1,.542-.543A.543.543,0,0,1,1872.366,3685.45Zm0-.991a.448.448,0,1,0,.447.448A.448.448,0,0,0,1872.366,3684.459Z" transform="translate(-1871.823 -3684.365)"/></g><g transform="translate(34.689 54.375)"><path class="e" d="M1872.53,3802.07v0h0v0a.637.637,0,0,0,0-.067v-.632l.953-.174a1.469,1.469,0,0,1,.925.134l.023.014.029.018a.061.061,0,0,1-.013-.008.551.551,0,0,1,.213.38,1.137,1.137,0,0,1-.139.705,1.073,1.073,0,0,1-.776.512.9.9,0,0,1-.7-.141l-.112-.076c-.03-.024-.059-.049-.114-.1A.809.809,0,0,1,1872.53,3802.07Z" transform="translate(-1872.53 -3801.166)"/></g></g><g transform="translate(0 1.98)"><g transform="translate(40.219 7.626)"><path class="i" d="M1883.481,3676.351a.571.571,0,0,1-.462.541h0c-.283.072-.516-.067-.521-.311l-.028-1.833c0-.163.025-.19.114-.029Z" transform="translate(-1882.42 -3674.561)"/><path class="i" d="M1882.781,3676.869a.457.457,0,0,1-.28-.087.366.366,0,0,1-.145-.292l-.027-1.833c0-.088,0-.169.061-.186s.1.053.147.131l.9,1.633a.048.048,0,0,1,.006.023.621.621,0,0,1-.5.59A.629.629,0,0,1,1882.781,3676.869Zm-.352-2.251q0,.016,0,.037l.027,1.834a.266.266,0,0,0,.105.214.416.416,0,0,0,.353.049.525.525,0,0,0,.424-.479l-.891-1.621Z" transform="translate(-1882.329 -3674.469)"/></g><g transform="translate(25.709 7.626)"><path class="i" d="M1841.407,3676.351a.57.57,0,0,0,.462.541h0c.282.072.516-.067.521-.311l.028-1.833c0-.163-.025-.19-.114-.029Z" transform="translate(-1841.357 -3674.561)"/><path class="i" d="M1841.923,3676.869a.627.627,0,0,1-.159-.021.62.62,0,0,1-.5-.59.05.05,0,0,1,.006-.023l.9-1.633c.043-.078.085-.147.147-.131s.062.1.06.186l-.028,1.833a.366.366,0,0,1-.145.292A.458.458,0,0,1,1841.923,3676.869Zm-.558-.6a.525.525,0,0,0,.424.479.414.414,0,0,0,.354-.049.266.266,0,0,0,.105-.214l.027-1.833c0-.015,0-.028,0-.039l-.02.034Z" transform="translate(-1841.266 -3674.469)"/></g><g transform="translate(27.073 8.845)"><path class="a" d="M1849.938,3678.707a6.422,6.422,0,0,0-3.134-.13c-1.958.326-1.5.457-1.5.457a3.81,3.81,0,0,1,3.525-.914C1851.244,3678.511,1849.938,3678.707,1849.938,3678.707Z" transform="translate(-1845.211 -3678.001)"/><path class="a" d="M1845.219,3679h-.013a.1.1,0,0,1-.08-.091c0-.034.005-.088.259-.172a4.122,4.122,0,0,1,3.365-.741c1.324.215,1.5.361,1.5.475,0,.131-.274.187-.391.2a.041.041,0,0,1-.024,0,6.459,6.459,0,0,0-3.109-.128,10.1,10.1,0,0,0-1.3.276,1.592,1.592,0,0,0-.175.166A.047.047,0,0,1,1845.219,3679Zm2.653-.986a3.87,3.87,0,0,0-2.244.652c.234-.059.579-.13,1.085-.215a6.633,6.633,0,0,1,3.146.129c.163-.026.3-.082.3-.111s-.039-.159-1.424-.384A5.415,5.415,0,0,0,1847.872,3678.011Z" transform="translate(-1845.127 -3677.919)"/></g><g transform="translate(34.674 8.665)"><path class="a" d="M1867.132,3678.39a6.421,6.421,0,0,1,3.109-.411c1.98.15,1.536.321,1.536.321a3.809,3.809,0,0,0-3.592-.595C1865.814,3678.311,1867.132,3678.39,1867.132,3678.39Z" transform="translate(-1866.721 -3677.49)"/><path class="a" d="M1867.048,3678.354h0c-.118-.007-.4-.037-.408-.168-.011-.114.154-.275,1.452-.607a4.119,4.119,0,0,1,3.418.437c.26.062.269.115.274.149a.1.1,0,0,1-.071.1.044.044,0,0,1-.048-.01,1.82,1.82,0,0,0-.19-.149,10.131,10.131,0,0,0-1.318-.158,6.455,6.455,0,0,0-3.085.406A.045.045,0,0,1,1867.048,3678.354Zm2.336-.854a5.117,5.117,0,0,0-1.271.168c-1.359.347-1.385.494-1.383.509s.145.072.31.083a6.619,6.619,0,0,1,3.122-.409c.51.039.859.078,1.1.116A3.76,3.76,0,0,0,1869.384,3677.5Z" transform="translate(-1866.636 -3677.408)"/></g><g transform="translate(25.738 9.288)"><g transform="translate(7.041)"><path class="i" d="M1869.2,3679.316a43.836,43.836,0,0,1-7.776.627v.5s5.143-.134,6.623-.381c.761-.126.634.381.634.634h1.141l.052-1.307Z" transform="translate(-1861.369 -3679.266)"/><path class="i" d="M1869.725,3680.659h-1.141a.05.05,0,0,1-.05-.05c0-.031,0-.064,0-.1.008-.145.017-.326-.091-.423a.6.6,0,0,0-.488-.061c-1.467.244-6.578.38-6.63.381a.046.046,0,0,1-.036-.014.049.049,0,0,1-.015-.036v-.5a.05.05,0,0,1,.05-.05,44.222,44.222,0,0,0,7.767-.626.041.041,0,0,1,.016,0l.673.078a.05.05,0,0,1,.044.052l-.052,1.307A.05.05,0,0,1,1869.725,3680.659Zm-1.089-.1h1.041l.048-1.213-.619-.071a44.509,44.509,0,0,1-7.728.626v.4c.542-.015,5.184-.148,6.565-.379a.672.672,0,0,1,.571.085.607.607,0,0,1,.125.5Z" transform="translate(-1861.277 -3679.174)"/></g><g transform="translate(9.003 2.695)"><path class="j" d="M1867.719,3687.408c.513,0,2.084,0,3.271-.024a1.085,1.085,0,0,0,.96-.442,1.015,1.015,0,0,1-.992.7c-1.163.031-2.7.031-3.208.031-.341,0-.6-.146-.782-.7A.758.758,0,0,0,1867.719,3687.408Z" transform="translate(-1866.919 -3686.893)"/><path class="j" d="M1867.661,3687.632c-.408,0-.656-.219-.829-.733a.049.049,0,0,1,.09-.039.71.71,0,0,0,.708.409c.515,0,2.084,0,3.27-.024a1.044,1.044,0,0,0,.92-.42.049.049,0,0,1,.087.045,1.065,1.065,0,0,1-1.036.731C1869.706,3687.632,1868.166,3687.632,1867.661,3687.632Zm-.586-.429a.614.614,0,0,0,.586.331c.506,0,2.043,0,3.206-.032a.952.952,0,0,0,.784-.369,1.344,1.344,0,0,1-.749.209c-1.188.024-2.756.024-3.272.024A.861.861,0,0,1,1867.074,3687.2Z" transform="translate(-1866.829 -3686.802)"/></g><g transform="translate(8.251 2.07)"><path class="a" d="M1864.857,3685.629a.606.606,0,0,0,.486.46c.191,0,.284-.21.207-.466a.606.606,0,0,0-.486-.46C1864.873,3685.164,1864.78,3685.373,1864.857,3685.629Z" transform="translate(-1864.783 -3685.117)"/><path class="a" d="M1865.257,3686.05a.647.647,0,0,1-.529-.493h0a.476.476,0,0,1,.039-.419.259.259,0,0,1,.212-.107h0a.646.646,0,0,1,.527.493.474.474,0,0,1-.038.418.26.26,0,0,1-.213.107Zm-.275-.926h0a.167.167,0,0,0-.138.069.393.393,0,0,0-.024.338h0c.07.232.271.427.44.427h0a.166.166,0,0,0,.139-.069.39.39,0,0,0,.024-.337C1865.351,3685.319,1865.151,3685.124,1864.982,3685.124Z" transform="translate(-1864.699 -3685.032)"/></g><g transform="translate(7.827 0.962)"><path class="i" d="M1863.643,3682.039c.718,0,.718.38.8,1.014a3.471,3.471,0,0,0,.463,1.226h.051a5.337,5.337,0,0,1-.338-1.226c-.084-.633-.084-1.014-.8-1.014" transform="translate(-1863.593 -3681.989)"/><path class="i" d="M1864.867,3684.236h-.05a.049.049,0,0,1-.042-.023,3.484,3.484,0,0,1-.471-1.246l-.015-.118c-.073-.568-.109-.853-.738-.853a.05.05,0,1,1,0-.1c.054,0,.1,0,.151.006a.044.044,0,0,1,.024-.006c.717,0,.765.374.838.94l.015.117a5.34,5.34,0,0,0,.334,1.213.05.05,0,0,1,0,.047A.051.051,0,0,1,1864.867,3684.236Zm-.728-2.168a1.252,1.252,0,0,1,.25.768l.015.117a3.068,3.068,0,0,0,.284.889,5.007,5.007,0,0,1-.208-.876l-.015-.118C1864.413,3682.446,1864.379,3682.186,1864.139,3682.069Z" transform="translate(-1863.501 -3681.897)"/></g><g transform="translate(0 0)"><path class="i" d="M1842.155,3679.316a43.829,43.829,0,0,0,7.776.627v.5s-5.143-.134-6.623-.381c-.761-.126-.634.381-.634.634h-1.141l-.042-1.292Z" transform="translate(-1841.441 -3679.266)"/><path class="i" d="M1842.583,3680.659h-1.141a.05.05,0,0,1-.05-.048l-.042-1.292a.05.05,0,0,1,.043-.051l.664-.093h.017a44.212,44.212,0,0,0,7.766.626.05.05,0,0,1,.05.05v.5a.052.052,0,0,1-.015.036.047.047,0,0,1-.036.014c-.051,0-5.163-.137-6.63-.381a.6.6,0,0,0-.488.061c-.109.1-.1.278-.092.423,0,.036,0,.07,0,.1A.05.05,0,0,1,1842.583,3680.659Zm-1.092-.1h1.041l0-.045a.6.6,0,0,1,.125-.5.672.672,0,0,1,.571-.086c1.381.231,6.023.364,6.565.379v-.4a44.5,44.5,0,0,1-7.727-.626l-.611.085Z" transform="translate(-1841.35 -3679.175)"/></g><g transform="translate(1.498 2.696)"><path class="j" d="M1849.959,3687.408c-.513,0-2.085,0-3.272-.024a1.084,1.084,0,0,1-.959-.442,1.014,1.014,0,0,0,.991.7c1.164.031,2.7.031,3.208.031.341,0,.6-.146.783-.7A.759.759,0,0,1,1849.959,3687.408Z" transform="translate(-1845.679 -3686.893)"/><path class="j" d="M1849.838,3687.632c-.506,0-2.046,0-3.21-.031a1.063,1.063,0,0,1-1.036-.732.049.049,0,0,1,.087-.045,1.054,1.054,0,0,0,.919.42c1.186.024,2.755.024,3.27.024a.711.711,0,0,0,.708-.409.05.05,0,0,1,.063-.022.049.049,0,0,1,.027.061C1850.493,3687.414,1850.245,3687.632,1849.838,3687.632Zm-3.99-.5a.952.952,0,0,0,.783.368c1.163.031,2.7.031,3.207.031a.615.615,0,0,0,.586-.331.861.861,0,0,1-.555.164c-.516,0-2.085,0-3.272-.024A1.349,1.349,0,0,1,1845.848,3687.135Z" transform="translate(-1845.589 -3686.803)"/></g><g transform="translate(6.49 2.07)"><path class="k" d="M1860.569,3685.629a.605.605,0,0,1-.486.46c-.192,0-.284-.21-.207-.466a.605.605,0,0,1,.486-.46C1860.554,3685.164,1860.647,3685.373,1860.569,3685.629Z" transform="translate(-1859.803 -3685.117)"/><path class="k" d="M1860,3686.05h0a.26.26,0,0,1-.213-.107.475.475,0,0,1-.039-.418.648.648,0,0,1,.527-.493h0a.262.262,0,0,1,.213.107.476.476,0,0,1,.038.419h0A.646.646,0,0,1,1860,3686.05Zm.273-.926c-.168,0-.369.2-.439.427a.394.394,0,0,0,.024.338.167.167,0,0,0,.139.069h0c.169,0,.37-.195.44-.427h0a.394.394,0,0,0-.024-.337.168.168,0,0,0-.139-.069Z" transform="translate(-1859.718 -3685.032)"/></g><g transform="translate(6.337 0.962)"><path class="i" d="M1860.742,3682.039c-.718,0-.718.38-.8,1.014a3.484,3.484,0,0,1-.463,1.226h-.051a5.345,5.345,0,0,0,.338-1.226c.084-.633.084-1.014.8-1.014" transform="translate(-1859.376 -3681.989)"/><path class="i" d="M1859.385,3684.236h-.051a.05.05,0,0,1-.042-.022.049.049,0,0,1,0-.047,5.335,5.335,0,0,0,.335-1.213l.015-.117c.072-.566.119-.94.837-.94a.045.045,0,0,1,.024.006c.047,0,.1-.006.151-.006a.05.05,0,0,1,0,.1c-.629,0-.665.286-.738.854l-.015.116a3.49,3.49,0,0,1-.47,1.246A.049.049,0,0,1,1859.385,3684.236Zm.677-2.168c-.241.117-.274.378-.325.781l-.015.117a5.061,5.061,0,0,1-.21.879,3.094,3.094,0,0,0,.285-.892l.015-.116A1.252,1.252,0,0,1,1860.063,3682.069Z" transform="translate(-1859.284 -3681.897)"/></g></g><g transform="translate(21.107)"><path class="c" d="M1845.939,3655.008s-13.579,3.154-13.049,10.044-4.594,6.007-4.594,6.007,5.362.833,3.852-11.576C1831.3,3652.528,1844.125,3651.258,1845.939,3655.008Z" transform="translate(-1828.277 -3652.922)"/><path class="c" d="M1828.8,3671.079a3.681,3.681,0,0,1-.541-.035.019.019,0,0,1,.006-.037,2.848,2.848,0,0,0,2.232-.869c2.144-2.076,2.052-6.956,1.6-10.685a4.651,4.651,0,0,1,1.266-3.9,8.355,8.355,0,0,1,3.779-2.158,12.508,12.508,0,0,1,5.341-.376c1.75.284,2.971.974,3.44,1.942a.019.019,0,0,1-.012.026,35.207,35.207,0,0,0-6.72,2.437,15.943,15.943,0,0,0-4.505,3.126,5.763,5.763,0,0,0-1.81,4.462c.183,2.379-.284,4.1-1.389,5.1A3.989,3.989,0,0,1,1828.8,3671.079Zm-.088-.038a3.988,3.988,0,0,0,2.749-.95c1.1-1,1.559-2.7,1.376-5.071a5.8,5.8,0,0,1,1.821-4.49,15.971,15.971,0,0,1,4.516-3.134,35.258,35.258,0,0,1,6.7-2.435c-.47-.946-1.677-1.621-3.4-1.9a12.484,12.484,0,0,0-5.325.375,8.313,8.313,0,0,0-3.762,2.148,4.616,4.616,0,0,0-1.257,3.865,23.877,23.877,0,0,1-.03,7.393,6.283,6.283,0,0,1-1.581,3.325A3.042,3.042,0,0,1,1828.712,3671.041Z" transform="translate(-1828.243 -3652.888)"/></g><g transform="translate(3.307 53.404)"><path class="e" d="M1800.661,3805.721l-1.359-.984a3.369,3.369,0,0,0-4.7.754l-16.013,18.48a3.368,3.368,0,0,0,.753,4.7l1.359.984a3.369,3.369,0,0,0,4.7-.754l16.013-18.48A3.368,3.368,0,0,0,1800.661,3805.721Z" transform="translate(-1777.918 -3804.07)"/><path class="e" d="M1782.617,3830.278a3.372,3.372,0,0,1-1.984-.646l-1.359-.984a3.4,3.4,0,0,1-.76-4.743l16.014-18.482a3.4,3.4,0,0,1,4.741-.758l1.359.984a3.4,3.4,0,0,1,.76,4.743l-16.014,18.482a3.373,3.373,0,0,1-2.212,1.36A3.426,3.426,0,0,1,1782.617,3830.278Zm14.665-26.2a3.339,3.339,0,0,0-2.711,1.38l-16.014,18.482a3.341,3.341,0,0,0,.749,4.663l1.359.984a3.342,3.342,0,0,0,4.666-.747l16.014-18.482a3.341,3.341,0,0,0-.749-4.663h0l-1.359-.984A3.327,3.327,0,0,0,1797.283,3804.078Z" transform="translate(-1777.87 -3804.021)"/></g><g transform="translate(32.617 65.955)"><path class="e" d="M1861.3,3842.863l.8-1.477a3.369,3.369,0,0,1,4.564-1.365l23.854,8.985c1.637.883,2.071,1.775,2.268,5.128l-.493,2.761c-.883,1.637-3.057,1.38-3.451,1.282l-26.174-10.75A3.369,3.369,0,0,1,1861.3,3842.863Z" transform="translate(-1860.868 -3839.59)"/><path class="e" d="M1889.556,3858.233a3.465,3.465,0,0,1-.775-.077L1862.6,3847.4a3.4,3.4,0,0,1-1.379-4.6h0l.8-1.477a3.4,3.4,0,0,1,4.6-1.376l23.851,8.984c1.685.909,2.09,1.823,2.286,5.152l-.494,2.768a.024.024,0,0,1,0,.009A2.947,2.947,0,0,1,1889.556,3858.233Zm-28.307-15.419.025.013a3.34,3.34,0,0,0,1.354,4.526l26.171,10.75c.5.125,2.574.284,3.414-1.266l.492-2.756c-.195-3.3-.595-4.2-2.254-5.1L1866.6,3840a3.346,3.346,0,0,0-4.53,1.353l-.8,1.476Z" transform="translate(-1860.816 -3839.542)"/></g><g transform="translate(22.209 41.638)"><path class="a" d="M1838.766,3785.123c.279,1.115,1.349.741,2.6.962,2.462.435,3.268,1.285,1.888,2.133-.919.567-3.789.254-4.723.188-2.333-.168-1.281.291-3.024.671s-4-1.192-4-1.192l.969-6.867c1.919-.1,4.612-4.109,4.612-4.109,3.229-3.589,3.969-1.571,5.487-2.544a14.585,14.585,0,0,0,1.994-3.1c.546-1.042,1.129.2.711,1.641C1843.52,3778.972,1838.487,3784.007,1838.766,3785.123Z" transform="translate(-1831.457 -3770.82)"/><path class="a" d="M1834.829,3789.092a7.213,7.213,0,0,1-3.446-1.261.053.053,0,0,1-.022-.051l.969-6.867a.052.052,0,0,1,.049-.046c1.871-.1,4.544-4.046,4.571-4.085,2.134-2.373,3.181-2.32,4.1-2.275a2.078,2.078,0,0,0,1.4-.284,13.356,13.356,0,0,0,1.976-3.085c.233-.446.451-.438.56-.395.36.145.543,1.063.248,2.075a33.669,33.669,0,0,1-4.879,9.232c-1.012,1.476-1.742,2.543-1.637,2.963.192.767.768.794,1.566.831a7.857,7.857,0,0,1,1,.091c1.57.278,2.491.726,2.593,1.263.061.324-.17.65-.687.967-.832.513-3.225.319-4.376.226l-.378-.03c-1.376-.1-1.552.017-1.842.211a2.911,2.911,0,0,1-1.167.458A2.806,2.806,0,0,1,1834.829,3789.092Zm-3.359-1.33c.259.173,2.333,1.512,3.933,1.165a2.827,2.827,0,0,0,1.131-.443c.309-.206.5-.33,1.908-.228.1.007.232.018.379.029,1.138.093,3.51.285,4.312-.21.469-.289.69-.585.638-.858-.092-.483-1.006-.913-2.508-1.178a7.6,7.6,0,0,0-.982-.09c-.811-.038-1.453-.067-1.664-.911h0c-.117-.466.588-1.494,1.653-3.049a33.591,33.591,0,0,0,4.865-9.2c.293-1.008.082-1.839-.186-1.947-.134-.053-.283.071-.427.345a14.8,14.8,0,0,1-2.013,3.125,2.189,2.189,0,0,1-1.463.3c-.9-.044-1.919-.094-4.014,2.234-.105.158-2.685,3.964-4.6,4.124Z" transform="translate(-1831.36 -3770.723)"/></g><g transform="translate(18.425 46.569)"><rect class="c" width="25.884" height="33.279" rx="5.391" transform="translate(25.902 33.298) rotate(-180)"/><path class="c" d="M1844.651,3817.995h-22.074a1.925,1.925,0,0,1-1.923-1.923V3786.6a1.926,1.926,0,0,1,1.923-1.923h22.074a1.926,1.926,0,0,1,1.923,1.923v29.469A1.925,1.925,0,0,1,1844.651,3817.995Zm-22.074-33.279a1.888,1.888,0,0,0-1.886,1.886v29.469a1.888,1.888,0,0,0,1.886,1.886h22.074a1.888,1.888,0,0,0,1.886-1.886V3786.6a1.888,1.888,0,0,0-1.886-1.886Z" transform="translate(-1820.653 -3784.679)"/></g><g transform="translate(40.875 72.479)"><path class="a" d="M1891.553,3861.508a.91.91,0,0,1,.221,1.3l-.068.1a1.143,1.143,0,0,1-1.377.438l-5.591-3.636a.814.814,0,0,1-.311-1.029l.047-.082a.975.975,0,0,1,1.13-.377Z" transform="translate(-1884.288 -3858.102)"/><path class="a" d="M1890.616,3863.389a.874.874,0,0,1-.412-.094l-5.6-3.639a.866.866,0,0,1-.328-1.1l.047-.082a1.021,1.021,0,0,1,.636-.436.779.779,0,0,1,.569.04l5.947,3.284a.824.824,0,0,1,.394.533,1.063,1.063,0,0,1-.153.844l-.067.1A1.271,1.271,0,0,1,1890.616,3863.389Zm-5.393-5.277a.969.969,0,0,0-.233.03.91.91,0,0,0-.568.385l-.047.082a.763.763,0,0,0,.292.954l5.593,3.637a1.088,1.088,0,0,0,1.3-.422l.068-.1a.952.952,0,0,0,.138-.757.716.716,0,0,0-.34-.463h0l-5.949-3.285A.5.5,0,0,0,1885.222,3858.112Z" transform="translate(-1884.188 -3858.003)"/></g><g transform="translate(40.561 75.245)"><path class="a" d="M1889.333,3868.667a.908.908,0,0,1,.221,1.3l-.067.1a1.144,1.144,0,0,1-1.377.438l-4.45-3.1a.682.682,0,0,1-.073-.92l.044-.075c.208-.357.58-.523.828-.371Z" transform="translate(-1883.396 -3865.932)"/><path class="a" d="M1888.4,3870.547a.878.878,0,0,1-.413-.094l-4.455-3.1a.735.735,0,0,1-.089-.993l.044-.075a.912.912,0,0,1,.534-.437.474.474,0,0,1,.37.047l4.871,2.623a.824.824,0,0,1,.394.532,1.065,1.065,0,0,1-.154.844l-.067.1A1.269,1.269,0,0,1,1888.4,3870.547Zm-4.244-4.606a.455.455,0,0,0-.108.014.8.8,0,0,0-.466.386l-.045.075c-.194.331-.17.71.054.846l4.453,3.1a1.087,1.087,0,0,0,1.3-.424l.067-.1a.952.952,0,0,0,.139-.756.714.714,0,0,0-.34-.463h0l-4.874-2.625A.344.344,0,0,0,1884.155,3865.941Z" transform="translate(-1883.298 -3865.832)"/></g><g transform="translate(41.81 70.471)"><path class="a" d="M1893.629,3854.767a.909.909,0,0,1,.409,1.251l-.051.11a1.143,1.143,0,0,1-1.3.637l-5.406-2.927a.567.567,0,0,1-.215-.816l.035-.073a.714.714,0,0,1,.812-.447Z" transform="translate(-1886.933 -3852.421)"/><path class="a" d="M1892.84,3856.762a.792.792,0,0,1-.27-.044l-5.413-2.93a.477.477,0,0,1-.277-.274.764.764,0,0,1,.039-.613l.035-.074a.769.769,0,0,1,.879-.475l5.715,2.265a.824.824,0,0,1,.467.469,1.059,1.059,0,0,1-.028.856l-.051.11A1.26,1.26,0,0,1,1892.84,3856.762Zm-5.183-4.331a.729.729,0,0,0-.6.443l-.035.074a.656.656,0,0,0-.037.524.373.373,0,0,0,.221.217l5.414,2.93a1.088,1.088,0,0,0,1.222-.612l.051-.11a.955.955,0,0,0,.025-.769.713.713,0,0,0-.4-.408h0l-5.714-2.265A.408.408,0,0,0,1887.658,3852.43Z" transform="translate(-1886.833 -3852.322)"/></g><g transform="translate(41.649 68.134)"><path class="a" d="M1893.089,3847.487a.91.91,0,0,1,.41,1.252l-.052.11a1.143,1.143,0,0,1-1.3.636l-5.288-2.084a.646.646,0,0,1-.24-.921l.039-.083a.789.789,0,0,1,.9-.5Z" transform="translate(-1886.478 -3845.808)"/><path class="a" d="M1892.3,3849.481a.808.808,0,0,1-.27-.044l-5.29-2.086a.534.534,0,0,1-.309-.305.865.865,0,0,1,.041-.689l.039-.083a.843.843,0,0,1,.969-.533l5.524,1.594h0a.828.828,0,0,1,.469.471,1.061,1.061,0,0,1-.028.856l-.052.11A1.258,1.258,0,0,1,1892.3,3849.481Zm-5.013-3.663a.812.812,0,0,0-.678.5l-.039.083a.76.76,0,0,0-.039.6.424.424,0,0,0,.247.246l5.29,2.085a1.087,1.087,0,0,0,1.228-.609l.052-.11a.952.952,0,0,0,.026-.768.717.717,0,0,0-.4-.409l-5.525-1.595A.467.467,0,0,0,1887.288,3845.818Z" transform="translate(-1886.378 -3845.708)"/></g><g transform="translate(37.591 165.769)"><path class="e" d="M1876.027,4122.1s-.028,15.761.745,17.217c.13.246,4.949.269,5.15-.182.765-1.729.323-17,.323-17s1.969,13.738,1.4,15.92-2.637,8.915-4.457,8.915-3.878-7.558-4.122-9.918C1874.586,4132.405,1876.027,4122.1,1876.027,4122.1Z" transform="translate(-1874.941 -4122.067)"/><path class="e" d="M1879.138,4146.938c-1.826,0-3.9-7.541-4.15-9.944a55.986,55.986,0,0,1,.3-9.218c.3-3.122.657-5.709.661-5.735a.026.026,0,0,1,.03-.024.028.028,0,0,1,.026.028c0,.158-.02,15.771.741,17.2a12,12,0,0,0,3.164.137c1.145-.047,1.868-.167,1.935-.318.754-1.7.325-16.839.321-16.992a.028.028,0,0,1,.026-.028h0a.028.028,0,0,1,.027.024c.02.138,1.964,13.768,1.4,15.931C1883.6,4138.091,1881.265,4146.938,1879.138,4146.938Zm-3.188-24.479c-.113.852-.377,2.931-.6,5.323a56.017,56.017,0,0,0-.3,9.207c.248,2.392,2.3,9.894,4.095,9.894.76,0,1.683-1.252,2.671-3.622a43.965,43.965,0,0,0,1.759-5.272c.5-1.919-.989-12.951-1.332-15.42.03,1.163.1,4.211.112,7.361.02,5.359-.132,8.441-.451,9.162-.111.25-1.392.331-2.147.357a10.587,10.587,0,0,1-3.053-.173c-.323-.608-.547-3.692-.665-9.167C1875.961,4126.8,1875.951,4123.579,1875.95,4122.459Z" transform="translate(-1874.892 -4122.016)"/></g><g transform="translate(37.898 89.96)"><path class="a" d="M1879.825,3909.771c-2.1,1.934-1.49.417-3.613,18.991-.687,6.012,1.538,37.893,1.143,46.588s-2.227,21.1-1.05,24.4c1.365,3.821,4.91,3.31,6.1,1.729s1.791-4.195,1-12.1a84.194,84.194,0,0,1,.277-20.348C1884.47,3964.283,1896.294,3894.635,1879.825,3909.771Z" transform="translate(-1875.862 -3907.571)"/><path class="a" d="M1879.729,4002.62a3.241,3.241,0,0,1-.5-.038,3.939,3.939,0,0,1-3.078-2.915c-.787-2.2-.242-8.383.334-14.925.285-3.236.58-6.583.712-9.49.187-4.122-.221-13.605-.615-22.777-.437-10.152-.889-20.65-.527-23.815.407-3.561.712-6.374.958-8.633.961-8.862.961-8.862,2.35-10.1.1-.089.207-.185.322-.291l.037.041-.037-.041c2.15-1.976,3.936-2.6,5.31-1.856,3.409,1.848,4.326,11.978,2.724,30.108-1.077,12.18-3,24.55-4.053,30.839l-.036.212a83.312,83.312,0,0,0-.277,20.333c.588,5.878.624,9.958-1.011,12.139A3.326,3.326,0,0,1,1879.729,4002.62Zm4.054-95.035c-1.132,0-2.479.712-4.022,2.131-.115.106-.223.2-.323.292-1.357,1.211-1.357,1.211-2.315,10.031-.245,2.26-.55,5.073-.958,8.634-.36,3.157.091,13.65.528,23.8.395,9.174.8,18.66.615,22.786-.132,2.911-.427,6.258-.713,9.5-.576,6.53-1.119,12.7-.34,14.879a3.914,3.914,0,0,0,2.992,2.844,3.263,3.263,0,0,0,3.009-1.129c1.163-1.551,1.777-4.2.99-12.061a83.365,83.365,0,0,1,.278-20.363l.035-.212c1.051-6.288,2.975-18.654,4.052-30.831a139.272,139.272,0,0,0,.633-19.447c-.353-6.01-1.464-9.561-3.3-10.556A2.4,2.4,0,0,0,1883.782,3907.585Z" transform="translate(-1875.76 -3907.476)"/></g><g transform="translate(0 139.001)"><path class="e" d="M1781.958,4046.341s-9.853,12.312-10.142,13.913c-.049.271,3.8,3.177,4.237,2.943,1.691-.894,10.865-13.108,10.865-13.108s-6.992,11.926-8.81,13.292-7.672,5.394-9.129,4.3,1.609-8.235,2.886-10.228C1774.373,4053.542,1781.958,4046.341,1781.958,4046.341Z" transform="translate(-1768.565 -4046.313)"/><path class="e" d="M1769.6,4067.847a1.143,1.143,0,0,1-.7-.191c-.45-.336-.744-1.444.408-4.807a30.555,30.555,0,0,1,2.471-5.459,56.262,56.262,0,0,1,5.991-7.03c2.185-2.264,4.088-4.073,4.107-4.091a.028.028,0,0,1,.041.038c-.1.123-9.852,12.324-10.137,13.9a10.593,10.593,0,0,0,2.2,1.834c1.066.75,1.829,1.163,1.991,1.08,1.666-.881,10.764-12.978,10.856-13.1a.028.028,0,0,1,.038-.006.029.029,0,0,1,.009.038c-.07.119-7.016,11.946-8.817,13.3C1778,4063.4,1772.059,4067.847,1769.6,4067.847Zm12.018-21.248c-.622.6-2.13,2.066-3.8,3.8a56.17,56.17,0,0,0-5.984,7.021c-1.293,2.019-4.331,9.116-2.893,10.191.609.455,2.129.03,4.4-1.233a45.222,45.222,0,0,0,4.7-3.071c1.6-1.2,7.287-10.723,8.552-12.86-.7.926-2.546,3.354-4.5,5.826-3.327,4.2-5.371,6.524-6.075,6.9-.312.165-1.943-1-2.437-1.361-.757-.553-1.872-1.439-1.841-1.612.121-.669,1.865-3.216,5.185-7.569C1778.922,4050,1780.922,4047.477,1781.621,4046.6Z" transform="translate(-1768.51 -4046.262)"/></g><g transform="translate(2.469 78.435)"><path class="a" d="M1807.968,3900.292c4.346-7.419,14.273-17.582,21.911-22.782,2.9-1.974,10.141-7.547,4.426,9.169-2.059,6.02-31.707,37.769-37.227,45.069s-11.9,20.469-16.905,21.266c-5.186.826-4.545-1.174-4.442-3.25s.781-4.3,6.729-10.167a92.934,92.934,0,0,0,13.748-17.214C1797.684,3919.852,1801.971,3910.53,1807.968,3900.292Z" transform="translate(-1775.597 -3874.961)"/><path class="a" d="M1778.021,3953.158a2.929,2.929,0,0,1-2.014-.544c-.6-.552-.536-1.454-.467-2.409.013-.18.026-.362.035-.545.12-2.422,1.23-4.765,6.746-10.2a92.713,92.713,0,0,0,13.74-17.2c.484-.83,1.255-2.36,2.322-4.479,2.154-4.275,5.409-10.736,9.438-17.614l.047.028-.047-.028c4.229-7.219,14.066-17.447,21.927-22.8l.4-.273c1.682-1.161,4.225-2.916,5.5-1.951,1.351,1.023.9,4.77-1.389,11.456-1.351,3.949-14.461,18.849-25,30.821-5.544,6.3-10.332,11.741-12.239,14.264-1.691,2.237-3.5,5.087-5.254,7.843-4.026,6.336-8.189,12.887-11.686,13.444A13.384,13.384,0,0,1,1778.021,3953.158Zm56.708-78.192c-1.315,0-3.191,1.294-4.521,2.212-.14.1-.273.189-.4.274-7.85,5.345-17.672,15.557-21.895,22.765-4.027,6.875-7.281,13.334-9.435,17.608-1.068,2.12-1.84,3.651-2.325,4.484a92.845,92.845,0,0,1-13.757,17.225c-6.04,5.955-6.613,8.111-6.713,10.131-.009.184-.023.367-.036.547-.067.928-.131,1.8.432,2.321.607.558,1.873.661,3.982.325,3.449-.549,7.6-7.079,11.611-13.395,1.753-2.758,3.565-5.61,5.259-7.851,1.91-2.526,6.7-7.968,12.244-14.27,10.529-11.965,23.632-26.856,24.975-30.784,2.237-6.543,2.717-10.357,1.427-11.334A1.369,1.369,0,0,0,1834.729,3874.967Z" transform="translate(-1775.497 -3874.859)"/></g><g transform="translate(14.126 77)"><path class="i" d="M1808.627,3928.089s2.258,7.741,8.708,10c0,0,22.578-32.576,35.157-46.446s6.8-19.8,2.258-20.642C1846.041,3869.387,1826.367,3898.738,1808.627,3928.089Z" transform="translate(-1808.577 -3870.887)"/><path class="i" d="M1817.244,3938.048a.043.043,0,0,1-.017,0c-6.4-2.24-8.717-9.954-8.74-10.032a.05.05,0,0,1,.005-.04c10.683-17.675,19.335-30.812,26.451-40.161a94.1,94.1,0,0,1,11.3-12.828c3.5-3.124,6.343-4.511,8.429-4.125a6.524,6.524,0,0,1,5.039,4.209c.954,2.827.467,7.987-7.269,16.516-12.432,13.709-34.927,46.115-35.153,46.44A.049.049,0,0,1,1817.244,3938.048Zm-8.654-10.042c.137.447,2.473,7.75,8.635,9.932.82-1.181,22.873-32.894,35.139-46.419,7.7-8.494,8.194-13.615,7.249-16.417a6.424,6.424,0,0,0-4.962-4.143c-3.932-.724-10.53,4.964-19.626,16.915C1827.912,3897.216,1819.266,3910.344,1808.59,3928.007Z" transform="translate(-1808.485 -3870.798)"/></g><g transform="translate(18.077 76.964)"><path class="i" d="M1863.385,3872.324c.709-7.09-43.521,13.641-43.521,13.641s-1.43,8.522,9.536,11.1S1861.45,3891.677,1863.385,3872.324Z" transform="translate(-1819.756 -3870.794)"/><path class="i" d="M1833.709,3897.491a19.368,19.368,0,0,1-4.407-.471c-3.138-.738-7.232-2.474-8.916-6.548a9.322,9.322,0,0,1-.659-4.611.051.051,0,0,1,.028-.037c.1-.045,9.723-4.549,19.794-8.594,13.536-5.436,21.383-7.494,23.326-6.119a1.14,1.14,0,0,1,.471,1.122,26.414,26.414,0,0,1-11.37,19.162,33.654,33.654,0,0,1-11.795,5.314A28.719,28.719,0,0,1,1833.709,3897.491Zm-13.887-11.588a9.275,9.275,0,0,0,.658,4.535c1.668,4.032,5.73,5.752,8.843,6.484a24.507,24.507,0,0,0,10.835-.312,33.538,33.538,0,0,0,11.759-5.3,26.314,26.314,0,0,0,11.329-19.091l.05.005-.05-.005a1.033,1.033,0,0,0-.43-1.029c-2.384-1.687-13.948,2.4-23.231,6.129C1829.766,3881.266,1820.368,3885.648,1819.823,3885.9Z" transform="translate(-1819.668 -3870.697)"/></g><g transform="translate(36.703 87.983)"><path class="i" d="M1873.49,3908.195l-.968,65.476s4.193,3.548,12.9.645c0,0,4.193-57.413,2.9-66.121S1875.748,3900.454,1873.49,3908.195Z" transform="translate(-1872.472 -3901.971)"/><path class="i" d="M1878.856,3975.414a13.646,13.646,0,0,1-3.253-.375,8.443,8.443,0,0,1-3.206-1.421.049.049,0,0,1-.018-.039l.968-65.477a.042.042,0,0,1,0-.013,8.525,8.525,0,0,1,8.638-6.192,6.612,6.612,0,0,1,4.044,1.669,7.466,7.466,0,0,1,2.252,4.53c1.276,8.615-2.861,65.558-2.9,66.133a.051.051,0,0,1-.034.044A20.975,20.975,0,0,1,1878.856,3975.414Zm-6.376-1.858c.31.244,4.533,3.377,12.8.632.121-1.662,4.163-57.559,2.9-66.077a7.371,7.371,0,0,0-2.22-4.47,6.51,6.51,0,0,0-3.984-1.643c-.164-.011-.33-.017-.5-.017a8.444,8.444,0,0,0-8.036,6.131Z" transform="translate(-1872.38 -3901.88)"/></g></g></g><g transform="translate(1769.258 3643.123)"><path class="b" d="M2069.668,4120.541l-.369,13.509c-.119,4.38-4.893,7.022-8.857,6.772h0c-3.964-.249-5.63-3.537-5.493-7.673l2.142-13.563c.12-4.38,3.032-7.717,6.505-7.453h0C2067.069,4112.4,2069.787,4116.161,2069.668,4120.541Z" transform="translate(-2016.189 -3946.396)"/><path class="b" d="M1967.731,4118.207l-10.128,9.243c-3.285,3-8.065,3.6-10.677,1.339h0c-2.613-2.257-2.068-6.517,1.216-9.514l10.128-9.243c3.285-3,8.065-3.6,10.677-1.339h0C1971.559,4110.95,1971.015,4115.209,1967.731,4118.207Z" transform="translate(-1945.273 -3943.296)"/><path class="l" d="M1962.99,4088.143s-2.761,10.256-10.124,16.435c-4.353,3.653-1.775,6.212,3.55,6.8s9.335-4.7,11.834-7.067c2.973-2.816,4.733-3.287,3.55-14.529" transform="translate(-1948.758 -3930.893)"/><path class="l" d="M2058.872,4114.1s-5.325,19.821-1.183,21.3,11.537.887,11.537-7.4-.3-15.679-.3-15.679" transform="translate(-2016.946 -3946.528)"/><g transform="translate(35.063 16.626)"><rect class="m" width="11.458" height="19.619" transform="translate(0.056 0.056)"/><path class="m" d="M2056.013,3709.9h-11.458a.056.056,0,0,1-.055-.056v-19.618a.056.056,0,0,1,.055-.056h11.458a.056.056,0,0,1,.055.056v19.618A.055.055,0,0,1,2056.013,3709.9Zm-11.4-.111h11.347v-19.508h-11.347Z" transform="translate(-2044.5 -3690.175)"/></g><g transform="translate(31.403 2.489)"><path class="n" d="M2042.363,3650.408a8.474,8.474,0,0,1,8.635,8.3c0,4.584-4,14.509-8.772,14.509s-7.927-10.22-7.927-14.8C2034.3,3648.939,2038.387,3650.408,2042.363,3650.408Z" transform="translate(-2034.244 -3650.271)"/><path class="n" d="M2042.124,3673.171c-4.885,0-7.982-10.448-7.982-14.859,0-3.629.578-5.871,1.816-7.057,1.26-1.206,3.018-1.128,4.88-1.046.466.021.949.042,1.423.042a8.538,8.538,0,0,1,8.69,8.356,22.01,22.01,0,0,1-2.6,9C2045.816,3672.448,2043.362,3673.171,2042.124,3673.171Zm-2.651-22.892a4.683,4.683,0,0,0-3.438,1.056c-1.2,1.147-1.782,3.43-1.782,6.977,0,4.378,3.055,14.748,7.871,14.748,1.212,0,3.62-.715,6.125-5.506a22.236,22.236,0,0,0,2.592-8.948,8.427,8.427,0,0,0-8.58-8.245c-.477,0-.96-.021-1.428-.042S2039.916,3650.279,2039.473,3650.279Z" transform="translate(-2034.142 -3650.168)"/></g><g transform="translate(45.875 11.508)"><path class="n" d="M2076.28,3681.785c1.192,0,3.054-.954,3.3-3.913a2.041,2.041,0,0,0-2.16-2.024,2.1,2.1,0,0,0-2.16,2.024C2075.265,3678.991,2075.088,3681.785,2076.28,3681.785Z" transform="translate(-2075.2 -3675.792)"/><path class="n" d="M2076.179,3681.74a.711.711,0,0,1-.522-.222c-.591-.6-.567-2.323-.552-3.352,0-.146,0-.28,0-.395a2.153,2.153,0,0,1,2.215-2.08,2.383,2.383,0,0,1,1.733.741,1.756,1.756,0,0,1,.482,1.343,4.7,4.7,0,0,1-1.316,3.1A3.043,3.043,0,0,1,2076.179,3681.74Zm1.145-5.938a2.042,2.042,0,0,0-2.1,1.969c0,.116,0,.25,0,.4-.014,1.012-.038,2.706.521,3.272a.594.594,0,0,0,.443.189c2.312,0,3.136-2.527,3.249-3.863a1.651,1.651,0,0,0-.454-1.259A2.27,2.27,0,0,0,2077.323,3675.8Z" transform="translate(-2075.099 -3675.691)"/></g><g transform="translate(34.157 11.348)"><path class="o" d="M2042.6,3676.342a.474.474,0,1,0-.507-.474A.49.49,0,0,0,2042.6,3676.342Z" transform="translate(-2042.039 -3675.341)"/><path class="o" d="M2042.5,3676.3a.53.53,0,1,1,.561-.529A.548.548,0,0,1,2042.5,3676.3Zm0-.946a.419.419,0,1,0,.45.417A.436.436,0,0,0,2042.5,3675.35Z" transform="translate(-2041.937 -3675.239)"/></g><g transform="translate(41.752 11.348)"><path class="o" d="M2064.095,3676.342a.474.474,0,1,0-.508-.474A.491.491,0,0,0,2064.095,3676.342Z" transform="translate(-2063.531 -3675.341)"/><path class="o" d="M2063.993,3676.3a.53.53,0,1,1,.562-.529A.548.548,0,0,1,2063.993,3676.3Zm0-.946a.419.419,0,1,0,.451.417A.437.437,0,0,0,2063.993,3675.35Z" transform="translate(-2063.43 -3675.239)"/></g><g transform="translate(36.844 20.087)"><path class="i" d="M2049.7,3700.329a2,2,0,0,0,1.96,1.258,1.944,1.944,0,0,0,2.008-1.461,3.454,3.454,0,0,1-3.969.2Z" transform="translate(-2049.644 -3700.07)"/><path class="i" d="M2051.558,3701.541a2.067,2.067,0,0,1-2.013-1.3.056.056,0,0,1,.082-.064,3.389,3.389,0,0,0,1.811.522,3.348,3.348,0,0,0,2.094-.722.056.056,0,0,1,.063,0,.055.055,0,0,1,.026.057A2.011,2.011,0,0,1,2051.558,3701.541Zm-1.851-1.183a2,2,0,0,0,1.851,1.073,1.943,1.943,0,0,0,1.922-1.271,3.46,3.46,0,0,1-2.042.654A3.5,3.5,0,0,1,2049.707,3700.357Z" transform="translate(-2049.542 -3699.969)"/></g><path class="p" d="M2051.964,3683.334a4.4,4.4,0,0,1-1.979-.418.129.129,0,0,1-.059-.16,47.762,47.762,0,0,0,1.359-7.167.131.131,0,0,1,.145-.113.13.13,0,0,1,.113.144,48.806,48.806,0,0,1-1.333,7.116,4.682,4.682,0,0,0,2.375.3.128.128,0,0,1,.144.114.13.13,0,0,1-.114.144A5.59,5.59,0,0,1,2051.964,3683.334Z" transform="translate(-2012.941 -3664.043)"/><g transform="translate(38.249 1.147)"><path class="q" d="M2053.675,3649.51s3.7-2.481,6.209.59a17.391,17.391,0,0,1,3.287,7.627C2064.694,3656.917,2063.329,3639.782,2053.675,3649.51Z" transform="translate(-2053.619 -3646.473)"/><path class="q" d="M2063.069,3657.677a.057.057,0,0,1-.025-.006.056.056,0,0,1-.03-.042,17.471,17.471,0,0,0-3.275-7.6c-2.45-3-6.1-.6-6.135-.579a.055.055,0,0,1-.07-.085c2.49-2.509,4.64-3.451,6.387-2.8,2.42.906,3.506,4.708,3.7,7.688.118,1.811-.094,3.182-.527,3.412A.056.056,0,0,1,2063.069,3657.677Zm-6.408-9.266a3.944,3.944,0,0,1,3.164,1.549,17.521,17.521,0,0,1,3.285,7.564c.338-.322.506-1.648.4-3.258-.193-2.947-1.258-6.7-3.628-7.591-1.632-.611-3.638.22-5.964,2.469A6.155,6.155,0,0,1,2056.661,3648.411Z" transform="translate(-2053.518 -3646.368)"/></g><g transform="translate(31.175)"><path class="q" d="M2040.726,3647.409s-1.917-2.978-4-.4a21.022,21.022,0,0,1-2.577,2.38,1.7,1.7,0,0,1-.3-2.081c1.231-2.874,3.618-3.949,7.149-4.022,1-.021,3.913.094,4.567,1.694C2046.263,3646.673,2040.726,3647.409,2040.726,3647.409Z" transform="translate(-2033.596 -3643.225)"/><path class="q" d="M2034.053,3649.339a.055.055,0,0,1-.034-.012,1.764,1.764,0,0,1-.314-2.146c1.167-2.726,3.387-3.977,7.2-4.056.645-.014,3.916,0,4.62,1.729a.77.77,0,0,1-.048.709c-.718,1.238-4.673,1.777-4.84,1.8a.057.057,0,0,1-.054-.025,3.219,3.219,0,0,0-2.072-1.424,2.259,2.259,0,0,0-1.834,1.026,21.115,21.115,0,0,1-2.587,2.388A.053.053,0,0,1,2034.053,3649.339Zm7.037-6.1-.185,0c-3.761.078-5.951,1.308-7.1,3.988a1.659,1.659,0,0,0,.247,1.987,20.492,20.492,0,0,0,2.533-2.343,2.413,2.413,0,0,1,1.833-1.07c.031,0,.063,0,.094,0a3.214,3.214,0,0,1,2.14,1.444c.4-.056,4.068-.607,4.724-1.739a.655.655,0,0,0,.042-.611C2044.795,3643.364,2042.009,3643.235,2041.091,3643.235Z" transform="translate(-2033.497 -3643.123)"/></g><path class="e" d="M2025.508,3731.309c-.354-1.6-.4-5.834-5.363-7.545a75.566,75.566,0,0,0-12.264-3.06l-2.582-4.566s-5.977,4.8-5.933,4.8-5.585-4.8-5.585-4.8l-2.581,4.566a58.124,58.124,0,0,1-8.507,2.6c-7.139,1.552-9.782,5.776-10.981,12.381-3.349,18.487-7.575,30.785-4.953,36.141,3.024,6.18,16.24-1.482,19.2-6.18,4.488-7.13-3.843-23.106-3.843-23.106s.238,1.474.574,3.58c.418,11.238.662,30.6-1.887,42.07-.416,1.868.3,2.847,2.492,3.53,10.545,3.29,27.718,1.448,33.22.622,4.153-.622,3.78-2.4,3.367-4.476a63.9,63.9,0,0,1-1.578-11.11c-.3.1,10.551,1.282,13.707,1.282C2037.6,3778.034,2027.076,3738.393,2025.508,3731.309Zm-7.7,36.075c-.286-7.415-.376-17.475-.383-23.08,1.506,6.549,5.116,19.53,5.806,23.277C2023.281,3767.856,2017.708,3767.384,2017.807,3767.384Z" transform="translate(-1958.638 -3690.337)"/><g transform="translate(6.656 91.455)"><path class="q" d="M1980.987,3902.248s-11.384,7.969-15.369,15.653,1.88,55.194,1.88,55.194,11.384,3.7,16.792,0l-.428-43.868a6.786,6.786,0,0,1,2.867-5.537c1.979-1.4,4.763-3.388,7.635-5.5C1999.771,3914.2,2014.285,3900.541,1980.987,3902.248Z" transform="translate(-1964.188 -3902.045)"/><path class="q" d="M1977.469,3974.681a37.854,37.854,0,0,1-10.066-1.635.056.056,0,0,1-.038-.046c-.059-.476-5.821-47.615-1.874-55.227s15.272-15.593,15.386-15.673a.055.055,0,0,1,.029-.01c12.677-.652,19.76.854,21.052,4.47,1.632,4.568-6.687,10.865-7.641,11.568-2.929,2.158-5.769,4.185-7.636,5.5a6.739,6.739,0,0,0-2.843,5.492l.428,43.867a.057.057,0,0,1-.024.047A12.131,12.131,0,0,1,1977.469,3974.681Zm-10-1.73c.688.217,11.5,3.53,16.685.013l-.428-43.837a6.852,6.852,0,0,1,2.89-5.583c1.866-1.32,4.705-3.346,7.634-5.5.947-.7,9.207-6.948,7.6-11.441-1.273-3.563-8.314-5.044-20.926-4.4-.444.313-11.466,8.156-15.338,15.624C1961.7,3925.317,1967.284,3971.423,1967.47,3972.95Z" transform="translate(-1964.11 -3901.942)"/></g><g transform="translate(23.12 90.254)"><path class="q" d="M2028.215,3910.295s-3.7,10.246-3.7,16.223-.182,50.53-.182,50.53,10.53,3.985,19.068,0c0,0,1.321-41.423,1.89-48.253s4.554-13.092,2.277-23.622-36.708-5.041-36.708-5.041Z" transform="translate(-2010.805 -3898.646)"/><path class="q" d="M2034.587,3978.761a33.006,33.006,0,0,1-10.374-1.763.056.056,0,0,1-.036-.052c0-.445.182-44.621.182-50.53,0-5.72,3.426-15.46,3.688-16.2l-17.316-10.141a.056.056,0,0,1,.019-.1,133.29,133.29,0,0,1,17.509-1.429l.557,0a47.141,47.141,0,0,1,11.97,1.243c3.946,1.075,6.212,2.848,6.736,5.272,1.536,7.105.208,12.347-.965,16.971a41.157,41.157,0,0,0-1.312,6.667c-.562,6.751-1.876,47.836-1.889,48.25a.056.056,0,0,1-.032.049A20.669,20.669,0,0,1,2034.587,3978.761Zm-10.3-1.853c.686.249,10.793,3.792,18.958,0,.045-1.4,1.333-41.552,1.889-48.222a41.139,41.139,0,0,1,1.314-6.685c1.169-4.613,2.495-9.841.964-16.92-.515-2.38-2.754-4.125-6.656-5.188a48.2,48.2,0,0,0-12.5-1.237,133.193,133.193,0,0,0-17.339,1.4l17.22,10.085a.055.055,0,0,1,.024.067c-.037.1-3.7,10.305-3.7,16.2C2024.47,3932.248,2024.294,3975.369,2024.288,3976.907Z" transform="translate(-2010.703 -3898.544)"/></g><g transform="translate(18.511 49.495)"><path class="r" d="M1999.931,3783.85l22.666-.156a2.15,2.15,0,0,1,2.15,1.84l3,28.68a1.7,1.7,0,0,1-1.762,1.868l-22.666.155a2.15,2.15,0,0,1-2.15-1.84l-3-28.68A1.7,1.7,0,0,1,1999.931,3783.85Z" transform="translate(-1997.983 -3783.517)"/><path class="r" d="M2002.981,3816.09a2.331,2.331,0,0,1-2.311-2l-3-28.68a1.816,1.816,0,0,1,.45-1.419,1.979,1.979,0,0,1,1.486-.644l22.666-.156h.016a2.332,2.332,0,0,1,2.311,2l3,28.679a1.818,1.818,0,0,1-.45,1.419,1.98,1.98,0,0,1-1.486.644l-22.665.155Zm-3.374-32.564v.177a1.63,1.63,0,0,0-1.225.526,1.467,1.467,0,0,0-.362,1.146l3,28.68a1.972,1.972,0,0,0,1.959,1.682h.013l22.666-.156a1.627,1.627,0,0,0,1.225-.526,1.468,1.468,0,0,0,.363-1.146l-3-28.679a1.972,1.972,0,0,0-1.96-1.682h-.013l-22.666.156Z" transform="translate(-1997.659 -3783.194)"/></g><g transform="translate(32.556 68.272)"><path class="n" d="M2039.09,3843.688c-1.073-.407-2.562.507-.53,1.491a57.918,57.918,0,0,0,6.512,2.275.334.334,0,0,1,.247.4h0a.323.323,0,0,1-.389.238c-.9-.218-3.491-.851-4.168-1.108-.825-.313-2.13-.479-2.08.012s.865,1.2,2.6,1.72,7.4,2.573,11.242,2.879,6.754.813,6.754.813l1.036-7.1a7.717,7.717,0,0,1-3.6-2.071c-1.43-1.775-3.428-3.1-4.627-4.334a16.066,16.066,0,0,1-1.812-2.243.386.386,0,0,0-.634-.014,2,2,0,0,0-.248,1.543c.14.811,1.421,2.035,1.952,3.078.442.868-.06,1.039-.548.885-1.074-.337-6.89-2.231-8.677-2.8-1.419-.45-2.023.686-1.035,1.2.711.367,4.481,1.863,5.46,2.382.157.083.55.539-.048.5s-4.448-1.285-5.77-1.625c-1.113-.287-2.058-.407-2.132.431s1.4,1.107,2.785,1.561c1.173.386,3.6,1.06,4.327,1.286a.244.244,0,0,1,.166.284s.071.337-.6.148A56.871,56.871,0,0,1,2039.09,3843.688Z" transform="translate(-2037.5 -3836.43)"/><path class="n" d="M2059.187,3852.36h-.009c-.029-.005-2.95-.51-6.75-.812a50.39,50.39,0,0,1-9.944-2.463c-.554-.181-.992-.323-1.309-.417-1.873-.559-2.592-1.3-2.639-1.765a.263.263,0,0,1,.107-.246c.341-.261,1.406-.063,2.045.179.682.259,3.358.912,4.161,1.106a.269.269,0,0,0,.326-.2.28.28,0,0,0-.211-.332l-.014,0a57.3,57.3,0,0,1-6.507-2.274c-1.138-.551-1.079-1.033-1-1.215.182-.42.96-.606,1.572-.374h0a57.185,57.185,0,0,0,6.181,1.822c.341.1.46.048.5.01a.108.108,0,0,0,.033-.1.061.061,0,0,1,0-.021.19.19,0,0,0-.13-.223c-.269-.084-.774-.229-1.36-.4-.993-.287-2.229-.644-2.967-.887-.235-.077-.473-.149-.705-.22-1.171-.354-2.181-.66-2.116-1.4a.7.7,0,0,1,.277-.537c.4-.281,1.158-.138,1.92.059.512.132,1.4.4,2.338.68,1.435.431,3.062.92,3.422.943.153.01.248-.014.262-.064.025-.088-.139-.282-.241-.336-.543-.287-1.962-.883-3.214-1.408-.992-.416-1.929-.809-2.246-.973-.425-.219-.609-.578-.47-.915.153-.37.7-.647,1.546-.379.915.291,2.857.919,4.735,1.527,1.758.569,3.418,1.107,3.943,1.271a.556.556,0,0,0,.583-.061c.116-.137.082-.4-.1-.749a9.985,9.985,0,0,0-.934-1.376,5.008,5.008,0,0,1-1.023-1.717,2.049,2.049,0,0,1,.257-1.583.425.425,0,0,1,.353-.182h.006a.441.441,0,0,1,.362.2,16.147,16.147,0,0,0,1.806,2.235c.462.477,1.047.969,1.667,1.491a21.542,21.542,0,0,1,2.963,2.847,7.716,7.716,0,0,0,3.571,2.053.053.053,0,0,1,.04.059l-1.035,7.1a.053.053,0,0,1-.021.035A.054.054,0,0,1,2059.187,3852.36Zm-20-5.721a.839.839,0,0,0-.476.1.156.156,0,0,0-.065.151c.047.467.858,1.165,2.564,1.674.318.095.757.238,1.311.418a50.347,50.347,0,0,0,9.921,2.458c3.521.28,6.29.734,6.705.8l1.021-7a7.707,7.707,0,0,1-3.582-2.077,21.452,21.452,0,0,0-2.949-2.832c-.621-.524-1.209-1.018-1.675-1.5a16.238,16.238,0,0,1-1.818-2.25.336.336,0,0,0-.276-.15h0a.32.32,0,0,0-.266.137,1.945,1.945,0,0,0-.239,1.5,5,5,0,0,0,1,1.671,10.081,10.081,0,0,1,.945,1.392c.253.5.186.746.084.866a.646.646,0,0,1-.7.094c-.525-.165-2.185-.7-3.944-1.271-1.877-.608-3.819-1.236-4.733-1.527-.746-.236-1.277-.019-1.416.318-.116.282.048.588.42.78.314.162,1.248.554,2.239.969,1.254.527,2.676,1.123,3.223,1.413.107.057.342.288.294.459-.031.108-.155.155-.371.141a35.528,35.528,0,0,1-3.446-.947c-.937-.282-1.823-.548-2.333-.68-.7-.181-1.47-.331-1.833-.075a.588.588,0,0,0-.233.46c-.058.651.915.946,2.041,1.286.233.071.472.143.708.22.737.242,1.971.6,2.963.885.587.169,1.092.316,1.363.4a.3.3,0,0,1,.2.336.214.214,0,0,1-.065.182c-.1.094-.3.1-.6.016a57.33,57.33,0,0,1-6.192-1.826h0a1.214,1.214,0,0,0-1.438.317c-.14.325.206.717.949,1.077a57.231,57.231,0,0,0,6.491,2.268l.013,0a.387.387,0,0,1,.284.459.379.379,0,0,1-.453.277c-1.032-.249-3.505-.856-4.175-1.11A4.574,4.574,0,0,0,2039.182,3846.639Z" transform="translate(-2037.406 -3836.333)"/></g><path class="b" d="M1951.73,4126.273s3.155-4.864,10.519,5.654a21.07,21.07,0,0,1-7.626,7.1c-2.173,1.144-7.889.263-8.283-2.366S1947,4132.322,1951.73,4126.273Z" transform="translate(-1945.914 -3954.823)"/><path class="b" d="M2055.347,4155.6s1.262,2.778,3.615,3.55c3.059,1,7.466-.224,8.284-3.419a47.368,47.368,0,0,0,1.446-10.519s-2.235-2.5-7.231-2.564-6.245.92-6.574,1.578S2053.9,4153.3,2055.347,4155.6Z" transform="translate(-2015.871 -3966.136)"/></g><g transform="translate(1861.153 3697.993)"><path class="s" d="M2207.373,3804.194a3.1,3.1,0,0,0-1.539,1.444,4.154,4.154,0,0,0,2.225-.137Z" transform="translate(-2205.657 -3802.149)"/><path class="s" d="M2206.351,3805.583a3.662,3.662,0,0,1-.887-.1.178.178,0,0,1-.114-.094.18.18,0,0,1,0-.148,3.247,3.247,0,0,1,1.635-1.536.176.176,0,0,1,.221.082l.686,1.307a.176.176,0,0,1-.1.25A4.488,4.488,0,0,1,2206.351,3805.583Zm-.576-.4a4.144,4.144,0,0,0,1.706-.113l-.509-.97A2.977,2.977,0,0,0,2205.774,3805.186Z" transform="translate(-2205.334 -3801.826)"/><path class="e" d="M2212.527,3802.464a1.827,1.827,0,1,1,1.147-2.313,1.823,1.823,0,0,1-1.147,2.313" transform="translate(-2208.427 -3798.73)"/><path class="e" d="M2211.618,3802.416a2.006,2.006,0,0,1-1.894-1.363,2.021,2.021,0,0,1,1.257-2.541,2,2,0,1,1,.636,3.9Zm0-3.656a1.639,1.639,0,0,0-.525.087,1.665,1.665,0,0,0-1.036,2.094,1.645,1.645,0,0,0,2.089,1.033h0a1.628,1.628,0,0,0,.949-.827,1.654,1.654,0,0,0-1.479-2.386Z" transform="translate(-2208.107 -3798.406)"/><path class="e" d="M2214.894,3803.637a16.027,16.027,0,0,1,7.828,7.191s-11.541,1.1-10.931-5.076c.566-5.708,3.1-2.115,3.1-2.115" transform="translate(-2209.494 -3801.067)"/><path class="e" d="M2220.39,3810.763c-2.36,0-6.164-.316-8.031-2.189a3.751,3.751,0,0,1-1.067-3.161c.2-2.057.676-3.156,1.445-3.358.878-.232,1.765.873,1.946,1.115a16.4,16.4,0,0,1,7.872,7.254.177.177,0,0,1-.139.258C2222.319,3810.69,2221.52,3810.763,2220.39,3810.763Zm-7.406-8.387a.618.618,0,0,0-.158.02c-.412.109-.952.727-1.183,3.051a3.411,3.411,0,0,0,.966,2.877c2.348,2.357,8.186,2.114,9.5,2.026a16,16,0,0,0-7.6-6.87.177.177,0,0,1-.084-.063C2214.207,3803.107,2213.557,3802.375,2212.984,3802.375Z" transform="translate(-2209.171 -3800.744)"/><path class="s" d="M2213.986,3803.236a.333.333,0,0,1-.42-.2.339.339,0,0,1,.208-.424.331.331,0,0,1,.211.627" transform="translate(-2210.647 -3801.114)"/><path class="s" d="M2213.372,3803.028a.612.612,0,0,1-.577-.408.61.61,0,1,1,1.154-.4.609.609,0,0,1-.378.771h0A.6.6,0,0,1,2213.372,3803.028Zm.106-.3h0Zm-.11-.363-.017,0a.058.058,0,0,0-.026.074.056.056,0,0,0,.062.023.052.052,0,0,0,.031-.067A.052.052,0,0,0,2213.368,3802.368Z" transform="translate(-2210.139 -3800.608)"/></g></g></svg>