<svg xmlns="http://www.w3.org/2000/svg" width="205" height="146.646" viewBox="0 0 205 146.646"><defs><style>.a{fill:#7acdf3;}.b{fill:#fce6d9;}.c{fill:#f8b300;}.d{fill:#fbd9c7;}.e{fill:#c56442;}.f{fill:#f5af7e;}.g{fill:#f5ac5f;}.h{fill:#ffe823;}.i{fill:#fff220;}.j{fill:#f9d4df;}.k{fill:#f4ac8b;}.l{fill:#ee7951;}.m{fill:#4c4450;}.n{fill:#ffde00;}.o{fill:#fff;}.p{fill:#d0c9d4;}.q{fill:#f29ea6;}.r{fill:#006ba6;}.s{fill:#e50057;}.t{fill:#dee4f3;}.u{fill:#bfcbe8;}.v{fill:#fbdac8;}.w{fill:#f8b100;}</style></defs><g transform="translate(-1649.958 -5660.184)"><g transform="translate(1683.242 5753.353)"><path class="a" d="M1768.1,5970.261h-18.118l-2-36.809h18.118Z" transform="translate(-1747.767 -5933.244)"/><path class="a" d="M1767.695,5970.067h-18.118a.208.208,0,0,1-.208-.2l-2-36.809a.208.208,0,0,1,.208-.219h18.118a.208.208,0,0,1,.208.2l2,36.809a.21.21,0,0,1-.057.155A.208.208,0,0,1,1767.695,5970.067Zm-17.921-.416h17.7l-1.98-36.393h-17.7Z" transform="translate(-1747.365 -5932.843)"/></g><g transform="translate(1689.463 5734.462)"><g transform="translate(0 0)"><path class="a" d="M1837.373,5880.037c3.76,1.253,5.64,4.8,6.684,6.893,4.741,14.917,11.626,36.557,11.626,36.557h-15.41s-8.2-22.623-9.18-24.754,0,24.918,0,24.918h-44.45s-1.123-27.049-2.107-24.918-2.951,24.754-2.951,24.754h-15.409s.656-21.639,5.4-36.557c1.044-2.088,2.924-5.639,6.683-6.893l4.419-1.866Z" transform="translate(-1765.969 -5877.963)"/><path class="a" d="M1830.693,5923.457h-44.45a.208.208,0,0,1-.208-.2c-.378-9.1-1.145-22.674-1.78-24.657-.979,2.943-2.843,24.282-2.863,24.5a.208.208,0,0,1-.207.19h-15.409a.208.208,0,0,1-.208-.214c.006-.216.711-21.838,5.406-36.613.933-1.872,2.849-5.7,6.816-7.027l4.4-1.86a.185.185,0,0,1,.088-.016l54.7,1.866a.238.238,0,0,1,.059.011c3.966,1.322,5.883,5.155,6.8,7,4.753,14.948,11.638,36.586,11.638,36.586a.207.207,0,0,1-.2.271h-15.409a.208.208,0,0,1-.2-.137c-.079-.219-7.672-21.169-9.053-24.461-.364,2.36-.048,15.616.277,24.546a.208.208,0,0,1-.208.216Zm-44.25-.416h44.035c-.041-1.15-.233-6.716-.345-12.235-.257-12.639.122-12.729.4-12.8.1-.022.241,0,.35.233.947,2.052,8.388,22.566,9.137,24.633H1855c-.807-2.537-7.109-22.346-11.539-36.286-.882-1.757-2.74-5.472-6.523-6.749l-54.621-1.863-4.376,1.848c-3.819,1.273-5.683,5-6.579,6.794-4.416,13.9-5.282,33.962-5.367,36.255h15c.205-2.341,2-22.573,2.953-24.633.112-.243.269-.252.352-.235.3.06.752.148,1.516,12.78C1786.151,5916.335,1786.4,5921.927,1786.443,5923.041Zm-2.1-24.658Z" transform="translate(-1765.569 -5877.562)"/></g></g><g transform="translate(1705.946 5706.568)"><path class="b" d="M1844.133,5832.325a52.5,52.5,0,0,0,20.607-5.92,10.642,10.642,0,0,0-3.47-2.364c-5.109-2.239-8.727-3.526-11.209-6.994-5.888-8.227-.288-20.464-.288-20.464l-14.227.583s1.178,14.262-4.461,19.639c-4.644,3.908-10.611,5.7-16.623,7.657C1818.106,5828.575,1827.6,5833.529,1844.133,5832.325Z" transform="translate(-1814.238 -5796.359)"/><path class="b" d="M1838.819,5832.3c-12.988,0-21.324-4.022-24.955-8.12a.224.224,0,0,1,.1-.361l1.069-.348c5.73-1.861,11.143-3.62,15.479-7.269,5.486-5.231,4.394-19.307,4.383-19.448a.223.223,0,0,1,.214-.242l14.227-.583a.241.241,0,0,1,.194.1.225.225,0,0,1,.018.218,30.986,30.986,0,0,0-2.048,7.1c-.6,3.685-.68,8.955,2.315,13.14,2.189,3.06,5.289,4.4,9.58,6.253q.745.322,1.537.667a10.754,10.754,0,0,1,3.541,2.414.223.223,0,0,1-.057.353,52.725,52.725,0,0,1-20.695,5.945h0Q1841.167,5832.3,1838.819,5832.3Zm4.883-.405h0Zm-29.272-7.758c4.138,4.422,13.9,8.653,29.255,7.534h0a52.232,52.232,0,0,0,20.251-5.756,10.457,10.457,0,0,0-3.187-2.1q-.791-.347-1.534-.667c-4.357-1.882-7.505-3.242-9.766-6.4-5.353-7.479-1.287-18.33-.451-20.356l-13.643.56a50.205,50.205,0,0,1-.133,7.61c-.55,5.679-2.035,9.708-4.413,11.976-4.413,3.714-9.866,5.486-15.639,7.361Z" transform="translate(-1813.807 -5795.928)"/></g><g transform="translate(1709.351 5668.202)"><path class="c" d="M1846.887,5684.313a20.953,20.953,0,0,0-7.958,1.91c-2.05-.8-5.12-.791-8.586,3.294-8.847,10.433-9.7,26.6,10.5,34.347,4.78,1.122,2,2.027,9.032,1.8,11.466-.369,11.841-9.5,14.207-21.155C1866.435,5692.924,1858.355,5683.944,1846.887,5684.313Z" transform="translate(-1824.181 -5684.079)"/><path class="c" d="M1847.574,5725.491c-2.763,0-3.315-.3-4.143-.737a10.8,10.8,0,0,0-3.05-1.1c-8.832-3.388-14.381-8.677-16.077-15.306-1.6-6.237.446-13.491,5.46-19.4,3.534-4.166,6.694-4.16,8.749-3.392a21.015,21.015,0,0,1,7.957-1.891h0a17.421,17.421,0,0,1,14.084,5.84c3.279,3.883,4.464,9.076,3.336,14.622-.251,1.235-.479,2.445-.7,3.615-1.838,9.713-3.289,17.384-13.718,17.72C1848.742,5725.479,1848.116,5725.491,1847.574,5725.491Zm-11.187-39.883c-1.747,0-3.915.834-6.282,3.625-4.921,5.8-6.927,12.906-5.368,19,1.658,6.482,7.113,11.666,15.774,14.99a11.072,11.072,0,0,1,3.13,1.134c.955.51,1.483.792,5.815.649,10.07-.324,11.422-7.468,13.293-17.356.221-1.171.451-2.382.7-3.621a16.49,16.49,0,0,0-3.24-14.244,17,17,0,0,0-13.727-5.681h0a20.594,20.594,0,0,0-7.872,1.89.227.227,0,0,1-.174,0A5.63,5.63,0,0,0,1836.387,5685.608Zm10.091-1.725h0Z" transform="translate(-1823.772 -5683.649)"/></g><g transform="translate(1718.651 5673.812)"><g transform="translate(8.254 32.81)"><path class="d" d="M1887.6,5809.769c.048,0,.094-.006.142-.007a29.219,29.219,0,0,1,2.307-13.178l-14.227.583a48.844,48.844,0,0,1-.178,8.393A20.01,20.01,0,0,0,1887.6,5809.769Z" transform="translate(-1875.473 -5796.412)"/><path class="d" d="M1887,5809.612a20.424,20.424,0,0,1-11.785-4.245.17.17,0,0,1-.069-.157,49.105,49.105,0,0,0,.177-8.36.17.17,0,0,1,.042-.127.172.172,0,0,1,.121-.058l14.227-.583a.19.19,0,0,1,.149.075.172.172,0,0,1,.014.167c-.029.064-2.934,6.517-2.293,13.09a.172.172,0,0,1-.042.13.17.17,0,0,1-.124.057l-.061,0c-.027,0-.054,0-.082,0h0Zm-11.5-4.462a20.042,20.042,0,0,0,11.5,4.12l.226,0a29.574,29.574,0,0,1,2.23-12.833l-13.78.565A50,50,0,0,1,1875.5,5805.15Z" transform="translate(-1875.144 -5796.083)"/></g><g transform="translate(0 0)"><path class="b" d="M1869.163,5700.73c9.88-.267,12.609,5.145,12.856,14.585s-2.5,24.91-11.945,25.154-18.181-14.719-18.425-24.161S1859.279,5701,1869.163,5700.73Z" transform="translate(-1851.419 -5700.497)"/><path class="b" d="M1869.42,5740.265c-4.256,0-8.843-3.1-12.624-8.547-3.4-4.9-5.681-11.118-5.8-15.836-.234-9.02,7.057-15.52,17.732-15.807h0c4.815-.13,8.161,1.093,10.223,3.739,1.816,2.331,2.726,5.847,2.862,11.064a46.562,46.562,0,0,1-2.353,16.109c-2.154,5.958-5.547,9.165-9.81,9.275Zm-.683-39.743c-10.412.28-17.524,6.592-17.3,15.349.12,4.636,2.366,10.756,5.724,15.592,3.695,5.322,8.149,8.354,12.255,8.354l.216,0c5.134-.133,7.946-4.957,9.4-8.98a46.087,46.087,0,0,0,2.327-15.945c-.134-5.118-1.014-8.55-2.768-10.8-1.969-2.525-5.2-3.689-9.858-3.566Zm-.006-.223h0Z" transform="translate(-1850.988 -5700.065)"/></g><path class="e" d="M1925.361,5746.214a1,1,0,1,1,.977-1.031A1.006,1.006,0,0,1,1925.361,5746.214Z" transform="translate(-1899.269 -5729.122)"/><path class="e" d="M1887.814,5748.375a1,1,0,1,1,.978-1.031A1,1,0,0,1,1887.814,5748.375Z" transform="translate(-1874.552 -5730.545)"/><path class="f" d="M1906.6,5759.024a.381.381,0,0,1-.108-.747l4.868-1.444c-.97-1.1-3.2-4.168-3.985-9.8a.381.381,0,0,1,.325-.43.377.377,0,0,1,.431.325c.952,6.822,4.161,9.775,4.193,9.8a.382.382,0,0,1-.146.65l-5.469,1.623A.4.4,0,0,1,1906.6,5759.024Z" transform="translate(-1887.348 -5730.701)"/><path class="g" d="M1900.014,5791.36a4.508,4.508,0,0,0,4.393,1.557,3.9,3.9,0,0,0,3.2-2.692l-2.059.537-1.21.78-.862-.494Z" transform="translate(-1883.262 -5759.417)"/></g><g transform="translate(1714.889 5689.368)"><path class="b" d="M1846.755,5758.839c2.24-.072,2.057-6.429,1.983-8.668a4.054,4.054,0,0,0-8.1.263C1840.708,5752.673,1844.52,5758.911,1846.755,5758.839Z" transform="translate(-1840.409 -5746.025)"/><path class="b" d="M1846.285,5758.63c-1.522,0-3.313-2.4-4.017-3.434a12.6,12.6,0,0,1-2.288-5.188,4.278,4.278,0,0,1,8.551-.277,36.035,36.035,0,0,1-.126,5.181c-.292,2.433-.99,3.684-2.074,3.718Zm-2.028-12.59-.126,0a3.833,3.833,0,0,0-3.7,3.951c.072,2.185,3.778,8.189,5.855,8.189h.035c1.033-.033,1.464-1.826,1.644-3.324a35.635,35.635,0,0,0,.123-5.113A3.836,3.836,0,0,0,1844.257,5746.04Z" transform="translate(-1839.978 -5745.592)"/></g><g transform="translate(1721.245 5667.334)"><path class="c" d="M1859.233,5690.808s28.47-7.066,27.985,11.243c0,0,4.262-2.547,4.387-6.67.151-5.005-4.547-11.858-14.457-13.236C1859.074,5679.625,1859.233,5690.808,1859.233,5690.808Z" transform="translate(-1859.009 -5681.547)"/><path class="c" d="M1886.787,5701.837a.224.224,0,0,1-.223-.23c.1-3.918-1.146-6.951-3.714-9.016-7.481-6.012-23.829-2.044-23.993-2a.224.224,0,0,1-.277-.214,8.673,8.673,0,0,1,3-6.189c3.124-2.759,8.227-3.667,15.167-2.7a18.456,18.456,0,0,1,11.132,5.325,11.666,11.666,0,0,1,3.517,8.139c-.127,4.2-4.318,6.75-4.5,6.856A.222.222,0,0,1,1886.787,5701.837Zm-16.578-13.029c4.349,0,9.51.694,12.921,3.436,2.588,2.08,3.895,5.089,3.887,8.948,1-.7,3.835-2.987,3.934-6.255.229-7.572-8.2-12.165-14.264-13.008-6.8-.947-11.779-.078-14.8,2.586a8.478,8.478,0,0,0-2.845,5.572,55.784,55.784,0,0,1,8.975-1.222C1868.712,5688.83,1869.448,5688.808,1870.209,5688.808Z" transform="translate(-1858.579 -5681.111)"/></g><g transform="translate(1711.529 5671.25)"><path class="c" d="M1844.937,5697.956s.993,11.639-10.988,14.65c-8.752,2.2,2.751-21.166,10.342-19.284" transform="translate(-1830.58 -5692.994)"/><path class="c" d="M1832.446,5712.553a2.049,2.049,0,0,1-1.8-.857c-1.54-2.218.712-8.144,3.777-12.593,3.235-4.693,6.785-7.093,9.49-6.423a.224.224,0,0,1-.108.435c-2.518-.626-5.889,1.708-9.014,6.242-3.343,4.849-5.038,10.27-3.779,12.083.447.645,1.27.82,2.45.524,4.893-1.23,8.2-4.028,9.832-8.317a15.461,15.461,0,0,0,.988-6.1.224.224,0,0,1,.446-.038c.01.118.87,11.863-11.157,14.886A4.647,4.647,0,0,1,1832.446,5712.553Z" transform="translate(-1830.147 -5692.569)"/></g><g transform="translate(1713.738 5671.075)"><path class="c" d="M1851.323,5696.851s1.071,12.232-10.908,15.242c-8.755,2.2,2.75-21.165,10.341-19.283" transform="translate(-1837.044 -5692.482)"/><path class="c" d="M1838.912,5712.04a2.051,2.051,0,0,1-1.8-.858c-1.54-2.219.712-8.144,3.778-12.591,3.235-4.692,6.785-7.092,9.49-6.421a.224.224,0,0,1-.108.435c-2.521-.628-5.89,1.708-9.014,6.241-3.342,4.848-5.038,10.268-3.779,12.083.447.645,1.271.821,2.451.525,11.65-2.927,10.75-14.885,10.739-15a.224.224,0,0,1,.2-.242.232.232,0,0,1,.242.2c.01.124.948,12.457-11.077,15.478A4.667,4.667,0,0,1,1838.912,5712.04Z" transform="translate(-1836.612 -5692.058)"/></g><g transform="translate(1717.01 5684.434)"><path class="c" d="M1851.491,5731.808s-1.521,10.44,1.209,15.677a17.1,17.1,0,0,1-5.828-14.109" transform="translate(-1846.616 -5731.583)"/><path class="c" d="M1852.27,5747.276a.225.225,0,0,1-.135-.045,17.476,17.476,0,0,1-5.916-14.3.229.229,0,0,1,.237-.21.223.223,0,0,1,.21.236,17.153,17.153,0,0,0,4.961,13.211c-2.12-5.429-.846-14.421-.787-14.826a.224.224,0,0,1,.443.065c-.015.1-1.479,10.429,1.187,15.542a.223.223,0,0,1-.2.327Z" transform="translate(-1846.186 -5731.151)"/></g><g transform="translate(1823.535 5750.412)"><path class="h" d="M2158.445,5961.083h20.312l7.152-36.332H2165.6Z" transform="translate(-2158.27 -5924.576)"/><path class="i" d="M2178.419,5960.92h-20.312a.174.174,0,0,1-.172-.208l7.152-36.332a.175.175,0,0,1,.172-.142h20.312a.175.175,0,0,1,.172.209l-7.152,36.332A.174.174,0,0,1,2178.419,5960.92Zm-20.1-.35h19.954l7.083-35.982H2165.4Z" transform="translate(-2157.932 -5924.238)"/></g><g transform="translate(1735.232 5705.39)"><g transform="translate(0 0)"><path class="h" d="M1982.8,5867.576s-1.144-34.9,0-32.422,3.433,28.8,3.433,28.8h17.927s-.763-25.174-6.279-42.53c-1.215-2.429-3.4-6.561-7.776-8.019s-16.766-7.047-18.954-8.019-3.159-4.616-3.888-6.8.487-5.589-5.589-5.589H1949.76c-6.075,0-4.86,3.4-5.589,5.589s-1.7,5.831-3.888,6.8-14.579,6.561-18.954,8.019-6.561,5.59-7.776,8.019c-5.516,17.355-13.526,42.53-13.526,42.53h17.927s9.536-26.319,10.68-28.8,0,32.422,0,32.422Z" transform="translate(-1899.852 -5792.817)"/><path class="i" d="M1982.461,5867.413H1928.3a.178.178,0,0,1-.126-.053.176.176,0,0,1-.049-.128c.394-12.017.77-29.927.269-32.2-1.386,3.19-10.516,28.379-10.609,28.638a.175.175,0,0,1-.165.115h-17.927a.175.175,0,0,1-.167-.228s8.01-25.175,13.526-42.53c1.078-2.16,3.3-6.6,7.887-8.132,3.945-1.315,14.552-6.054,18.038-7.611l.9-.4c1.9-.844,2.863-3.829,3.568-6.008.078-.242.153-.474.226-.691a8,8,0,0,0,.283-1.49c.253-1.978.54-4.219,5.472-4.219h11.914c4.931,0,5.218,2.241,5.471,4.219a8.013,8.013,0,0,0,.284,1.49c.072.217.147.449.225.691.7,2.179,1.669,5.164,3.567,6.008l.9.4c3.486,1.558,14.093,6.3,18.038,7.611,4.588,1.529,6.81,5.972,7.877,8.106,2.864,9,4.421,20.1,5.225,27.833.871,8.373,1.07,14.707,1.072,14.77a.175.175,0,0,1-.175.18h-17.928a.176.176,0,0,1-.175-.16c-.022-.258-2.215-25.362-3.354-28.582-.5,2.314-.123,20.187.271,32.185a.175.175,0,0,1-.05.128A.178.178,0,0,1,1982.461,5867.413Zm-53.983-.35h53.8c-.04-1.243-.273-8.659-.407-16.012-.3-16.359.156-16.466.427-16.531.09-.021.217,0,.32.222,1.11,2.4,3.223,26.291,3.434,28.7h17.586c-.039-1.091-.276-6.993-1.064-14.566-.8-7.713-2.355-18.785-5.2-27.736-1.036-2.067-3.214-6.422-7.664-7.906-3.962-1.32-14.581-6.064-18.07-7.623l-.9-.4c-2.042-.908-3.034-3.979-3.759-6.221-.078-.241-.152-.471-.224-.687a8.365,8.365,0,0,1-.3-1.557c-.246-1.924-.5-3.913-5.124-3.913h-11.914c-4.623,0-4.878,1.989-5.124,3.913a8.375,8.375,0,0,1-.3,1.557c-.072.216-.146.447-.224.688-.725,2.242-1.717,5.313-3.759,6.221l-.9.4c-3.49,1.559-14.109,6.3-18.07,7.623-4.45,1.484-6.628,5.838-7.674,7.931-5.2,16.366-12.632,39.727-13.443,42.277h17.565c.69-1.9,9.548-26.323,10.644-28.7.1-.222.23-.245.319-.222.271.064.725.171.428,16.531C1928.75,5858.4,1928.518,5865.82,1928.478,5867.063Z" transform="translate(-1899.514 -5792.479)"/></g></g><g transform="translate(1774.505 5660.184)"><g transform="translate(0.655 3.152)"><path class="j" d="M2030.613,5669.416c-13.531.293-14.611,10.209-14.178,23.753s7.725,25.871,15.181,25.871c8.875,0,18.6-17.2,20.194-25.1C2054.633,5680,2047.2,5669.056,2030.613,5669.416Z" transform="translate(-2016.361 -5669.407)"/></g><path class="k" d="M2039.205,5719.287l-4.478,16.131-.254,1.021,1.051.007,6.142.043.011-1.655-6.141-.043.8,1.028,3.909-16.234Z" transform="translate(-2027.63 -5699.091)"/><path class="l" d="M2048.245,5780.873a.834.834,0,0,0-1.017-.2,3.468,3.468,0,0,1-1.542.345,2.892,2.892,0,0,1-1.835-.422.837.837,0,0,0-1.09.079h0a.822.822,0,0,0,.085,1.232,4.387,4.387,0,0,0,2.84.766,5.124,5.124,0,0,0,2.277-.518.834.834,0,0,0,.281-1.284Z" transform="translate(-2032.93 -5739.343)"/><g transform="translate(1.986 23.448)"><rect width="1.802" height="1.861" transform="matrix(0.696, -0.718, 0.718, 0.696, 0, 1.295)"/></g><g transform="translate(18.594 23.449)"><rect width="1.801" height="1.859" transform="translate(0 1.292) rotate(-45.858)"/></g><path class="m" d="M2033.4,5662.491c-13.2,0-14.732-1.817-14.79-1.9a.516.516,0,0,1,.063.154.749.749,0,0,0-1.473.239,10.348,10.348,0,0,0,1.474,4.23c1.207,1.97,3.649,4.424,8.438,4.919a48.315,48.315,0,0,0,5.247.09c3.292-.053,7.024-.112,9.865.67,1.977.543,2.48,2.253,3.135,5,.523,2.189,1.116,4.669,3.144,6.253,1.65,1.287,2.948,1.767,3.969,1.468a1.74,1.74,0,0,0,1.15-1.03.736.736,0,0,0,.038-.333c-.66-5.843-2.274-10.257-4.934-13.5C2045.307,5664.6,2040.151,5662.491,2033.4,5662.491Z" transform="translate(-2016.255 -5660.184)"/><path class="j" d="M2109.509,5736.352a2.918,2.918,0,0,0,1.551.715c2.47.365,5.544-1.942,6.868-5.157s.395-6.114-2.074-6.48a4.5,4.5,0,0,0-2.444.4" transform="translate(-2077.026 -5703.11)"/><g transform="translate(7.074 24.369)"><path class="n" d="M2035.88,5732.813h10.013v-1.163h-10.6v1.163Z" transform="translate(-2035.247 -5731.599)"/><path class="n" d="M2045.795,5732.767h-10.6a.052.052,0,0,1-.051-.052v-1.163a.051.051,0,0,1,.051-.051h10.6a.051.051,0,0,1,.051.051v1.163A.052.052,0,0,1,2045.795,5732.767Zm-10.544-.1h10.493V5731.6H2035.25Z" transform="translate(-2035.148 -5731.501)"/></g><g transform="translate(16.505 20.833)"><path class="n" d="M2066.905,5722.466a3.1,3.1,0,0,1,3.067,2.972,2.823,2.823,0,0,1-2.842,2.936,3.094,3.094,0,0,1-3.067-2.974,2.82,2.82,0,0,1,2.843-2.935Zm-4,2.972a4.265,4.265,0,0,0,4.229,4.1,3.985,3.985,0,0,0,4.005-4.137,4.267,4.267,0,0,0-4.23-4.1,3.982,3.982,0,0,0-4,4.135Z" transform="translate(-2062.847 -5721.252)"/><path class="n" d="M2067.031,5729.491a4.317,4.317,0,0,1-4.281-4.149h0a4.034,4.034,0,0,1,4.056-4.188,4.318,4.318,0,0,1,4.282,4.148,4.039,4.039,0,0,1-4.057,4.19Zm-.225-8.235a3.93,3.93,0,0,0-3.953,4.082h0a4.213,4.213,0,0,0,4.178,4.05,3.934,3.934,0,0,0,3.954-4.084A4.214,4.214,0,0,0,2066.806,5721.256Zm.225,7.071a3.146,3.146,0,0,1-3.119-3.023,2.873,2.873,0,0,1,2.894-2.987,3.146,3.146,0,0,1,3.118,3.021,2.874,2.874,0,0,1-2.893,2.989Zm-.225-5.908a2.769,2.769,0,0,0-2.791,2.882,3.043,3.043,0,0,0,3.016,2.924,2.772,2.772,0,0,0,2.79-2.883A3.041,3.041,0,0,0,2066.806,5722.419Z" transform="translate(-2062.748 -5721.153)"/></g><g transform="translate(0 20.833)"><path class="n" d="M2018.6,5722.466a3.094,3.094,0,0,1,3.068,2.972,2.823,2.823,0,0,1-2.842,2.936,3.094,3.094,0,0,1-3.067-2.974,2.82,2.82,0,0,1,2.842-2.935Zm-4,2.972a4.268,4.268,0,0,0,4.23,4.1,3.985,3.985,0,0,0,4-4.137,4.266,4.266,0,0,0-4.23-4.1,3.985,3.985,0,0,0-4,4.135Z" transform="translate(-2014.545 -5721.252)"/><path class="n" d="M2018.73,5729.491a4.321,4.321,0,0,1-4.282-4.149h0a4.037,4.037,0,0,1,4.056-4.188,4.317,4.317,0,0,1,4.281,4.148,4.037,4.037,0,0,1-4.056,4.19Zm-4.179-4.153a4.216,4.216,0,0,0,4.179,4.05,3.933,3.933,0,0,0,3.953-4.084,4.213,4.213,0,0,0-4.179-4.048,3.932,3.932,0,0,0-3.953,4.082Zm4.179,2.989a3.146,3.146,0,0,1-3.119-3.023,2.872,2.872,0,0,1,2.893-2.987,3.145,3.145,0,0,1,3.119,3.021,2.874,2.874,0,0,1-2.893,2.989Zm-.226-5.908a2.769,2.769,0,0,0-2.79,2.882,3.043,3.043,0,0,0,3.016,2.924,2.773,2.773,0,0,0,2.79-2.883A3.041,3.041,0,0,0,2018.5,5722.419Z" transform="translate(-2014.446 -5721.153)"/></g><g transform="translate(23.578 22.636)"><path class="n" d="M2084.272,5729.466l12.481-1.732h0a.582.582,0,0,0-.186-1.148h0l-12.481,1.734h0a.581.581,0,1,0,.186,1.147Z" transform="translate(-2083.547 -5726.526)"/><path class="n" d="M2084.079,5729.426a.632.632,0,0,1-.623-.532.634.634,0,0,1,.523-.725l12.482-1.734a.626.626,0,0,1,.47.111.633.633,0,0,1-.269,1.139l-12.481,1.732A.6.6,0,0,1,2084.079,5729.426Zm12.484-2.9a.5.5,0,0,0-.085.007L2084,5728.271a.53.53,0,0,0-.225.953.524.524,0,0,0,.4.093h0l12.481-1.732a.531.531,0,0,0-.085-1.054Z" transform="translate(-2083.448 -5726.427)"/></g></g><path class="o" d="M2117.519,5971.165c-7.095-2.717-8.3-6.721-19.55-6.53s-20.438,8.741-20.438,19.524h0c0,10.782,9.151,19.523,20.438,19.523l19.55.09a16.3,16.3,0,0,0,16.3-16.3h0C2133.823,5978.464,2124.615,5973.882,2117.519,5971.165Z" transform="translate(-281.47 -200.414)"/><path class="o" d="M2120.457,6069.916l-.619,5.2a1.017,1.017,0,0,0,1.01,1.137h0a1.017,1.017,0,0,0,.82-.416l4.677-6.377" transform="translate(-309.315 -269.427)"/><path class="o" d="M2208.4,6069.916l.619,5.2a1.017,1.017,0,0,1-1.01,1.137h0a1.017,1.017,0,0,1-.82-.416l-4.677-6.377" transform="translate(-363.742 -269.427)"/><path class="o" d="M2222.009,6005.185l3.1-4.224a1.017,1.017,0,0,0-.319-1.487h0a1.017,1.017,0,0,0-.918-.042l-7.21,3.248" transform="translate(-373.059 -223.266)"/><path class="p" d="M2124.879,5966.689c-1.018-3.437-5.278-5.206-9.515-3.951s-6.845,5.06-5.827,8.5,9.5,2.77,13.736,1.515S2125.9,5970.126,2124.879,5966.689Z" transform="translate(-302.394 -198.905)"/><path class="o" d="M2134.293,5963.848c-1.019-3.437-11.366-9.354-15.6-8.1s-6.845,5.06-5.827,8.5,5.152,3.253,9.515,3.951C2134.112,5970.073,2135.311,5967.285,2134.293,5963.848Z" transform="translate(-304.583 -194.456)"/><path class="o" d="M2078.74,6001.047c0-4.586-10.121-8.454-14.039-8.454s-7.1,3.718-7.1,8.3a8.109,8.109,0,0,0,7.1,8.3C2074.664,6010.406,2078.74,6005.632,2078.74,6001.047Z" transform="translate(-268.353 -218.824)"/><g transform="translate(1790.177 5778.845)"><ellipse class="q" cx="0.83" cy="1.962" rx="0.83" ry="1.962" transform="translate(0.208 0.208)"/><path class="q" d="M2061.349,6011.787c-.675,0-1.038-1.118-1.038-2.17s.364-2.17,1.038-2.17,1.038,1.118,1.038,2.17S2062.023,6011.787,2061.349,6011.787Zm0-3.924c-.254,0-.622.684-.622,1.754s.369,1.754.622,1.754.622-.684.622-1.754S2061.6,6007.863,2061.349,6007.863Z" transform="translate(-2060.311 -6007.447)"/></g><g transform="translate(1793.498 5778.845)"><ellipse class="q" cx="0.83" cy="1.962" rx="0.83" ry="1.962" transform="translate(0.208 0.208)"/><path class="q" d="M2071.069,6011.787c-.675,0-1.039-1.118-1.039-2.17s.364-2.17,1.039-2.17,1.038,1.118,1.038,2.17S2071.743,6011.787,2071.069,6011.787Zm0-3.924c-.254,0-.623.684-.623,1.754s.369,1.754.623,1.754.622-.684.622-1.754S2071.322,6007.863,2071.069,6007.863Z" transform="translate(-2070.03 -6007.447)"/></g><g transform="translate(1803.084 5774.165)"><path class="r" d="M2102.314,5996.172a1.812,1.812,0,1,0-3.623,0c0,1-.027,0,1.774,0S2102.314,5997.172,2102.314,5996.172Z" transform="translate(-2098.483 -5994.152)"/><path class="r" d="M2098.347,5996.425a.238.238,0,0,1-.121-.034c-.144-.083-.144-.218-.144-.576v-.044a2.02,2.02,0,1,1,4.039,0c0,.349,0,.524-.153.615s-.271.013-.411-.061a2.884,2.884,0,0,0-1.493-.347,2.662,2.662,0,0,0-1.464.351A.538.538,0,0,1,2098.347,5996.425Zm1.717-.861a3.338,3.338,0,0,1,1.64.369c0-.056,0-.115,0-.161a1.6,1.6,0,0,0-3.208,0v.044c0,.032,0,.064,0,.095A3.129,3.129,0,0,1,2100.064,5995.563Z" transform="translate(-2098.082 -5993.752)"/></g><g transform="translate(1798.46 5791.332)"><path class="s" d="M2088.391,6044.787a10.706,10.706,0,0,1-3.233,1.553,19.474,19.474,0,0,0,1.2,1.8,7.806,7.806,0,0,0,3.236-2.143.848.848,0,0,0,.019-1.06A.857.857,0,0,0,2088.391,6044.787Z" transform="translate(-2084.95 -6044.391)"/><path class="s" d="M2085.958,6047.951a.208.208,0,0,1-.167-.084,19.686,19.686,0,0,1-1.213-1.821.208.208,0,0,1,.116-.3,10.742,10.742,0,0,0,3.166-1.518h0a1.07,1.07,0,0,1,.8-.226,1.067,1.067,0,0,1,.689,1.736,8.023,8.023,0,0,1-3.323,2.2A.222.222,0,0,1,2085.958,6047.951Zm-.888-1.894c.3.488.618.97.961,1.436a7.54,7.54,0,0,0,3-2.029.651.651,0,0,0-.425-1.052.652.652,0,0,0-.49.138h0A10.65,10.65,0,0,1,2085.07,6046.058Z" transform="translate(-2084.55 -6043.991)"/></g><g transform="translate(1828.236 5768.768)"><g transform="translate(10.18 4.678)"><path class="n" d="M2205.278,5992.917l-2.637-1.121a7.1,7.1,0,0,1-1.01.3l3.7,1.537Z" transform="translate(-2201.58 -5991.746)"/><path class="n" d="M2205.228,5993.585a.054.054,0,0,1-.02,0l-3.7-1.537a.051.051,0,0,1-.031-.052.051.051,0,0,1,.04-.045,6.993,6.993,0,0,0,1-.3.05.05,0,0,1,.038,0l2.637,1.121a.051.051,0,0,1,.031.043l.048.716a.051.051,0,0,1-.022.045A.052.052,0,0,1,2205.228,5993.585Zm-3.526-1.573,3.47,1.443-.041-.6-2.589-1.1A7.315,7.315,0,0,1,2201.7,5992.012Z" transform="translate(-2201.481 -5991.647)"/></g><g transform="translate(0)"><path class="n" d="M2172.023,5978.107l-.183.745,2.74,1.139a7.169,7.169,0,0,1-.559-1.034Z" transform="translate(-2171.789 -5978.056)"/><path class="n" d="M2174.481,5979.943a.057.057,0,0,1-.02,0l-2.74-1.139a.051.051,0,0,1-.03-.06l.183-.745a.052.052,0,0,1,.027-.034.05.05,0,0,1,.043,0l2,.85a.051.051,0,0,1,.027.027,7.1,7.1,0,0,0,.555,1.026.051.051,0,0,1,0,.06A.049.049,0,0,1,2174.481,5979.943Zm-2.679-1.221,2.549,1.06a7.148,7.148,0,0,1-.467-.885l-1.925-.818Z" transform="translate(-2171.69 -5977.957)"/></g></g><g transform="translate(1828.112 5768.501)"><path class="s" d="M2172.023,5977.688l13.644,5.8.048.715-13.875-5.77Z" transform="translate(-2171.665 -5977.513)"/><path class="s" d="M2185.377,5984.04a.171.171,0,0,1-.067-.014l-13.875-5.77a.174.174,0,0,1-.1-.2l.182-.744a.175.175,0,0,1,.092-.115.173.173,0,0,1,.146,0l13.645,5.8a.174.174,0,0,1,.107.149l.048.715a.176.176,0,0,1-.073.154A.173.173,0,0,1,2185.377,5984.04Zm-13.669-6.049,13.475,5.6-.021-.326-13.356-5.676Z" transform="translate(-2171.327 -5977.176)"/></g><rect class="j" width="21.106" height="17.037" rx="8.519" transform="translate(1833.852 5741.528)"/><g transform="translate(1829.828 5759.662)"><path class="t" d="M2190.731,5958.569a7.12,7.12,0,1,0-13.649,2.838l9.009,3.829A7.116,7.116,0,0,0,2190.731,5958.569Z" transform="translate(-2176.443 -5951.401)"/><path class="t" d="M2186,5965.191a.053.053,0,0,1-.019,0l-9.009-3.829a.05.05,0,0,1-.025-.025,7.168,7.168,0,1,1,13.741-2.858,7.2,7.2,0,0,1-4.671,6.712A.043.043,0,0,1,2186,5965.191Zm-8.972-3.914,8.973,3.813a7.069,7.069,0,1,0-9.553-6.615A7.025,7.025,0,0,0,2177.027,5961.277Z" transform="translate(-2176.35 -5951.307)"/></g><g transform="translate(1830.42 5769.621)"><path class="t" d="M2178.223,5980.593a7.125,7.125,0,0,0,.559,1.035l7.44,3.093a7.093,7.093,0,0,0,1.01-.3Z" transform="translate(-2178.175 -5980.545)"/><path class="t" d="M2186.128,5984.677a.053.053,0,0,1-.019,0l-7.44-3.094a.043.043,0,0,1-.022-.019,7.2,7.2,0,0,1-.562-1.041.048.048,0,0,1,.01-.053.05.05,0,0,1,.054-.011l9.009,3.829a.049.049,0,0,1,.03.045.048.048,0,0,1-.031.044,7.047,7.047,0,0,1-1.018.3Zm-7.408-3.182,7.413,3.083a6.832,6.832,0,0,0,.874-.252l-8.783-3.732A7.188,7.188,0,0,0,2178.72,5981.5Z" transform="translate(-2178.081 -5980.452)"/></g><path class="o" d="M1913.7,5971.165c-7.095-2.717-8.3-6.721-19.55-6.53s-20.438,8.741-20.438,19.524h0c0,10.782,9.151,19.523,20.438,19.523l19.55.09a16.3,16.3,0,0,0,16.3-16.3h0C1930,5978.464,1920.79,5973.882,1913.7,5971.165Z" transform="translate(-147.293 -200.414)"/><path class="o" d="M1916.633,6069.916l-.62,5.2a1.017,1.017,0,0,0,1.01,1.137h0a1.016,1.016,0,0,0,.82-.416l4.677-6.377" transform="translate(-175.138 -269.427)"/><path class="o" d="M2004.572,6069.916l.62,5.2a1.017,1.017,0,0,1-1.01,1.137h0a1.017,1.017,0,0,1-.82-.416l-4.677-6.377" transform="translate(-229.566 -269.427)"/><path class="o" d="M2018.185,6005.185l3.1-4.224a1.017,1.017,0,0,0-.319-1.487h0a1.017,1.017,0,0,0-.919-.042l-7.211,3.248" transform="translate(-238.882 -223.266)"/><path class="p" d="M1921.055,5966.689c-1.018-3.437-5.278-5.206-9.515-3.951s-6.845,5.06-5.827,8.5,9.5,2.77,13.735,1.515S1922.073,5970.126,1921.055,5966.689Z" transform="translate(-168.217 -198.905)"/><path class="o" d="M1930.469,5963.848c-1.018-3.437-11.366-9.354-15.6-8.1s-6.845,5.06-5.827,8.5,5.152,3.253,9.515,3.951C1930.288,5970.073,1931.487,5967.285,1930.469,5963.848Z" transform="translate(-170.407 -194.456)"/><path class="o" d="M1874.916,6001.047c0-4.586-10.121-8.454-14.039-8.454s-7.095,3.718-7.095,8.3a8.109,8.109,0,0,0,7.095,8.3C1870.84,6010.406,1874.916,6005.632,1874.916,6001.047Z" transform="translate(-134.176 -218.824)"/><g transform="translate(1720.53 5778.845)"><ellipse class="q" cx="0.83" cy="1.962" rx="0.83" ry="1.962" transform="translate(0.208 0.208)"/><path class="q" d="M1857.525,6011.787c-.675,0-1.038-1.118-1.038-2.17s.364-2.17,1.038-2.17,1.038,1.118,1.038,2.17S1858.2,6011.787,1857.525,6011.787Zm0-3.924c-.254,0-.623.684-.623,1.754s.369,1.754.623,1.754.622-.684.622-1.754S1857.779,6007.863,1857.525,6007.863Z" transform="translate(-1856.487 -6007.447)"/></g><g transform="translate(1723.851 5778.845)"><ellipse class="q" cx="0.83" cy="1.962" rx="0.83" ry="1.962" transform="translate(0.208 0.208)"/><path class="q" d="M1867.244,6011.787c-.674,0-1.038-1.118-1.038-2.17s.364-2.17,1.038-2.17,1.038,1.118,1.038,2.17S1867.919,6011.787,1867.244,6011.787Zm0-3.924c-.254,0-.622.684-.622,1.754s.369,1.754.622,1.754.623-.684.623-1.754S1867.5,6007.863,1867.244,6007.863Z" transform="translate(-1866.206 -6007.447)"/></g><g transform="translate(1733.436 5774.165)"><path class="r" d="M1898.49,5996.172a1.812,1.812,0,1,0-3.623,0c0,1-.027,0,1.774,0S1898.49,5997.172,1898.49,5996.172Z" transform="translate(-1894.659 -5994.152)"/><path class="r" d="M1894.523,5996.425a.238.238,0,0,1-.121-.034c-.144-.083-.144-.218-.144-.576v-.044a2.019,2.019,0,1,1,4.039,0c0,.349,0,.524-.152.615s-.27.013-.411-.061a2.884,2.884,0,0,0-1.494-.347,2.662,2.662,0,0,0-1.464.351A.54.54,0,0,1,1894.523,5996.425Zm1.717-.861a3.339,3.339,0,0,1,1.641.369c0-.056,0-.115,0-.161a1.6,1.6,0,0,0-3.207,0v.044c0,.032,0,.064,0,.095A3.128,3.128,0,0,1,1896.24,5995.563Z" transform="translate(-1894.258 -5993.752)"/></g><g transform="translate(1728.812 5791.332)"><path class="s" d="M1884.566,6044.787a10.7,10.7,0,0,1-3.232,1.553,19.474,19.474,0,0,0,1.2,1.8,7.8,7.8,0,0,0,3.236-2.143.848.848,0,0,0,.019-1.06A.857.857,0,0,0,1884.566,6044.787Z" transform="translate(-1881.126 -6044.391)"/><path class="s" d="M1882.133,6047.951a.208.208,0,0,1-.167-.084,19.686,19.686,0,0,1-1.213-1.821.207.207,0,0,1,.116-.3,10.735,10.735,0,0,0,3.165-1.518h0a1.07,1.07,0,0,1,.8-.226,1.067,1.067,0,0,1,.689,1.736,8.02,8.02,0,0,1-3.323,2.2A.221.221,0,0,1,1882.133,6047.951Zm-.888-1.894c.3.488.618.97.961,1.436a7.542,7.542,0,0,0,3-2.029.651.651,0,0,0-.425-1.052.651.651,0,0,0-.49.138h0A10.654,10.654,0,0,1,1881.246,6046.058Z" transform="translate(-1880.725 -6043.991)"/></g><g transform="translate(1758.588 5768.768)"><g transform="translate(10.18 4.678)"><path class="n" d="M2001.454,5992.917l-2.637-1.121a7.09,7.09,0,0,1-1.01.3l3.7,1.537Z" transform="translate(-1997.756 -5991.746)"/><path class="n" d="M2001.4,5993.585a.054.054,0,0,1-.02,0l-3.7-1.537a.051.051,0,0,1,.009-.1,6.99,6.99,0,0,0,1-.3.049.049,0,0,1,.038,0l2.637,1.121a.051.051,0,0,1,.031.043l.048.716a.051.051,0,0,1-.021.045A.053.053,0,0,1,2001.4,5993.585Zm-3.526-1.573,3.469,1.443-.04-.6-2.589-1.1A7.362,7.362,0,0,1,1997.877,5992.012Z" transform="translate(-1997.657 -5991.647)"/></g><path class="n" d="M1968.2,5978.107l-.183.745,2.74,1.139a7.062,7.062,0,0,1-.559-1.034Z" transform="translate(-1967.965 -5978.056)"/><path class="n" d="M1970.657,5979.943a.053.053,0,0,1-.019,0l-2.74-1.139a.052.052,0,0,1-.03-.06l.183-.745a.054.054,0,0,1,.027-.034.049.049,0,0,1,.043,0l2,.85a.05.05,0,0,1,.027.027,7.152,7.152,0,0,0,.554,1.026.051.051,0,0,1-.043.079Zm-2.679-1.221,2.549,1.06a7.043,7.043,0,0,1-.467-.885l-1.924-.818Z" transform="translate(-1967.866 -5977.957)"/></g><g transform="translate(1758.464 5768.644)"><path class="s" d="M1968.2,5978.107l13.644,5.8.048.715-13.875-5.77Z" transform="translate(-1967.84 -5977.932)"/><path class="s" d="M1981.553,5984.458a.173.173,0,0,1-.067-.014l-13.875-5.769a.174.174,0,0,1-.1-.2l.182-.745a.175.175,0,0,1,.092-.115.173.173,0,0,1,.146,0l13.645,5.8a.175.175,0,0,1,.106.15l.048.715a.174.174,0,0,1-.073.154A.171.171,0,0,1,1981.553,5984.458Zm-13.669-6.049,13.475,5.6-.022-.326-13.355-5.676Z" transform="translate(-1967.503 -5977.594)"/></g><path class="o" d="M1709.871,5971.165c-7.1-2.717-8.3-6.721-19.55-6.53s-20.438,8.741-20.438,19.524h0c0,10.782,9.15,19.523,20.438,19.523l19.55.09a16.3,16.3,0,0,0,16.3-16.3h0C1726.175,5978.464,1716.966,5973.882,1709.871,5971.165Z" transform="translate(-13.117 -200.414)"/><path class="o" d="M1712.808,6069.916l-.619,5.2a1.017,1.017,0,0,0,1.01,1.137h0a1.017,1.017,0,0,0,.82-.416l4.677-6.377" transform="translate(-40.962 -269.427)"/><path class="o" d="M1800.748,6069.916l.619,5.2a1.017,1.017,0,0,1-1.01,1.137h0a1.017,1.017,0,0,1-.82-.416l-4.677-6.377" transform="translate(-95.389 -269.427)"/><path class="o" d="M1814.361,6005.185l3.1-4.224a1.017,1.017,0,0,0-.319-1.487h0a1.017,1.017,0,0,0-.918-.042l-7.211,3.248" transform="translate(-104.706 -223.266)"/><path class="p" d="M1717.231,5966.689c-1.018-3.437-5.279-5.206-9.515-3.951s-6.845,5.06-5.827,8.5,9.5,2.77,13.735,1.515S1718.249,5970.126,1717.231,5966.689Z" transform="translate(-34.041 -198.905)"/><path class="o" d="M1726.644,5963.848c-1.018-3.437-11.366-9.354-15.6-8.1s-6.846,5.06-5.827,8.5,5.152,3.253,9.515,3.951C1726.464,5970.073,1727.663,5967.285,1726.644,5963.848Z" transform="translate(-36.23 -194.456)"/><path class="o" d="M1671.092,6001.047c0-4.586-10.121-8.454-14.039-8.454s-7.095,3.718-7.095,8.3a8.109,8.109,0,0,0,7.095,8.3C1667.016,6010.406,1671.092,6005.632,1671.092,6001.047Z" transform="translate(0 -218.824)"/><g transform="translate(1650.882 5778.845)"><ellipse class="q" cx="0.83" cy="1.962" rx="0.83" ry="1.962" transform="translate(0.208 0.208)"/><path class="q" d="M1653.7,6011.787c-.674,0-1.038-1.118-1.038-2.17s.364-2.17,1.038-2.17,1.038,1.118,1.038,2.17S1654.375,6011.787,1653.7,6011.787Zm0-3.924c-.254,0-.622.684-.622,1.754s.369,1.754.622,1.754.623-.684.623-1.754S1653.954,6007.863,1653.7,6007.863Z" transform="translate(-1652.662 -6007.447)"/></g><g transform="translate(1654.203 5778.845)"><ellipse class="q" cx="0.83" cy="1.962" rx="0.83" ry="1.962" transform="translate(0.208 0.208)"/><path class="q" d="M1663.42,6011.787c-.674,0-1.038-1.118-1.038-2.17s.364-2.17,1.038-2.17,1.038,1.118,1.038,2.17S1664.094,6011.787,1663.42,6011.787Zm0-3.924c-.254,0-.622.684-.622,1.754s.369,1.754.622,1.754.622-.684.622-1.754S1663.674,6007.863,1663.42,6007.863Z" transform="translate(-1662.382 -6007.447)"/></g><g transform="translate(1663.789 5774.165)"><path class="r" d="M1694.666,5996.172a1.812,1.812,0,1,0-3.623,0c0,1-.027,0,1.774,0S1694.666,5997.172,1694.666,5996.172Z" transform="translate(-1690.835 -5994.152)"/><path class="r" d="M1690.7,5996.425a.237.237,0,0,1-.121-.034c-.144-.083-.144-.218-.144-.576v-.044a2.019,2.019,0,1,1,4.039,0c0,.349,0,.524-.152.615s-.27.013-.411-.061a2.885,2.885,0,0,0-1.494-.347,2.664,2.664,0,0,0-1.464.351A.536.536,0,0,1,1690.7,5996.425Zm1.717-.861a3.336,3.336,0,0,1,1.64.369c0-.056,0-.115,0-.161a1.6,1.6,0,1,0-3.207,0v.044c0,.032,0,.064,0,.095A3.127,3.127,0,0,1,1692.416,5995.563Z" transform="translate(-1690.434 -5993.752)"/></g><g transform="translate(1659.165 5791.332)"><path class="s" d="M1680.742,6044.787a10.706,10.706,0,0,1-3.232,1.553,19.474,19.474,0,0,0,1.2,1.8,7.809,7.809,0,0,0,3.236-2.143.848.848,0,0,0,.019-1.06A.857.857,0,0,0,1680.742,6044.787Z" transform="translate(-1677.302 -6044.391)"/><path class="s" d="M1678.309,6047.951a.209.209,0,0,1-.167-.084,19.659,19.659,0,0,1-1.212-1.821.207.207,0,0,1,.116-.3,10.733,10.733,0,0,0,3.166-1.518h0a1.071,1.071,0,0,1,.8-.226,1.067,1.067,0,0,1,.688,1.736,8.02,8.02,0,0,1-3.322,2.2A.224.224,0,0,1,1678.309,6047.951Zm-.888-1.894c.3.488.619.97.962,1.436a7.535,7.535,0,0,0,3-2.029.651.651,0,0,0-.425-1.052.65.65,0,0,0-.49.138h0A10.65,10.65,0,0,1,1677.422,6046.058Z" transform="translate(-1676.901 -6043.991)"/></g><g transform="translate(1688.941 5768.768)"><g transform="translate(10.18 4.678)"><path class="n" d="M1797.63,5992.917l-2.637-1.121a7.106,7.106,0,0,1-1.01.3l3.695,1.537Z" transform="translate(-1793.931 -5991.746)"/><path class="n" d="M1797.579,5993.585a.055.055,0,0,1-.02,0l-3.7-1.537a.051.051,0,0,1-.031-.052.052.052,0,0,1,.04-.045,6.98,6.98,0,0,0,1-.3.048.048,0,0,1,.038,0l2.637,1.121a.05.05,0,0,1,.031.043l.048.716a.052.052,0,0,1-.021.045A.053.053,0,0,1,1797.579,5993.585Zm-3.526-1.573,3.469,1.443-.04-.6-2.589-1.1A7.383,7.383,0,0,1,1794.053,5992.012Z" transform="translate(-1793.832 -5991.647)"/></g><path class="n" d="M1764.375,5978.107l-.182.745,2.739,1.139a7.107,7.107,0,0,1-.558-1.034Z" transform="translate(-1764.141 -5978.056)"/><path class="n" d="M1766.833,5979.943a.053.053,0,0,1-.019,0l-2.74-1.139a.052.052,0,0,1-.03-.06l.183-.745a.054.054,0,0,1,.027-.034.049.049,0,0,1,.043,0l2,.85a.051.051,0,0,1,.027.027,7.07,7.07,0,0,0,.554,1.026.051.051,0,0,1,0,.06A.049.049,0,0,1,1766.833,5979.943Zm-2.679-1.221,2.549,1.06a7.1,7.1,0,0,1-.467-.885l-1.924-.818Z" transform="translate(-1764.042 -5977.957)"/></g><g transform="translate(1688.817 5768.644)"><path class="s" d="M1764.374,5978.107l13.644,5.8.048.715-13.875-5.77Z" transform="translate(-1764.016 -5977.932)"/><path class="s" d="M1777.729,5984.458a.171.171,0,0,1-.067-.014l-13.875-5.769a.174.174,0,0,1-.1-.2l.183-.745a.175.175,0,0,1,.239-.12l13.644,5.8a.176.176,0,0,1,.106.15l.048.715a.175.175,0,0,1-.073.154A.17.17,0,0,1,1777.729,5984.458Zm-13.669-6.049,13.476,5.6-.022-.326-13.355-5.676Z" transform="translate(-1763.679 -5977.594)"/></g><g transform="translate(1834.532 5759.662)"><path class="u" d="M2192.675,5951.449a7.088,7.088,0,0,0-2.416.429v1.541a3.369,3.369,0,0,0,3.369,3.37h0a3.369,3.369,0,0,0,3.37-3.37v-.5A7.077,7.077,0,0,0,2192.675,5951.449Z" transform="translate(-2190.21 -5951.401)"/><path class="u" d="M2193.535,5956.744a3.421,3.421,0,0,1-3.418-3.417v-1.542a.049.049,0,0,1,.032-.046,7.111,7.111,0,0,1,6.784,1.05.047.047,0,0,1,.019.039v.5A3.421,3.421,0,0,1,2193.535,5956.744Zm-3.321-4.925v1.508a3.321,3.321,0,1,0,6.642,0v-.475a7.012,7.012,0,0,0-6.642-1.033Z" transform="translate(-2190.117 -5951.307)"/></g><rect class="j" width="6.739" height="14.24" rx="3.369" transform="translate(1833.818 5750.81)"/><rect class="v" width="18.07" height="17.037" rx="8.519" transform="translate(1699.978 5759.632) rotate(-180)"/><g transform="translate(1690.682 5760.725)"><path class="n" d="M1783.529,5961.688a7.12,7.12,0,1,0-13.649,2.838l9.009,3.829A7.116,7.116,0,0,0,1783.529,5961.688Z" transform="translate(-1769.237 -5954.517)"/><path class="n" d="M1778.79,5968.308a.047.047,0,0,1-.02,0l-9.009-3.829a.053.053,0,0,1-.027-.027,7.171,7.171,0,1,1,13.747-2.859,7.2,7.2,0,0,1-4.673,6.715A.059.059,0,0,1,1778.79,5968.308Zm-8.97-3.919,8.971,3.813a7.066,7.066,0,1,0-9.551-6.612A7.016,7.016,0,0,0,1769.82,5964.389Z" transform="translate(-1769.138 -5954.418)"/></g><g transform="translate(1693.444 5760.725)"><path class="w" d="M1781.694,5954.568a7.086,7.086,0,0,1,2.416.43v1.542a3.369,3.369,0,0,1-3.369,3.369h0a3.369,3.369,0,0,1-3.369-3.369v-.5A7.079,7.079,0,0,1,1781.694,5954.568Z" transform="translate(-1777.319 -5954.517)"/><path class="w" d="M1780.641,5959.86a3.424,3.424,0,0,1-3.421-3.42v-.5a.051.051,0,0,1,.021-.041,7.108,7.108,0,0,1,6.787-1.05.051.051,0,0,1,.034.048v1.541A3.424,3.424,0,0,1,1780.641,5959.86Zm-3.318-3.894v.473a3.318,3.318,0,0,0,6.636,0v-1.505a7.006,7.006,0,0,0-6.636,1.032Z" transform="translate(-1777.22 -5954.418)"/></g><rect class="v" width="5.769" height="14.24" rx="2.885" transform="translate(1700.007 5766.116) rotate(-180)"/></g></svg>