<svg xmlns="http://www.w3.org/2000/svg" width="304.027" height="81.696" viewBox="0 0 304.027 81.696"><defs><style>.a{fill:#fff;}.b{fill:#3b3938;}.c,.e,.f,.g{fill:none;}.d{fill:#1a1311;}.e,.f,.g{stroke:#fff;}.e{stroke-width:7px;}.f,.g{stroke-linecap:round;stroke-linejoin:round;}.f{stroke-width:3px;}.g{stroke-width:5px;}</style></defs><g transform="translate(-191.699 -435.255)"><g transform="translate(192.284 435.255)"><g transform="translate(194.844 7.178)"><g transform="translate(1.179 1.185)"><path class="a" d="M537.013,462.662H516.206l-1.636,6.977h18.06c3.04,0,4,2.382,3.455,4.708a6,6,0,0,1-5.63,4.821H512.337l-2.035,8.678h20.982c6.137,0,3.9,9.529-2.235,9.529H504.268q-6.311,0-4.876-6.126l7.5-31.989q1.437-6.125,7.749-6.125h24.547c3.1,0,4.116,2.382,3.558,4.764A6.055,6.055,0,0,1,537.013,462.662Z" transform="translate(-495.88 -449.886)"/><path class="a" d="M527.3,498.867H502.516c-3.139,0-5.469-.931-6.923-2.766s-1.827-4.3-1.114-7.348l7.5-31.989c1.305-5.566,5.18-8.631,10.91-8.631h24.547a6.839,6.839,0,0,1,5.517,2.47,7.335,7.335,0,0,1,1.2,6.283,9.352,9.352,0,0,1-8.9,7.27H517.028l-.114.482h13.963a6.72,6.72,0,0,1,5.422,2.435,7.311,7.311,0,0,1,1.195,6.26c-.828,3.529-3.932,7.327-8.792,7.327H513.158l-.512,2.184h16.885a6.74,6.74,0,0,1,5.15,2.089,6.837,6.837,0,0,1,1.732,4.675A9.323,9.323,0,0,1,527.3,498.867Zm-26.6-6.788a3.658,3.658,0,0,0,1.824.294H527.3a2.556,2.556,0,0,0,2.152-1.294,2.628,2.628,0,0,0,.452-1.706,1.648,1.648,0,0,0-.37-.034H504.452l3.558-15.172H528.7a2.827,2.827,0,0,0,2.469-2.315,1.731,1.731,0,0,0,.041-.69,1.687,1.687,0,0,0-.334-.029H508.722l3.157-13.471h23.381a2.866,2.866,0,0,0,2.573-2.258.437.437,0,0,0-.4-.777H512.89c-2.69,0-3.976,1.015-4.587,3.62l-7.5,31.989a3.275,3.275,0,0,0-.111,1.844Z" transform="translate(-494.128 -448.133)"/></g><path class="a" d="M528.41,497.919H503.63c-2.477,0-4.263-.668-5.308-1.985s-1.285-3.2-.722-5.6l7.5-31.99c1.081-4.606,4.159-7.04,8.9-7.04h24.547a4.708,4.708,0,0,1,3.9,1.689,5.3,5.3,0,0,1,.812,4.532,7.271,7.271,0,0,1-6.888,5.679H516.507l-1.079,4.606h16.564a4.6,4.6,0,0,1,3.806,1.654,5.267,5.267,0,0,1,.8,4.51,7.17,7.17,0,0,1-6.785,5.736H512.637l-1.479,6.307h19.486a4.483,4.483,0,0,1,4.821,4.7A7.232,7.232,0,0,1,528.41,497.919ZM514,453.679c-3.666,0-5.761,1.655-6.595,5.21l-7.5,31.99c-.39,1.659-.3,2.864.271,3.582s1.733,1.087,3.45,1.087H528.41a4.906,4.906,0,0,0,4.684-4.826,2.138,2.138,0,0,0-2.45-2.331H509.663a1.185,1.185,0,0,1-1.154-1.456l2.035-8.678a1.186,1.186,0,0,1,1.154-.915h18.118a4.809,4.809,0,0,0,4.476-3.906,2.985,2.985,0,0,0-.353-2.5,2.349,2.349,0,0,0-1.948-.756h-18.06a1.185,1.185,0,0,1-1.154-1.455l1.636-6.977a1.185,1.185,0,0,1,1.154-.914h20.807a4.88,4.88,0,0,0,4.58-3.85,2.967,2.967,0,0,0-.361-2.517,2.462,2.462,0,0,0-2.043-.791Z" transform="translate(-494.063 -448.061)"/><path class="a" d="M526.66,499.414H501.879c-4.384,0-6.69-1.749-7.853-3.216s-2.335-4.1-1.338-8.354l7.5-31.99c1.424-6.067,5.821-9.546,12.064-9.546H536.8a8,8,0,0,1,6.445,2.919,8.512,8.512,0,0,1,1.429,7.288,10.631,10.631,0,0,1-9.089,8.141,7.339,7.339,0,0,1,1.006,1.041,8.48,8.48,0,0,1,1.42,7.268,10.591,10.591,0,0,1-8.224,8.1,7.662,7.662,0,0,1,7.173,7.907A10.525,10.525,0,0,1,526.66,499.414Zm-25.483-8.339Zm.021-.558a6.471,6.471,0,0,0,.681.032H526.66a1.306,1.306,0,0,0,1.094-.663H507.912a4.434,4.434,0,0,1-4.316-5.443l2.036-8.68a4.417,4.417,0,0,1,4.315-3.421h18.118a1.23,1.23,0,0,0,.995-.664H512.182a4.433,4.433,0,0,1-4.317-5.442l1.637-6.979a4.414,4.414,0,0,1,4.315-3.42h20.807a1.4,1.4,0,0,0,1.1-.664H512.253c-2.171,0-2.941.607-3.433,2.706l-7.5,31.989A6.367,6.367,0,0,0,501.2,490.517Zm-.548-.11Z" transform="translate(-492.313 -446.308)"/></g><g transform="translate(98.006 8.18)"><g transform="translate(0 0.038)"><path class="a" d="M360.939,497.911c-8.4,0-12.167-4.034-12.734-10.832a5.549,5.549,0,0,1,.138-1.6,7.037,7.037,0,0,1,6.325-4.808,3.051,3.051,0,0,1,3.25,3.039c.183,2.929,2.517,4.808,5.5,4.808a7.6,7.6,0,0,0,7.854-6.023l6.7-25.973c1.24-4.808,10.8-4.808,9.56,0L380.76,482.77C378.308,492.275,371.272,497.911,360.939,497.911Z" transform="translate(-344.95 -449.664)"/><path class="a" d="M359.186,499.4c-9.555,0-15.227-4.9-15.97-13.808,0-.045-.007-.091-.008-.136a8.79,8.79,0,0,1,.238-2.548c1.155-4.474,5.814-7.243,9.469-7.243a6.25,6.25,0,0,1,6.48,5.961c0,.04.008.081.01.123a2,2,0,0,0,2.261,1.763,4.364,4.364,0,0,0,4.71-3.588l6.7-25.972c1.233-4.778,6.906-6.866,11.225-5.752,3.6.929,5.5,3.962,4.625,7.374l-6.773,26.249C379.269,493,370.9,499.4,359.186,499.4Zm-9.492-14.275c.484,5.525,3.239,7.781,9.492,7.781,8.641,0,14.563-4.513,16.678-12.705l6.644-25.754a4.082,4.082,0,0,0-2.051.226c-.225.086-.966.406-1.094.9l-6.7,25.972a10.8,10.8,0,0,1-11,8.46,8.4,8.4,0,0,1-8.737-7.77c0-.028-.007-.054-.01-.077h0a3.863,3.863,0,0,0-3.181,2.372A2.284,2.284,0,0,0,349.693,485.128Z" transform="translate(-343.198 -447.909)"/></g><g transform="translate(37.454 10.933)"><path class="a" d="M405.978,499.643l6.929-26.857c1.07-4.145,10.353-4.145,9.284,0l-6.929,26.857C414.05,504.341,404.766,504.341,405.978,499.643Z" transform="translate(-402.623 -466.436)"/><path class="a" d="M407.965,504.666a9.3,9.3,0,0,1-2.323-.287,6.526,6.526,0,0,1-3.678-2.345,5.72,5.72,0,0,1-.883-4.952h0l6.929-26.857a7.471,7.471,0,0,1,5.591-5.138c2.712-.755,6.419-.559,8.591,1.573a5.25,5.25,0,0,1,1.39,5.188L416.653,498.7C415.652,502.583,411.7,504.666,407.965,504.666Zm-.451-6.523a3.888,3.888,0,0,0,1.865-.242c.2-.08.871-.377.986-.819l6.682-25.9c-.986-.094-2.463.227-2.766.709Z" transform="translate(-400.87 -464.686)"/></g><g transform="translate(62.039)"><path class="a" d="M483.08,458.819,461.145,492.86a9.173,9.173,0,0,1-7.5,4.421,5.019,5.019,0,0,1-5.325-4.421l-4.535-34.041a4.183,4.183,0,0,1,.069-1.769c.67-2.6,3.736-4.2,6.279-4.2,1.824,0,3.323.829,3.57,2.652l3.6,27.189,17.68-27.189a5.937,5.937,0,0,1,4.995-2.652c2.487,0,4.63,1.547,3.96,4.145A5.9,5.9,0,0,1,483.08,458.819Z" transform="translate(-440.48 -449.604)"/><path class="a" d="M451.9,498.775a8.25,8.25,0,0,1-8.542-7.224l-4.533-34.021a7.455,7.455,0,0,1,.138-3.041c1.114-4.313,5.686-6.638,9.424-6.638,3.673,0,6.338,2.144,6.788,5.463l2.445,18.49,12.89-19.824a9.156,9.156,0,0,1,7.717-4.129,7.524,7.524,0,0,1,6.062,2.72,6.22,6.22,0,0,1,1.042,5.483,9.175,9.175,0,0,1-1.289,2.8l-21.918,34.014A12.492,12.492,0,0,1,451.9,498.775Zm-3.513-44.43c-1.327,0-2.909.89-3.134,1.764a.953.953,0,0,0-.007.447l.012.081,4.535,34.041c.053.385.221,1.6,2.107,1.6a5.919,5.919,0,0,0,4.769-2.937L478.6,455.307c.013-.019.025-.038.038-.056a3.006,3.006,0,0,0,.389-.763,2.04,2.04,0,0,0-.8-.142,2.727,2.727,0,0,0-2.275,1.179l-17.677,27.185a3.247,3.247,0,0,1-5.942-1.344l-3.569-26.988A2.091,2.091,0,0,0,448.384,454.345Z" transform="translate(-438.727 -447.851)"/></g></g><g transform="translate(142.617)"><path class="a" d="M428.722,446.073h6.059l-.035.07-6.736,3.548-1.106,5.853-.06.016-3.107-3.6-6.83,3.6-.044-.016,4.95-5.853-3.063-3.548.036-.07h6.059l4.914-5.817h.069Z" transform="translate(-413.634 -437.008)"/><path class="a" d="M415.164,457.053a3.241,3.241,0,0,1-1.183-.223,3.29,3.29,0,0,1-1.987-2.235,3.254,3.254,0,0,1,.647-2.9l3.157-3.734-1.25-1.448a3.248,3.248,0,0,1-.425-3.616l.036-.07a3.247,3.247,0,0,1,2.883-1.753h4.551l3.941-4.665a3.245,3.245,0,0,1,2.48-1.152h.069a3.248,3.248,0,0,1,3.191,3.854l-.373,1.963h2.137a3.247,3.247,0,0,1,2.894,4.721l-.035.07a3.251,3.251,0,0,1-1.381,1.4l-5.349,2.817-.814,4.313a3.25,3.25,0,0,1-2.312,2.523,3.343,3.343,0,0,1-3.4-.988l-1.419-1.644-4.545,2.4A3.252,3.252,0,0,1,415.164,457.053Z" transform="translate(-411.891 -435.255)"/></g><g transform="translate(0.822 17.363)"><path class="a" d="M210,501.649c-4.446,0-7.792-1.388-9.674-4.015-2.189-3.054-2.367-7.766-.5-13.27,3.469-10.229,12.716-17.373,22.487-17.373,8.134,0,10.087,4.362,10.528,6.962a1.856,1.856,0,0,1-.093.873A5.68,5.68,0,0,1,228.081,478a1.384,1.384,0,0,1-1.55-1.133c-.705-2.665-3.15-4.186-6.712-4.186-5.824,0-11.841,4.794-14,11.151-1.278,3.768-1.12,7.046.445,9.229,1.294,1.8,3.459,2.759,6.263,2.759a13.84,13.84,0,0,0,10.083-4.7,3.759,3.759,0,0,1,2.859-1.455,2.422,2.422,0,0,1,1.968.895,1.826,1.826,0,0,1,.176,1.71,4.67,4.67,0,0,1-.736,1.262A21.128,21.128,0,0,1,210,501.649Z" transform="translate(-195.3 -463.744)"/><path class="a" d="M208.248,503.143c-7,0-10.557-2.92-12.313-5.37-2.816-3.928-3.149-9.683-.938-16.2,3.909-11.527,14.42-19.578,25.562-19.578,2.837,0,12.211.7,13.729,9.667a5.1,5.1,0,0,1-.218,2.455,8.906,8.906,0,0,1-7.738,5.384,4.625,4.625,0,0,1-4.7-3.6c-.374-1.411-2.143-1.718-3.559-1.718-4.423,0-9.221,3.93-10.922,8.947-.919,2.709-.916,5,.01,6.294.668.932,1.887,1.4,3.624,1.4a10.685,10.685,0,0,0,7.566-3.5,7.061,7.061,0,0,1,5.377-2.652,5.629,5.629,0,0,1,4.608,2.251,5.073,5.073,0,0,1,.611,4.645,7.735,7.735,0,0,1-1.219,2.176l-.046.059A24.309,24.309,0,0,1,208.248,503.143Zm-8.163-14.627a8.251,8.251,0,0,0,1.128,5.473,7.113,7.113,0,0,0,5.027,2.535,9.454,9.454,0,0,1-4.36-3.321A10.269,10.269,0,0,1,200.085,488.516Zm27.826-14.268.01.039C227.918,474.273,227.914,474.26,227.91,474.247Zm-4.778-5.562a8.391,8.391,0,0,1,4.147,3.9,3.263,3.263,0,0,0,.486-.39C227.239,470.3,225.686,469.128,223.132,468.685Z" transform="translate(-193.551 -461.991)"/></g><g transform="translate(98.006 8.18)"><g transform="translate(0 0.038)"><path class="a" d="M360.939,497.911c-8.4,0-12.167-4.034-12.734-10.832a5.549,5.549,0,0,1,.138-1.6,7.037,7.037,0,0,1,6.325-4.808,3.051,3.051,0,0,1,3.25,3.039c.183,2.929,2.517,4.808,5.5,4.808a7.6,7.6,0,0,0,7.854-6.023l6.7-25.973c1.24-4.808,10.8-4.808,9.56,0L380.76,482.77C378.308,492.275,371.272,497.911,360.939,497.911Z" transform="translate(-344.95 -449.664)"/><path class="a" d="M359.186,499.4c-9.555,0-15.227-4.9-15.97-13.808,0-.045-.007-.091-.008-.136a8.79,8.79,0,0,1,.238-2.548c1.155-4.474,5.814-7.243,9.469-7.243a6.25,6.25,0,0,1,6.48,5.961c0,.04.008.081.01.123a2,2,0,0,0,2.261,1.763,4.364,4.364,0,0,0,4.71-3.588l6.7-25.972c1.233-4.778,6.906-6.866,11.225-5.752,3.6.929,5.5,3.962,4.625,7.374l-6.773,26.249C379.269,493,370.9,499.4,359.186,499.4Zm-9.492-14.275c.484,5.525,3.239,7.781,9.492,7.781,8.641,0,14.563-4.513,16.678-12.705l6.644-25.754a4.082,4.082,0,0,0-2.051.226c-.225.086-.966.406-1.094.9l-6.7,25.972a10.8,10.8,0,0,1-11,8.46,8.4,8.4,0,0,1-8.737-7.77c0-.028-.007-.054-.01-.077h0a3.863,3.863,0,0,0-3.181,2.372A2.284,2.284,0,0,0,349.693,485.128Z" transform="translate(-343.198 -447.909)"/></g><g transform="translate(0.866 0.881)"><path class="a" d="M361.623,497.524c-7.556,0-11.51-3.356-12.086-10.263a4.716,4.716,0,0,1,.112-1.331,5.849,5.849,0,0,1,5.268-3.968,2.451,2.451,0,0,1,2.6,2.483c.2,3.147,2.726,5.364,6.149,5.364a8.752,8.752,0,0,0,8.911-6.864l6.7-25.973c.49-1.9,2.756-2.766,4.654-2.766s3.717.866,3.227,2.766l-6.772,26.25C378.009,492.446,371.345,497.524,361.623,497.524Z" transform="translate(-346.284 -450.96)"/><path class="a" d="M359.87,499.019c-11.75,0-14.818-7.2-15.322-13.24l-.008-.14a7.865,7.865,0,0,1,.213-2.275,9.112,9.112,0,0,1,8.412-6.4,5.645,5.645,0,0,1,5.833,5.4l.01.123c.107,1.711,1.572,2.32,2.907,2.32a5.533,5.533,0,0,0,5.767-4.428l6.7-25.972c.927-3.593,4.584-5.2,7.8-5.2a6.825,6.825,0,0,1,5.512,2.344,5.083,5.083,0,0,1,.859,4.48l-6.773,26.249C379.035,492.918,371.05,499.019,359.87,499.019Zm-8.844-13.7c.451,5.119,3.018,7.208,8.844,7.208,8.216,0,13.618-4.1,15.62-11.866l6.437-24.948a2.537,2.537,0,0,0-1.279.405L373.97,482a11.984,11.984,0,0,1-12.054,9.3,9.032,9.032,0,0,1-9.32-7.716,2.571,2.571,0,0,0-1.554,1.4h0A1.809,1.809,0,0,0,351.027,485.317Z" transform="translate(-344.532 -449.207)"/></g><g transform="translate(37.454 10.933)"><path class="a" d="M405.978,499.643l6.929-26.857c1.07-4.145,10.353-4.145,9.284,0l-6.929,26.857C414.05,504.341,404.766,504.341,405.978,499.643Z" transform="translate(-402.623 -466.436)"/><path class="a" d="M407.965,504.666a9.3,9.3,0,0,1-2.323-.287,6.526,6.526,0,0,1-3.678-2.345,5.72,5.72,0,0,1-.883-4.952h0l6.929-26.857a7.471,7.471,0,0,1,5.591-5.138c2.712-.755,6.419-.559,8.591,1.573a5.25,5.25,0,0,1,1.39,5.188L416.653,498.7C415.652,502.583,411.7,504.666,407.965,504.666Zm-.451-6.523a3.888,3.888,0,0,0,1.865-.242c.2-.08.871-.377.986-.819l6.682-25.9c-.986-.094-2.463.227-2.766.709Z" transform="translate(-400.87 -464.686)"/></g><g transform="translate(38.322 11.767)"><path class="a" d="M410.4,502.78c-1.831,0-3.585-.839-3.109-2.683l6.929-26.857c.384-1.49,2.5-2.269,4.387-2.269s3.6.779,3.217,2.269L414.891,500.1C414.416,501.94,412.228,502.78,410.4,502.78Z" transform="translate(-403.961 -467.724)"/><path class="a" d="M408.644,504.274a6.692,6.692,0,0,1-5.4-2.307,5.03,5.03,0,0,1-.85-4.435l6.929-26.857c.838-3.25,4.385-4.705,7.531-4.705a6.874,6.874,0,0,1,5.552,2.291,4.586,4.586,0,0,1,.81,4.036l-6.929,26.857C415.37,502.691,411.789,504.274,408.644,504.274ZM415.5,472.72l-6.459,25.034a2.3,2.3,0,0,0,.983-.332l6.434-24.936A3.283,3.283,0,0,0,415.5,472.72Z" transform="translate(-402.208 -465.971)"/></g><g transform="translate(62.039)"><path class="a" d="M483.08,458.819,461.145,492.86a9.173,9.173,0,0,1-7.5,4.421,5.019,5.019,0,0,1-5.325-4.421l-4.535-34.041a4.183,4.183,0,0,1,.069-1.769c.67-2.6,3.736-4.2,6.279-4.2,1.824,0,3.323.829,3.57,2.652l3.6,27.189,17.68-27.189a5.937,5.937,0,0,1,4.995-2.652c2.487,0,4.63,1.547,3.96,4.145A5.9,5.9,0,0,1,483.08,458.819Z" transform="translate(-440.48 -449.604)"/><path class="a" d="M451.9,498.775a8.25,8.25,0,0,1-8.542-7.224l-4.533-34.021a7.455,7.455,0,0,1,.138-3.041c1.114-4.313,5.686-6.638,9.424-6.638,3.673,0,6.338,2.144,6.788,5.463l2.445,18.49,12.89-19.824a9.156,9.156,0,0,1,7.717-4.129,7.524,7.524,0,0,1,6.062,2.72,6.22,6.22,0,0,1,1.042,5.483,9.175,9.175,0,0,1-1.289,2.8l-21.918,34.014A12.492,12.492,0,0,1,451.9,498.775Zm-3.513-44.43c-1.327,0-2.909.89-3.134,1.764a.953.953,0,0,0-.007.447l.012.081,4.535,34.041c.053.385.221,1.6,2.107,1.6a5.919,5.919,0,0,0,4.769-2.937L478.6,455.307c.013-.019.025-.038.038-.056a3.006,3.006,0,0,0,.389-.763,2.04,2.04,0,0,0-.8-.142,2.727,2.727,0,0,0-2.275,1.179l-17.677,27.185a3.247,3.247,0,0,1-5.942-1.344l-3.569-26.988A2.091,2.091,0,0,0,448.384,454.345Z" transform="translate(-438.727 -447.851)"/></g><g transform="translate(62.906 0.84)"><path class="a" d="M454.335,496.895A4.391,4.391,0,0,1,449.654,493l-4.534-34.038a3.415,3.415,0,0,1,.047-1.462c.535-2.075,3.127-3.359,5.222-3.359.793,0,2.666.207,2.926,2.12l3.86,29.186,18.979-29.187a4.812,4.812,0,0,1,4.076-2.119c2.059,0,3.87,1.236,3.336,3.3a4.917,4.917,0,0,1-.709,1.5l-21.948,34.061A8.058,8.058,0,0,1,454.335,496.895Z" transform="translate(-441.816 -450.898)"/><path class="a" d="M452.582,498.388a7.635,7.635,0,0,1-7.9-6.693l-4.531-34.016a6.609,6.609,0,0,1,.117-2.739c.971-3.765,5.036-5.8,8.366-5.8s5.737,1.935,6.143,4.93l2.71,20.487,14.19-21.822a8.045,8.045,0,0,1,6.8-3.6,6.869,6.869,0,0,1,5.532,2.48,5.545,5.545,0,0,1,.948,4.884,8.176,8.176,0,0,1-1.159,2.5l-21.913,34.007A11.333,11.333,0,0,1,452.582,498.388Zm-6.025-41.821s0,.047.016.134l.012.084,4.534,34.037c.051.364.149,1.072,1.463,1.072a3.254,3.254,0,0,0,.64-.068l-4.785-36.178A2.712,2.712,0,0,0,446.557,456.567Zm31.679-.914a1.516,1.516,0,0,0-1.114.631l-22.888,35.2a5.442,5.442,0,0,0,2.2-1.987Z" transform="translate(-440.063 -449.145)"/></g></g><g transform="translate(196.079 9.02)"><path class="a" d="M499.214,454.145c2.059,0,3.87,1.236,3.336,3.3a4.918,4.918,0,0,1-.709,1.5" transform="translate(-495.967 -450.898)"/><path class="a" d="M500.085,460.445a3.248,3.248,0,0,1-2.842-4.813,3.247,3.247,0,0,1,.218-6.487,6.869,6.869,0,0,1,5.532,2.48,5.545,5.545,0,0,1,.948,4.884,8.174,8.174,0,0,1-1.159,2.5A3.245,3.245,0,0,1,500.085,460.445ZM498,455.736h0Z" transform="translate(-494.214 -449.145)"/></g><g transform="translate(147.724 19.948)"><path class="a" d="M424.755,470.971c1.89,0,3.6.779,3.217,2.269" transform="translate(-421.508 -467.724)"/><path class="a" d="M426.222,474.735a3.249,3.249,0,0,1-3.1-2.268l-.121,0a3.247,3.247,0,1,1,0-6.494,6.874,6.874,0,0,1,5.552,2.291,4.586,4.586,0,0,1,.81,4.036A3.248,3.248,0,0,1,426.222,474.735Zm-2.428-2.157h0Z" transform="translate(-419.755 -465.971)"/></g><g transform="translate(133.274 9.061)"><path class="a" d="M402.5,454.208c1.9,0,3.717.866,3.227,2.766" transform="translate(-399.258 -450.96)"/><path class="a" d="M403.982,458.468a3.251,3.251,0,0,1-3.215-2.767h-.015a3.247,3.247,0,0,1,0-6.494,6.826,6.826,0,0,1,5.512,2.344,5.083,5.083,0,0,1,.859,4.48A3.249,3.249,0,0,1,403.982,458.468Zm-2.553-2.668h0Z" transform="translate(-397.505 -449.207)"/></g><g transform="translate(165.502 47.879)"><path class="a" d="M456.813,517.873a4.391,4.391,0,0,1-4.681-3.891" transform="translate(-448.884 -510.735)"/><path class="a" d="M455.059,519.366a7.635,7.635,0,0,1-7.9-6.693,3.247,3.247,0,0,1,6.433-.889c.053.38.151,1.088,1.465,1.088a3.247,3.247,0,1,1,0,6.494Z" transform="translate(-447.13 -508.982)"/></g><g transform="translate(102.304 49.836)"><path class="a" d="M363.476,519.536c-3.778,0-6.656-.839-8.661-2.541" transform="translate(-351.568 -513.747)"/><path class="a" d="M361.723,521.031c-4.551,0-8.172-1.115-10.762-3.314a3.247,3.247,0,1,1,4.2-4.95c1.383,1.175,3.59,1.77,6.559,1.77a3.247,3.247,0,0,1,0,6.494Z" transform="translate(-349.815 -511.994)"/></g><g transform="translate(136.328 49.074)"><path class="a" d="M410.4,518.5c-1.831,0-3.585-.839-3.109-2.683" transform="translate(-403.961 -512.573)"/><path class="a" d="M408.644,520a6.692,6.692,0,0,1-5.4-2.307,5.031,5.031,0,0,1-.85-4.435A5.065,5.065,0,1,1,408.644,520Z" transform="translate(-402.208 -510.82)"/></g><g transform="translate(71.853 16.984)"><path class="a" d="M320.271,502.051c-2.329,0-4.917-.923-5.348-2.505-.492,1.451-2.5,2.2-4.217,2.2s-3.19-.7-2.683-2.2l10.284-30.326c1.267-3.736,8.563-3.736,7.3,0l-2.325,6.857a13.512,13.512,0,0,1,6.427-1.846c7.3,0,10.915,5.142,7.934,13.933S327.568,502.051,320.271,502.051Zm6.258-20.657c-2.944,0-6.108,2.461-7.57,6.769s.093,6.725,2.994,6.725c3.648,0,6.812-2.329,8.3-6.725S330.177,481.393,326.529,481.393Z" transform="translate(-304.678 -463.164)"/><path class="a" d="M318.52,503.542a11.577,11.577,0,0,1-5.4-1.273,9.37,9.37,0,0,1-4.161.966,6.127,6.127,0,0,1-5.192-2.26,4.62,4.62,0,0,1-.566-4.228l10.284-30.326c1.4-4.133,6.491-5.851,10.108-4.623a5.359,5.359,0,0,1,3.014,2.392,5.217,5.217,0,0,1,.324,4.316l-.267.786c.439-.044.872-.066,1.294-.066,4.439,0,8.049,1.627,10.166,4.58,1.694,2.363,3.215,6.648.842,13.642C335.648,497.225,327.624,503.542,318.52,503.542Zm-2.353-7.012a5.116,5.116,0,0,0,2.353.518,13.13,13.13,0,0,0,6.338-1.651,11.242,11.242,0,0,1-4.655.981,6.552,6.552,0,0,1-5.509-2.665c-1.05-1.465-2-4.1-.56-8.349a13.7,13.7,0,0,1,6.453-7.935,3.248,3.248,0,0,1-2.135-4.151l1.757-5.182c-.043.017-.087.036-.131.057a.927.927,0,0,0-.447.354l-9.492,27.99c.026-.012.049-.024.07-.036a3.248,3.248,0,0,1,5.956.071Zm8.612-20.14c3.5,0,5.338,1.544,6.267,2.84,1.029,1.435,1.957,4.026.534,8.219a15.726,15.726,0,0,1-1.652,3.466,19.945,19.945,0,0,0,2.885-5.552c1.161-3.421,1.171-6.181.03-7.774-1.108-1.545-3.27-1.869-4.888-1.869a9.38,9.38,0,0,0-3.247.67Zm-4.829,13.472a1.265,1.265,0,0,0,.253.021c2.382,0,4.239-1.6,5.227-4.52a4.439,4.439,0,0,0,.344-2.327,2.372,2.372,0,0,0-.994-.152c-1.464,0-3.478,1.568-4.494,4.564A4.559,4.559,0,0,0,319.949,489.862Zm5.856-6.808h0Z" transform="translate(-302.927 -461.408)"/></g><g transform="translate(0 16.539)"><path class="a" d="M227.091,493.588a21.868,21.868,0,0,1-17.541,8.439c-10.636,0-14.622-7.559-10.955-18.371,3.428-10.109,12.718-17.932,23.267-17.932,5.977,0,10.461,2.461,11.339,7.648a2.66,2.66,0,0,1-.125,1.274,6.456,6.456,0,0,1-5.442,3.736,2.2,2.2,0,0,1-2.349-1.759c-.616-2.329-2.792-3.56-5.912-3.56-5.494,0-11.221,4.7-13.218,10.592-2.116,6.242-.092,10.9,5.929,10.9a12.942,12.942,0,0,0,9.445-4.395,4.564,4.564,0,0,1,3.5-1.759c1.978,0,3.654,1.539,2.924,3.692A5.435,5.435,0,0,1,227.091,493.588Z" transform="translate(-194.03 -462.476)"/><path class="a" d="M207.8,503.521c-7.345,0-11.114-3.107-12.983-5.713-2.974-4.15-3.346-10.169-1.047-16.948,4.021-11.856,14.853-20.137,26.341-20.137,8.008,0,13.444,3.871,14.541,10.353a5.951,5.951,0,0,1-.251,2.859,9.668,9.668,0,0,1-8.517,5.94,5.417,5.417,0,0,1-5.5-4.226c-.249-.944-1.837-1.092-2.76-1.092-4.024,0-8.574,3.763-10.143,8.388-.82,2.419-.858,4.495-.1,5.551a3.452,3.452,0,0,0,2.955,1.059,9.781,9.781,0,0,0,6.927-3.2,7.792,7.792,0,0,1,6.015-2.956A6.454,6.454,0,0,1,228.556,486a5.887,5.887,0,0,1,.723,5.388,8.494,8.494,0,0,1-1.344,2.41l-.044.058A25.134,25.134,0,0,1,207.8,503.521Zm12.311-36.3c-8.748,0-17.05,6.468-20.19,15.728-1.609,4.743-1.546,8.677.175,11.078,1.779,2.483,5.172,3,7.7,3a18.412,18.412,0,0,0,12.694-4.748,16.454,16.454,0,0,1-10.159,3.771c-4.571,0-7-2.051-8.233-3.771-2.033-2.836-2.307-6.892-.771-11.419,2.474-7.295,9.478-12.8,16.293-12.8,4.345,0,7.575,1.929,8.805,5.2a3.816,3.816,0,0,0,1.781-1.322C227.431,468.047,223.393,467.217,220.115,467.217Zm5.23,24.618h0Zm1.331-17.8,0,.008Z" transform="translate(-192.284 -460.723)"/></g><g transform="translate(31.61 17.023)"><path class="a" d="M246.1,498.992l10.091-29.755c.626-1.846,2.829-2.769,4.675-2.769,1.89,0,3.423.923,2.8,2.769l-10.09,29.755C252.3,502.728,244.833,502.728,246.1,498.992Z" transform="translate(-242.71 -463.221)"/><path class="a" d="M247.165,503.3a7.906,7.906,0,0,1-2.529-.4,5.412,5.412,0,0,1-3.016-2.367,5.18,5.18,0,0,1-.348-4.332h0l10.091-29.755c1.159-3.417,4.829-4.973,7.75-4.973a6.314,6.314,0,0,1,5.277,2.367,5.061,5.061,0,0,1,.6,4.691l-10.091,29.755C253.789,501.542,250.367,503.3,247.165,503.3Zm-2.817-6.057,3.074,1.043h0Zm13.926-29.144a1.51,1.51,0,0,0-.764.439l-9.539,28.13a2.562,2.562,0,0,0,.31-.122,1.015,1.015,0,0,0,.462-.345Z" transform="translate(-240.959 -461.468)"/></g><g transform="translate(45.413 25.066)"><path class="a" d="M284.552,506.059c-1.67,0-3-.879-2.461-2.461-1.534,1.8-5.481,2.813-7.591,2.813-6.768,0-8.857-3.559-6.145-11.559l4.441-13.1a4.811,4.811,0,0,1,4.632-2.9c1.8,0,3.32.967,2.664,2.9l-4.4,12.966c-.939,2.769-.627,4.571,1.878,4.571,3.472,0,6.091-1.89,7.447-5.89l3.935-11.6a4.741,4.741,0,0,1,4.559-2.945c1.846,0,3.378,1.055,2.693,3.076l-7.2,21.229A4.646,4.646,0,0,1,284.552,506.059Z" transform="translate(-263.962 -475.606)"/><path class="a" d="M272.75,507.905c-4.21,0-7.23-1.236-8.976-3.672-2-2.787-2.078-6.771-.244-12.178l4.441-13.1c1.2-3.526,4.732-5.105,7.707-5.105a6.158,6.158,0,0,1,5.139,2.358,5.212,5.212,0,0,1,.6,4.832l-4.4,12.966c-.019.057-.038.112-.055.165,1.174-.271,2.4-1.12,3.23-3.569l3.935-11.6a7.944,7.944,0,0,1,7.634-5.149,6.181,6.181,0,0,1,5.154,2.391,5.369,5.369,0,0,1,.614,4.976l-7.2,21.228a7.846,7.846,0,0,1-7.531,5.106,6.536,6.536,0,0,1-3.692-1.051A17.291,17.291,0,0,1,272.75,507.905Zm1.98-27.361a1.083,1.083,0,0,0-.608.5l-4.442,13.1c-1.535,4.526-.869,5.973-.628,6.31.438.61,1.785.961,3.7.961a10.617,10.617,0,0,0,3.18-.627h-.106a5.363,5.363,0,0,1-4.636-2.142c-1.762-2.458-.675-5.665-.318-6.719Zm7.164,18.449.049.027a3.243,3.243,0,0,1,1.516,1.921,1.1,1.1,0,0,0,.723-.579l6.727-19.835a1.08,1.08,0,0,0-.629.56l-3.935,11.6A12.163,12.163,0,0,1,281.894,498.993Zm-6.214-4.71Z" transform="translate(-262.213 -473.853)"/></g><g transform="translate(71.853 16.984)"><path class="a" d="M320.271,502.051c-2.329,0-4.917-.923-5.348-2.505-.492,1.451-2.5,2.2-4.217,2.2s-3.19-.7-2.683-2.2l10.284-30.326c1.267-3.736,8.563-3.736,7.3,0l-2.325,6.857a13.512,13.512,0,0,1,6.427-1.846c7.3,0,10.915,5.142,7.934,13.933S327.568,502.051,320.271,502.051Zm6.258-20.657c-2.944,0-6.108,2.461-7.57,6.769s.093,6.725,2.994,6.725c3.648,0,6.812-2.329,8.3-6.725S330.177,481.393,326.529,481.393Z" transform="translate(-304.678 -463.164)"/><path class="a" d="M318.52,503.542a11.577,11.577,0,0,1-5.4-1.273,9.37,9.37,0,0,1-4.161.966,6.127,6.127,0,0,1-5.192-2.26,4.62,4.62,0,0,1-.566-4.228l10.284-30.326c1.4-4.133,6.491-5.851,10.108-4.623a5.359,5.359,0,0,1,3.014,2.392,5.217,5.217,0,0,1,.324,4.316l-.267.786c.439-.044.872-.066,1.294-.066,4.439,0,8.049,1.627,10.166,4.58,1.694,2.363,3.215,6.648.842,13.642C335.648,497.225,327.624,503.542,318.52,503.542Zm-2.353-7.012a5.116,5.116,0,0,0,2.353.518,13.13,13.13,0,0,0,6.338-1.651,11.242,11.242,0,0,1-4.655.981,6.552,6.552,0,0,1-5.509-2.665c-1.05-1.465-2-4.1-.56-8.349a13.7,13.7,0,0,1,6.453-7.935,3.248,3.248,0,0,1-2.135-4.151l1.757-5.182c-.043.017-.087.036-.131.057a.927.927,0,0,0-.447.354l-9.492,27.99c.026-.012.049-.024.07-.036a3.248,3.248,0,0,1,5.956.071Zm8.612-20.14c3.5,0,5.338,1.544,6.267,2.84,1.029,1.435,1.957,4.026.534,8.219a15.726,15.726,0,0,1-1.652,3.466,19.945,19.945,0,0,0,2.885-5.552c1.161-3.421,1.171-6.181.03-7.774-1.108-1.545-3.27-1.869-4.888-1.869a9.38,9.38,0,0,0-3.247.67Zm-4.829,13.472a1.265,1.265,0,0,0,.253.021c2.382,0,4.239-1.6,5.227-4.52a4.439,4.439,0,0,0,.344-2.327,2.372,2.372,0,0,0-.994-.152c-1.464,0-3.478,1.568-4.494,4.564A4.559,4.559,0,0,0,319.949,489.862Zm5.856-6.808h0Z" transform="translate(-302.927 -461.408)"/></g><g transform="translate(0 16.539)"><path class="a" d="M227.091,493.588a21.868,21.868,0,0,1-17.541,8.439c-10.636,0-14.622-7.559-10.955-18.371,3.428-10.109,12.718-17.932,23.267-17.932,5.977,0,10.461,2.461,11.339,7.648a2.66,2.66,0,0,1-.125,1.274,6.456,6.456,0,0,1-5.442,3.736,2.2,2.2,0,0,1-2.349-1.759c-.616-2.329-2.792-3.56-5.912-3.56-5.494,0-11.221,4.7-13.218,10.592-2.116,6.242-.092,10.9,5.929,10.9a12.942,12.942,0,0,0,9.445-4.395,4.564,4.564,0,0,1,3.5-1.759c1.978,0,3.654,1.539,2.924,3.692A5.435,5.435,0,0,1,227.091,493.588Z" transform="translate(-194.03 -462.476)"/><path class="a" d="M207.8,503.521c-7.345,0-11.114-3.107-12.983-5.713-2.974-4.15-3.346-10.169-1.047-16.948,4.021-11.856,14.853-20.137,26.341-20.137,8.008,0,13.444,3.871,14.541,10.353a5.951,5.951,0,0,1-.251,2.859,9.668,9.668,0,0,1-8.517,5.94,5.417,5.417,0,0,1-5.5-4.226c-.249-.944-1.837-1.092-2.76-1.092-4.024,0-8.574,3.763-10.143,8.388-.82,2.419-.858,4.495-.1,5.551a3.452,3.452,0,0,0,2.955,1.059,9.781,9.781,0,0,0,6.927-3.2,7.792,7.792,0,0,1,6.015-2.956A6.454,6.454,0,0,1,228.556,486a5.887,5.887,0,0,1,.723,5.388,8.494,8.494,0,0,1-1.344,2.41l-.044.058A25.134,25.134,0,0,1,207.8,503.521Zm12.311-36.3c-8.748,0-17.05,6.468-20.19,15.728-1.609,4.743-1.546,8.677.175,11.078,1.779,2.483,5.172,3,7.7,3a18.412,18.412,0,0,0,12.694-4.748,16.454,16.454,0,0,1-10.159,3.771c-4.571,0-7-2.051-8.233-3.771-2.033-2.836-2.307-6.892-.771-11.419,2.474-7.295,9.478-12.8,16.293-12.8,4.345,0,7.575,1.929,8.805,5.2a3.816,3.816,0,0,0,1.781-1.322C227.431,468.047,223.393,467.217,220.115,467.217Zm5.23,24.618h0Zm1.331-17.8,0,.008Z" transform="translate(-192.284 -460.723)"/></g><g transform="translate(45.413 25.066)"><path class="a" d="M284.552,506.059c-1.67,0-3-.879-2.461-2.461-1.534,1.8-5.481,2.813-7.591,2.813-6.768,0-8.857-3.559-6.145-11.559l4.441-13.1a4.811,4.811,0,0,1,4.632-2.9c1.8,0,3.32.967,2.664,2.9l-4.4,12.966c-.939,2.769-.627,4.571,1.878,4.571,3.472,0,6.091-1.89,7.447-5.89l3.935-11.6a4.741,4.741,0,0,1,4.559-2.945c1.846,0,3.378,1.055,2.693,3.076l-7.2,21.229A4.646,4.646,0,0,1,284.552,506.059Z" transform="translate(-263.962 -475.606)"/><path class="a" d="M272.75,507.905c-4.21,0-7.23-1.236-8.976-3.672-2-2.787-2.078-6.771-.244-12.178l4.441-13.1c1.2-3.526,4.732-5.105,7.707-5.105a6.158,6.158,0,0,1,5.139,2.358,5.212,5.212,0,0,1,.6,4.832l-4.4,12.966c-.019.057-.038.112-.055.165,1.174-.271,2.4-1.12,3.23-3.569l3.935-11.6a7.944,7.944,0,0,1,7.634-5.149,6.181,6.181,0,0,1,5.154,2.391,5.369,5.369,0,0,1,.614,4.976l-7.2,21.228a7.846,7.846,0,0,1-7.531,5.106,6.536,6.536,0,0,1-3.692-1.051A17.291,17.291,0,0,1,272.75,507.905Zm1.98-27.361a1.083,1.083,0,0,0-.608.5l-4.442,13.1c-1.535,4.526-.869,5.973-.628,6.31.438.61,1.785.961,3.7.961a10.617,10.617,0,0,0,3.18-.627h-.106a5.363,5.363,0,0,1-4.636-2.142c-1.762-2.458-.675-5.665-.318-6.719Zm7.164,18.449.049.027a3.243,3.243,0,0,1,1.516,1.921,1.1,1.1,0,0,0,.723-.579l6.727-19.835a1.08,1.08,0,0,0-.629.56l-3.935,11.6A12.163,12.163,0,0,1,281.894,498.993Zm-6.214-4.71Z" transform="translate(-262.213 -473.853)"/></g><g transform="translate(71.853 16.984)"><path class="a" d="M320.271,502.051c-2.329,0-4.917-.923-5.348-2.505-.492,1.451-2.5,2.2-4.217,2.2s-3.19-.7-2.683-2.2l10.284-30.326c1.267-3.736,8.563-3.736,7.3,0l-2.325,6.857a13.512,13.512,0,0,1,6.427-1.846c7.3,0,10.915,5.142,7.934,13.933S327.568,502.051,320.271,502.051Zm6.258-20.657c-2.944,0-6.108,2.461-7.57,6.769s.093,6.725,2.994,6.725c3.648,0,6.812-2.329,8.3-6.725S330.177,481.393,326.529,481.393Z" transform="translate(-304.678 -463.164)"/><path class="a" d="M318.52,503.542a11.577,11.577,0,0,1-5.4-1.273,9.37,9.37,0,0,1-4.161.966,6.127,6.127,0,0,1-5.192-2.26,4.62,4.62,0,0,1-.566-4.228l10.284-30.326c1.4-4.133,6.491-5.851,10.108-4.623a5.359,5.359,0,0,1,3.014,2.392,5.217,5.217,0,0,1,.324,4.316l-.267.786c.439-.044.872-.066,1.294-.066,4.439,0,8.049,1.627,10.166,4.58,1.694,2.363,3.215,6.648.842,13.642C335.648,497.225,327.624,503.542,318.52,503.542Zm-2.353-7.012a5.116,5.116,0,0,0,2.353.518,13.13,13.13,0,0,0,6.338-1.651,11.242,11.242,0,0,1-4.655.981,6.552,6.552,0,0,1-5.509-2.665c-1.05-1.465-2-4.1-.56-8.349a13.7,13.7,0,0,1,6.453-7.935,3.248,3.248,0,0,1-2.135-4.151l1.757-5.182c-.043.017-.087.036-.131.057a.927.927,0,0,0-.447.354l-9.492,27.99c.026-.012.049-.024.07-.036a3.248,3.248,0,0,1,5.956.071Zm8.612-20.14c3.5,0,5.338,1.544,6.267,2.84,1.029,1.435,1.957,4.026.534,8.219a15.726,15.726,0,0,1-1.652,3.466,19.945,19.945,0,0,0,2.885-5.552c1.161-3.421,1.171-6.181.03-7.774-1.108-1.545-3.27-1.869-4.888-1.869a9.38,9.38,0,0,0-3.247.67Zm-4.829,13.472a1.265,1.265,0,0,0,.253.021c2.382,0,4.239-1.6,5.227-4.52a4.439,4.439,0,0,0,.344-2.327,2.372,2.372,0,0,0-.994-.152c-1.464,0-3.478,1.568-4.494,4.564A4.559,4.559,0,0,0,319.949,489.862Zm5.856-6.808h0Z" transform="translate(-302.927 -461.408)"/></g><g transform="translate(0.822 17.363)"><path class="a" d="M210,501.649c-4.446,0-7.792-1.388-9.674-4.015-2.189-3.054-2.367-7.766-.5-13.27,3.469-10.229,12.716-17.373,22.487-17.373,8.134,0,10.087,4.362,10.528,6.962a1.856,1.856,0,0,1-.093.873A5.68,5.68,0,0,1,228.081,478a1.384,1.384,0,0,1-1.55-1.133c-.705-2.665-3.15-4.186-6.712-4.186-5.824,0-11.841,4.794-14,11.151-1.278,3.768-1.12,7.046.445,9.229,1.294,1.8,3.459,2.759,6.263,2.759a13.84,13.84,0,0,0,10.083-4.7,3.759,3.759,0,0,1,2.859-1.455,2.422,2.422,0,0,1,1.968.895,1.826,1.826,0,0,1,.176,1.71,4.67,4.67,0,0,1-.736,1.262A21.128,21.128,0,0,1,210,501.649Z" transform="translate(-195.3 -463.744)"/><path class="a" d="M208.248,503.143c-7,0-10.557-2.92-12.313-5.37-2.816-3.928-3.149-9.683-.938-16.2,3.909-11.527,14.42-19.578,25.562-19.578,2.837,0,12.211.7,13.729,9.667a5.1,5.1,0,0,1-.218,2.455,8.906,8.906,0,0,1-7.738,5.384,4.625,4.625,0,0,1-4.7-3.6c-.374-1.411-2.143-1.718-3.559-1.718-4.423,0-9.221,3.93-10.922,8.947-.919,2.709-.916,5,.01,6.294.668.932,1.887,1.4,3.624,1.4a10.685,10.685,0,0,0,7.566-3.5,7.061,7.061,0,0,1,5.377-2.652,5.629,5.629,0,0,1,4.608,2.251,5.073,5.073,0,0,1,.611,4.645,7.735,7.735,0,0,1-1.219,2.176l-.046.059A24.309,24.309,0,0,1,208.248,503.143Zm-8.163-14.627a8.251,8.251,0,0,0,1.128,5.473,7.113,7.113,0,0,0,5.027,2.535,9.454,9.454,0,0,1-4.36-3.321A10.269,10.269,0,0,1,200.085,488.516Zm27.826-14.268.01.039C227.918,474.273,227.914,474.26,227.91,474.247Zm-4.778-5.562a8.391,8.391,0,0,1,4.147,3.9,3.263,3.263,0,0,0,.486-.39C227.239,470.3,225.686,469.128,223.132,468.685Z" transform="translate(-193.551 -461.991)"/></g><g transform="translate(46.236 25.889)"><path class="a" d="M274.947,506.032c-2.863,0-4.717-.645-5.668-1.972-1.162-1.621-1.06-4.481.3-8.5l4.442-13.1a4,4,0,0,1,3.852-2.342,2.285,2.285,0,0,1,1.83.659,1.24,1.24,0,0,1,.055,1.155l-4.4,12.966c-.7,2.074-.705,3.554-.008,4.528a3.067,3.067,0,0,0,2.666,1.131c3.951,0,6.8-2.229,8.226-6.448l3.935-11.6a3.94,3.94,0,0,1,3.78-2.386,2.293,2.293,0,0,1,1.846.692,1.394,1.394,0,0,1,.067,1.3l-7.2,21.228A3.836,3.836,0,0,1,285,505.68a2.093,2.093,0,0,1-1.64-.568.805.805,0,0,1-.043-.805l-1.406-.8C280.6,505.049,276.91,506.032,274.947,506.032Z" transform="translate(-265.232 -476.873)"/><path class="a" d="M273.195,507.526c-3.984,0-6.7-1.088-8.307-3.328-1.833-2.556-1.876-6.3-.134-11.434l4.441-13.1c1.065-3.141,4.247-4.547,6.928-4.547a5.349,5.349,0,0,1,4.471,2.015,4.38,4.38,0,0,1,.489,4.089l-4.4,12.965a6.829,6.829,0,0,0-.34,1.368c1.589-.014,3.8-.5,5.073-4.243l3.935-11.6a7.122,7.122,0,0,1,6.855-4.591,5.371,5.371,0,0,1,4.485,2.047,4.53,4.53,0,0,1,.5,4.232L290,502.628a7.022,7.022,0,0,1-6.751,4.546,5.525,5.525,0,0,1-3.591-1.181A16.654,16.654,0,0,1,273.195,507.526Zm-3.08-9.688a4.3,4.3,0,0,0,.051,2.577c.134.187.786.52,2.32.6a5.715,5.715,0,0,1-1.522-1.448A5.861,5.861,0,0,1,270.114,497.838Zm13.124,1.932.731.414.523-1.542A11.252,11.252,0,0,1,283.238,499.77Zm-7.027-18.151Z" transform="translate(-263.48 -475.12)"/></g><g transform="translate(72.671 17.813)"><path class="a" d="M320.716,501.672c-2.189,0-4.274-.869-4.554-1.9l-.707-2.6-.866,2.553c-.347,1.026-2.021,1.639-3.438,1.639a2.484,2.484,0,0,1-1.885-.561c-.038-.053-.139-.194-.019-.549l10.284-30.326c.5-1.473,2.3-2.244,3.819-2.244a2.35,2.35,0,0,1,1.869.652c.069.1.278.388.049,1.063l-3.035,8.95,1.906-1.12a12.745,12.745,0,0,1,6.011-1.733c3.136,0,5.507,1,6.858,2.881,1.632,2.277,1.735,5.723.3,9.965C334.558,496.44,328.047,501.672,320.716,501.672Zm6.258-20.657c-3.507,0-6.862,2.944-8.349,7.327-1.11,3.272-.485,5.155.234,6.158a4.193,4.193,0,0,0,3.539,1.653c4.14,0,7.535-2.722,9.081-7.283,1.092-3.219.489-5.054-.209-6.028C330.673,482.009,329.441,481.015,326.974,481.015Z" transform="translate(-305.94 -464.437)"/><path class="a" d="M318.961,503.166a10.539,10.539,0,0,1-5.373-1.4,8.381,8.381,0,0,1-4.192,1.094,5.335,5.335,0,0,1-4.525-1.919,3.745,3.745,0,0,1-.453-3.482L314.7,467.132c1.035-3.056,4.3-4.448,6.894-4.448a5.392,5.392,0,0,1,4.51,2.01,4.307,4.307,0,0,1,.483,4l-.7,2.053a13.36,13.36,0,0,1,2.5-.246c5.34,0,8.112,2.3,9.5,4.236,1.581,2.207,2.993,6.236.732,12.9C335.425,497.068,327.707,503.166,318.961,503.166Zm6.258-20.658c-2.082,0-4.25,2.107-5.274,5.123-.595,1.755-.494,2.817-.2,3.225a1.169,1.169,0,0,0,.9.3c2.723,0,4.912-1.852,6.007-5.078.579-1.709.484-2.735.227-3.094A2.174,2.174,0,0,0,325.219,482.508Zm4.521-5.43a7.258,7.258,0,0,1,2.414,2.119,7.376,7.376,0,0,1,1.14,2.451,4.952,4.952,0,0,0-.68-3.133A4.129,4.129,0,0,0,329.74,477.078Z" transform="translate(-304.186 -462.684)"/></g><g transform="translate(46.517 17.847)"><path class="a" d="M268.914,467.735a2.492,2.492,0,0,1,1.969.668c.066.092.266.371.048,1.014" transform="translate(-265.666 -464.489)"/><path class="a" d="M269.178,470.912a4.213,4.213,0,1,1-2.018-8.176,5.513,5.513,0,0,1,4.608,2.023,4.257,4.257,0,0,1,.484,3.949A3.249,3.249,0,0,1,269.178,470.912Zm-1.814-1.666h0ZM266.1,466.62v0Z" transform="translate(-263.913 -462.736)"/></g><g transform="translate(32.431 49.81)"><path class="a" d="M249.329,518.672a2.464,2.464,0,0,1-1.955-.675c-.068-.095-.275-.382-.051-1.04" transform="translate(-243.975 -513.708)"/><path class="a" d="M247.577,520.164a5.491,5.491,0,0,1-4.595-2.031,4.281,4.281,0,0,1-.486-3.973,4.4,4.4,0,1,1,5.081,6Zm-.181-6.508Z" transform="translate(-242.222 -511.955)"/></g><g transform="translate(71.748 25.889)"><path class="a" d="M307.719,480.12a2.293,2.293,0,0,1,1.846.692,1.394,1.394,0,0,1,.067,1.3" transform="translate(-304.502 -476.873)"/><path class="a" d="M307.9,483.6a4.349,4.349,0,0,1-1.913-8.485,5.371,5.371,0,0,1,4.485,2.047,4.53,4.53,0,0,1,.5,4.232A3.249,3.249,0,0,1,307.9,483.6Zm-1.853-1.987h0Z" transform="translate(-302.765 -475.12)"/></g><g transform="translate(55.632 25.889)"><path class="a" d="M282.949,480.12a2.286,2.286,0,0,1,1.83.659,1.24,1.24,0,0,1,.055,1.155" transform="translate(-279.702 -476.873)"/><path class="a" d="M283.081,483.429a4.26,4.26,0,1,1-1.885-8.309,5.349,5.349,0,0,1,4.471,2.015,4.38,4.38,0,0,1,.489,4.089A3.249,3.249,0,0,1,283.081,483.429Zm-1.8-1.809Z" transform="translate(-277.949 -475.12)"/></g><g transform="translate(29.158 40.936)"><path class="a" d="M242.742,503.291a1.826,1.826,0,0,1,.176,1.71,4.67,4.67,0,0,1-.736,1.262" transform="translate(-238.935 -500.043)"/><path class="a" d="M240.427,507.757a3.247,3.247,0,0,1-2.589-5.205l.045-.06a3.248,3.248,0,0,1,5.744-2.846,5.075,5.075,0,0,1,.611,4.645,7.736,7.736,0,0,1-1.219,2.176A3.242,3.242,0,0,1,240.427,507.757Zm-2.078-4.327h0Z" transform="translate(-237.182 -498.29)"/></g><g transform="translate(46.234 46.547)"><path class="a" d="M271.76,516.81a4.4,4.4,0,0,1-2.481-1.6,5.28,5.28,0,0,1-.8-3.282" transform="translate(-265.23 -508.683)"/><path class="a" d="M270.008,518.305a3.249,3.249,0,0,1-.893-.126,7.582,7.582,0,0,1-4.228-2.828,8.421,8.421,0,0,1-1.4-5.267,3.247,3.247,0,1,1,6.492.185,2.342,2.342,0,0,0,.19,1.3,1.489,1.489,0,0,0,.735.369,3.248,3.248,0,0,1-.891,6.37Z" transform="translate(-263.477 -506.931)"/></g><g transform="translate(29.368 18.01)"><path class="a" d="M242.508,467.988a8.078,8.078,0,0,1,4.686,3.452" transform="translate(-239.26 -464.74)"/><path class="a" d="M245.444,472.935a3.245,3.245,0,0,1-2.77-1.549,4.915,4.915,0,0,0-2.89-2.052,3.247,3.247,0,0,1,1.942-6.2,11.416,11.416,0,0,1,6.483,4.853,3.248,3.248,0,0,1-2.765,4.946Z" transform="translate(-237.506 -462.987)"/></g><g transform="translate(97.697 26.344)"><path class="a" d="M347.724,480.822a6.353,6.353,0,0,1,2.793,2.161,7.011,7.011,0,0,1,1.2,3.113" transform="translate(-344.476 -477.574)"/><path class="a" d="M349.962,487.591a3.247,3.247,0,0,1-3.208-2.776,3.842,3.842,0,0,0-.629-1.693,3.122,3.122,0,0,0-1.4-1.053,3.247,3.247,0,1,1,2.487-6,9.543,9.543,0,0,1,4.189,3.269,10.236,10.236,0,0,1,1.776,4.533,3.248,3.248,0,0,1-2.741,3.685A3.289,3.289,0,0,1,349.962,487.591Z" transform="translate(-342.722 -475.821)"/></g><g transform="translate(86.834 17.813)"><path class="a" d="M330.994,467.684a2.35,2.35,0,0,1,1.869.652c.069.1.278.388.049,1.063" transform="translate(-327.747 -464.437)"/><path class="a" d="M331.159,470.894a4.216,4.216,0,1,1-1.918-8.21,5.393,5.393,0,0,1,4.51,2.01,4.307,4.307,0,0,1,.483,4A3.249,3.249,0,0,1,331.159,470.894Zm-1.787-1.707Z" transform="translate(-325.994 -462.684)"/></g><g transform="translate(236.085 9.548)"><path class="a" d="M563.221,458.267a2.967,2.967,0,0,0-.361-2.517,2.462,2.462,0,0,0-2.043-.791" transform="translate(-557.57 -451.711)"/><path class="a" d="M561.471,459.762a5.061,5.061,0,0,1-2.407-9.8,5.554,5.554,0,0,1,4.587,2.02,6.159,6.159,0,0,1,.979,5.277A3.249,3.249,0,0,1,561.471,459.762Zm-2.272-3.3Zm-.862-.912Z" transform="translate(-555.817 -449.958)"/></g><g transform="translate(229.526 26.054)"><path class="a" d="M553.018,483.626a2.985,2.985,0,0,0-.353-2.5,2.348,2.348,0,0,0-1.948-.756" transform="translate(-547.47 -477.127)"/><path class="a" d="M551.268,485.12a5.023,5.023,0,0,1-2.3-9.746,5.443,5.443,0,0,1,4.491,1.984,6.131,6.131,0,0,1,.97,5.257A3.247,3.247,0,0,1,551.268,485.12Zm-2.2-3.246Zm-.936-.956Z" transform="translate(-545.717 -475.374)"/></g><g transform="translate(228.179 44.261)"><path class="a" d="M551.093,510.741a2.137,2.137,0,0,0-2.45-2.331" transform="translate(-545.396 -505.163)"/><path class="a" d="M549.34,512.235a4.58,4.58,0,1,1-2.45-8.825,5.352,5.352,0,0,1,5.7,5.578A3.247,3.247,0,0,1,549.34,512.235Zm-2.333-2.325Z" transform="translate(-543.643 -503.41)"/></g><g transform="translate(197.209 46.749)"><path class="a" d="M501.186,512.241c-.39,1.659-.3,2.864.271,3.582s1.733,1.087,3.45,1.087" transform="translate(-497.706 -508.993)"/><path class="a" d="M503.156,518.4c-2.758,0-4.775-.779-5.993-2.316s-1.516-3.67-.889-6.343a3.247,3.247,0,0,1,6.323,1.484,6.363,6.363,0,0,0-.121.649,6.454,6.454,0,0,0,.681.032,3.247,3.247,0,1,1,0,6.494Zm-.7-5.968h0Z" transform="translate(-495.955 -507.24)"/></g></g><g transform="translate(194.658 437.31)"><g transform="translate(195.713 8.37)"><path class="b" d="M537.013,462.662H516.206l-1.636,6.977h18.06c3.04,0,4,2.382,3.455,4.708a6,6,0,0,1-5.63,4.821H512.337l-2.035,8.678h20.982c6.137,0,3.9,9.529-2.235,9.529H504.268q-6.311,0-4.876-6.126l7.5-31.989q1.437-6.125,7.749-6.125h24.547c3.1,0,4.116,2.382,3.558,4.764A6.055,6.055,0,0,1,537.013,462.662Z" transform="translate(-497.943 -451.948)"/><path class="b" d="M528.41,497.919H503.63c-2.477,0-4.263-.668-5.308-1.985s-1.285-3.2-.722-5.6l7.5-31.99c1.081-4.606,4.159-7.04,8.9-7.04h24.547a4.708,4.708,0,0,1,3.9,1.689,5.3,5.3,0,0,1,.812,4.532,7.271,7.271,0,0,1-6.888,5.679H516.507l-1.079,4.606h16.564a4.6,4.6,0,0,1,3.806,1.654,5.267,5.267,0,0,1,.8,4.51,7.17,7.17,0,0,1-6.785,5.736H512.637l-1.479,6.307h19.486a4.483,4.483,0,0,1,4.821,4.7A7.232,7.232,0,0,1,528.41,497.919ZM514,453.679c-3.666,0-5.761,1.655-6.595,5.21l-7.5,31.99c-.39,1.659-.3,2.864.271,3.582s1.733,1.087,3.45,1.087H528.41a4.906,4.906,0,0,0,4.684-4.826,2.138,2.138,0,0,0-2.45-2.331H509.663a1.185,1.185,0,0,1-1.154-1.456l2.035-8.678a1.186,1.186,0,0,1,1.154-.915h18.118a4.809,4.809,0,0,0,4.476-3.906,2.985,2.985,0,0,0-.353-2.5,2.349,2.349,0,0,0-1.948-.756h-18.06a1.185,1.185,0,0,1-1.154-1.455l1.636-6.977a1.185,1.185,0,0,1,1.154-.914h20.807a4.88,4.88,0,0,0,4.58-3.85,2.967,2.967,0,0,0-.361-2.517,2.462,2.462,0,0,0-2.043-.791Z" transform="translate(-497.305 -451.308)"/></g><g transform="translate(97.696 8.187)"><g transform="translate(0 0.038)"><path class="b" d="M360.939,497.911c-8.4,0-12.167-4.034-12.734-10.832a5.549,5.549,0,0,1,.138-1.6,7.037,7.037,0,0,1,6.325-4.808,3.051,3.051,0,0,1,3.25,3.039c.183,2.929,2.517,4.808,5.5,4.808a7.6,7.6,0,0,0,7.854-6.023l6.7-25.973c1.24-4.808,10.8-4.808,9.56,0L380.76,482.77C378.308,492.275,371.272,497.911,360.939,497.911Z" transform="translate(-347.014 -451.726)"/><path class="b" d="M360.3,498.454c-8.573,0-13.255-4.009-13.916-11.917a6.806,6.806,0,0,1,.172-2,8.209,8.209,0,0,1,7.472-5.7,4.241,4.241,0,0,1,4.428,4.106,3.991,3.991,0,0,0,4.323,3.741,6.426,6.426,0,0,0,6.706-5.135l6.7-25.972c.9-3.5,5.345-5.136,8.713-4.271,2.5.646,3.738,2.555,3.143,4.863l-6.772,26.249C378.641,492.612,371,498.454,360.3,498.454Zm-6.272-17.241a5.839,5.839,0,0,0-5.177,3.919,4.387,4.387,0,0,0-.1,1.258c.552,6.6,4.223,9.694,11.55,9.694,9.671,0,16.3-5.062,18.674-14.251l6.772-26.25c.1-.371.388-1.5-1.44-1.975-1.928-.5-5.234.273-5.825,2.567l-6.7,25.972a8.73,8.73,0,0,1-9,6.913c-3.717,0-6.466-2.434-6.685-5.918A1.88,1.88,0,0,0,354.028,481.213Z" transform="translate(-346.375 -451.084)"/></g><g transform="translate(37.45 10.932)"><path class="b" d="M405.978,499.643l6.929-26.857c1.07-4.145,10.353-4.145,9.284,0l-6.929,26.857C414.05,504.341,404.766,504.341,405.978,499.643Z" transform="translate(-404.683 -468.497)"/><path class="b" d="M409.078,503.718a7.255,7.255,0,0,1-1.809-.223,4.5,4.5,0,0,1-2.542-1.583,3.628,3.628,0,0,1-.538-3.2h0l6.929-26.857a5.477,5.477,0,0,1,4.147-3.667c2.071-.575,5.017-.49,6.594,1.058a3.2,3.2,0,0,1,.838,3.2L415.769,499.3C415.04,502.126,411.971,503.718,409.078,503.718Zm-2.592-4.416a1.276,1.276,0,0,0,.142,1.192,2.227,2.227,0,0,0,1.235.706c1.853.476,5.039-.27,5.612-2.49l6.929-26.857a.837.837,0,0,0-.2-.917c-.633-.622-2.457-.977-4.3-.466-.64.179-2.164.727-2.487,1.976Z" transform="translate(-404.042 -467.859)"/></g><g transform="translate(62.035)"><path class="b" d="M483.08,458.819,461.145,492.86a9.173,9.173,0,0,1-7.5,4.421,5.019,5.019,0,0,1-5.325-4.421l-4.535-34.041a4.183,4.183,0,0,1,.069-1.769c.67-2.6,3.736-4.2,6.279-4.2,1.824,0,3.323.829,3.57,2.652l3.6,27.189,17.68-27.189a5.937,5.937,0,0,1,4.995-2.652c2.487,0,4.63,1.547,3.96,4.145A5.9,5.9,0,0,1,483.08,458.819Z" transform="translate(-442.54 -451.666)"/><path class="b" d="M453.009,497.826a6.183,6.183,0,0,1-6.5-5.444l-4.536-34.046a5.319,5.319,0,0,1,.1-2.22c.823-3.186,4.422-5.09,7.427-5.09,2.619,0,4.438,1.409,4.745,3.678l3.176,24.013,15.931-24.5a7.1,7.1,0,0,1,5.988-3.191,5.563,5.563,0,0,1,4.432,1.92,4.2,4.2,0,0,1,.675,3.706,7.15,7.15,0,0,1-1.014,2.179L461.5,492.862A10.413,10.413,0,0,1,453.009,497.826ZM449.5,453.4c-2.065,0-4.619,1.331-5.13,3.311a3.023,3.023,0,0,0-.047,1.286l4.54,34.071a3.828,3.828,0,0,0,4.15,3.393,7.99,7.99,0,0,0,6.5-3.88l21.933-34.039.014-.021a4.8,4.8,0,0,0,.691-1.457,1.841,1.841,0,0,0-.253-1.662,3.263,3.263,0,0,0-2.559-1,4.738,4.738,0,0,0-4,2.115L457.656,482.7a1.185,1.185,0,0,1-2.168-.491l-3.6-27.189C451.71,453.679,450.488,453.4,449.5,453.4Z" transform="translate(-441.9 -451.026)"/></g></g><g transform="translate(142.299)"><path class="b" d="M428.722,446.073h6.059l-.035.07-6.736,3.548-1.106,5.853-.06.016-3.107-3.6-6.83,3.6-.044-.016,4.95-5.853-3.063-3.548.036-.07h6.059l4.914-5.817h.069Z" transform="translate(-415.689 -439.064)"/><path class="b" d="M416.274,456.108a1.19,1.19,0,0,1-.434-.082,1.237,1.237,0,0,1-.744-.826,1.2,1.2,0,0,1,.224-1.07l4.291-5.075-2.4-2.777a1.191,1.191,0,0,1-.156-1.327l.036-.069a1.19,1.19,0,0,1,1.058-.644h5.506l4.557-5.393a1.19,1.19,0,0,1,.91-.423h.069a1.192,1.192,0,0,1,1.171,1.414l-.836,4.4h4.619a1.191,1.191,0,0,1,1.062,1.732l-.036.07a1.188,1.188,0,0,1-.506.514l-6.227,3.281-1,5.286a1.191,1.191,0,0,1-.847.926,1.285,1.285,0,0,1-1.286-.352l-2.487-2.882-5.992,3.158A1.193,1.193,0,0,1,416.274,456.108Zm6.83-5.984a1.192,1.192,0,0,1,.9.414l1.539,1.784.661-3.5a1.187,1.187,0,0,1,.615-.832l2.6-1.373h-1.338a1.191,1.191,0,0,1-1.17-1.414l.278-1.465-2.075,2.456a1.191,1.191,0,0,1-.91.423h-3.553l1.422,1.648a1.192,1.192,0,0,1,.008,1.548l-1.049,1.24,1.508-.794A1.188,1.188,0,0,1,423.1,450.124Z" transform="translate(-415.056 -438.42)"/></g><path class="c" d="M210,501.649c-4.446,0-7.792-1.388-9.674-4.015-2.189-3.054-2.367-7.766-.5-13.27,3.469-10.229,12.716-17.373,22.487-17.373,8.134,0,10.087,4.362,10.528,6.962a1.856,1.856,0,0,1-.093.873A5.68,5.68,0,0,1,228.081,478a1.384,1.384,0,0,1-1.55-1.133c-.705-2.665-3.15-4.186-6.712-4.186-5.824,0-11.841,4.794-14,11.151-1.278,3.768-1.12,7.046.445,9.229,1.294,1.8,3.459,2.759,6.263,2.759a13.84,13.84,0,0,0,10.083-4.7,3.759,3.759,0,0,1,2.859-1.455,2.422,2.422,0,0,1,1.968.895,1.826,1.826,0,0,1,.176,1.71,4.67,4.67,0,0,1-.736,1.262A21.128,21.128,0,0,1,210,501.649Z" transform="translate(-196.851 -448.436)"/><g transform="translate(97.696 8.187)"><g transform="translate(0 0.038)"><path class="b" d="M360.939,497.911c-8.4,0-12.167-4.034-12.734-10.832a5.549,5.549,0,0,1,.138-1.6,7.037,7.037,0,0,1,6.325-4.808,3.051,3.051,0,0,1,3.25,3.039c.183,2.929,2.517,4.808,5.5,4.808a7.6,7.6,0,0,0,7.854-6.023l6.7-25.973c1.24-4.808,10.8-4.808,9.56,0L380.76,482.77C378.308,492.275,371.272,497.911,360.939,497.911Z" transform="translate(-347.014 -451.726)"/><path class="b" d="M360.3,498.454c-8.573,0-13.255-4.009-13.916-11.917a6.806,6.806,0,0,1,.172-2,8.209,8.209,0,0,1,7.472-5.7,4.241,4.241,0,0,1,4.428,4.106,3.991,3.991,0,0,0,4.323,3.741,6.426,6.426,0,0,0,6.706-5.135l6.7-25.972c.9-3.5,5.345-5.136,8.713-4.271,2.5.646,3.738,2.555,3.143,4.863l-6.772,26.249C378.641,492.612,371,498.454,360.3,498.454Zm-6.272-17.241a5.839,5.839,0,0,0-5.177,3.919,4.387,4.387,0,0,0-.1,1.258c.552,6.6,4.223,9.694,11.55,9.694,9.671,0,16.3-5.062,18.674-14.251l6.772-26.25c.1-.371.388-1.5-1.44-1.975-1.928-.5-5.234.273-5.825,2.567l-6.7,25.972a8.73,8.73,0,0,1-9,6.913c-3.717,0-6.466-2.434-6.685-5.918A1.88,1.88,0,0,0,354.028,481.213Z" transform="translate(-346.375 -451.084)"/></g><path class="c" d="M361.623,497.524c-7.556,0-11.51-3.356-12.086-10.263a4.716,4.716,0,0,1,.112-1.331,5.849,5.849,0,0,1,5.268-3.968,2.451,2.451,0,0,1,2.6,2.483c.2,3.147,2.726,5.364,6.149,5.364a8.752,8.752,0,0,0,8.911-6.864l6.7-25.973c.49-1.9,2.756-2.766,4.654-2.766s3.717.866,3.227,2.766l-6.772,26.25C378.009,492.446,371.345,497.524,361.623,497.524Z" transform="translate(-347.482 -452.142)"/><g transform="translate(37.45 10.932)"><path class="b" d="M405.978,499.643l6.929-26.857c1.07-4.145,10.353-4.145,9.284,0l-6.929,26.857C414.05,504.341,404.766,504.341,405.978,499.643Z" transform="translate(-404.683 -468.497)"/><path class="b" d="M409.078,503.718a7.255,7.255,0,0,1-1.809-.223,4.5,4.5,0,0,1-2.542-1.583,3.628,3.628,0,0,1-.538-3.2h0l6.929-26.857a5.477,5.477,0,0,1,4.147-3.667c2.071-.575,5.017-.49,6.594,1.058a3.2,3.2,0,0,1,.838,3.2L415.769,499.3C415.04,502.126,411.971,503.718,409.078,503.718Zm-2.592-4.416a1.276,1.276,0,0,0,.142,1.192,2.227,2.227,0,0,0,1.235.706c1.853.476,5.039-.27,5.612-2.49l6.929-26.857a.837.837,0,0,0-.2-.917c-.633-.622-2.457-.977-4.3-.466-.64.179-2.164.727-2.487,1.976Z" transform="translate(-404.042 -467.859)"/></g><path class="c" d="M410.4,502.78c-1.831,0-3.585-.839-3.109-2.683l6.929-26.857c.384-1.49,2.5-2.269,4.387-2.269s3.6.779,3.217,2.269L414.891,500.1C414.416,501.94,412.228,502.78,410.4,502.78Z" transform="translate(-367.702 -458.018)"/><g transform="translate(62.035)"><path class="b" d="M483.08,458.819,461.145,492.86a9.173,9.173,0,0,1-7.5,4.421,5.019,5.019,0,0,1-5.325-4.421l-4.535-34.041a4.183,4.183,0,0,1,.069-1.769c.67-2.6,3.736-4.2,6.279-4.2,1.824,0,3.323.829,3.57,2.652l3.6,27.189,17.68-27.189a5.937,5.937,0,0,1,4.995-2.652c2.487,0,4.63,1.547,3.96,4.145A5.9,5.9,0,0,1,483.08,458.819Z" transform="translate(-442.54 -451.666)"/><path class="b" d="M453.009,497.826a6.183,6.183,0,0,1-6.5-5.444l-4.536-34.046a5.319,5.319,0,0,1,.1-2.22c.823-3.186,4.422-5.09,7.427-5.09,2.619,0,4.438,1.409,4.745,3.678l3.176,24.013,15.931-24.5a7.1,7.1,0,0,1,5.988-3.191,5.563,5.563,0,0,1,4.432,1.92,4.2,4.2,0,0,1,.675,3.706,7.15,7.15,0,0,1-1.014,2.179L461.5,492.862A10.413,10.413,0,0,1,453.009,497.826ZM449.5,453.4c-2.065,0-4.619,1.331-5.13,3.311a3.023,3.023,0,0,0-.047,1.286l4.54,34.071a3.828,3.828,0,0,0,4.15,3.393,7.99,7.99,0,0,0,6.5-3.88l21.933-34.039.014-.021a4.8,4.8,0,0,0,.691-1.457,1.841,1.841,0,0,0-.253-1.662,3.263,3.263,0,0,0-2.559-1,4.738,4.738,0,0,0-4,2.115L457.656,482.7a1.185,1.185,0,0,1-2.168-.491l-3.6-27.189C451.71,453.679,450.488,453.4,449.5,453.4Z" transform="translate(-441.9 -451.026)"/></g><path class="c" d="M454.335,496.895A4.391,4.391,0,0,1,449.654,493l-4.534-34.038a3.415,3.415,0,0,1,.047-1.462c.535-2.075,3.127-3.359,5.222-3.359.793,0,2.666.207,2.926,2.12l3.86,29.186,18.979-29.187a4.812,4.812,0,0,1,4.076-2.119c2.059,0,3.87,1.236,3.336,3.3a4.917,4.917,0,0,1-.709,1.5l-21.948,34.061A8.058,8.058,0,0,1,454.335,496.895Z" transform="translate(-380.973 -452.119)"/></g><path class="a" d="M501.6,459.155a.444.444,0,0,1-.368-.692,4.516,4.516,0,0,0,.647-1.364,1.879,1.879,0,0,0-.291-1.7,3.284,3.284,0,0,0-2.615-1.049.445.445,0,0,1,0-.89,4.163,4.163,0,0,1,3.317,1.394,2.764,2.764,0,0,1,.449,2.466,5.366,5.366,0,0,1-.772,1.638A.441.441,0,0,1,501.6,459.155Z" transform="translate(-302.022 -443.693)"/><path class="a" d="M427.732,473.445a.445.445,0,0,1-.431-.556.929.929,0,0,0-.153-.853,3.5,3.5,0,0,0-2.633-.86.445.445,0,0,1,0-.889,4.234,4.234,0,0,1,3.337,1.2,1.814,1.814,0,0,1,.311,1.62A.445.445,0,0,1,427.732,473.445Z" transform="translate(-275.918 -449.592)"/><path class="a" d="M405.493,457.179a.436.436,0,0,1-.111-.014.444.444,0,0,1-.32-.542,1.422,1.422,0,0,0-.2-1.3,3.353,3.353,0,0,0-2.594-.913.444.444,0,0,1,0-.889,4.158,4.158,0,0,1,3.3,1.258,2.31,2.31,0,0,1,.36,2.064A.445.445,0,0,1,405.493,457.179Z" transform="translate(-268.117 -443.715)"/><path class="a" d="M456.573,518.076a4.812,4.812,0,0,1-5.122-4.274.445.445,0,0,1,.881-.122,3.971,3.971,0,0,0,4.241,3.507.444.444,0,1,1,0,.889Z" transform="translate(-285.515 -464.67)"/><path class="a" d="M363.236,519.741c-3.868,0-6.879-.891-8.948-2.648a.444.444,0,1,1,.575-.677c1.9,1.616,4.721,2.436,8.373,2.436a.444.444,0,0,1,0,.889Z" transform="translate(-251.398 -465.727)"/><path class="a" d="M410.157,518.708a3.962,3.962,0,0,1-3.188-1.221,2.259,2.259,0,0,1-.352-2.018.444.444,0,1,1,.861.222,1.37,1.37,0,0,0,.194,1.251,3.212,3.212,0,0,0,2.485.876.444.444,0,1,1,0,.889Z" transform="translate(-269.766 -465.315)"/><g transform="translate(69.824 15.271)"><path class="a" d="M320.271,502.051c-2.329,0-4.917-.923-5.348-2.505-.492,1.451-2.5,2.2-4.217,2.2s-3.19-.7-2.683-2.2l10.284-30.326c1.267-3.736,8.563-3.736,7.3,0l-2.325,6.857a13.512,13.512,0,0,1,6.427-1.846c7.3,0,10.915,5.142,7.934,13.933S327.568,502.051,320.271,502.051Zm6.258-20.657c-2.944,0-6.108,2.461-7.57,6.769s.093,6.725,2.994,6.725c3.648,0,6.812-2.329,8.3-6.725S330.177,481.393,326.529,481.393Z" transform="translate(-305.022 -463.507)"/><path class="a" d="M318.705,503.383a11.133,11.133,0,0,1-5.4-1.318,8.961,8.961,0,0,1-4.165,1.01,5.8,5.8,0,0,1-4.913-2.116,4.28,4.28,0,0,1-.52-3.917l10.284-30.327c1.338-3.947,6.21-5.581,9.673-4.408a5.021,5.021,0,0,1,2.825,2.238,4.874,4.874,0,0,1,.3,4.035l-.442,1.3a13.268,13.268,0,0,1,1.794-.127c4.325,0,7.836,1.576,9.887,4.436,1.647,2.3,3.122,6.476.8,13.332C335.556,497.158,327.659,503.383,318.705,503.383Zm-2.631-6.438a5.188,5.188,0,0,0,2.631.631c6.426,0,12.164-4.678,14.619-11.918,1.2-3.528,1.19-6.4-.017-8.085-1.192-1.663-3.469-2.013-5.167-2.013a10.714,10.714,0,0,0-4.957,1.446,2.926,2.926,0,0,1-.424.205,8.515,8.515,0,0,1,2.2-.294c3.351,0,5.106,1.466,5.988,2.7.981,1.37,1.863,3.853.488,7.907-1.847,5.445-5.978,8.7-11.052,8.7a6.216,6.216,0,0,1-5.23-2.522c-1-1.4-1.907-3.93-.514-8.038,1.409-4.156,4.319-7.228,7.664-8.313a2.9,2.9,0,0,1-3.346-3.774l1.964-5.791a2.9,2.9,0,0,0-.732.209,1.25,1.25,0,0,0-.7.59l-9.708,28.626a2.465,2.465,0,0,0,.884-.326,2.9,2.9,0,0,1,5.405.065Zm8.89-14.22c-1.538,0-3.7,1.5-4.82,4.8-.6,1.761-.395,2.612-.266,2.791a.871.871,0,0,0,.51.1c2.541,0,4.513-1.688,5.552-4.754.579-1.708.407-2.5.292-2.66A1.974,1.974,0,0,0,324.964,482.726Z" transform="translate(-303.457 -461.935)"/></g><g transform="translate(0 16.86)"><path class="b" d="M227.091,493.588a21.868,21.868,0,0,1-17.541,8.439c-10.636,0-14.622-7.559-10.955-18.371,3.428-10.109,12.718-17.932,23.267-17.932,5.977,0,10.461,2.461,11.339,7.648a2.66,2.66,0,0,1-.125,1.274,6.456,6.456,0,0,1-5.442,3.736,2.2,2.2,0,0,1-2.349-1.759c-.616-2.329-2.792-3.56-5.912-3.56-5.494,0-11.221,4.7-13.218,10.592-2.116,6.242-.092,10.9,5.929,10.9a12.942,12.942,0,0,0,9.445-4.395,4.564,4.564,0,0,1,3.5-1.759c1.978,0,3.654,1.539,2.924,3.692A5.435,5.435,0,0,1,227.091,493.588Z" transform="translate(-196.403 -464.852)"/><path class="b" d="M209.085,502.428c-5.015,0-8.837-1.632-11.051-4.721-2.516-3.511-2.775-8.767-.729-14.8C201,472,210.911,464.382,221.4,464.382c6.851,0,11.3,3.052,12.2,8.374a3.541,3.541,0,0,1-.158,1.7,7.307,7.307,0,0,1-6.267,4.327,3.06,3.06,0,0,1-3.195-2.42c-.667-2.519-3.461-2.9-5.067-2.9-5.048,0-10.491,4.393-12.393,10-1.1,3.236-1.02,5.97.218,7.7.962,1.342,2.652,2.052,4.886,2.052a12.029,12.029,0,0,0,8.77-4.074,5.438,5.438,0,0,1,4.173-2.079,4.076,4.076,0,0,1,3.345,1.6,3.5,3.5,0,0,1,.4,3.241,6.249,6.249,0,0,1-.988,1.74l-.012.016A22.8,22.8,0,0,1,209.085,502.428Zm12.311-36.3c-9.75,0-18.979,7.131-22.441,17.341-1.861,5.488-1.685,10.185.5,13.226,1.873,2.614,5.2,4,9.635,4a21.09,21.09,0,0,0,16.853-8.1,4.629,4.629,0,0,0,.722-1.24,1.779,1.779,0,0,0-.17-1.666,2.371,2.371,0,0,0-1.929-.875,3.721,3.721,0,0,0-2.829,1.448,13.885,13.885,0,0,1-10.113,4.706c-2.82,0-5-.96-6.3-2.778-1.575-2.2-1.735-5.49-.452-9.272,2.162-6.376,8.2-11.184,14.042-11.184,3.585,0,6.047,1.533,6.755,4.208a1.333,1.333,0,0,0,1.507,1.11,5.624,5.624,0,0,0,4.617-3.144,1.809,1.809,0,0,0,.09-.857C230.857,467.023,224.872,466.124,221.4,466.124Zm5.23,26.994h0Z" transform="translate(-195.939 -464.382)"/></g><g transform="translate(31.611 17.344)"><path class="b" d="M246.1,498.992l10.091-29.755c.626-1.846,2.829-2.769,4.675-2.769,1.89,0,3.423.923,2.8,2.769l-10.09,29.755C252.3,502.728,244.833,502.728,246.1,498.992Z" transform="translate(-245.085 -465.597)"/><path class="b" d="M248.416,502.2a5.418,5.418,0,0,1-1.735-.269,3.074,3.074,0,0,1-1.726-1.314,2.776,2.776,0,0,1-.15-2.372h0l10.09-29.755c.783-2.308,3.4-3.36,5.5-3.36a4.007,4.007,0,0,1,3.346,1.375,2.688,2.688,0,0,1,.276,2.544L253.926,498.8C253.185,500.986,250.676,502.2,248.416,502.2Zm-1.961-3.4a1.123,1.123,0,0,0,.005.935,1.426,1.426,0,0,0,.781.542c1.534.519,4.387-.12,5.036-2.037l10.091-29.755c.209-.619.02-.883-.042-.97a2.448,2.448,0,0,0-1.931-.649c-1.546,0-3.365.748-3.85,2.178Z" transform="translate(-244.615 -465.127)"/></g><g transform="translate(45.411 25.387)"><path class="b" d="M284.552,506.059c-1.67,0-3-.879-2.461-2.461-1.534,1.8-5.481,2.813-7.591,2.813-6.768,0-8.857-3.559-6.145-11.559l4.441-13.1a4.811,4.811,0,0,1,4.632-2.9c1.8,0,3.32.967,2.664,2.9l-4.4,12.966c-.939,2.769-.627,4.571,1.878,4.571,3.472,0,6.091-1.89,7.447-5.89l3.935-11.6a4.741,4.741,0,0,1,4.559-2.945c1.846,0,3.378,1.055,2.693,3.076l-7.2,21.229A4.646,4.646,0,0,1,284.552,506.059Z" transform="translate(-266.334 -477.982)"/><path class="b" d="M274.031,506.811c-3.448,0-5.753-.876-7.044-2.679-1.52-2.12-1.5-5.4.075-10.031L271.5,481c.814-2.4,3.4-3.492,5.457-3.492a3.836,3.836,0,0,1,3.208,1.366,2.834,2.834,0,0,1,.281,2.685l-4.4,12.966c-.666,1.965-.433,2.722-.236,3a1.533,1.533,0,0,0,1.289.423c3.2,0,5.43-1.783,6.622-5.3l3.935-11.6a5.647,5.647,0,0,1,5.384-3.536,3.852,3.852,0,0,1,3.222,1.4,2.986,2.986,0,0,1,.295,2.829l-7.2,21.228a5.547,5.547,0,0,1-5.281,3.492,3.606,3.606,0,0,1-3.016-1.275,2.311,2.311,0,0,1-.191-.316A14.54,14.54,0,0,1,274.031,506.811Zm2.929-27.557a3.95,3.95,0,0,0-3.808,2.309l-4.441,13.1c-1.357,4-1.462,6.849-.309,8.457.942,1.314,2.783,1.953,5.629,1.953,1.955,0,5.625-.977,6.927-2.507a.871.871,0,0,1,1.488.844c-.164.483-.013.694.036.762a2.049,2.049,0,0,0,1.6.549,3.79,3.79,0,0,0,3.632-2.31l7.2-21.228a1.352,1.352,0,0,0-.061-1.255,2.245,2.245,0,0,0-1.807-.671,3.892,3.892,0,0,0-3.734,2.353l-3.935,11.6c-1.437,4.24-4.3,6.481-8.272,6.481a3.111,3.111,0,0,1-2.7-1.151c-.707-.986-.707-2.481,0-4.571L278.8,481a1.2,1.2,0,0,0-.047-1.111A2.245,2.245,0,0,0,276.959,479.254Z" transform="translate(-265.864 -477.512)"/></g><g transform="translate(71.852 17.311)"><path class="b" d="M320.271,502.051c-2.329,0-4.917-.923-5.348-2.505-.492,1.451-2.5,2.2-4.217,2.2s-3.19-.7-2.683-2.2l10.284-30.326c1.267-3.736,8.563-3.736,7.3,0l-2.325,6.857a13.512,13.512,0,0,1,6.427-1.846c7.3,0,10.915,5.142,7.934,13.933S327.568,502.051,320.271,502.051Zm6.258-20.657c-2.944,0-6.108,2.461-7.57,6.769s.093,6.725,2.994,6.725c3.648,0,6.812-2.329,8.3-6.725S330.177,481.393,326.529,481.393Z" transform="translate(-307.05 -465.546)"/><path class="b" d="M319.8,502.451a8.006,8.006,0,0,1-5.366-1.794,6.276,6.276,0,0,1-4.2,1.487,3.922,3.922,0,0,1-3.261-1.268,2.2,2.2,0,0,1-.246-2.081l10.284-30.327c.933-2.754,4.645-3.966,7.1-3.136a3.025,3.025,0,0,1,1.712,1.32,2.811,2.811,0,0,1,.137,2.376l-1.655,4.88a13.643,13.643,0,0,1,4.932-1.02c3.7,0,6.553,1.24,8.235,3.587,1.964,2.74,2.145,6.715.523,11.5C335.01,496.768,327.869,502.451,319.8,502.451Zm-5.347-4.247h.027a.873.873,0,0,1,.814.643c.274,1.009,2.338,1.863,4.506,1.863,7.311,0,13.8-5.22,16.543-13.3,1.433-4.226,1.333-7.657-.29-9.921-1.342-1.872-3.7-2.861-6.819-2.861a12.69,12.69,0,0,0-5.986,1.726.871.871,0,0,1-1.266-1.031l2.325-6.857a1.159,1.159,0,0,0,0-.953,1.38,1.38,0,0,0-.76-.534c-1.477-.5-4.243.151-4.886,2.046l-10.284,30.326c-.112.332-.025.454.012.506a2.444,2.444,0,0,0,1.846.542c1.4,0,3.052-.6,3.393-1.607A.871.871,0,0,1,314.452,498.2Zm7.03-2.917a4.239,4.239,0,0,1-3.578-1.674c-.725-1.012-1.356-2.91-.24-6.2,1.493-4.4,4.866-7.36,8.394-7.36,2.489,0,3.732,1.005,4.336,1.848.7.983,1.314,2.833.216,6.071C329.056,492.552,325.644,495.287,321.482,495.287Zm4.576-13.493c-2.781,0-5.492,2.483-6.745,6.178-.685,2.022-.683,3.665.007,4.627a2.566,2.566,0,0,0,2.162.947c3.43,0,6.156-2.236,7.477-6.134.681-2.009.687-3.563.018-4.5A3.38,3.38,0,0,0,326.058,481.794Z" transform="translate(-306.579 -465.076)"/></g><path class="b" d="M209.085,502.428c-5.015,0-8.837-1.632-11.051-4.721-2.516-3.511-2.775-8.767-.729-14.8C201,472,210.911,464.382,221.4,464.382c6.851,0,11.3,3.052,12.2,8.374a3.541,3.541,0,0,1-.158,1.7,7.307,7.307,0,0,1-6.267,4.327,3.06,3.06,0,0,1-3.195-2.42c-.667-2.519-3.461-2.9-5.067-2.9-5.048,0-10.491,4.393-12.393,10-1.1,3.236-1.02,5.97.218,7.7.962,1.342,2.652,2.052,4.886,2.052a12.029,12.029,0,0,0,8.77-4.074,5.438,5.438,0,0,1,4.173-2.079,4.076,4.076,0,0,1,3.345,1.6,3.5,3.5,0,0,1,.4,3.241,6.249,6.249,0,0,1-.988,1.74l-.012.016A22.8,22.8,0,0,1,209.085,502.428Zm12.311-36.3c-9.75,0-18.979,7.131-22.441,17.341-1.861,5.488-1.685,10.185.5,13.226,1.873,2.614,5.2,4,9.635,4a21.09,21.09,0,0,0,16.853-8.1,4.629,4.629,0,0,0,.722-1.24,1.779,1.779,0,0,0-.17-1.666,2.371,2.371,0,0,0-1.929-.875,3.721,3.721,0,0,0-2.829,1.448,13.885,13.885,0,0,1-10.113,4.706c-2.82,0-5-.96-6.3-2.778-1.575-2.2-1.735-5.49-.452-9.272,2.162-6.376,8.2-11.184,14.042-11.184,3.585,0,6.047,1.533,6.755,4.208a1.333,1.333,0,0,0,1.507,1.11,5.624,5.624,0,0,0,4.617-3.144,1.809,1.809,0,0,0,.09-.857C230.857,467.023,224.872,466.124,221.4,466.124Zm5.23,26.994h0Z" transform="translate(-195.939 -447.522)"/><path class="b" d="M274.031,506.811c-3.448,0-5.753-.876-7.044-2.679-1.52-2.12-1.5-5.4.075-10.031L271.5,481c.814-2.4,3.4-3.492,5.457-3.492a3.836,3.836,0,0,1,3.208,1.366,2.834,2.834,0,0,1,.281,2.685l-4.4,12.966c-.666,1.965-.433,2.722-.236,3a1.533,1.533,0,0,0,1.289.423c3.2,0,5.43-1.783,6.622-5.3l3.935-11.6a5.647,5.647,0,0,1,5.384-3.536,3.852,3.852,0,0,1,3.222,1.4,2.986,2.986,0,0,1,.295,2.829l-7.2,21.228a5.547,5.547,0,0,1-5.281,3.492,3.606,3.606,0,0,1-3.016-1.275,2.311,2.311,0,0,1-.191-.316A14.54,14.54,0,0,1,274.031,506.811Zm2.929-27.557a3.95,3.95,0,0,0-3.808,2.309l-4.441,13.1c-1.357,4-1.462,6.849-.309,8.457.942,1.314,2.783,1.953,5.629,1.953,1.955,0,5.625-.977,6.927-2.507a.871.871,0,0,1,1.488.844c-.164.483-.013.694.036.762a2.049,2.049,0,0,0,1.6.549,3.79,3.79,0,0,0,3.632-2.31l7.2-21.228a1.352,1.352,0,0,0-.061-1.255,2.245,2.245,0,0,0-1.807-.671,3.892,3.892,0,0,0-3.734,2.353l-3.935,11.6c-1.437,4.24-4.3,6.481-8.272,6.481a3.111,3.111,0,0,1-2.7-1.151c-.707-.986-.707-2.481,0-4.571L278.8,481a1.2,1.2,0,0,0-.047-1.111A2.245,2.245,0,0,0,276.959,479.254Z" transform="translate(-220.453 -452.125)"/><path class="b" d="M319.8,502.451a8.006,8.006,0,0,1-5.366-1.794,6.276,6.276,0,0,1-4.2,1.487,3.922,3.922,0,0,1-3.261-1.268,2.2,2.2,0,0,1-.246-2.081l10.284-30.327c.933-2.754,4.645-3.966,7.1-3.136a3.025,3.025,0,0,1,1.712,1.32,2.811,2.811,0,0,1,.137,2.376l-1.655,4.88a13.643,13.643,0,0,1,4.932-1.02c3.7,0,6.553,1.24,8.235,3.587,1.964,2.74,2.145,6.715.523,11.5C335.01,496.768,327.869,502.451,319.8,502.451Zm-5.347-4.247h.027a.873.873,0,0,1,.814.643c.274,1.009,2.338,1.863,4.506,1.863,7.311,0,13.8-5.22,16.543-13.3,1.433-4.226,1.333-7.657-.29-9.921-1.342-1.872-3.7-2.861-6.819-2.861a12.69,12.69,0,0,0-5.986,1.726.871.871,0,0,1-1.266-1.031l2.325-6.857a1.159,1.159,0,0,0,0-.953,1.38,1.38,0,0,0-.76-.534c-1.477-.5-4.243.151-4.886,2.046l-10.284,30.326c-.112.332-.025.454.012.506a2.444,2.444,0,0,0,1.846.542c1.4,0,3.052-.6,3.393-1.607A.871.871,0,0,1,314.452,498.2Zm7.03-2.917a4.239,4.239,0,0,1-3.578-1.674c-.725-1.012-1.356-2.91-.24-6.2,1.493-4.4,4.866-7.36,8.394-7.36,2.489,0,3.732,1.005,4.336,1.848.7.983,1.314,2.833.216,6.071C329.056,492.552,325.644,495.287,321.482,495.287Zm4.576-13.493c-2.781,0-5.492,2.483-6.745,6.178-.685,2.022-.683,3.665.007,4.627a2.566,2.566,0,0,0,2.162.947c3.43,0,6.156-2.236,7.477-6.134.681-2.009.687-3.563.018-4.5A3.38,3.38,0,0,0,326.058,481.794Z" transform="translate(-234.727 -447.765)"/><path class="c" d="M210,501.649c-4.446,0-7.792-1.388-9.674-4.015-2.189-3.054-2.367-7.766-.5-13.27,3.469-10.229,12.716-17.373,22.487-17.373,8.134,0,10.087,4.362,10.528,6.962a1.856,1.856,0,0,1-.093.873A5.68,5.68,0,0,1,228.081,478a1.384,1.384,0,0,1-1.55-1.133c-.705-2.665-3.15-4.186-6.712-4.186-5.824,0-11.841,4.794-14,11.151-1.278,3.768-1.12,7.046.445,9.229,1.294,1.8,3.459,2.759,6.263,2.759a13.84,13.84,0,0,0,10.083-4.7,3.759,3.759,0,0,1,2.859-1.455,2.422,2.422,0,0,1,1.968.895,1.826,1.826,0,0,1,.176,1.71,4.67,4.67,0,0,1-.736,1.262A21.128,21.128,0,0,1,210,501.649Z" transform="translate(-196.851 -448.436)"/><path class="c" d="M274.947,506.032c-2.863,0-4.717-.645-5.668-1.972-1.162-1.621-1.06-4.481.3-8.5l4.442-13.1a4,4,0,0,1,3.852-2.342,2.285,2.285,0,0,1,1.83.659,1.24,1.24,0,0,1,.055,1.155l-4.4,12.966c-.7,2.074-.705,3.554-.008,4.528a3.067,3.067,0,0,0,2.666,1.131c3.951,0,6.8-2.229,8.226-6.448l3.935-11.6a3.94,3.94,0,0,1,3.78-2.386,2.293,2.293,0,0,1,1.846.692,1.394,1.394,0,0,1,.067,1.3l-7.2,21.228A3.836,3.836,0,0,1,285,505.68a2.093,2.093,0,0,1-1.64-.568.805.805,0,0,1-.043-.805l-1.406-.8C280.6,505.049,276.91,506.032,274.947,506.032Z" transform="translate(-221.369 -453.039)"/><path class="c" d="M320.716,501.672c-2.189,0-4.274-.869-4.554-1.9l-.707-2.6-.866,2.553c-.347,1.026-2.021,1.639-3.438,1.639a2.484,2.484,0,0,1-1.885-.561c-.038-.053-.139-.194-.019-.549l10.284-30.326c.5-1.473,2.3-2.244,3.819-2.244a2.35,2.35,0,0,1,1.869.652c.069.1.278.388.049,1.063l-3.035,8.95,1.906-1.12a12.745,12.745,0,0,1,6.011-1.733c3.136,0,5.507,1,6.858,2.881,1.632,2.277,1.735,5.723.3,9.965C334.558,496.44,328.047,501.672,320.716,501.672Zm6.258-20.657c-3.507,0-6.862,2.944-8.349,7.327-1.11,3.272-.485,5.155.234,6.158a4.193,4.193,0,0,0,3.539,1.653c4.14,0,7.535-2.722,9.081-7.283,1.092-3.219.489-5.054-.209-6.028C330.673,482.009,329.441,481.015,326.974,481.015Z" transform="translate(-235.643 -448.679)"/><path class="a" d="M270.7,469.618a.421.421,0,0,1-.14-.024.435.435,0,0,1-.273-.552.7.7,0,0,0,.01-.62,2.125,2.125,0,0,0-1.616-.486.436.436,0,0,1,0-.871,2.854,2.854,0,0,1,2.324.85,1.492,1.492,0,0,1,.107,1.407A.435.435,0,0,1,270.7,469.618Z" transform="translate(-221.287 -448.462)"/><path class="a" d="M249.094,518.871a2.83,2.83,0,0,1-2.309-.857,1.521,1.521,0,0,1-.11-1.433.436.436,0,0,1,.825.28c-.151.445-.043.6-.007.645a2.086,2.086,0,0,0,1.6.494.436.436,0,1,1,0,.872Z" transform="translate(-213.683 -465.718)"/><path class="a" d="M309.4,482.31a.437.437,0,0,1-.412-.575,1,1,0,0,0-.008-.9,1.9,1.9,0,0,0-1.492-.51.435.435,0,1,1,0-.871,2.677,2.677,0,0,1,2.2.874,1.8,1.8,0,0,1,.125,1.692A.436.436,0,0,1,309.4,482.31Z" transform="translate(-234.892 -452.804)"/><path class="a" d="M284.6,482.134a.422.422,0,0,1-.14-.023.435.435,0,0,1-.273-.552.906.906,0,0,0,0-.761,1.9,1.9,0,0,0-1.476-.477.435.435,0,0,1,0-.871,2.665,2.665,0,0,1,2.185.841,1.647,1.647,0,0,1,.112,1.548A.435.435,0,0,1,284.6,482.134Z" transform="translate(-226.208 -452.804)"/><path class="a" d="M241.947,506.464a.436.436,0,0,1-.347-.7,4.26,4.26,0,0,0,.671-1.14,1.39,1.39,0,0,0-.118-1.315.435.435,0,0,1,.708-.507,2.241,2.241,0,0,1,.234,2.1,5.082,5.082,0,0,1-.8,1.385A.435.435,0,0,1,241.947,506.464Z" transform="translate(-211.916 -460.928)"/><path class="a" d="M271.525,517.011a.425.425,0,0,1-.12-.018,4.854,4.854,0,0,1-2.716-1.763,5.715,5.715,0,0,1-.879-3.549.443.443,0,0,1,.448-.423.436.436,0,0,1,.423.448,4.885,4.885,0,0,0,.716,3.015,3.96,3.96,0,0,0,2.247,1.434.436.436,0,0,1-.119.855Z" transform="translate(-221.134 -463.956)"/><path class="a" d="M246.959,471.641a.436.436,0,0,1-.371-.208,7.7,7.7,0,0,0-4.446-3.265.435.435,0,1,1,.26-.831,8.53,8.53,0,0,1,4.928,3.641.434.434,0,0,1-.144.6A.428.428,0,0,1,246.959,471.641Z" transform="translate(-212.03 -448.551)"/><path class="a" d="M351.483,486.3a.436.436,0,0,1-.43-.373A6.611,6.611,0,0,0,349.928,483a5.927,5.927,0,0,0-2.606-2.013.435.435,0,1,1,.333-.8,6.775,6.775,0,0,1,2.981,2.309,7.462,7.462,0,0,1,1.279,3.3.436.436,0,0,1-.368.494A.423.423,0,0,1,351.483,486.3Z" transform="translate(-248.916 -453.05)"/><path class="a" d="M332.678,469.6a.423.423,0,0,1-.14-.024.435.435,0,0,1-.272-.552.756.756,0,0,0,.009-.668,1.966,1.966,0,0,0-1.515-.471.436.436,0,0,1,0-.871,2.721,2.721,0,0,1,2.223.834,1.545,1.545,0,0,1,.107,1.456A.434.434,0,0,1,332.678,469.6Z" transform="translate(-243.052 -448.444)"/><path class="a" d="M562.982,458.472a.42.42,0,0,1-.1-.012.443.443,0,0,1-.331-.534,2.539,2.539,0,0,0-.277-2.14,2.052,2.052,0,0,0-1.695-.623.445.445,0,1,1,0-.889,2.88,2.88,0,0,1,2.391.959,3.4,3.4,0,0,1,.446,2.9A.444.444,0,0,1,562.982,458.472Z" transform="translate(-323.618 -443.978)"/><path class="a" d="M552.779,483.83a.426.426,0,0,1-.1-.012.444.444,0,0,1-.331-.534,2.589,2.589,0,0,0-.268-2.118,1.941,1.941,0,0,0-1.6-.586.444.444,0,0,1,0-.889,2.764,2.764,0,0,1,2.3.923,3.422,3.422,0,0,1,.437,2.874A.444.444,0,0,1,552.779,483.83Z" transform="translate(-320.078 -452.889)"/><path class="a" d="M550.852,510.945a.445.445,0,0,1-.444-.445,2.022,2.022,0,0,0-.437-1.365,2.061,2.061,0,0,0-1.568-.522.445.445,0,1,1,0-.889A2.574,2.574,0,0,1,551.3,510.5.445.445,0,0,1,550.852,510.945Z" transform="translate(-319.35 -462.717)"/><path class="a" d="M504.668,517.115c-1.859,0-3.137-.423-3.8-1.255s-.779-2.163-.356-3.961a.444.444,0,0,1,.865.2c-.351,1.5-.287,2.607.187,3.2s1.549.919,3.1.919a.445.445,0,1,1,0,.889Z" transform="translate(-302.631 -464.06)"/></g><g transform="translate(438.18 463.19)"><path class="d" d="M587.562,483.127c-1.184,4.1-4.219,7.641-10.338,8.326a.81.81,0,0,1-.184.014,1.035,1.035,0,0,1-1.022-1.331,1.394,1.394,0,0,1,1.192-1.18c4.421-.6,6.791-2.633,7.811-5.707h-4.58a14.638,14.638,0,0,1-3.115,2.3,1.615,1.615,0,0,1-.762.219,1.128,1.128,0,0,1-1.09-1.344,1.213,1.213,0,0,1,.635-.851,12.707,12.707,0,0,0,4.161-3.689,1.357,1.357,0,0,1,1.149-.6c.668,0,1.277.425,1.168,1.056a1.228,1.228,0,0,1-.129.343,2.159,2.159,0,0,0-.177.3h3.885c1.155,0,1.693.59,1.5,1.728C587.637,482.852,587.6,482.975,587.562,483.127Z" transform="translate(-572.513 -478.627)"/><path class="d" d="M607.616,485.189c-.925,3.252-3.524,6.037-8.724,6.641a.775.775,0,0,1-.183.014,1.071,1.071,0,0,1-1.016-1.373,1.276,1.276,0,0,1,1.1-1.1c2.981-.411,4.956-1.6,5.815-3.032a3.182,3.182,0,0,0,.28-.576h-7.671c-.655,0-.886-.59-.786-1.166a1.29,1.29,0,0,1,1.187-1.152h8.813a1.316,1.316,0,0,1,1.229,1.592C607.648,485.081,607.625,485.135,607.616,485.189Zm-1.486-2.839h-7.323a.894.894,0,0,1-.857-1.166,1.3,1.3,0,0,1,1.255-1.138h7.323a.875.875,0,0,1,.861,1.138A1.33,1.33,0,0,1,606.13,482.35Z" transform="translate(-579.857 -478.893)"/><path class="d" d="M627.518,482.332a12.012,12.012,0,0,1-10.656,8.958,1.127,1.127,0,0,1-.212.014,1.037,1.037,0,0,1-1.024-1.317,1.346,1.346,0,0,1,1.141-1.124c4.238-.673,7.043-2.881,8.17-6.256h-8.089c-.7,0-.942-.59-.842-1.166a1.332,1.332,0,0,1,1.249-1.179h8.995a1.383,1.383,0,0,1,1.331,1.8A1.743,1.743,0,0,1,627.518,482.332Zm.692-.864a.546.546,0,0,1-.514-.329,4.953,4.953,0,0,0-.615-.947.506.506,0,0,1-.122-.425.871.871,0,0,1,.834-.631.6.6,0,0,1,.479.206,5.624,5.624,0,0,1,.736,1.057.545.545,0,0,1,.073.383A.936.936,0,0,1,628.211,481.467Zm1.353-1.056a.5.5,0,0,1-.454-.275,6.24,6.24,0,0,0-.579-.837.482.482,0,0,1-.135-.425.827.827,0,0,1,.774-.6.506.506,0,0,1,.378.151,6.67,6.67,0,0,1,.738.96.551.551,0,0,1,.073.384A.864.864,0,0,1,629.563,480.411Z" transform="translate(-586.588 -478.271)"/><path class="d" d="M583.389,506.185c-1.741,4.02-5.219,6.983-11.027,7.875a2.429,2.429,0,0,1-.3.027,1.064,1.064,0,0,1-1.121-1.318,1.317,1.317,0,0,1,1.111-1.11c4.847-.741,7.4-2.758,9.109-6.215a1.229,1.229,0,0,1,1.123-.781,1.137,1.137,0,0,1,1.175,1.261A.953.953,0,0,1,583.389,506.185Zm-8.227,2.483a.975.975,0,0,1-.568-.179,12.535,12.535,0,0,0-2.568-1.331.876.876,0,0,1-.586-1.042,1.492,1.492,0,0,1,1.4-1.235,1.319,1.319,0,0,1,.394.055,10.69,10.69,0,0,1,3.089,1.536.877.877,0,0,1,.338.865A1.7,1.7,0,0,1,575.162,508.668Zm2.383-2.826a1.073,1.073,0,0,1-.6-.206,16.93,16.93,0,0,0-2.5-1.316.922.922,0,0,1-.652-1.057,1.517,1.517,0,0,1,1.432-1.193,1.219,1.219,0,0,1,.434.068,15.682,15.682,0,0,1,3.038,1.509.822.822,0,0,1,.338.864A1.685,1.685,0,0,1,577.545,505.842Zm4.441-1.29a.59.59,0,0,1-.562-.37,5.885,5.885,0,0,0-.681-1.056.557.557,0,0,1-.128-.466.965.965,0,0,1,.917-.714.7.7,0,0,1,.531.233,7.1,7.1,0,0,1,.825,1.179.656.656,0,0,1,.066.425A1.047,1.047,0,0,1,581.986,504.552Zm1.812-.809a.554.554,0,0,1-.5-.315,5.707,5.707,0,0,0-.647-.933.535.535,0,0,1-.155-.466.921.921,0,0,1,.868-.673.529.529,0,0,1,.416.165,7.143,7.143,0,0,1,.818,1.07.559.559,0,0,1,.082.412A.973.973,0,0,1,583.8,503.743Z" transform="translate(-570.924 -486.364)"/><path class="d" d="M603.085,508.882a8.039,8.039,0,0,1-3.145,2.963,1,1,0,0,1-.513.151.91.91,0,0,1-.808-1.125,1.022,1.022,0,0,1,.546-.741,6.8,6.8,0,0,0,1.683-1.276l-2.774.179-.175,5.35c-.007.041,0,.1-.009.137a1.312,1.312,0,0,1-1.332.933.836.836,0,0,1-.939-.85l.185-5.406-1.957.124h-.069c-.571,0-.787-.521-.7-1.043a1.113,1.113,0,0,1,1-.974l1.8-.11.021-.768c.007-.041,0-.082.008-.123a1.337,1.337,0,0,1,1.372-.933c.487,0,.893.233.879.713l-.029.974,3.728-.219h.125a1.208,1.208,0,0,1,1.289,1.481A1.74,1.74,0,0,1,603.085,508.882Z" transform="translate(-578.685 -487.771)"/><path class="d" d="M622.774,504.481a20.626,20.626,0,0,1-3.524,2.346l-1.088,6.283c-.252,1.454-2.841,1.454-2.589,0l.855-4.939a32.589,32.589,0,0,1-4.063,1.358,1.777,1.777,0,0,1-.359.055,1.09,1.09,0,0,1-.984-1.386,1.367,1.367,0,0,1,1.039-1.1,22.655,22.655,0,0,0,8.963-4.4,1.649,1.649,0,0,1,1.031-.412,1.211,1.211,0,0,1,1.206,1.4A1.4,1.4,0,0,1,622.774,504.481Z" transform="translate(-584.973 -486.69)"/><path class="d" d="M643.322,504.995a12.01,12.01,0,0,1-10.656,8.957,1.054,1.054,0,0,1-.211.014,1.038,1.038,0,0,1-1.025-1.317,1.348,1.348,0,0,1,1.141-1.125c4.238-.672,7.042-2.881,8.17-6.256h-8.089c-.7,0-.942-.59-.843-1.166a1.332,1.332,0,0,1,1.249-1.179h8.994a1.383,1.383,0,0,1,1.331,1.8A1.768,1.768,0,0,1,643.322,504.995Zm.693-.864a.547.547,0,0,1-.514-.329,4.928,4.928,0,0,0-.615-.947.506.506,0,0,1-.122-.425.871.871,0,0,1,.833-.631.6.6,0,0,1,.48.206,5.65,5.65,0,0,1,.735,1.057.548.548,0,0,1,.074.383A.939.939,0,0,1,644.015,504.13Zm1.353-1.056a.5.5,0,0,1-.453-.275,6.3,6.3,0,0,0-.58-.837.482.482,0,0,1-.135-.425.826.826,0,0,1,.773-.6.508.508,0,0,1,.378.151,6.633,6.633,0,0,1,.738.96.548.548,0,0,1,.073.385A.861.861,0,0,1,645.367,503.074Z" transform="translate(-592.128 -486.216)"/><path class="e" d="M587.562,483.127c-1.184,4.1-4.219,7.641-10.338,8.326a.81.81,0,0,1-.184.014,1.035,1.035,0,0,1-1.022-1.331,1.394,1.394,0,0,1,1.192-1.18c4.421-.6,6.791-2.633,7.811-5.707h-4.58a14.638,14.638,0,0,1-3.115,2.3,1.615,1.615,0,0,1-.762.219,1.128,1.128,0,0,1-1.09-1.344,1.213,1.213,0,0,1,.635-.851,12.707,12.707,0,0,0,4.161-3.689,1.357,1.357,0,0,1,1.149-.6c.668,0,1.277.425,1.168,1.056a1.228,1.228,0,0,1-.129.343,2.159,2.159,0,0,0-.177.3h3.885c1.155,0,1.693.59,1.5,1.728C587.637,482.852,587.6,482.975,587.562,483.127Z" transform="translate(-572.513 -478.627)"/><path class="e" d="M607.616,485.189c-.925,3.252-3.524,6.037-8.724,6.641a.775.775,0,0,1-.183.014,1.071,1.071,0,0,1-1.016-1.373,1.276,1.276,0,0,1,1.1-1.1c2.981-.411,4.956-1.6,5.815-3.032a3.182,3.182,0,0,0,.28-.576h-7.671c-.655,0-.886-.59-.786-1.166a1.29,1.29,0,0,1,1.187-1.152h8.813a1.316,1.316,0,0,1,1.229,1.592C607.648,485.081,607.625,485.135,607.616,485.189Zm-1.486-2.839h-7.323a.894.894,0,0,1-.857-1.166,1.3,1.3,0,0,1,1.255-1.138h7.323a.875.875,0,0,1,.861,1.138A1.33,1.33,0,0,1,606.13,482.35Z" transform="translate(-579.857 -478.893)"/><path class="e" d="M627.518,482.332a12.012,12.012,0,0,1-10.656,8.958,1.127,1.127,0,0,1-.212.014,1.037,1.037,0,0,1-1.024-1.317,1.346,1.346,0,0,1,1.141-1.124c4.238-.673,7.043-2.881,8.17-6.256h-8.089c-.7,0-.942-.59-.842-1.166a1.332,1.332,0,0,1,1.249-1.179h8.995a1.383,1.383,0,0,1,1.331,1.8A1.743,1.743,0,0,1,627.518,482.332Zm.692-.864a.546.546,0,0,1-.514-.329,4.953,4.953,0,0,0-.615-.947.506.506,0,0,1-.122-.425.871.871,0,0,1,.834-.631.6.6,0,0,1,.479.206,5.624,5.624,0,0,1,.736,1.057.545.545,0,0,1,.073.383A.936.936,0,0,1,628.211,481.467Zm1.353-1.056a.5.5,0,0,1-.454-.275,6.24,6.24,0,0,0-.579-.837.482.482,0,0,1-.135-.425.827.827,0,0,1,.774-.6.506.506,0,0,1,.378.151,6.67,6.67,0,0,1,.738.96.551.551,0,0,1,.073.384A.864.864,0,0,1,629.563,480.411Z" transform="translate(-586.588 -478.271)"/><path class="e" d="M583.389,506.185c-1.741,4.02-5.219,6.983-11.027,7.875a2.429,2.429,0,0,1-.3.027,1.064,1.064,0,0,1-1.121-1.318,1.317,1.317,0,0,1,1.111-1.11c4.847-.741,7.4-2.758,9.109-6.215a1.229,1.229,0,0,1,1.123-.781,1.137,1.137,0,0,1,1.175,1.261A.953.953,0,0,1,583.389,506.185Zm-8.227,2.483a.975.975,0,0,1-.568-.179,12.535,12.535,0,0,0-2.568-1.331.876.876,0,0,1-.586-1.042,1.492,1.492,0,0,1,1.4-1.235,1.319,1.319,0,0,1,.394.055,10.69,10.69,0,0,1,3.089,1.536.877.877,0,0,1,.338.865A1.7,1.7,0,0,1,575.162,508.668Zm2.383-2.826a1.073,1.073,0,0,1-.6-.206,16.93,16.93,0,0,0-2.5-1.316.922.922,0,0,1-.652-1.057,1.517,1.517,0,0,1,1.432-1.193,1.219,1.219,0,0,1,.434.068,15.682,15.682,0,0,1,3.038,1.509.822.822,0,0,1,.338.864A1.685,1.685,0,0,1,577.545,505.842Zm4.441-1.29a.59.59,0,0,1-.562-.37,5.885,5.885,0,0,0-.681-1.056.557.557,0,0,1-.128-.466.965.965,0,0,1,.917-.714.7.7,0,0,1,.531.233,7.1,7.1,0,0,1,.825,1.179.656.656,0,0,1,.066.425A1.047,1.047,0,0,1,581.986,504.552Zm1.812-.809a.554.554,0,0,1-.5-.315,5.707,5.707,0,0,0-.647-.933.535.535,0,0,1-.155-.466.921.921,0,0,1,.868-.673.529.529,0,0,1,.416.165,7.143,7.143,0,0,1,.818,1.07.559.559,0,0,1,.082.412A.973.973,0,0,1,583.8,503.743Z" transform="translate(-570.924 -486.364)"/><path class="e" d="M603.085,508.882a8.039,8.039,0,0,1-3.145,2.963,1,1,0,0,1-.513.151.91.91,0,0,1-.808-1.125,1.022,1.022,0,0,1,.546-.741,6.8,6.8,0,0,0,1.683-1.276l-2.774.179-.175,5.35c-.007.041,0,.1-.009.137a1.312,1.312,0,0,1-1.332.933.836.836,0,0,1-.939-.85l.185-5.406-1.957.124h-.069c-.571,0-.787-.521-.7-1.043a1.113,1.113,0,0,1,1-.974l1.8-.11.021-.768c.007-.041,0-.082.008-.123a1.337,1.337,0,0,1,1.372-.933c.487,0,.893.233.879.713l-.029.974,3.728-.219h.125a1.208,1.208,0,0,1,1.289,1.481A1.74,1.74,0,0,1,603.085,508.882Z" transform="translate(-578.685 -487.771)"/><path class="e" d="M622.774,504.481a20.626,20.626,0,0,1-3.524,2.346l-1.088,6.283c-.252,1.454-2.841,1.454-2.589,0l.855-4.939a32.589,32.589,0,0,1-4.063,1.358,1.777,1.777,0,0,1-.359.055,1.09,1.09,0,0,1-.984-1.386,1.367,1.367,0,0,1,1.039-1.1,22.655,22.655,0,0,0,8.963-4.4,1.649,1.649,0,0,1,1.031-.412,1.211,1.211,0,0,1,1.206,1.4A1.4,1.4,0,0,1,622.774,504.481Z" transform="translate(-584.973 -486.69)"/><path class="e" d="M643.322,504.995a12.01,12.01,0,0,1-10.656,8.957,1.054,1.054,0,0,1-.211.014,1.038,1.038,0,0,1-1.025-1.317,1.348,1.348,0,0,1,1.141-1.125c4.238-.672,7.042-2.881,8.17-6.256h-8.089c-.7,0-.942-.59-.843-1.166a1.332,1.332,0,0,1,1.249-1.179h8.994a1.383,1.383,0,0,1,1.331,1.8A1.768,1.768,0,0,1,643.322,504.995Zm.693-.864a.547.547,0,0,1-.514-.329,4.928,4.928,0,0,0-.615-.947.506.506,0,0,1-.122-.425.871.871,0,0,1,.833-.631.6.6,0,0,1,.48.206,5.65,5.65,0,0,1,.735,1.057.548.548,0,0,1,.074.383A.939.939,0,0,1,644.015,504.13Zm1.353-1.056a.5.5,0,0,1-.453-.275,6.3,6.3,0,0,0-.58-.837.482.482,0,0,1-.135-.425.826.826,0,0,1,.773-.6.508.508,0,0,1,.378.151,6.633,6.633,0,0,1,.738.96.548.548,0,0,1,.073.385A.861.861,0,0,1,645.367,503.074Z" transform="translate(-592.128 -486.216)"/><path class="b" d="M587.562,483.127c-1.184,4.1-4.219,7.641-10.338,8.326a.81.81,0,0,1-.184.014,1.035,1.035,0,0,1-1.022-1.331,1.394,1.394,0,0,1,1.192-1.18c4.421-.6,6.791-2.633,7.811-5.707h-4.58a14.638,14.638,0,0,1-3.115,2.3,1.615,1.615,0,0,1-.762.219,1.128,1.128,0,0,1-1.09-1.344,1.213,1.213,0,0,1,.635-.851,12.707,12.707,0,0,0,4.161-3.689,1.357,1.357,0,0,1,1.149-.6c.668,0,1.277.425,1.168,1.056a1.228,1.228,0,0,1-.129.343,2.159,2.159,0,0,0-.177.3h3.885c1.155,0,1.693.59,1.5,1.728C587.637,482.852,587.6,482.975,587.562,483.127Z" transform="translate(-572.513 -478.627)"/><path class="b" d="M607.616,485.189c-.925,3.252-3.524,6.037-8.724,6.641a.775.775,0,0,1-.183.014,1.071,1.071,0,0,1-1.016-1.373,1.276,1.276,0,0,1,1.1-1.1c2.981-.411,4.956-1.6,5.815-3.032a3.182,3.182,0,0,0,.28-.576h-7.671c-.655,0-.886-.59-.786-1.166a1.29,1.29,0,0,1,1.187-1.152h8.813a1.316,1.316,0,0,1,1.229,1.592C607.648,485.081,607.625,485.135,607.616,485.189Zm-1.486-2.839h-7.323a.894.894,0,0,1-.857-1.166,1.3,1.3,0,0,1,1.255-1.138h7.323a.875.875,0,0,1,.861,1.138A1.33,1.33,0,0,1,606.13,482.35Z" transform="translate(-579.857 -478.893)"/><path class="b" d="M627.518,482.332a12.012,12.012,0,0,1-10.656,8.958,1.127,1.127,0,0,1-.212.014,1.037,1.037,0,0,1-1.024-1.317,1.346,1.346,0,0,1,1.141-1.124c4.238-.673,7.043-2.881,8.17-6.256h-8.089c-.7,0-.942-.59-.842-1.166a1.332,1.332,0,0,1,1.249-1.179h8.995a1.383,1.383,0,0,1,1.331,1.8A1.743,1.743,0,0,1,627.518,482.332Zm.692-.864a.546.546,0,0,1-.514-.329,4.953,4.953,0,0,0-.615-.947.506.506,0,0,1-.122-.425.871.871,0,0,1,.834-.631.6.6,0,0,1,.479.206,5.624,5.624,0,0,1,.736,1.057.545.545,0,0,1,.073.383A.936.936,0,0,1,628.211,481.467Zm1.353-1.056a.5.5,0,0,1-.454-.275,6.24,6.24,0,0,0-.579-.837.482.482,0,0,1-.135-.425.827.827,0,0,1,.774-.6.506.506,0,0,1,.378.151,6.67,6.67,0,0,1,.738.96.551.551,0,0,1,.073.384A.864.864,0,0,1,629.563,480.411Z" transform="translate(-586.588 -478.271)"/><path class="b" d="M583.389,506.185c-1.741,4.02-5.219,6.983-11.027,7.875a2.429,2.429,0,0,1-.3.027,1.064,1.064,0,0,1-1.121-1.318,1.317,1.317,0,0,1,1.111-1.11c4.847-.741,7.4-2.758,9.109-6.215a1.229,1.229,0,0,1,1.123-.781,1.137,1.137,0,0,1,1.175,1.261A.953.953,0,0,1,583.389,506.185Zm-8.227,2.483a.975.975,0,0,1-.568-.179,12.535,12.535,0,0,0-2.568-1.331.876.876,0,0,1-.586-1.042,1.492,1.492,0,0,1,1.4-1.235,1.319,1.319,0,0,1,.394.055,10.69,10.69,0,0,1,3.089,1.536.877.877,0,0,1,.338.865A1.7,1.7,0,0,1,575.162,508.668Zm2.383-2.826a1.073,1.073,0,0,1-.6-.206,16.93,16.93,0,0,0-2.5-1.316.922.922,0,0,1-.652-1.057,1.517,1.517,0,0,1,1.432-1.193,1.219,1.219,0,0,1,.434.068,15.682,15.682,0,0,1,3.038,1.509.822.822,0,0,1,.338.864A1.685,1.685,0,0,1,577.545,505.842Zm4.441-1.29a.59.59,0,0,1-.562-.37,5.885,5.885,0,0,0-.681-1.056.557.557,0,0,1-.128-.466.965.965,0,0,1,.917-.714.7.7,0,0,1,.531.233,7.1,7.1,0,0,1,.825,1.179.656.656,0,0,1,.066.425A1.047,1.047,0,0,1,581.986,504.552Zm1.812-.809a.554.554,0,0,1-.5-.315,5.707,5.707,0,0,0-.647-.933.535.535,0,0,1-.155-.466.921.921,0,0,1,.868-.673.529.529,0,0,1,.416.165,7.143,7.143,0,0,1,.818,1.07.559.559,0,0,1,.082.412A.973.973,0,0,1,583.8,503.743Z" transform="translate(-570.924 -486.364)"/><path class="b" d="M603.085,508.882a8.039,8.039,0,0,1-3.145,2.963,1,1,0,0,1-.513.151.91.91,0,0,1-.808-1.125,1.022,1.022,0,0,1,.546-.741,6.8,6.8,0,0,0,1.683-1.276l-2.774.179-.175,5.35c-.007.041,0,.1-.009.137a1.312,1.312,0,0,1-1.332.933.836.836,0,0,1-.939-.85l.185-5.406-1.957.124h-.069c-.571,0-.787-.521-.7-1.043a1.113,1.113,0,0,1,1-.974l1.8-.11.021-.768c.007-.041,0-.082.008-.123a1.337,1.337,0,0,1,1.372-.933c.487,0,.893.233.879.713l-.029.974,3.728-.219h.125a1.208,1.208,0,0,1,1.289,1.481A1.74,1.74,0,0,1,603.085,508.882Z" transform="translate(-578.685 -487.771)"/><path class="b" d="M622.774,504.481a20.626,20.626,0,0,1-3.524,2.346l-1.088,6.283c-.252,1.454-2.841,1.454-2.589,0l.855-4.939a32.589,32.589,0,0,1-4.063,1.358,1.777,1.777,0,0,1-.359.055,1.09,1.09,0,0,1-.984-1.386,1.367,1.367,0,0,1,1.039-1.1,22.655,22.655,0,0,0,8.963-4.4,1.649,1.649,0,0,1,1.031-.412,1.211,1.211,0,0,1,1.206,1.4A1.4,1.4,0,0,1,622.774,504.481Z" transform="translate(-584.973 -486.69)"/><path class="b" d="M643.322,504.995a12.01,12.01,0,0,1-10.656,8.957,1.054,1.054,0,0,1-.211.014,1.038,1.038,0,0,1-1.025-1.317,1.348,1.348,0,0,1,1.141-1.125c4.238-.672,7.042-2.881,8.17-6.256h-8.089c-.7,0-.942-.59-.843-1.166a1.332,1.332,0,0,1,1.249-1.179h8.994a1.383,1.383,0,0,1,1.331,1.8A1.768,1.768,0,0,1,643.322,504.995Zm.693-.864a.547.547,0,0,1-.514-.329,4.928,4.928,0,0,0-.615-.947.506.506,0,0,1-.122-.425.871.871,0,0,1,.833-.631.6.6,0,0,1,.48.206,5.65,5.65,0,0,1,.735,1.057.548.548,0,0,1,.074.383A.939.939,0,0,1,644.015,504.13Zm1.353-1.056a.5.5,0,0,1-.453-.275,6.3,6.3,0,0,0-.58-.837.482.482,0,0,1-.135-.425.826.826,0,0,1,.773-.6.508.508,0,0,1,.378.151,6.633,6.633,0,0,1,.738.96.548.548,0,0,1,.073.385A.861.861,0,0,1,645.367,503.074Z" transform="translate(-592.128 -486.216)"/></g><g transform="translate(293.788 505.507)"><path class="b" d="M357.58,553.366a.836.836,0,0,1-.364-.1,7.619,7.619,0,0,1-3.565-3.621,8.151,8.151,0,0,1-3.765,3.621.8.8,0,0,1-.364.088,1.106,1.106,0,0,1-.938-1.148.814.814,0,0,1,.442-.762,6.193,6.193,0,0,0,3.389-3.941h-2.992c-.927,0-.927-1.833,0-1.833h3.146v-1.546c0-.916,1.954-.916,1.954,0v1.546h3.146c.927,0,.927,1.833,0,1.833h-3a6.634,6.634,0,0,0,3.411,3.941.824.824,0,0,1,.431.762C358.508,552.76,358.11,553.366,357.58,553.366Z" transform="translate(-348.584 -543.435)"/><path class="b" d="M374.508,553.377a.76.76,0,0,1-.353-.1,7.828,7.828,0,0,1-3.51-3.7,7.975,7.975,0,0,1-3.8,3.731.722.722,0,0,1-.3.067c-.519,0-.983-.64-.983-1.214a.777.777,0,0,1,.464-.74,5.806,5.806,0,0,0,3.488-5.1v-2.175c0-.95,2.031-.95,2.031,0v2.175a6.226,6.226,0,0,0,3.532,5.078.767.767,0,0,1,.442.729C375.524,552.713,375.049,553.377,374.508,553.377Z" transform="translate(-354.538 -543.433)"/><path class="b" d="M388.4,553.623c-.044,0-.088.01-.122.01a.919.919,0,0,1-.949-.971.875.875,0,0,1,.74-.916,2.754,2.754,0,0,0,2.561-2.628,2.494,2.494,0,0,0-2.363-2.661,21.749,21.749,0,0,1-1.457,4.781,2.848,2.848,0,0,1-2.451,1.8c-.927,0-1.81-.662-2.1-2.174a5.368,5.368,0,0,1-.1-1.016,5.093,5.093,0,0,1,4.956-5.1c.166-.011.331-.011.5-.011,2.616,0,4.824,1.336,4.868,4.25v.077A4.412,4.412,0,0,1,388.4,553.623Zm-4.449-3.841a3.79,3.79,0,0,0,.055.618c.077.4.275.6.486.6s.441-.188.618-.53a18.222,18.222,0,0,0,1.3-3.93A3.3,3.3,0,0,0,383.947,549.781Z" transform="translate(-360.355 -543.889)"/><path class="b" d="M407.606,547.48v.651c0,1.987-.573,4.315-4.161,5.144a1.64,1.64,0,0,1-.309.033,1.029,1.029,0,0,1-1.037-1.05.814.814,0,0,1,.651-.838c2.5-.563,2.915-1.821,2.915-3.289v-.651h-2.594v1.976c0,1.082-1.931,1.082-1.931,0V547.48h-1.17c-1.027,0-1.027-1.9,0-1.9h1.17v-1.236c0-1.093,1.931-1.093,1.931,0v1.236h2.594v-1.236c0-1.071,1.942-1.071,1.942,0v1.236h1.225c1.038,0,1.038,1.9,0,1.9Z" transform="translate(-366.328 -543.464)"/><path class="b" d="M425.37,551.475h-6.976c-1.115,0-1.115-2.031,0-2.031h6.976a.918.918,0,0,1,.851,1.027A.9.9,0,0,1,425.37,551.475Z" transform="translate(-372.765 -545.539)"/><path class="b" d="M443.3,546.535c-.376,3.3-2.3,6.149-7.055,6.7a.592.592,0,0,1-.143.012,1.006,1.006,0,0,1-.994-1.072.9.9,0,0,1,.783-.949c3.422-.485,5.023-2.119,5.409-4.592h-3.631a9.076,9.076,0,0,1-2.153,1.855,1.117,1.117,0,0,1-.575.176,1.106,1.106,0,0,1-1.048-1.082.789.789,0,0,1,.386-.685,7.881,7.881,0,0,0,2.793-2.969.88.88,0,0,1,.827-.486c.53,0,1.071.342,1.071.85a.891.891,0,0,1-.055.276,1.383,1.383,0,0,0-.1.242h3.08a1.263,1.263,0,0,1,1.425,1.392C443.318,546.314,443.306,546.413,443.3,546.535Z" transform="translate(-378.491 -543.436)"/><path class="b" d="M451.887,553.162a1.09,1.09,0,0,1-.618.21,1.167,1.167,0,0,1-1.093-1.148.844.844,0,0,1,.386-.718,3.79,3.79,0,0,0,1.579-3.465v-3.422c0-1.137,2.02-1.137,2.02,0v3.422C454.161,550.27,453.565,551.959,451.887,553.162Zm8.754-4.039a6.665,6.665,0,0,1-4.008,4.007,1.817,1.817,0,0,1-.607.11,1.142,1.142,0,0,1-1.17-1.27v-7.385c0-1.17,2-1.17,2,0v6.071a4.461,4.461,0,0,0,2-2.351.875.875,0,0,1,.816-.608,1.067,1.067,0,0,1,1.038,1.049A1.179,1.179,0,0,1,460.641,549.123Z" transform="translate(-384.2 -543.528)"/><path class="b" d="M469.637,548.29a.513.513,0,0,1-.3-.088c-.5-.3-1.016-.607-1.413-.794a.618.618,0,0,1-.342-.586.95.95,0,0,1,.806-.96.593.593,0,0,1,.287.077c.431.221.894.508,1.423.827a.657.657,0,0,1,.31.574C470.41,547.793,470.046,548.29,469.637,548.29Zm.96,1.435a23.165,23.165,0,0,1-1.291,3.246.679.679,0,0,1-.629.409,1.022,1.022,0,0,1-.983-.983,1.009,1.009,0,0,1,.144-.5,16.27,16.27,0,0,0,1.214-2.782.6.6,0,0,1,.607-.453.98.98,0,0,1,.972.861A.626.626,0,0,1,470.6,549.725Zm-.75-3.776a.64.64,0,0,1-.375-.132c-.486-.331-.95-.629-1.358-.883a.6.6,0,0,1-.3-.53.984.984,0,0,1,.872-.938.63.63,0,0,1,.331.1c.431.264.939.6,1.38.927a.66.66,0,0,1,.254.53A.933.933,0,0,1,469.847,545.949Zm6.767-.839c-.42.078-.817.133-1.2.177-.232.022-.464.044-.684.055v.673h2.219c.772,0,.772,1.677,0,1.677h-2.219v.706h1.259a.933.933,0,0,1,1.06,1.049v2.716a.937.937,0,0,1-1.06,1.06h-4.206a.925.925,0,0,1-1.037-1.06v-2.716a.922.922,0,0,1,1.037-1.049h1.16v-.706h-1.988c-.75,0-.75-1.677,0-1.677h1.988v-.563c-.5.01-1.027.01-1.59.01-.431-.01-.673-.452-.673-.883s.221-.817.673-.817a32.848,32.848,0,0,0,4.913-.309.451.451,0,0,1,.121-.011.873.873,0,0,1,.8.927A.688.688,0,0,1,476.614,545.11Zm-1.347,4.913h-2.749V551.6h2.749Z" transform="translate(-390.303 -543.436)"/><path class="b" d="M493.007,553.363c-.232,0-.508-.033-.828-.066-.343-.045-.5-.386-.5-.751,0-.419.209-.86.552-.86.022,0,.055.011.077.011a.912.912,0,0,0,.166.022c.386,0,.408-.618.408-5.421h-.419v.089c0,3.135-.21,4.945-1.214,6.7a.582.582,0,0,1-.519.288.982.982,0,0,1-.751-.375,40.45,40.45,0,0,1-4.747.32.685.685,0,0,1-.651-.751.631.631,0,0,1,.618-.684c.518-.012,1.059-.033,1.612-.067v-.275h-1.4a.63.63,0,0,1,0-1.259h1.4V550.1h-.949a.885.885,0,0,1-1.016-.994v-1.512c0-.673.331-.994,1.016-.994h.949v-.176h-1.667c-.751,0-.751-1.259,0-1.259h1.667v-.187c-.4.011-.8.011-1.2.011a.657.657,0,1,1-.022-1.314,21.9,21.9,0,0,0,3.7-.2,1.218,1.218,0,0,1,.188-.022.668.668,0,0,1,.707.662.679.679,0,0,1-.608.662,11.575,11.575,0,0,1-1.2.144v.242h1.578a.47.47,0,0,1,.265.067.588.588,0,0,1,.552-.475h.221v-.783c0-.718,1.479-.718,1.479,0v.783h.795a1,1,0,0,1,1.092,1.115v1.325C494.353,552.459,494.309,553.363,493.007,553.363Zm-6.127-5.685H486.2v.188h.684Zm0,1.137H486.2v.221h.684Zm2.2-1.137H488.3v.188h.773Zm0,1.137H488.3v.221h.773Zm1.91-2.517h-.221a.556.556,0,0,1-.353-.133.524.524,0,0,1-.464.255h-1.578v.176h1.037a.894.894,0,0,1,1.027.994V549.1a.9.9,0,0,1-1.027.994h-1.037v.188h1.413a.631.631,0,0,1,0,1.259h-1.413v.22c.441-.032.894-.077,1.3-.132a.452.452,0,0,1,.121-.011.712.712,0,0,1,.42.143c.651-1.346.773-2.936.773-5.364Z" transform="translate(-396.263 -543.431)"/><path class="f" d="M357.58,553.366a.836.836,0,0,1-.364-.1,7.619,7.619,0,0,1-3.565-3.621,8.151,8.151,0,0,1-3.765,3.621.8.8,0,0,1-.364.088,1.106,1.106,0,0,1-.938-1.148.814.814,0,0,1,.442-.762,6.193,6.193,0,0,0,3.389-3.941h-2.992c-.927,0-.927-1.833,0-1.833h3.146v-1.546c0-.916,1.954-.916,1.954,0v1.546h3.146c.927,0,.927,1.833,0,1.833h-3a6.634,6.634,0,0,0,3.411,3.941.824.824,0,0,1,.431.762C358.508,552.76,358.11,553.366,357.58,553.366Z" transform="translate(-348.584 -543.435)"/><path class="f" d="M374.508,553.377a.76.76,0,0,1-.353-.1,7.828,7.828,0,0,1-3.51-3.7,7.975,7.975,0,0,1-3.8,3.731.722.722,0,0,1-.3.067c-.519,0-.983-.64-.983-1.214a.777.777,0,0,1,.464-.74,5.806,5.806,0,0,0,3.488-5.1v-2.175c0-.95,2.031-.95,2.031,0v2.175a6.226,6.226,0,0,0,3.532,5.078.767.767,0,0,1,.442.729C375.524,552.713,375.049,553.377,374.508,553.377Z" transform="translate(-354.538 -543.433)"/><path class="f" d="M388.4,553.623c-.044,0-.088.01-.122.01a.919.919,0,0,1-.949-.971.875.875,0,0,1,.74-.916,2.754,2.754,0,0,0,2.561-2.628,2.494,2.494,0,0,0-2.363-2.661,21.749,21.749,0,0,1-1.457,4.781,2.848,2.848,0,0,1-2.451,1.8c-.927,0-1.81-.662-2.1-2.174a5.368,5.368,0,0,1-.1-1.016,5.093,5.093,0,0,1,4.956-5.1c.166-.011.331-.011.5-.011,2.616,0,4.824,1.336,4.868,4.25v.077A4.412,4.412,0,0,1,388.4,553.623Zm-4.449-3.841a3.79,3.79,0,0,0,.055.618c.077.4.275.6.486.6s.441-.188.618-.53a18.222,18.222,0,0,0,1.3-3.93A3.3,3.3,0,0,0,383.947,549.781Z" transform="translate(-360.355 -543.889)"/><path class="f" d="M407.606,547.48v.651c0,1.987-.573,4.315-4.161,5.144a1.64,1.64,0,0,1-.309.033,1.029,1.029,0,0,1-1.037-1.05.814.814,0,0,1,.651-.838c2.5-.563,2.915-1.821,2.915-3.289v-.651h-2.594v1.976c0,1.082-1.931,1.082-1.931,0V547.48h-1.17c-1.027,0-1.027-1.9,0-1.9h1.17v-1.236c0-1.093,1.931-1.093,1.931,0v1.236h2.594v-1.236c0-1.071,1.942-1.071,1.942,0v1.236h1.225c1.038,0,1.038,1.9,0,1.9Z" transform="translate(-366.328 -543.464)"/><path class="f" d="M425.37,551.475h-6.976c-1.115,0-1.115-2.031,0-2.031h6.976a.918.918,0,0,1,.851,1.027A.9.9,0,0,1,425.37,551.475Z" transform="translate(-372.765 -545.539)"/><path class="f" d="M443.3,546.535c-.376,3.3-2.3,6.149-7.055,6.7a.592.592,0,0,1-.143.012,1.006,1.006,0,0,1-.994-1.072.9.9,0,0,1,.783-.949c3.422-.485,5.023-2.119,5.409-4.592h-3.631a9.076,9.076,0,0,1-2.153,1.855,1.117,1.117,0,0,1-.575.176,1.106,1.106,0,0,1-1.048-1.082.789.789,0,0,1,.386-.685,7.881,7.881,0,0,0,2.793-2.969.88.88,0,0,1,.827-.486c.53,0,1.071.342,1.071.85a.891.891,0,0,1-.055.276,1.383,1.383,0,0,0-.1.242h3.08a1.263,1.263,0,0,1,1.425,1.392C443.318,546.314,443.306,546.413,443.3,546.535Z" transform="translate(-378.491 -543.436)"/><path class="f" d="M451.887,553.162a1.09,1.09,0,0,1-.618.21,1.167,1.167,0,0,1-1.093-1.148.844.844,0,0,1,.386-.718,3.79,3.79,0,0,0,1.579-3.465v-3.422c0-1.137,2.02-1.137,2.02,0v3.422C454.161,550.27,453.565,551.959,451.887,553.162Zm8.754-4.039a6.665,6.665,0,0,1-4.008,4.007,1.817,1.817,0,0,1-.607.11,1.142,1.142,0,0,1-1.17-1.27v-7.385c0-1.17,2-1.17,2,0v6.071a4.461,4.461,0,0,0,2-2.351.875.875,0,0,1,.816-.608,1.067,1.067,0,0,1,1.038,1.049A1.179,1.179,0,0,1,460.641,549.123Z" transform="translate(-384.2 -543.528)"/><path class="f" d="M469.637,548.29a.513.513,0,0,1-.3-.088c-.5-.3-1.016-.607-1.413-.794a.618.618,0,0,1-.342-.586.95.95,0,0,1,.806-.96.593.593,0,0,1,.287.077c.431.221.894.508,1.423.827a.657.657,0,0,1,.31.574C470.41,547.793,470.046,548.29,469.637,548.29Zm.96,1.435a23.165,23.165,0,0,1-1.291,3.246.679.679,0,0,1-.629.409,1.022,1.022,0,0,1-.983-.983,1.009,1.009,0,0,1,.144-.5,16.27,16.27,0,0,0,1.214-2.782.6.6,0,0,1,.607-.453.98.98,0,0,1,.972.861A.626.626,0,0,1,470.6,549.725Zm-.75-3.776a.64.64,0,0,1-.375-.132c-.486-.331-.95-.629-1.358-.883a.6.6,0,0,1-.3-.53.984.984,0,0,1,.872-.938.63.63,0,0,1,.331.1c.431.264.939.6,1.38.927a.66.66,0,0,1,.254.53A.933.933,0,0,1,469.847,545.949Zm6.767-.839c-.42.078-.817.133-1.2.177-.232.022-.464.044-.684.055v.673h2.219c.772,0,.772,1.677,0,1.677h-2.219v.706h1.259a.933.933,0,0,1,1.06,1.049v2.716a.937.937,0,0,1-1.06,1.06h-4.206a.925.925,0,0,1-1.037-1.06v-2.716a.922.922,0,0,1,1.037-1.049h1.16v-.706h-1.988c-.75,0-.75-1.677,0-1.677h1.988v-.563c-.5.01-1.027.01-1.59.01-.431-.01-.673-.452-.673-.883s.221-.817.673-.817a32.848,32.848,0,0,0,4.913-.309.451.451,0,0,1,.121-.011.873.873,0,0,1,.8.927A.688.688,0,0,1,476.614,545.11Zm-1.347,4.913h-2.749V551.6h2.749Z" transform="translate(-390.303 -543.436)"/><path class="f" d="M493.007,553.363c-.232,0-.508-.033-.828-.066-.343-.045-.5-.386-.5-.751,0-.419.209-.86.552-.86.022,0,.055.011.077.011a.912.912,0,0,0,.166.022c.386,0,.408-.618.408-5.421h-.419v.089c0,3.135-.21,4.945-1.214,6.7a.582.582,0,0,1-.519.288.982.982,0,0,1-.751-.375,40.45,40.45,0,0,1-4.747.32.685.685,0,0,1-.651-.751.631.631,0,0,1,.618-.684c.518-.012,1.059-.033,1.612-.067v-.275h-1.4a.63.63,0,0,1,0-1.259h1.4V550.1h-.949a.885.885,0,0,1-1.016-.994v-1.512c0-.673.331-.994,1.016-.994h.949v-.176h-1.667c-.751,0-.751-1.259,0-1.259h1.667v-.187c-.4.011-.8.011-1.2.011a.657.657,0,1,1-.022-1.314,21.9,21.9,0,0,0,3.7-.2,1.218,1.218,0,0,1,.188-.022.668.668,0,0,1,.707.662.679.679,0,0,1-.608.662,11.575,11.575,0,0,1-1.2.144v.242h1.578a.47.47,0,0,1,.265.067.588.588,0,0,1,.552-.475h.221v-.783c0-.718,1.479-.718,1.479,0v.783h.795a1,1,0,0,1,1.092,1.115v1.325C494.353,552.459,494.309,553.363,493.007,553.363Zm-6.127-5.685H486.2v.188h.684Zm0,1.137H486.2v.221h.684Zm2.2-1.137H488.3v.188h.773Zm0,1.137H488.3v.221h.773Zm1.91-2.517h-.221a.556.556,0,0,1-.353-.133.524.524,0,0,1-.464.255h-1.578v.176h1.037a.894.894,0,0,1,1.027.994V549.1a.9.9,0,0,1-1.027.994h-1.037v.188h1.413a.631.631,0,0,1,0,1.259h-1.413v.22c.441-.032.894-.077,1.3-.132a.452.452,0,0,1,.121-.011.712.712,0,0,1,.42.143c.651-1.346.773-2.936.773-5.364Z" transform="translate(-396.263 -543.431)"/><path class="b" d="M357.58,553.366a.836.836,0,0,1-.364-.1,7.619,7.619,0,0,1-3.565-3.621,8.151,8.151,0,0,1-3.765,3.621.8.8,0,0,1-.364.088,1.106,1.106,0,0,1-.938-1.148.814.814,0,0,1,.442-.762,6.193,6.193,0,0,0,3.389-3.941h-2.992c-.927,0-.927-1.833,0-1.833h3.146v-1.546c0-.916,1.954-.916,1.954,0v1.546h3.146c.927,0,.927,1.833,0,1.833h-3a6.634,6.634,0,0,0,3.411,3.941.824.824,0,0,1,.431.762C358.508,552.76,358.11,553.366,357.58,553.366Z" transform="translate(-348.584 -543.435)"/><path class="b" d="M374.508,553.377a.76.76,0,0,1-.353-.1,7.828,7.828,0,0,1-3.51-3.7,7.975,7.975,0,0,1-3.8,3.731.722.722,0,0,1-.3.067c-.519,0-.983-.64-.983-1.214a.777.777,0,0,1,.464-.74,5.806,5.806,0,0,0,3.488-5.1v-2.175c0-.95,2.031-.95,2.031,0v2.175a6.226,6.226,0,0,0,3.532,5.078.767.767,0,0,1,.442.729C375.524,552.713,375.049,553.377,374.508,553.377Z" transform="translate(-354.538 -543.433)"/><path class="b" d="M388.4,553.623c-.044,0-.088.01-.122.01a.919.919,0,0,1-.949-.971.875.875,0,0,1,.74-.916,2.754,2.754,0,0,0,2.561-2.628,2.494,2.494,0,0,0-2.363-2.661,21.749,21.749,0,0,1-1.457,4.781,2.848,2.848,0,0,1-2.451,1.8c-.927,0-1.81-.662-2.1-2.174a5.368,5.368,0,0,1-.1-1.016,5.093,5.093,0,0,1,4.956-5.1c.166-.011.331-.011.5-.011,2.616,0,4.824,1.336,4.868,4.25v.077A4.412,4.412,0,0,1,388.4,553.623Zm-4.449-3.841a3.79,3.79,0,0,0,.055.618c.077.4.275.6.486.6s.441-.188.618-.53a18.222,18.222,0,0,0,1.3-3.93A3.3,3.3,0,0,0,383.947,549.781Z" transform="translate(-360.355 -543.889)"/><path class="b" d="M407.606,547.48v.651c0,1.987-.573,4.315-4.161,5.144a1.64,1.64,0,0,1-.309.033,1.029,1.029,0,0,1-1.037-1.05.814.814,0,0,1,.651-.838c2.5-.563,2.915-1.821,2.915-3.289v-.651h-2.594v1.976c0,1.082-1.931,1.082-1.931,0V547.48h-1.17c-1.027,0-1.027-1.9,0-1.9h1.17v-1.236c0-1.093,1.931-1.093,1.931,0v1.236h2.594v-1.236c0-1.071,1.942-1.071,1.942,0v1.236h1.225c1.038,0,1.038,1.9,0,1.9Z" transform="translate(-366.328 -543.464)"/><path class="b" d="M425.37,551.475h-6.976c-1.115,0-1.115-2.031,0-2.031h6.976a.918.918,0,0,1,.851,1.027A.9.9,0,0,1,425.37,551.475Z" transform="translate(-372.765 -545.539)"/><path class="b" d="M443.3,546.535c-.376,3.3-2.3,6.149-7.055,6.7a.592.592,0,0,1-.143.012,1.006,1.006,0,0,1-.994-1.072.9.9,0,0,1,.783-.949c3.422-.485,5.023-2.119,5.409-4.592h-3.631a9.076,9.076,0,0,1-2.153,1.855,1.117,1.117,0,0,1-.575.176,1.106,1.106,0,0,1-1.048-1.082.789.789,0,0,1,.386-.685,7.881,7.881,0,0,0,2.793-2.969.88.88,0,0,1,.827-.486c.53,0,1.071.342,1.071.85a.891.891,0,0,1-.055.276,1.383,1.383,0,0,0-.1.242h3.08a1.263,1.263,0,0,1,1.425,1.392C443.318,546.314,443.306,546.413,443.3,546.535Z" transform="translate(-378.491 -543.436)"/><path class="b" d="M451.887,553.162a1.09,1.09,0,0,1-.618.21,1.167,1.167,0,0,1-1.093-1.148.844.844,0,0,1,.386-.718,3.79,3.79,0,0,0,1.579-3.465v-3.422c0-1.137,2.02-1.137,2.02,0v3.422C454.161,550.27,453.565,551.959,451.887,553.162Zm8.754-4.039a6.665,6.665,0,0,1-4.008,4.007,1.817,1.817,0,0,1-.607.11,1.142,1.142,0,0,1-1.17-1.27v-7.385c0-1.17,2-1.17,2,0v6.071a4.461,4.461,0,0,0,2-2.351.875.875,0,0,1,.816-.608,1.067,1.067,0,0,1,1.038,1.049A1.179,1.179,0,0,1,460.641,549.123Z" transform="translate(-384.2 -543.528)"/><path class="b" d="M469.637,548.29a.513.513,0,0,1-.3-.088c-.5-.3-1.016-.607-1.413-.794a.618.618,0,0,1-.342-.586.95.95,0,0,1,.806-.96.593.593,0,0,1,.287.077c.431.221.894.508,1.423.827a.657.657,0,0,1,.31.574C470.41,547.793,470.046,548.29,469.637,548.29Zm.96,1.435a23.165,23.165,0,0,1-1.291,3.246.679.679,0,0,1-.629.409,1.022,1.022,0,0,1-.983-.983,1.009,1.009,0,0,1,.144-.5,16.27,16.27,0,0,0,1.214-2.782.6.6,0,0,1,.607-.453.98.98,0,0,1,.972.861A.626.626,0,0,1,470.6,549.725Zm-.75-3.776a.64.64,0,0,1-.375-.132c-.486-.331-.95-.629-1.358-.883a.6.6,0,0,1-.3-.53.984.984,0,0,1,.872-.938.63.63,0,0,1,.331.1c.431.264.939.6,1.38.927a.66.66,0,0,1,.254.53A.933.933,0,0,1,469.847,545.949Zm6.767-.839c-.42.078-.817.133-1.2.177-.232.022-.464.044-.684.055v.673h2.219c.772,0,.772,1.677,0,1.677h-2.219v.706h1.259a.933.933,0,0,1,1.06,1.049v2.716a.937.937,0,0,1-1.06,1.06h-4.206a.925.925,0,0,1-1.037-1.06v-2.716a.922.922,0,0,1,1.037-1.049h1.16v-.706h-1.988c-.75,0-.75-1.677,0-1.677h1.988v-.563c-.5.01-1.027.01-1.59.01-.431-.01-.673-.452-.673-.883s.221-.817.673-.817a32.848,32.848,0,0,0,4.913-.309.451.451,0,0,1,.121-.011.873.873,0,0,1,.8.927A.688.688,0,0,1,476.614,545.11Zm-1.347,4.913h-2.749V551.6h2.749Z" transform="translate(-390.303 -543.436)"/><path class="b" d="M493.007,553.363c-.232,0-.508-.033-.828-.066-.343-.045-.5-.386-.5-.751,0-.419.209-.86.552-.86.022,0,.055.011.077.011a.912.912,0,0,0,.166.022c.386,0,.408-.618.408-5.421h-.419v.089c0,3.135-.21,4.945-1.214,6.7a.582.582,0,0,1-.519.288.982.982,0,0,1-.751-.375,40.45,40.45,0,0,1-4.747.32.685.685,0,0,1-.651-.751.631.631,0,0,1,.618-.684c.518-.012,1.059-.033,1.612-.067v-.275h-1.4a.63.63,0,0,1,0-1.259h1.4V550.1h-.949a.885.885,0,0,1-1.016-.994v-1.512c0-.673.331-.994,1.016-.994h.949v-.176h-1.667c-.751,0-.751-1.259,0-1.259h1.667v-.187c-.4.011-.8.011-1.2.011a.657.657,0,1,1-.022-1.314,21.9,21.9,0,0,0,3.7-.2,1.218,1.218,0,0,1,.188-.022.668.668,0,0,1,.707.662.679.679,0,0,1-.608.662,11.575,11.575,0,0,1-1.2.144v.242h1.578a.47.47,0,0,1,.265.067.588.588,0,0,1,.552-.475h.221v-.783c0-.718,1.479-.718,1.479,0v.783h.795a1,1,0,0,1,1.092,1.115v1.325C494.353,552.459,494.309,553.363,493.007,553.363Zm-6.127-5.685H486.2v.188h.684Zm0,1.137H486.2v.221h.684Zm2.2-1.137H488.3v.188h.773Zm0,1.137H488.3v.221h.773Zm1.91-2.517h-.221a.556.556,0,0,1-.353-.133.524.524,0,0,1-.464.255h-1.578v.176h1.037a.894.894,0,0,1,1.027.994V549.1a.9.9,0,0,1-1.027.994h-1.037v.188h1.413a.631.631,0,0,1,0,1.259h-1.413v.22c.441-.032.894-.077,1.3-.132a.452.452,0,0,1,.121-.011.712.712,0,0,1,.42.143c.651-1.346.773-2.936.773-5.364Z" transform="translate(-396.263 -543.431)"/></g><g transform="translate(193.549 499.59)"><line class="g" x2="297.436" transform="translate(0.649 0.649)"/><path class="b" d="M492.318,535.62H194.881a.649.649,0,0,1,0-1.3H492.318a.649.649,0,0,1,0,1.3Z" transform="translate(-194.232 -534.321)"/></g></g></svg>