<svg xmlns="http://www.w3.org/2000/svg" width="45.695" height="45.7" viewBox="0 0 45.695 45.7">
  <path id="Path_1" data-name="Path 1" d="M423.213,375.878l-7.39-7.39a1.667,1.667,0,0,0-2.358,0l-31.2,29.966a1.666,1.666,0,0,0-.416.693l-3.774,12.4a1.667,1.667,0,0,0,2.08,2.08l12.8-3.9h0l30.26-31.5a1.667,1.667,0,0,0,0-2.349ZM383.67,409.513l-1.48-1.48,2.175-7.15,4.2,2.258,2.258,4.2ZM418.523,374.7,391.94,401.45l-1.689-1.689L417,373.177l1.519,1.518Z" transform="translate(-378.003 -367.999)" fill="#fff"/>
</svg>
