<svg xmlns="http://www.w3.org/2000/svg" width="51.367" height="44.575" viewBox="0 0 51.367 44.575"><g transform="translate(-378 -372.231)"><rect width="7.655" height="5.468" transform="translate(414.801 380.006)"/><path d="M431.689,419.091a7.26,7.26,0,1,0,7.26,7.261A7.261,7.261,0,0,0,431.689,419.091Z" transform="translate(-27.796 -28.055)"/><path d="M378,372.231v44.575h51.367V372.231Zm7.352,24.622a2.314,2.314,0,1,1,2.314-2.313A2.315,2.315,0,0,1,385.352,396.853Zm18.542,12.625a11.181,11.181,0,1,1,11.181-11.18A11.181,11.181,0,0,1,403.893,409.478ZM425.03,387.8h-9.985a15.281,15.281,0,0,0-22.3,0h-10.4V376.57H425.03Z"/></g></svg>