<svg xmlns="http://www.w3.org/2000/svg" width="282.752" height="103.04" viewBox="0 0 282.752 103.04"><defs><style>.a{fill:#ffe72c;}</style></defs><path class="a" d="M-111.96-18.56c.96-.08,1.92-.08,1.92.72.56.24,2-.4,1.92.4a30.925,30.925,0,0,0,14.64-2.72c1.12.16,1.28-.72,1.92-1.12,1.2.16,1.44-.56,2.24-.8a10.783,10.783,0,0,1,4.24-2.24c1.84-2.72,4.4-4.56,6.56-6.96.72-1.68,1.36-3.44,2.64-4.56a12.158,12.158,0,0,1,2.32-5.76c.08-4,1.68-6.56,1.2-11.2a9.055,9.055,0,0,1-1.2-3.84C-75-57.6-75.8-59.2-77-60.48A11.239,11.239,0,0,1-80.44-62H-86.6c-.56.08-.64.64-1.12.8a41.024,41.024,0,0,0-13.12,8.4c-1.04.08-.64,1.68-1.92,1.6-.48.64-.96,1.28-1.52,1.92a14.51,14.51,0,0,0-1.92,1.92c-.96.24-.8,1.68-1.92,1.92-1.12,1.2-1.92,2.88-3.44,3.84,0,1.12-.88,1.36-1.52,1.92-.56,1.84-2,2.8-2.72,4.56-.8.48-.88,1.68-1.52,2.32-1.84,3.04-3.92,5.84-5.36,9.2-1.04.96-1.36,2.32-1.92,3.44-.96,2-1.76,3.76-2.72,5.44-1.04,1.76-2.48,3.36-3.04,5.36a3.8,3.8,0,0,0-1.2,2.32c-.4.8-1.44,1.04-1.52,2.24-1.44,2.32-3.68,5.76-3.04,8.88,0,.56-.08,1.28.72,1.12.64,1.2,1.76-.32,2.72,0a7.777,7.777,0,0,1,1.52-2.32c.32-2.24,2.48-2.56,2.32-5.36.56-.72,2-.56,1.92-1.92.56-.08.32-.88.4-1.52.72-.08,1.28-.24,1.52-.8.32-2.4,2.64-2.96,3.04-5.36,1.12.24,1.04-1.2,1.2-1.52.16-.48,1.28-1.2,1.52-1.52.32-.4.8-.8,1.12-1.2,1.12-1.68,2.4-3.2,3.52-4.96C-113.72-20.4-112.84-19.52-111.96-18.56Zm-.4-4.64c-.4-1.84,1.6-1.28,1.6-2.72.72-.64,1.76-1.04,1.92-2.24,1.68-1.04,2.48-2.88,3.84-4.24,1.2-1.36,3.12-2.32,3.84-4.24,1.44-1.04,3.28-1.92,3.44-4.64-.16-.88-1.2-.8-1.52-1.52-2.16.48-3.04,2.16-4.24,3.44-2,.48-2.24,2.64-3.84,3.52-.72,1.84-2.48,2.64-3.44,4.16-.4.88-1.28,1.36-1.92,1.92a7.313,7.313,0,0,1-1.92,1.6c-.64,1.92-1.92,3.2-2.72,4.96a5.515,5.515,0,0,0-1.92,1.92c-.88.4-.64,1.92-1.92,1.92.48-1.44,1.68-2.16,1.52-4.24,1.6-1.44,2.32-3.52,3.44-5.36a21.575,21.575,0,0,1,3.84-4.64c.8-2.96,2.56-4.88,4.24-6.88,3.28-5.52,9.2-8.48,13.04-13.44,1.68-.24,2.4-1.52,3.84-1.92,1.2-.64,2-1.6,3.52-1.92a1.584,1.584,0,0,1,1.12-1.12c1.68.48,2.4.16,4.24,0,.8.8,2.24,1.04,3.44,1.52.72,1.28,2.96,3.68,3.04,5.76.08.48.64,2.24-.72,2.32.32.64,1.04.96.72,2.24-.56,1.68-.64,3.92-1.92,5.04-1.04,5.6-4.4,8.88-7.28,12.64-2.48,1.68-4.8,3.68-7.68,5.04a64.288,64.288,0,0,1-9.6,3.04C-106.28-21.36-110.36-21.2-112.36-23.2ZM-67.24-8.32c.64-.72,1.92-1.12,2.48-1.92,3.6-1.84,5.04-4.24,4.16-6.72-2,.16-3.6,1.6-5.28,2.08-1.36.8-1.36,1.92-2.96,2.56-2.08,1.2-4,2.08-6.08,3.2-2.16,1.12-4.4,2.4-7.28,2.64-1.04.88-3.44,2.24-5.04,1.2.32-2.4,2.48-2.96,3.44-4.64,1.76-1.12,3.6-5.04,5.6-5.84,1.52-1.12,1.92-3.52,3.92-4.24.64-2.16,3.04-2.56,3.44-4.96-.88-.56-.32-2.48-1.92-2.32-1.44-.4-1.2.8-1.92,1.12a18.5,18.5,0,0,1-1.92,1.6c-.32.8-1.44.8-1.52,1.92-.8.32-1.68.64-1.92,1.52-2.64,1.92-5.44,6.8-7.92,8.88-1.28.96-3.28,4.24-4,5.76a6.045,6.045,0,0,0-.24,3.52c-.08,1.28,1.28,1.2,1.52,2.24,1.68-.4,3.76,0,5.76-.32.16-.08.96-.72,1.12-.8.8-.24,1.52.48,1.92-.4,2.08-.88,4.64-1.28,6.56-2.32.08-.48,2.56-1.68,2.72-1.12C-71.72-7.36-68.28-7.12-67.24-8.32Zm6.88-36.56c1.28.64,4,1.36,5.04,0a15.324,15.324,0,0,0-1.2-5.76C-60.44-51.36-60.44-48.16-60.36-44.88Zm38.88,29.6c-2.4.88-4.08,3.12-6.24,4.24a50.439,50.439,0,0,0-6.96,3.28c-2.72.64-4.56,2.72-7.28,3.36-1.04.56-2.64.64-3.84,1.12C-48.84-1.84-53.48-2-57.72-1.76c-2.08-.8-4.16-1.68-4.96-3.84-1.12-3.84.8-4.24,1.6-7.36.56-.56.96-1.28,1.92-1.52.32-2.16,2.64-2.24,3.04-4.16.72-.64,1.6-1.04,1.6-2.32,1.28.64,1.2-.88,1.52-1.2.48-.4,1.28-.56,1.52-1.12.96.32,1.44-.48,1.92-.8.32-.08.88.16,1.12,0,.24-.08,0-1.12.8-.72s.8.4.4-.4a5.192,5.192,0,0,1,5.76.4,7.22,7.22,0,0,1,.72,2.24c.16,2.16-1.28,2.96-1.52,4.24a15.375,15.375,0,0,0,0,1.92c2.4,2,4.32-.16,5.36-1.12.24-.56-.4-2,.4-1.92-.96-3.44-1.68-7.04-3.44-9.6-8.72-1.52-14.16,3.44-18.48,7.68-2.4,2-3.92,4.96-6.08,7.28-.32,1.6-1.68,3.84-1.84,5.44-.24,2.72.32,2.4.24,4.96,1.04.4,1.28,1.6,1.52,2.72,1.68.4,2.64,1.44,3.84,2.32,2.64.56,6,.32,9.2.4A18.23,18.23,0,0,1-44.6.72c.08-.8,1.68-.08,1.92-.72,0-.88,1.6-.16,2.24-.4,1.12-1.12,3.12-1.28,4.4-2.16,1.2.08,1.12-1.2,2.72-.72.24-1.12,1.52-1.2,2.32-1.44.08,0,.56-.8.72-.88,1.2-.56,2.56-1.28,3.68-1.92,1.92-.4,6.16-3.28,6.72-5.12C-18.84-16.08-20.12-16.08-21.48-15.28ZM10.28-5.12C16.12-8.16,26.12-14.08,26.6-17.2c-.48-.88-1.12-2.24-2.48-2.4a15.675,15.675,0,0,1-5.44,4.16C13.72-10.88,3.56-4.64-4.12-4.64c-2,0-5.68-2-5.84-5.6.24-3.44,4.56-3.92,6.96-4.64,2.64-.8,5.04-1.36,6.48-1.92.48-.16.8-.64,1.2-.8.88-.32,1.84-.4,2.64-.72.8-.24,1.36-1.2,2.4-1.2h.32c.8-1.36,2.32-2,3.44-3.04a14.659,14.659,0,0,0,1.2-5.28c0-3.04-1.84-3.6-3.76-3.6-4.64,0-7.84,2.24-10.08,3.52-.72.4-1.76.32-2.32.72-.8.56-.72,1.44-1.52,1.6-1.84.08-2.72,1.44-3.84,2.24-3.36,2.4-7.2,4.88-11.2,7.36a9.818,9.818,0,0,1,2.32-2.72,37,37,0,0,0,5.36-6.88c2.08-.56,3.12-2.88,4.64-4.24.72-.64,1.68-1.2,1.92-2.32,2.24-2.24,4.8-4.16,6.88-6.56C5-39.84,5.8-42.16,8.12-42.88c.56-.56.24-1.84.72-2.32a3.521,3.521,0,0,0,.8.16c2.08,0,1.6-2.48,4.64-2.48H15.4c0-1.36,5.84-6,8.08-9.2.96-1.04,2.56-1.52,2.64-3.44-1.04-.56-.96-1.2-1.92-1.2-2.16,0-2.72,1.92-3.84,2.72-1.36.64-2.32,1.76-3.84,2.32-2,3.04-5.68,4.48-7.68,7.68-.96,0-2.24,1.52-2.24,1.52C4.28-45.04,2.2-41.76.44-41.36a11.147,11.147,0,0,1-1.2,1.52c-.4.48-1.52.64-1.52.88,0,.08.08.32.08.48,0,.4-1.28,1.04-1.6,1.36-2.72,2.24-4.48,5.2-6.88,7.68-1.44,1.2-2.16,3.2-4.24,3.84a1.189,1.189,0,0,1,.08.48c0,.64-.72.48-.88,1.04h-.16c-.64,0-.32,1.12-.96,1.12-.16,1.52-1.92,1.04-1.92,2.72-2,1.04-1.2,2.32-3.12,3.44v.24c0,1.2-1.2,1.12-1.2,2.32a1.562,1.562,0,0,0,.08.56c-2.08,1.36-2.72,3.6-4.8,6.48-.56.8-.88.08-1.04,1.28-1.36,1.2-5.36,4.88-5.36,7.68,0,.72.48,1.92,1.52,1.92.88,0,1.68-.88,2.8-.88.16,0,.32.08.48.08C-28.2.24-27.08,0-25.8-2.08c1.36-2.24,4.4-3.92,5.52-6,3.44-3.2,3.36-4.24,6.48-5.68a13.791,13.791,0,0,0-.8,3.36c0,.8.88,2.32,1.2,4C-11-4.16-8.2-.88-3.4-.88h.64C-.12-1.84,3-2.32,5.72-3.2,7.48-3.44,9.32-3.92,10.28-5.12ZM8.92-27.52a2.689,2.689,0,0,1,1.52.32c0,5.44-12.56,8.32-20,10A20.24,20.24,0,0,1-3.4-21.76c3.52-2.08,7.44-3.92,11.12-5.76ZM57.4-11.2c-2.72,2-6.96,4.72-10.64,5.44a6.7,6.7,0,0,1-4.16-.8c.64-3.28,5.76-7.36,7.76-9.36s3.84-4.32,5.76-6.48c.4-.72.72-.96.72-1.6.08-.4.24-.16.4-.32.56-.88.88-3.68-.72-3.84-.56-1.12-1.92.08-2.32.32a4.446,4.446,0,0,1-1.92,1.92c-.64.56-1.52.8-1.52,1.92-1.2.4-1.6,1.52-2.32,2.32-2.32,2.48-7.04,7.12-8.56,10.08-1.92.64-3.36,2.08-4.96,3.12-1.84,1.04-3.68,1.84-5.44,3.04-3.28.64-6.4,3.28-10.32,1.92-.64-3.44,2-3.92,2.48-6.32,1.12-.48,4.72-6,5.44-6.96.88-.8,2.32-1.92,2.56-3.36,1.84-1.68,4.16-2.8,3.84-6.48-.88-.56-1.28-1.6-3.04-1.2-1.2-.16-1.12.96-1.52,1.52-.16.96-4.24,4.32-4.08,5.52-1.36.8-8.16,11.44-9.12,12.64-.56,1.44-.72,3.2-1.2,4.64.96,1.2,1.04,3.36,2.72,3.84a7.363,7.363,0,0,0,4.24.4c.56-.08,1.28.08,1.92,0,3.2-.56,6.32-2.48,9.2-3.12a10.449,10.449,0,0,1,4.96-3.04c.64,1.2,1.12,2.48,2.32,3.04,1.76,0,3.6.8,5.36.8a11.016,11.016,0,0,1,3.12-.72c3.76-.8,8.8-4.8,9.04-4.72s5.28-3.28,5.28-3.28a25.628,25.628,0,0,0-1.36-3.44C61.08-13.6,58.6-12.16,57.4-11.2Zm57.52-12.56c-2.4,1.2-18.48,8.96-20.24,8.96a.864.864,0,0,1-.56-.24,41.648,41.648,0,0,0,1.12-8.4v-.8l-.4-.72c0-.96.4-1.84.4-2.8v-.32a1.57,1.57,0,0,1-.4-1.52c-1.6-1.76-2.8-3.52-5.36-3.52-2.8,0-16.96,8.24-17.68,10.4-1.68.16-10.88,8.72-12.24,10.4A94.86,94.86,0,0,1,52.6-5.44c-1.12,3.12-12.8,16.4-11.84,18.88-.96.48-3.68,5.76-3.52,6.88-1.04.16-.88,1.68-1.92,1.92l.08.72c0,.88-.8,1.44-.8,2.32-.96.48-.24,2.16-1.12,2.72a34.585,34.585,0,0,1-2,6.16c.08,1.84-.48,5.44.8,6.88h.32c4.48,0,12.88-14.08,15.04-17.68.96-1.68,2.4-2.96,3.44-4.56a1.137,1.137,0,0,1,.8-1.2c1.92-2.64,7.44-12.24,9.6-13.44-.08-1.12,1.04-1.44.72-2.64,1.76-.56,7.68-9.84,9.6-11.92,1.28,2.32,2.32,4.96,4.24,6.88a14.976,14.976,0,0,0,4.24.4H83c.24-.88,2.24-.24,2.4-1.2a10.652,10.652,0,0,1,2.24-.8A75.472,75.472,0,0,1,94.76-9.2a6.435,6.435,0,0,1,3.44-1.92c.16-.48,13.44-6.72,14.56-7.2.08,0,4.96-5.28,4.8-5.28ZM87.56-29.2a8.458,8.458,0,0,1,3.12.72,11.321,11.321,0,0,1,.96,4.88c0,3.68-1.2,9.04-3.52,12-.64.24-2.08.64-2,1.52-2.4,0-4.72,1.36-6.8,1.36-2.8,0-3.36-3.2-5.2-4.4a5.234,5.234,0,0,1,1.36-2.64c1.12-1.84,3.44-5.68,3.76-7.68a10,10,0,0,0,2.96-3.12c1.84.08,2.32-1.76,4.24-1.52.16-.4.64-.64.72-1.12ZM70.28-18.08c.4-.08.48,0,.48.24,0,1.6-2.96,5.68-3.92,7.04C66.52-9.44,65-8.88,64.92-7.36c-3.68,2.72-5.84,8-8.8,11.52v.8h-.8c-.48.72-.32,1.6-.8,2.32A1.536,1.536,0,0,0,53.4,8.8c-1.52,2.4-3.52,4.48-4.96,6.88-1.04-.08-.48,1.12-.8,1.6l-.8.32c-.64,1.04-1.68,2.48-2.24,3.52v.72c-1.52,1.2-1.84,3.52-3.52,4.64a5.052,5.052,0,0,1-2.24,3.04c-.48,1.12-.96,2.4-2.32,2.72a1.156,1.156,0,0,0,.16-.56c0-.48-.56-.88-.56-1.44,0-.16.24-.24.4-.32.24-.8,1.12-.72.72-1.92.56-1.68,1.36-2.8,1.2-4.64.88-1.04,1.12-2.64,2.32-3.44V18c1.44-1.28,1.6-3.28,3.04-4.56.16-2.24,2.16-3.04,2.72-5.04.48-.64,6-8.64,6.08-8.8,1.52-.48,2.48-3.68,3.84-3.84,0-1.28,1.36-1.28,1.6-2.32.8-.32.48-1.84,1.52-1.92,1.6-.96,2.16-2.96,3.84-3.84.96-1.52,2.96-2,3.44-3.84,1.12,0,1.52-.88,2.32-1.52A1.911,1.911,0,0,0,70.28-18.08ZM143-51.6c-4.32,4.32-8.08,9.28-12.24,13.84-3.12,3.04-5.2,7.04-8.48,9.92-.56.48-.16,1.92-1.12,1.92-.72.4-.64,1.44-1.52,1.6a14.382,14.382,0,0,1-1.92,3.84c-.72,1.44-2,2.16-1.2,4.16.96.8,3.36.48,3.84-.32.72-.08-.56-1.84.4-2.32,1.68-2.24,3.2-4.48,4.96-6.56s3.92-3.92,5.04-6.48c1.28-.16,1.6-1.6,2.32-2.32.72-.8,1.52-1.52,2.24-2.32,1.44-1.6,2.64-3.52,4.64-4.64.4-1.6,1.92-2.16,2.32-3.84,1.52-1.44,3.36-2.48,4.24-4.56C145.72-50.72,145.24-52.08,143-51.6ZM109.24-5.92c-1.2,1.6-4,4.48-1.92,6.88h1.92c.88-1.04,1.36-2.48,2.72-3.04,1.36.24,1.44-.8,2.64-.8C115.4-6.56,111.8-6.72,109.24-5.92Z" transform="translate(136.232 62)"/></svg>